ISO-10303-21;
HEADER;
/* Generated by software containing ST-Developer
 * from STEP Tools, Inc. (www.steptools.com) 
 */
/* OPTION: using custom renumber hook */

FILE_DESCRIPTION(
/* description */ ('STEP AP242',
'CAx-IF Rec.Pracs.---Representation and Presentation of Product Manufa
cturing Information (PMI)---4.0---2014-10-13',
'CAx-IF Rec.Pracs.---3D Tessellated Geometry---0.4---2014-09-14','2;1'),

/* implementation_level */ '2;1');

FILE_NAME(
/* name */ '68740123d1955a75fb7b3293',
/* time_stamp */ '2025-07-13T18:55:31Z',
/* author */ (''),
/* organization */ (''),
/* preprocessor_version */ 'ST-DEVELOPER v20',
/* originating_system */ 'ONSHAPE BY PTC INC, 1.200',
/* authorisation */ '  ');

FILE_SCHEMA (('AP242_MANAGED_MODEL_BASED_3D_ENGINEERING_MIM_LF { 1 0 10303 442 1 1 4 }'));
ENDSEC;

DATA;
#10=SHAPE_REPRESENTATION_RELATIONSHIP('','',#1212,#11);
#11=ADVANCED_BREP_SHAPE_REPRESENTATION('',(#1210),#1946);
#12=OVER_RIDING_STYLED_ITEM('',(#1053),#1012,#1051);
#13=OVER_RIDING_STYLED_ITEM('',(#1054),#1013,#1051);
#14=OVER_RIDING_STYLED_ITEM('',(#1055),#1014,#1051);
#15=OVER_RIDING_STYLED_ITEM('',(#1056),#1015,#1051);
#16=OVER_RIDING_STYLED_ITEM('',(#1057),#1016,#1051);
#17=OVER_RIDING_STYLED_ITEM('',(#1058),#1017,#1051);
#18=OVER_RIDING_STYLED_ITEM('',(#1059),#1018,#1051);
#19=OVER_RIDING_STYLED_ITEM('',(#1060),#1019,#1051);
#20=OVER_RIDING_STYLED_ITEM('',(#1061),#1020,#1051);
#21=OVER_RIDING_STYLED_ITEM('',(#1062),#1021,#1051);
#22=OVER_RIDING_STYLED_ITEM('',(#1063),#1022,#1051);
#23=OVER_RIDING_STYLED_ITEM('',(#1064),#1036,#1051);
#24=OVER_RIDING_STYLED_ITEM('',(#1065),#1037,#1051);
#25=OVER_RIDING_STYLED_ITEM('',(#1066),#1038,#1051);
#26=OVER_RIDING_STYLED_ITEM('',(#1067),#1039,#1051);
#27=OVER_RIDING_STYLED_ITEM('',(#1068),#1040,#1051);
#28=OVER_RIDING_STYLED_ITEM('',(#1069),#1041,#1051);
#29=OVER_RIDING_STYLED_ITEM('',(#1070),#1042,#1051);
#30=OVER_RIDING_STYLED_ITEM('',(#1071),#1043,#1051);
#31=OVER_RIDING_STYLED_ITEM('',(#1072),#1044,#1051);
#32=OVER_RIDING_STYLED_ITEM('',(#1073),#1045,#1051);
#33=OVER_RIDING_STYLED_ITEM('',(#1074),#1046,#1051);
#34=OVER_RIDING_STYLED_ITEM('',(#1075),#1047,#1051);
#35=OVER_RIDING_STYLED_ITEM('',(#1076),#1048,#1051);
#36=OVER_RIDING_STYLED_ITEM('',(#1077),#1049,#1051);
#37=B_SPLINE_CURVE_WITH_KNOTS('',3,(#1827,#1828,#1829,#1830,#1831,#1832,
#1833),.UNSPECIFIED.,.F.,.F.,(4,1,1,1,4),(0.,0.00110620514576843,0.00221241029153686,
0.00331861543730528,0.00442482058307371),.UNSPECIFIED.);
#38=B_SPLINE_CURVE_WITH_KNOTS('',3,(#1838,#1839,#1840,#1841),
 .UNSPECIFIED.,.F.,.F.,(4,4),(0.,0.00222042146549466),.UNSPECIFIED.);
#39=B_SPLINE_CURVE_WITH_KNOTS('',3,(#1843,#1844,#1845,#1846),
 .UNSPECIFIED.,.F.,.F.,(4,4),(2.60943652725551E-19,0.00203047765516834),
 .UNSPECIFIED.);
#40=B_SPLINE_CURVE_WITH_KNOTS('',3,(#1855,#1856,#1857,#1858),
 .UNSPECIFIED.,.F.,.F.,(4,4),(0.,0.00201725027395716),.UNSPECIFIED.);
#41=B_SPLINE_CURVE_WITH_KNOTS('',3,(#1860,#1861,#1862,#1863),
 .UNSPECIFIED.,.F.,.F.,(4,4),(8.80209215519859E-19,0.00222252288304985),
 .UNSPECIFIED.);
#42=CONICAL_SURFACE('',#1276,0.00225,0.785398163397448);
#43=CONICAL_SURFACE('',#1279,0.00225,0.785398163397448);
#44=CONICAL_SURFACE('',#1282,0.00225,0.785398163397448);
#45=CONICAL_SURFACE('',#1285,0.00225,0.785398163397448);
#46=CONICAL_SURFACE('',#1304,0.00925,0.785398163397448);
#47=CONICAL_SURFACE('',#1307,0.00925,0.785398163397448);
#48=CONICAL_SURFACE('',#1310,0.00336,0.785398163397449);
#49=CONICAL_SURFACE('',#1313,0.00336,0.785398163397449);
#50=LINE('',#1644,#120);
#51=LINE('',#1649,#121);
#52=LINE('',#1653,#122);
#53=LINE('',#1660,#123);
#54=LINE('',#1665,#124);
#55=LINE('',#1669,#125);
#56=LINE('',#1689,#126);
#57=LINE('',#1693,#127);
#58=LINE('',#1694,#128);
#59=LINE('',#1699,#129);
#60=LINE('',#1703,#130);
#61=LINE('',#1707,#131);
#62=LINE('',#1711,#132);
#63=LINE('',#1714,#133);
#64=LINE('',#1719,#134);
#65=LINE('',#1723,#135);
#66=LINE('',#1727,#136);
#67=LINE('',#1732,#137);
#68=LINE('',#1736,#138);
#69=LINE('',#1745,#139);
#70=LINE('',#1750,#140);
#71=LINE('',#1754,#141);
#72=LINE('',#1758,#142);
#73=LINE('',#1762,#143);
#74=LINE('',#1775,#144);
#75=LINE('',#1780,#145);
#76=LINE('',#1783,#146);
#77=LINE('',#1788,#147);
#78=LINE('',#1792,#148);
#79=LINE('',#1795,#149);
#80=LINE('',#1800,#150);
#81=LINE('',#1804,#151);
#82=LINE('',#1808,#152);
#83=LINE('',#1810,#153);
#84=LINE('',#1812,#154);
#85=LINE('',#1814,#155);
#86=LINE('',#1818,#156);
#87=LINE('',#1820,#157);
#88=LINE('',#1870,#158);
#89=LINE('',#1871,#159);
#90=LINE('',#1873,#160);
#91=LINE('',#1874,#161);
#92=LINE('',#1876,#162);
#93=LINE('',#1877,#163);
#94=LINE('',#1879,#164);
#95=LINE('',#1880,#165);
#96=LINE('',#1882,#166);
#97=LINE('',#1883,#167);
#98=LINE('',#1885,#168);
#99=LINE('',#1886,#169);
#100=LINE('',#1888,#170);
#101=LINE('',#1889,#171);
#102=LINE('',#1891,#172);
#103=LINE('',#1892,#173);
#104=LINE('',#1894,#174);
#105=LINE('',#1895,#175);
#106=LINE('',#1897,#176);
#107=LINE('',#1898,#177);
#108=LINE('',#1900,#178);
#109=LINE('',#1901,#179);
#110=LINE('',#1907,#180);
#111=LINE('',#1908,#181);
#112=LINE('',#1910,#182);
#113=LINE('',#1912,#183);
#114=LINE('',#1923,#184);
#115=LINE('',#1924,#185);
#116=LINE('',#1926,#186);
#117=LINE('',#1927,#187);
#118=LINE('',#1929,#188);
#119=LINE('',#1930,#189);
#120=VECTOR('',#1341,1.);
#121=VECTOR('',#1344,1.);
#122=VECTOR('',#1347,1.);
#123=VECTOR('',#1354,1.);
#124=VECTOR('',#1357,1.);
#125=VECTOR('',#1360,1.);
#126=VECTOR('',#1379,1.);
#127=VECTOR('',#1382,1.);
#128=VECTOR('',#1383,1.);
#129=VECTOR('',#1386,1.);
#130=VECTOR('',#1389,1.);
#131=VECTOR('',#1392,1.);
#132=VECTOR('',#1395,1.);
#133=VECTOR('',#1398,1.);
#134=VECTOR('',#1401,1.);
#135=VECTOR('',#1404,1.);
#136=VECTOR('',#1409,1.);
#137=VECTOR('',#1412,1.);
#138=VECTOR('',#1415,1.);
#139=VECTOR('',#1424,1.);
#140=VECTOR('',#1427,1.);
#141=VECTOR('',#1430,1.);
#142=VECTOR('',#1433,1.);
#143=VECTOR('',#1436,1.);
#144=VECTOR('',#1449,1.);
#145=VECTOR('',#1452,1.);
#146=VECTOR('',#1455,1.);
#147=VECTOR('',#1458,1.);
#148=VECTOR('',#1461,1.);
#149=VECTOR('',#1464,1.);
#150=VECTOR('',#1467,1.);
#151=VECTOR('',#1470,1.);
#152=VECTOR('',#1475,1.);
#153=VECTOR('',#1476,1.);
#154=VECTOR('',#1477,1.);
#155=VECTOR('',#1480,1.);
#156=VECTOR('',#1485,1.);
#157=VECTOR('',#1486,1.);
#158=VECTOR('',#1525,1.);
#159=VECTOR('',#1526,1.);
#160=VECTOR('',#1529,1.);
#161=VECTOR('',#1530,1.);
#162=VECTOR('',#1533,1.);
#163=VECTOR('',#1534,1.);
#164=VECTOR('',#1537,1.);
#165=VECTOR('',#1538,1.);
#166=VECTOR('',#1541,1.);
#167=VECTOR('',#1542,1.);
#168=VECTOR('',#1545,1.);
#169=VECTOR('',#1546,1.);
#170=VECTOR('',#1549,1.);
#171=VECTOR('',#1550,1.);
#172=VECTOR('',#1553,1.);
#173=VECTOR('',#1554,1.);
#174=VECTOR('',#1557,1.);
#175=VECTOR('',#1558,1.);
#176=VECTOR('',#1561,1.);
#177=VECTOR('',#1562,1.);
#178=VECTOR('',#1565,1.);
#179=VECTOR('',#1566,1.);
#180=VECTOR('',#1575,1.);
#181=VECTOR('',#1576,1.);
#182=VECTOR('',#1579,1.);
#183=VECTOR('',#1582,1.);
#184=VECTOR('',#1599,1.);
#185=VECTOR('',#1600,1.);
#186=VECTOR('',#1603,1.);
#187=VECTOR('',#1604,1.);
#188=VECTOR('',#1607,1.);
#189=VECTOR('',#1608,1.);
#190=PLANE('',#1217);
#191=PLANE('',#1243);
#192=PLANE('',#1268);
#193=PLANE('',#1271);
#194=PLANE('',#1289);
#195=PLANE('',#1290);
#196=PLANE('',#1291);
#197=PLANE('',#1292);
#198=PLANE('',#1293);
#199=PLANE('',#1294);
#200=PLANE('',#1295);
#201=PLANE('',#1296);
#202=PLANE('',#1297);
#203=PLANE('',#1298);
#204=PLANE('',#1299);
#205=PLANE('',#1300);
#206=PLANE('',#1301);
#207=PLANE('',#1305);
#208=PLANE('',#1306);
#209=PLANE('',#1314);
#210=PLANE('',#1315);
#211=PLANE('',#1316);
#212=ORIENTED_EDGE('',*,*,#484,.T.);
#213=ORIENTED_EDGE('',*,*,#485,.F.);
#214=ORIENTED_EDGE('',*,*,#486,.F.);
#215=ORIENTED_EDGE('',*,*,#487,.T.);
#216=ORIENTED_EDGE('',*,*,#488,.F.);
#217=ORIENTED_EDGE('',*,*,#489,.T.);
#218=ORIENTED_EDGE('',*,*,#490,.F.);
#219=ORIENTED_EDGE('',*,*,#491,.T.);
#220=ORIENTED_EDGE('',*,*,#492,.T.);
#221=ORIENTED_EDGE('',*,*,#493,.T.);
#222=ORIENTED_EDGE('',*,*,#494,.F.);
#223=ORIENTED_EDGE('',*,*,#495,.T.);
#224=ORIENTED_EDGE('',*,*,#496,.F.);
#225=ORIENTED_EDGE('',*,*,#497,.T.);
#226=ORIENTED_EDGE('',*,*,#498,.F.);
#227=ORIENTED_EDGE('',*,*,#499,.T.);
#228=ORIENTED_EDGE('',*,*,#500,.F.);
#229=ORIENTED_EDGE('',*,*,#501,.F.);
#230=ORIENTED_EDGE('',*,*,#502,.T.);
#231=ORIENTED_EDGE('',*,*,#503,.T.);
#232=ORIENTED_EDGE('',*,*,#504,.T.);
#233=ORIENTED_EDGE('',*,*,#505,.T.);
#234=ORIENTED_EDGE('',*,*,#506,.T.);
#235=ORIENTED_EDGE('',*,*,#507,.T.);
#236=ORIENTED_EDGE('',*,*,#508,.T.);
#237=ORIENTED_EDGE('',*,*,#509,.T.);
#238=ORIENTED_EDGE('',*,*,#510,.T.);
#239=ORIENTED_EDGE('',*,*,#511,.F.);
#240=ORIENTED_EDGE('',*,*,#512,.T.);
#241=ORIENTED_EDGE('',*,*,#513,.T.);
#242=ORIENTED_EDGE('',*,*,#514,.T.);
#243=ORIENTED_EDGE('',*,*,#515,.T.);
#244=ORIENTED_EDGE('',*,*,#516,.T.);
#245=ORIENTED_EDGE('',*,*,#517,.T.);
#246=ORIENTED_EDGE('',*,*,#518,.T.);
#247=ORIENTED_EDGE('',*,*,#519,.T.);
#248=ORIENTED_EDGE('',*,*,#520,.T.);
#249=ORIENTED_EDGE('',*,*,#521,.F.);
#250=ORIENTED_EDGE('',*,*,#522,.T.);
#251=ORIENTED_EDGE('',*,*,#523,.T.);
#252=ORIENTED_EDGE('',*,*,#524,.T.);
#253=ORIENTED_EDGE('',*,*,#525,.F.);
#254=ORIENTED_EDGE('',*,*,#526,.T.);
#255=ORIENTED_EDGE('',*,*,#527,.T.);
#256=ORIENTED_EDGE('',*,*,#528,.T.);
#257=ORIENTED_EDGE('',*,*,#529,.T.);
#258=ORIENTED_EDGE('',*,*,#530,.T.);
#259=ORIENTED_EDGE('',*,*,#531,.T.);
#260=ORIENTED_EDGE('',*,*,#532,.T.);
#261=ORIENTED_EDGE('',*,*,#533,.F.);
#262=ORIENTED_EDGE('',*,*,#534,.F.);
#263=ORIENTED_EDGE('',*,*,#535,.F.);
#264=ORIENTED_EDGE('',*,*,#536,.F.);
#265=ORIENTED_EDGE('',*,*,#537,.T.);
#266=ORIENTED_EDGE('',*,*,#538,.T.);
#267=ORIENTED_EDGE('',*,*,#539,.T.);
#268=ORIENTED_EDGE('',*,*,#540,.F.);
#269=ORIENTED_EDGE('',*,*,#541,.T.);
#270=ORIENTED_EDGE('',*,*,#542,.F.);
#271=ORIENTED_EDGE('',*,*,#543,.T.);
#272=ORIENTED_EDGE('',*,*,#544,.F.);
#273=ORIENTED_EDGE('',*,*,#545,.T.);
#274=ORIENTED_EDGE('',*,*,#546,.T.);
#275=ORIENTED_EDGE('',*,*,#547,.F.);
#276=ORIENTED_EDGE('',*,*,#548,.F.);
#277=ORIENTED_EDGE('',*,*,#549,.F.);
#278=ORIENTED_EDGE('',*,*,#550,.F.);
#279=ORIENTED_EDGE('',*,*,#551,.T.);
#280=ORIENTED_EDGE('',*,*,#552,.F.);
#281=ORIENTED_EDGE('',*,*,#553,.F.);
#282=ORIENTED_EDGE('',*,*,#554,.F.);
#283=ORIENTED_EDGE('',*,*,#555,.T.);
#284=ORIENTED_EDGE('',*,*,#556,.T.);
#285=ORIENTED_EDGE('',*,*,#557,.T.);
#286=ORIENTED_EDGE('',*,*,#558,.T.);
#287=ORIENTED_EDGE('',*,*,#559,.T.);
#288=ORIENTED_EDGE('',*,*,#560,.T.);
#289=ORIENTED_EDGE('',*,*,#561,.F.);
#290=ORIENTED_EDGE('',*,*,#562,.T.);
#291=ORIENTED_EDGE('',*,*,#563,.T.);
#292=ORIENTED_EDGE('',*,*,#564,.T.);
#293=ORIENTED_EDGE('',*,*,#565,.T.);
#294=ORIENTED_EDGE('',*,*,#566,.T.);
#295=ORIENTED_EDGE('',*,*,#567,.F.);
#296=ORIENTED_EDGE('',*,*,#568,.T.);
#297=ORIENTED_EDGE('',*,*,#569,.T.);
#298=ORIENTED_EDGE('',*,*,#551,.F.);
#299=ORIENTED_EDGE('',*,*,#570,.F.);
#300=ORIENTED_EDGE('',*,*,#571,.T.);
#301=ORIENTED_EDGE('',*,*,#567,.T.);
#302=ORIENTED_EDGE('',*,*,#554,.T.);
#303=ORIENTED_EDGE('',*,*,#572,.F.);
#304=ORIENTED_EDGE('',*,*,#573,.T.);
#305=ORIENTED_EDGE('',*,*,#570,.T.);
#306=ORIENTED_EDGE('',*,*,#553,.T.);
#307=ORIENTED_EDGE('',*,*,#569,.F.);
#308=ORIENTED_EDGE('',*,*,#574,.T.);
#309=ORIENTED_EDGE('',*,*,#572,.T.);
#310=ORIENTED_EDGE('',*,*,#552,.T.);
#311=ORIENTED_EDGE('',*,*,#575,.F.);
#312=ORIENTED_EDGE('',*,*,#550,.T.);
#313=ORIENTED_EDGE('',*,*,#575,.T.);
#314=ORIENTED_EDGE('',*,*,#505,.F.);
#315=ORIENTED_EDGE('',*,*,#576,.T.);
#316=ORIENTED_EDGE('',*,*,#577,.F.);
#317=ORIENTED_EDGE('',*,*,#549,.T.);
#318=ORIENTED_EDGE('',*,*,#577,.T.);
#319=ORIENTED_EDGE('',*,*,#578,.T.);
#320=ORIENTED_EDGE('',*,*,#579,.T.);
#321=ORIENTED_EDGE('',*,*,#507,.F.);
#322=ORIENTED_EDGE('',*,*,#580,.F.);
#323=ORIENTED_EDGE('',*,*,#548,.T.);
#324=ORIENTED_EDGE('',*,*,#580,.T.);
#325=ORIENTED_EDGE('',*,*,#502,.F.);
#326=ORIENTED_EDGE('',*,*,#581,.F.);
#327=ORIENTED_EDGE('',*,*,#547,.T.);
#328=ORIENTED_EDGE('',*,*,#581,.T.);
#329=ORIENTED_EDGE('',*,*,#582,.T.);
#330=ORIENTED_EDGE('',*,*,#583,.T.);
#331=ORIENTED_EDGE('',*,*,#503,.F.);
#332=ORIENTED_EDGE('',*,*,#501,.T.);
#333=ORIENTED_EDGE('',*,*,#546,.F.);
#334=ORIENTED_EDGE('',*,*,#584,.F.);
#335=ORIENTED_EDGE('',*,*,#500,.T.);
#336=ORIENTED_EDGE('',*,*,#484,.F.);
#337=ORIENTED_EDGE('',*,*,#584,.T.);
#338=ORIENTED_EDGE('',*,*,#513,.F.);
#339=ORIENTED_EDGE('',*,*,#585,.T.);
#340=ORIENTED_EDGE('',*,*,#536,.T.);
#341=ORIENTED_EDGE('',*,*,#586,.T.);
#342=ORIENTED_EDGE('',*,*,#538,.F.);
#343=ORIENTED_EDGE('',*,*,#587,.T.);
#344=ORIENTED_EDGE('',*,*,#511,.T.);
#345=ORIENTED_EDGE('',*,*,#588,.T.);
#346=ORIENTED_EDGE('',*,*,#540,.T.);
#347=ORIENTED_EDGE('',*,*,#589,.T.);
#348=ORIENTED_EDGE('',*,*,#519,.F.);
#349=ORIENTED_EDGE('',*,*,#590,.T.);
#350=ORIENTED_EDGE('',*,*,#517,.F.);
#351=ORIENTED_EDGE('',*,*,#591,.T.);
#352=ORIENTED_EDGE('',*,*,#542,.T.);
#353=ORIENTED_EDGE('',*,*,#592,.T.);
#354=ORIENTED_EDGE('',*,*,#544,.T.);
#355=ORIENTED_EDGE('',*,*,#593,.T.);
#356=ORIENTED_EDGE('',*,*,#515,.F.);
#357=ORIENTED_EDGE('',*,*,#594,.T.);
#358=ORIENTED_EDGE('',*,*,#559,.F.);
#359=ORIENTED_EDGE('',*,*,#595,.T.);
#360=ORIENTED_EDGE('',*,*,#494,.T.);
#361=ORIENTED_EDGE('',*,*,#596,.T.);
#362=ORIENTED_EDGE('',*,*,#498,.T.);
#363=ORIENTED_EDGE('',*,*,#597,.T.);
#364=ORIENTED_EDGE('',*,*,#555,.F.);
#365=ORIENTED_EDGE('',*,*,#598,.T.);
#366=ORIENTED_EDGE('',*,*,#557,.F.);
#367=ORIENTED_EDGE('',*,*,#599,.T.);
#368=ORIENTED_EDGE('',*,*,#496,.T.);
#369=ORIENTED_EDGE('',*,*,#600,.T.);
#370=ORIENTED_EDGE('',*,*,#561,.T.);
#371=ORIENTED_EDGE('',*,*,#601,.T.);
#372=ORIENTED_EDGE('',*,*,#523,.F.);
#373=ORIENTED_EDGE('',*,*,#602,.T.);
#374=ORIENTED_EDGE('',*,*,#563,.F.);
#375=ORIENTED_EDGE('',*,*,#603,.T.);
#376=ORIENTED_EDGE('',*,*,#521,.T.);
#377=ORIENTED_EDGE('',*,*,#604,.T.);
#378=ORIENTED_EDGE('',*,*,#525,.T.);
#379=ORIENTED_EDGE('',*,*,#605,.T.);
#380=ORIENTED_EDGE('',*,*,#565,.F.);
#381=ORIENTED_EDGE('',*,*,#606,.T.);
#382=ORIENTED_EDGE('',*,*,#607,.T.);
#383=ORIENTED_EDGE('',*,*,#485,.T.);
#384=ORIENTED_EDGE('',*,*,#607,.F.);
#385=ORIENTED_EDGE('',*,*,#535,.T.);
#386=ORIENTED_EDGE('',*,*,#608,.F.);
#387=ORIENTED_EDGE('',*,*,#571,.F.);
#388=ORIENTED_EDGE('',*,*,#609,.F.);
#389=ORIENTED_EDGE('',*,*,#578,.F.);
#390=ORIENTED_EDGE('',*,*,#506,.F.);
#391=ORIENTED_EDGE('',*,*,#576,.F.);
#392=ORIENTED_EDGE('',*,*,#504,.F.);
#393=ORIENTED_EDGE('',*,*,#583,.F.);
#394=ORIENTED_EDGE('',*,*,#609,.T.);
#395=ORIENTED_EDGE('',*,*,#573,.F.);
#396=ORIENTED_EDGE('',*,*,#610,.F.);
#397=ORIENTED_EDGE('',*,*,#508,.F.);
#398=ORIENTED_EDGE('',*,*,#579,.F.);
#399=ORIENTED_EDGE('',*,*,#582,.F.);
#400=ORIENTED_EDGE('',*,*,#510,.F.);
#401=ORIENTED_EDGE('',*,*,#611,.F.);
#402=ORIENTED_EDGE('',*,*,#568,.F.);
#403=ORIENTED_EDGE('',*,*,#608,.T.);
#404=ORIENTED_EDGE('',*,*,#610,.T.);
#405=ORIENTED_EDGE('',*,*,#574,.F.);
#406=ORIENTED_EDGE('',*,*,#611,.T.);
#407=ORIENTED_EDGE('',*,*,#509,.F.);
#408=ORIENTED_EDGE('',*,*,#612,.F.);
#409=ORIENTED_EDGE('',*,*,#534,.T.);
#410=ORIENTED_EDGE('',*,*,#612,.T.);
#411=ORIENTED_EDGE('',*,*,#493,.F.);
#412=ORIENTED_EDGE('',*,*,#613,.F.);
#413=ORIENTED_EDGE('',*,*,#533,.T.);
#414=ORIENTED_EDGE('',*,*,#613,.T.);
#415=ORIENTED_EDGE('',*,*,#492,.F.);
#416=ORIENTED_EDGE('',*,*,#531,.F.);
#417=ORIENTED_EDGE('',*,*,#614,.T.);
#418=ORIENTED_EDGE('',*,*,#486,.T.);
#419=ORIENTED_EDGE('',*,*,#615,.T.);
#420=ORIENTED_EDGE('',*,*,#490,.T.);
#421=ORIENTED_EDGE('',*,*,#616,.T.);
#422=ORIENTED_EDGE('',*,*,#527,.F.);
#423=ORIENTED_EDGE('',*,*,#617,.T.);
#424=ORIENTED_EDGE('',*,*,#488,.T.);
#425=ORIENTED_EDGE('',*,*,#618,.T.);
#426=ORIENTED_EDGE('',*,*,#529,.F.);
#427=ORIENTED_EDGE('',*,*,#619,.T.);
#428=ORIENTED_EDGE('',*,*,#530,.F.);
#429=ORIENTED_EDGE('',*,*,#618,.F.);
#430=ORIENTED_EDGE('',*,*,#487,.F.);
#431=ORIENTED_EDGE('',*,*,#614,.F.);
#432=ORIENTED_EDGE('',*,*,#528,.F.);
#433=ORIENTED_EDGE('',*,*,#616,.F.);
#434=ORIENTED_EDGE('',*,*,#489,.F.);
#435=ORIENTED_EDGE('',*,*,#619,.F.);
#436=ORIENTED_EDGE('',*,*,#532,.F.);
#437=ORIENTED_EDGE('',*,*,#615,.F.);
#438=ORIENTED_EDGE('',*,*,#491,.F.);
#439=ORIENTED_EDGE('',*,*,#617,.F.);
#440=ORIENTED_EDGE('',*,*,#556,.F.);
#441=ORIENTED_EDGE('',*,*,#597,.F.);
#442=ORIENTED_EDGE('',*,*,#497,.F.);
#443=ORIENTED_EDGE('',*,*,#599,.F.);
#444=ORIENTED_EDGE('',*,*,#558,.F.);
#445=ORIENTED_EDGE('',*,*,#600,.F.);
#446=ORIENTED_EDGE('',*,*,#495,.F.);
#447=ORIENTED_EDGE('',*,*,#595,.F.);
#448=ORIENTED_EDGE('',*,*,#560,.F.);
#449=ORIENTED_EDGE('',*,*,#596,.F.);
#450=ORIENTED_EDGE('',*,*,#499,.F.);
#451=ORIENTED_EDGE('',*,*,#598,.F.);
#452=ORIENTED_EDGE('',*,*,#537,.F.);
#453=ORIENTED_EDGE('',*,*,#585,.F.);
#454=ORIENTED_EDGE('',*,*,#512,.F.);
#455=ORIENTED_EDGE('',*,*,#587,.F.);
#456=ORIENTED_EDGE('',*,*,#543,.F.);
#457=ORIENTED_EDGE('',*,*,#591,.F.);
#458=ORIENTED_EDGE('',*,*,#516,.F.);
#459=ORIENTED_EDGE('',*,*,#593,.F.);
#460=ORIENTED_EDGE('',*,*,#545,.F.);
#461=ORIENTED_EDGE('',*,*,#594,.F.);
#462=ORIENTED_EDGE('',*,*,#514,.F.);
#463=ORIENTED_EDGE('',*,*,#586,.F.);
#464=ORIENTED_EDGE('',*,*,#539,.F.);
#465=ORIENTED_EDGE('',*,*,#588,.F.);
#466=ORIENTED_EDGE('',*,*,#520,.F.);
#467=ORIENTED_EDGE('',*,*,#589,.F.);
#468=ORIENTED_EDGE('',*,*,#541,.F.);
#469=ORIENTED_EDGE('',*,*,#590,.F.);
#470=ORIENTED_EDGE('',*,*,#518,.F.);
#471=ORIENTED_EDGE('',*,*,#592,.F.);
#472=ORIENTED_EDGE('',*,*,#566,.F.);
#473=ORIENTED_EDGE('',*,*,#605,.F.);
#474=ORIENTED_EDGE('',*,*,#524,.F.);
#475=ORIENTED_EDGE('',*,*,#601,.F.);
#476=ORIENTED_EDGE('',*,*,#562,.F.);
#477=ORIENTED_EDGE('',*,*,#602,.F.);
#478=ORIENTED_EDGE('',*,*,#522,.F.);
#479=ORIENTED_EDGE('',*,*,#603,.F.);
#480=ORIENTED_EDGE('',*,*,#564,.F.);
#481=ORIENTED_EDGE('',*,*,#604,.F.);
#482=ORIENTED_EDGE('',*,*,#526,.F.);
#483=ORIENTED_EDGE('',*,*,#606,.F.);
#484=EDGE_CURVE('',#620,#620,#717,.T.);
#485=EDGE_CURVE('',#621,#621,#718,.F.);
#486=EDGE_CURVE('',#622,#623,#50,.T.);
#487=EDGE_CURVE('',#622,#624,#719,.F.);
#488=EDGE_CURVE('',#625,#624,#51,.T.);
#489=EDGE_CURVE('',#625,#626,#720,.F.);
#490=EDGE_CURVE('',#627,#626,#52,.T.);
#491=EDGE_CURVE('',#627,#623,#721,.F.);
#492=EDGE_CURVE('',#628,#628,#722,.T.);
#493=EDGE_CURVE('',#629,#629,#723,.T.);
#494=EDGE_CURVE('',#630,#631,#53,.T.);
#495=EDGE_CURVE('',#630,#632,#724,.F.);
#496=EDGE_CURVE('',#633,#632,#54,.T.);
#497=EDGE_CURVE('',#633,#634,#725,.F.);
#498=EDGE_CURVE('',#635,#634,#55,.T.);
#499=EDGE_CURVE('',#635,#631,#726,.F.);
#500=EDGE_CURVE('',#636,#636,#727,.T.);
#501=EDGE_CURVE('',#637,#637,#728,.T.);
#502=EDGE_CURVE('',#638,#638,#729,.T.);
#503=EDGE_CURVE('',#639,#640,#730,.T.);
#504=EDGE_CURVE('',#640,#641,#731,.T.);
#505=EDGE_CURVE('',#641,#642,#732,.T.);
#506=EDGE_CURVE('',#642,#643,#733,.T.);
#507=EDGE_CURVE('',#643,#644,#734,.T.);
#508=EDGE_CURVE('',#644,#645,#56,.T.);
#509=EDGE_CURVE('',#645,#646,#735,.T.);
#510=EDGE_CURVE('',#646,#639,#57,.T.);
#511=EDGE_CURVE('',#647,#648,#58,.T.);
#512=EDGE_CURVE('',#647,#649,#736,.F.);
#513=EDGE_CURVE('',#649,#650,#59,.T.);
#514=EDGE_CURVE('',#650,#651,#737,.F.);
#515=EDGE_CURVE('',#651,#652,#60,.T.);
#516=EDGE_CURVE('',#652,#653,#738,.F.);
#517=EDGE_CURVE('',#653,#654,#61,.T.);
#518=EDGE_CURVE('',#654,#655,#739,.F.);
#519=EDGE_CURVE('',#655,#656,#62,.T.);
#520=EDGE_CURVE('',#656,#648,#740,.F.);
#521=EDGE_CURVE('',#657,#658,#63,.T.);
#522=EDGE_CURVE('',#657,#659,#741,.F.);
#523=EDGE_CURVE('',#659,#660,#64,.T.);
#524=EDGE_CURVE('',#660,#661,#742,.F.);
#525=EDGE_CURVE('',#662,#661,#65,.T.);
#526=EDGE_CURVE('',#662,#658,#743,.F.);
#527=EDGE_CURVE('',#663,#664,#66,.T.);
#528=EDGE_CURVE('',#664,#665,#744,.T.);
#529=EDGE_CURVE('',#665,#666,#67,.T.);
#530=EDGE_CURVE('',#666,#667,#745,.T.);
#531=EDGE_CURVE('',#667,#668,#68,.T.);
#532=EDGE_CURVE('',#668,#663,#746,.T.);
#533=EDGE_CURVE('',#669,#669,#747,.F.);
#534=EDGE_CURVE('',#670,#670,#748,.F.);
#535=EDGE_CURVE('',#671,#671,#749,.T.);
#536=EDGE_CURVE('',#672,#673,#69,.T.);
#537=EDGE_CURVE('',#672,#674,#750,.T.);
#538=EDGE_CURVE('',#674,#675,#70,.T.);
#539=EDGE_CURVE('',#675,#676,#751,.T.);
#540=EDGE_CURVE('',#677,#676,#71,.T.);
#541=EDGE_CURVE('',#677,#678,#752,.T.);
#542=EDGE_CURVE('',#679,#678,#72,.T.);
#543=EDGE_CURVE('',#679,#680,#753,.T.);
#544=EDGE_CURVE('',#681,#680,#73,.T.);
#545=EDGE_CURVE('',#681,#673,#754,.T.);
#546=EDGE_CURVE('',#682,#682,#755,.T.);
#547=EDGE_CURVE('',#683,#683,#756,.F.);
#548=EDGE_CURVE('',#684,#684,#757,.F.);
#549=EDGE_CURVE('',#685,#685,#758,.F.);
#550=EDGE_CURVE('',#686,#686,#759,.F.);
#551=EDGE_CURVE('',#687,#688,#74,.T.);
#552=EDGE_CURVE('',#689,#688,#760,.T.);
#553=EDGE_CURVE('',#690,#689,#75,.T.);
#554=EDGE_CURVE('',#687,#690,#761,.T.);
#555=EDGE_CURVE('',#691,#692,#76,.T.);
#556=EDGE_CURVE('',#692,#693,#762,.T.);
#557=EDGE_CURVE('',#693,#694,#77,.T.);
#558=EDGE_CURVE('',#694,#695,#763,.T.);
#559=EDGE_CURVE('',#695,#696,#78,.T.);
#560=EDGE_CURVE('',#696,#691,#764,.T.);
#561=EDGE_CURVE('',#697,#698,#79,.T.);
#562=EDGE_CURVE('',#697,#699,#765,.T.);
#563=EDGE_CURVE('',#699,#700,#80,.T.);
#564=EDGE_CURVE('',#700,#701,#766,.T.);
#565=EDGE_CURVE('',#701,#702,#81,.T.);
#566=EDGE_CURVE('',#702,#698,#767,.T.);
#567=EDGE_CURVE('',#703,#687,#82,.T.);
#568=EDGE_CURVE('',#703,#704,#83,.T.);
#569=EDGE_CURVE('',#704,#688,#84,.T.);
#570=EDGE_CURVE('',#705,#690,#85,.T.);
#571=EDGE_CURVE('',#705,#703,#768,.F.);
#572=EDGE_CURVE('',#706,#689,#86,.T.);
#573=EDGE_CURVE('',#706,#705,#87,.T.);
#574=EDGE_CURVE('',#704,#706,#769,.F.);
#575=EDGE_CURVE('',#707,#707,#770,.T.);
#576=EDGE_CURVE('',#641,#642,#37,.T.);
#577=EDGE_CURVE('',#708,#708,#771,.T.);
#578=EDGE_CURVE('',#643,#709,#38,.T.);
#579=EDGE_CURVE('',#709,#644,#39,.T.);
#580=EDGE_CURVE('',#710,#710,#772,.T.);
#581=EDGE_CURVE('',#711,#711,#773,.T.);
#582=EDGE_CURVE('',#639,#712,#40,.T.);
#583=EDGE_CURVE('',#712,#640,#41,.T.);
#584=EDGE_CURVE('',#713,#713,#774,.T.);
#585=EDGE_CURVE('',#649,#672,#88,.F.);
#586=EDGE_CURVE('',#673,#650,#89,.T.);
#587=EDGE_CURVE('',#674,#647,#90,.T.);
#588=EDGE_CURVE('',#648,#675,#91,.F.);
#589=EDGE_CURVE('',#676,#656,#92,.T.);
#590=EDGE_CURVE('',#655,#677,#93,.F.);
#591=EDGE_CURVE('',#653,#679,#94,.F.);
#592=EDGE_CURVE('',#678,#654,#95,.T.);
#593=EDGE_CURVE('',#680,#652,#96,.T.);
#594=EDGE_CURVE('',#651,#681,#97,.F.);
#595=EDGE_CURVE('',#695,#630,#98,.T.);
#596=EDGE_CURVE('',#631,#696,#99,.F.);
#597=EDGE_CURVE('',#634,#692,#100,.F.);
#598=EDGE_CURVE('',#691,#635,#101,.T.);
#599=EDGE_CURVE('',#693,#633,#102,.T.);
#600=EDGE_CURVE('',#632,#694,#103,.F.);
#601=EDGE_CURVE('',#698,#660,#104,.T.);
#602=EDGE_CURVE('',#659,#697,#105,.F.);
#603=EDGE_CURVE('',#699,#657,#106,.T.);
#604=EDGE_CURVE('',#658,#700,#107,.F.);
#605=EDGE_CURVE('',#661,#702,#108,.F.);
#606=EDGE_CURVE('',#701,#662,#109,.T.);
#607=EDGE_CURVE('',#714,#714,#775,.T.);
#608=EDGE_CURVE('',#703,#712,#110,.F.);
#609=EDGE_CURVE('',#709,#705,#111,.T.);
#610=EDGE_CURVE('',#645,#706,#112,.T.);
#611=EDGE_CURVE('',#704,#646,#113,.T.);
#612=EDGE_CURVE('',#715,#715,#776,.T.);
#613=EDGE_CURVE('',#716,#716,#777,.T.);
#614=EDGE_CURVE('',#667,#622,#114,.T.);
#615=EDGE_CURVE('',#623,#668,#115,.F.);
#616=EDGE_CURVE('',#626,#664,#116,.F.);
#617=EDGE_CURVE('',#663,#627,#117,.T.);
#618=EDGE_CURVE('',#624,#666,#118,.F.);
#619=EDGE_CURVE('',#665,#625,#119,.T.);
#620=VERTEX_POINT('',#1640);
#621=VERTEX_POINT('',#1642);
#622=VERTEX_POINT('',#1645);
#623=VERTEX_POINT('',#1646);
#624=VERTEX_POINT('',#1648);
#625=VERTEX_POINT('',#1650);
#626=VERTEX_POINT('',#1652);
#627=VERTEX_POINT('',#1654);
#628=VERTEX_POINT('',#1657);
#629=VERTEX_POINT('',#1659);
#630=VERTEX_POINT('',#1661);
#631=VERTEX_POINT('',#1662);
#632=VERTEX_POINT('',#1664);
#633=VERTEX_POINT('',#1666);
#634=VERTEX_POINT('',#1668);
#635=VERTEX_POINT('',#1670);
#636=VERTEX_POINT('',#1673);
#637=VERTEX_POINT('',#1675);
#638=VERTEX_POINT('',#1677);
#639=VERTEX_POINT('',#1679);
#640=VERTEX_POINT('',#1680);
#641=VERTEX_POINT('',#1682);
#642=VERTEX_POINT('',#1684);
#643=VERTEX_POINT('',#1686);
#644=VERTEX_POINT('',#1688);
#645=VERTEX_POINT('',#1690);
#646=VERTEX_POINT('',#1692);
#647=VERTEX_POINT('',#1695);
#648=VERTEX_POINT('',#1696);
#649=VERTEX_POINT('',#1698);
#650=VERTEX_POINT('',#1700);
#651=VERTEX_POINT('',#1702);
#652=VERTEX_POINT('',#1704);
#653=VERTEX_POINT('',#1706);
#654=VERTEX_POINT('',#1708);
#655=VERTEX_POINT('',#1710);
#656=VERTEX_POINT('',#1712);
#657=VERTEX_POINT('',#1715);
#658=VERTEX_POINT('',#1716);
#659=VERTEX_POINT('',#1718);
#660=VERTEX_POINT('',#1720);
#661=VERTEX_POINT('',#1722);
#662=VERTEX_POINT('',#1724);
#663=VERTEX_POINT('',#1728);
#664=VERTEX_POINT('',#1729);
#665=VERTEX_POINT('',#1731);
#666=VERTEX_POINT('',#1733);
#667=VERTEX_POINT('',#1735);
#668=VERTEX_POINT('',#1737);
#669=VERTEX_POINT('',#1740);
#670=VERTEX_POINT('',#1742);
#671=VERTEX_POINT('',#1744);
#672=VERTEX_POINT('',#1746);
#673=VERTEX_POINT('',#1747);
#674=VERTEX_POINT('',#1749);
#675=VERTEX_POINT('',#1751);
#676=VERTEX_POINT('',#1753);
#677=VERTEX_POINT('',#1755);
#678=VERTEX_POINT('',#1757);
#679=VERTEX_POINT('',#1759);
#680=VERTEX_POINT('',#1761);
#681=VERTEX_POINT('',#1763);
#682=VERTEX_POINT('',#1766);
#683=VERTEX_POINT('',#1768);
#684=VERTEX_POINT('',#1770);
#685=VERTEX_POINT('',#1772);
#686=VERTEX_POINT('',#1774);
#687=VERTEX_POINT('',#1776);
#688=VERTEX_POINT('',#1777);
#689=VERTEX_POINT('',#1779);
#690=VERTEX_POINT('',#1781);
#691=VERTEX_POINT('',#1784);
#692=VERTEX_POINT('',#1785);
#693=VERTEX_POINT('',#1787);
#694=VERTEX_POINT('',#1789);
#695=VERTEX_POINT('',#1791);
#696=VERTEX_POINT('',#1793);
#697=VERTEX_POINT('',#1796);
#698=VERTEX_POINT('',#1797);
#699=VERTEX_POINT('',#1799);
#700=VERTEX_POINT('',#1801);
#701=VERTEX_POINT('',#1803);
#702=VERTEX_POINT('',#1805);
#703=VERTEX_POINT('',#1809);
#704=VERTEX_POINT('',#1811);
#705=VERTEX_POINT('',#1815);
#706=VERTEX_POINT('',#1819);
#707=VERTEX_POINT('',#1825);
#708=VERTEX_POINT('',#1836);
#709=VERTEX_POINT('',#1842);
#710=VERTEX_POINT('',#1849);
#711=VERTEX_POINT('',#1853);
#712=VERTEX_POINT('',#1859);
#713=VERTEX_POINT('',#1867);
#714=VERTEX_POINT('',#1904);
#715=VERTEX_POINT('',#1916);
#716=VERTEX_POINT('',#1920);
#717=CIRCLE('',#1215,0.0065);
#718=CIRCLE('',#1216,0.0065);
#719=CIRCLE('',#1218,0.001);
#720=CIRCLE('',#1219,0.001);
#721=CIRCLE('',#1220,0.001);
#722=CIRCLE('',#1221,0.00336);
#723=CIRCLE('',#1222,0.00336);
#724=CIRCLE('',#1223,0.001);
#725=CIRCLE('',#1224,0.001);
#726=CIRCLE('',#1225,0.001);
#727=CIRCLE('',#1226,0.0075);
#728=CIRCLE('',#1227,0.00425);
#729=CIRCLE('',#1228,0.00225);
#730=CIRCLE('',#1229,0.00225);
#731=CIRCLE('',#1230,0.00925);
#732=CIRCLE('',#1231,0.00225);
#733=CIRCLE('',#1232,0.00925);
#734=CIRCLE('',#1233,0.00225);
#735=CIRCLE('',#1234,0.00925);
#736=CIRCLE('',#1235,0.001);
#737=CIRCLE('',#1236,0.001);
#738=CIRCLE('',#1237,0.001);
#739=CIRCLE('',#1238,0.001);
#740=CIRCLE('',#1239,0.001);
#741=CIRCLE('',#1240,0.001);
#742=CIRCLE('',#1241,0.001);
#743=CIRCLE('',#1242,0.001);
#744=CIRCLE('',#1244,0.001);
#745=CIRCLE('',#1245,0.001);
#746=CIRCLE('',#1246,0.001);
#747=CIRCLE('',#1247,0.0017);
#748=CIRCLE('',#1248,0.0017);
#749=CIRCLE('',#1249,0.0075);
#750=CIRCLE('',#1250,0.001);
#751=CIRCLE('',#1251,0.001);
#752=CIRCLE('',#1252,0.001);
#753=CIRCLE('',#1253,0.001);
#754=CIRCLE('',#1254,0.001);
#755=CIRCLE('',#1255,0.00425);
#756=CIRCLE('',#1256,0.0012);
#757=CIRCLE('',#1257,0.0012);
#758=CIRCLE('',#1258,0.0012);
#759=CIRCLE('',#1259,0.0012);
#760=CIRCLE('',#1260,0.01125);
#761=CIRCLE('',#1261,0.01125);
#762=CIRCLE('',#1262,0.001);
#763=CIRCLE('',#1263,0.001);
#764=CIRCLE('',#1264,0.001);
#765=CIRCLE('',#1265,0.001);
#766=CIRCLE('',#1266,0.001);
#767=CIRCLE('',#1267,0.001);
#768=CIRCLE('',#1270,0.01125);
#769=CIRCLE('',#1273,0.01125);
#770=CIRCLE('',#1275,0.0012);
#771=CIRCLE('',#1278,0.0012);
#772=CIRCLE('',#1281,0.0012);
#773=CIRCLE('',#1284,0.0012);
#774=CIRCLE('',#1288,0.0075);
#775=CIRCLE('',#1302,0.0075);
#776=CIRCLE('',#1309,0.0017);
#777=CIRCLE('',#1312,0.0017);
#778=EDGE_LOOP('',(#212));
#779=EDGE_LOOP('',(#213));
#780=EDGE_LOOP('',(#214,#215,#216,#217,#218,#219));
#781=EDGE_LOOP('',(#220));
#782=EDGE_LOOP('',(#221));
#783=EDGE_LOOP('',(#222,#223,#224,#225,#226,#227));
#784=EDGE_LOOP('',(#228));
#785=EDGE_LOOP('',(#229));
#786=EDGE_LOOP('',(#230));
#787=EDGE_LOOP('',(#231,#232,#233,#234,#235,#236,#237,#238));
#788=EDGE_LOOP('',(#239,#240,#241,#242,#243,#244,#245,#246,#247,#248));
#789=EDGE_LOOP('',(#249,#250,#251,#252,#253,#254));
#790=EDGE_LOOP('',(#255,#256,#257,#258,#259,#260));
#791=EDGE_LOOP('',(#261));
#792=EDGE_LOOP('',(#262));
#793=EDGE_LOOP('',(#263));
#794=EDGE_LOOP('',(#264,#265,#266,#267,#268,#269,#270,#271,#272,#273));
#795=EDGE_LOOP('',(#274));
#796=EDGE_LOOP('',(#275));
#797=EDGE_LOOP('',(#276));
#798=EDGE_LOOP('',(#277));
#799=EDGE_LOOP('',(#278));
#800=EDGE_LOOP('',(#279,#280,#281,#282));
#801=EDGE_LOOP('',(#283,#284,#285,#286,#287,#288));
#802=EDGE_LOOP('',(#289,#290,#291,#292,#293,#294));
#803=EDGE_LOOP('',(#295,#296,#297,#298));
#804=EDGE_LOOP('',(#299,#300,#301,#302));
#805=EDGE_LOOP('',(#303,#304,#305,#306));
#806=EDGE_LOOP('',(#307,#308,#309,#310));
#807=EDGE_LOOP('',(#311));
#808=EDGE_LOOP('',(#312));
#809=EDGE_LOOP('',(#313));
#810=EDGE_LOOP('',(#314,#315));
#811=EDGE_LOOP('',(#316));
#812=EDGE_LOOP('',(#317));
#813=EDGE_LOOP('',(#318));
#814=EDGE_LOOP('',(#319,#320,#321));
#815=EDGE_LOOP('',(#322));
#816=EDGE_LOOP('',(#323));
#817=EDGE_LOOP('',(#324));
#818=EDGE_LOOP('',(#325));
#819=EDGE_LOOP('',(#326));
#820=EDGE_LOOP('',(#327));
#821=EDGE_LOOP('',(#328));
#822=EDGE_LOOP('',(#329,#330,#331));
#823=EDGE_LOOP('',(#332));
#824=EDGE_LOOP('',(#333));
#825=EDGE_LOOP('',(#334));
#826=EDGE_LOOP('',(#335));
#827=EDGE_LOOP('',(#336));
#828=EDGE_LOOP('',(#337));
#829=EDGE_LOOP('',(#338,#339,#340,#341));
#830=EDGE_LOOP('',(#342,#343,#344,#345));
#831=EDGE_LOOP('',(#346,#347,#348,#349));
#832=EDGE_LOOP('',(#350,#351,#352,#353));
#833=EDGE_LOOP('',(#354,#355,#356,#357));
#834=EDGE_LOOP('',(#358,#359,#360,#361));
#835=EDGE_LOOP('',(#362,#363,#364,#365));
#836=EDGE_LOOP('',(#366,#367,#368,#369));
#837=EDGE_LOOP('',(#370,#371,#372,#373));
#838=EDGE_LOOP('',(#374,#375,#376,#377));
#839=EDGE_LOOP('',(#378,#379,#380,#381));
#840=EDGE_LOOP('',(#382));
#841=EDGE_LOOP('',(#383));
#842=EDGE_LOOP('',(#384));
#843=EDGE_LOOP('',(#385));
#844=EDGE_LOOP('',(#386,#387,#388,#389,#390,#391,#392,#393));
#845=EDGE_LOOP('',(#394,#395,#396,#397,#398));
#846=EDGE_LOOP('',(#399,#400,#401,#402,#403));
#847=EDGE_LOOP('',(#404,#405,#406,#407));
#848=EDGE_LOOP('',(#408));
#849=EDGE_LOOP('',(#409));
#850=EDGE_LOOP('',(#410));
#851=EDGE_LOOP('',(#411));
#852=EDGE_LOOP('',(#412));
#853=EDGE_LOOP('',(#413));
#854=EDGE_LOOP('',(#414));
#855=EDGE_LOOP('',(#415));
#856=EDGE_LOOP('',(#416,#417,#418,#419));
#857=EDGE_LOOP('',(#420,#421,#422,#423));
#858=EDGE_LOOP('',(#424,#425,#426,#427));
#859=EDGE_LOOP('',(#428,#429,#430,#431));
#860=EDGE_LOOP('',(#432,#433,#434,#435));
#861=EDGE_LOOP('',(#436,#437,#438,#439));
#862=EDGE_LOOP('',(#440,#441,#442,#443));
#863=EDGE_LOOP('',(#444,#445,#446,#447));
#864=EDGE_LOOP('',(#448,#449,#450,#451));
#865=EDGE_LOOP('',(#452,#453,#454,#455));
#866=EDGE_LOOP('',(#456,#457,#458,#459));
#867=EDGE_LOOP('',(#460,#461,#462,#463));
#868=EDGE_LOOP('',(#464,#465,#466,#467));
#869=EDGE_LOOP('',(#468,#469,#470,#471));
#870=EDGE_LOOP('',(#472,#473,#474,#475));
#871=EDGE_LOOP('',(#476,#477,#478,#479));
#872=EDGE_LOOP('',(#480,#481,#482,#483));
#873=FACE_BOUND('',#778,.T.);
#874=FACE_BOUND('',#779,.T.);
#875=FACE_BOUND('',#780,.T.);
#876=FACE_BOUND('',#781,.T.);
#877=FACE_BOUND('',#782,.T.);
#878=FACE_BOUND('',#783,.T.);
#879=FACE_BOUND('',#784,.T.);
#880=FACE_BOUND('',#785,.T.);
#881=FACE_BOUND('',#786,.T.);
#882=FACE_BOUND('',#787,.T.);
#883=FACE_BOUND('',#788,.T.);
#884=FACE_BOUND('',#789,.T.);
#885=FACE_BOUND('',#790,.T.);
#886=FACE_BOUND('',#791,.T.);
#887=FACE_BOUND('',#792,.T.);
#888=FACE_BOUND('',#793,.T.);
#889=FACE_BOUND('',#794,.T.);
#890=FACE_BOUND('',#795,.T.);
#891=FACE_BOUND('',#796,.T.);
#892=FACE_BOUND('',#797,.T.);
#893=FACE_BOUND('',#798,.T.);
#894=FACE_BOUND('',#799,.T.);
#895=FACE_BOUND('',#800,.T.);
#896=FACE_BOUND('',#801,.T.);
#897=FACE_BOUND('',#802,.T.);
#898=FACE_BOUND('',#803,.T.);
#899=FACE_BOUND('',#804,.T.);
#900=FACE_BOUND('',#805,.T.);
#901=FACE_BOUND('',#806,.T.);
#902=FACE_BOUND('',#807,.T.);
#903=FACE_BOUND('',#808,.T.);
#904=FACE_BOUND('',#809,.T.);
#905=FACE_BOUND('',#810,.T.);
#906=FACE_BOUND('',#811,.T.);
#907=FACE_BOUND('',#812,.T.);
#908=FACE_BOUND('',#813,.T.);
#909=FACE_BOUND('',#814,.T.);
#910=FACE_BOUND('',#815,.T.);
#911=FACE_BOUND('',#816,.T.);
#912=FACE_BOUND('',#817,.T.);
#913=FACE_BOUND('',#818,.T.);
#914=FACE_BOUND('',#819,.T.);
#915=FACE_BOUND('',#820,.T.);
#916=FACE_BOUND('',#821,.T.);
#917=FACE_BOUND('',#822,.T.);
#918=FACE_BOUND('',#823,.T.);
#919=FACE_BOUND('',#824,.T.);
#920=FACE_BOUND('',#825,.T.);
#921=FACE_BOUND('',#826,.T.);
#922=FACE_BOUND('',#827,.T.);
#923=FACE_BOUND('',#828,.T.);
#924=FACE_BOUND('',#829,.T.);
#925=FACE_BOUND('',#830,.T.);
#926=FACE_BOUND('',#831,.T.);
#927=FACE_BOUND('',#832,.T.);
#928=FACE_BOUND('',#833,.T.);
#929=FACE_BOUND('',#834,.T.);
#930=FACE_BOUND('',#835,.T.);
#931=FACE_BOUND('',#836,.T.);
#932=FACE_BOUND('',#837,.T.);
#933=FACE_BOUND('',#838,.T.);
#934=FACE_BOUND('',#839,.T.);
#935=FACE_BOUND('',#840,.T.);
#936=FACE_BOUND('',#841,.T.);
#937=FACE_BOUND('',#842,.T.);
#938=FACE_BOUND('',#843,.T.);
#939=FACE_BOUND('',#844,.T.);
#940=FACE_BOUND('',#845,.T.);
#941=FACE_BOUND('',#846,.T.);
#942=FACE_BOUND('',#847,.T.);
#943=FACE_BOUND('',#848,.T.);
#944=FACE_BOUND('',#849,.T.);
#945=FACE_BOUND('',#850,.T.);
#946=FACE_BOUND('',#851,.T.);
#947=FACE_BOUND('',#852,.T.);
#948=FACE_BOUND('',#853,.T.);
#949=FACE_BOUND('',#854,.T.);
#950=FACE_BOUND('',#855,.T.);
#951=FACE_BOUND('',#856,.T.);
#952=FACE_BOUND('',#857,.T.);
#953=FACE_BOUND('',#858,.T.);
#954=FACE_BOUND('',#859,.T.);
#955=FACE_BOUND('',#860,.T.);
#956=FACE_BOUND('',#861,.T.);
#957=FACE_BOUND('',#862,.T.);
#958=FACE_BOUND('',#863,.T.);
#959=FACE_BOUND('',#864,.T.);
#960=FACE_BOUND('',#865,.T.);
#961=FACE_BOUND('',#866,.T.);
#962=FACE_BOUND('',#867,.T.);
#963=FACE_BOUND('',#868,.T.);
#964=FACE_BOUND('',#869,.T.);
#965=FACE_BOUND('',#870,.T.);
#966=FACE_BOUND('',#871,.T.);
#967=FACE_BOUND('',#872,.T.);
#968=CYLINDRICAL_SURFACE('',#1214,0.0065);
#969=CYLINDRICAL_SURFACE('',#1269,0.01125);
#970=CYLINDRICAL_SURFACE('',#1272,0.01125);
#971=CYLINDRICAL_SURFACE('',#1274,0.0012);
#972=CYLINDRICAL_SURFACE('',#1277,0.0012);
#973=CYLINDRICAL_SURFACE('',#1280,0.0012);
#974=CYLINDRICAL_SURFACE('',#1283,0.0012);
#975=CYLINDRICAL_SURFACE('',#1286,0.00425);
#976=CYLINDRICAL_SURFACE('',#1287,0.0075);
#977=CYLINDRICAL_SURFACE('',#1303,0.0075);
#978=CYLINDRICAL_SURFACE('',#1308,0.0017);
#979=CYLINDRICAL_SURFACE('',#1311,0.0017);
#980=CYLINDRICAL_SURFACE('',#1317,0.001);
#981=CYLINDRICAL_SURFACE('',#1318,0.001);
#982=CYLINDRICAL_SURFACE('',#1319,0.001);
#983=CYLINDRICAL_SURFACE('',#1320,0.001);
#984=CYLINDRICAL_SURFACE('',#1321,0.001);
#985=CYLINDRICAL_SURFACE('',#1322,0.001);
#986=CYLINDRICAL_SURFACE('',#1323,0.001);
#987=CYLINDRICAL_SURFACE('',#1324,0.001);
#988=CYLINDRICAL_SURFACE('',#1325,0.001);
#989=CYLINDRICAL_SURFACE('',#1326,0.001);
#990=CYLINDRICAL_SURFACE('',#1327,0.001);
#991=CYLINDRICAL_SURFACE('',#1328,0.001);
#992=CYLINDRICAL_SURFACE('',#1329,0.001);
#993=CYLINDRICAL_SURFACE('',#1330,0.001);
#994=ADVANCED_FACE('',(#873,#874),#968,.F.);
#995=ADVANCED_FACE('',(#875,#876,#877,#878,#879,#880,#881,#882,#883,#884),
#190,.T.);
#996=ADVANCED_FACE('',(#885,#886,#887,#888,#889,#890,#891,#892,#893,#894,
#895,#896,#897),#191,.F.);
#997=ADVANCED_FACE('',(#898),#192,.T.);
#998=ADVANCED_FACE('',(#899),#969,.T.);
#999=ADVANCED_FACE('',(#900),#193,.F.);
#1000=ADVANCED_FACE('',(#901),#970,.T.);
#1001=ADVANCED_FACE('',(#902,#903),#971,.F.);
#1002=ADVANCED_FACE('',(#904,#905),#42,.F.);
#1003=ADVANCED_FACE('',(#906,#907),#972,.F.);
#1004=ADVANCED_FACE('',(#908,#909),#43,.F.);
#1005=ADVANCED_FACE('',(#910,#911),#973,.F.);
#1006=ADVANCED_FACE('',(#912,#913),#44,.F.);
#1007=ADVANCED_FACE('',(#914,#915),#974,.F.);
#1008=ADVANCED_FACE('',(#916,#917),#45,.F.);
#1009=ADVANCED_FACE('',(#918,#919),#975,.F.);
#1010=ADVANCED_FACE('',(#920,#921),#976,.F.);
#1011=ADVANCED_FACE('',(#922,#923),#194,.T.);
#1012=ADVANCED_FACE('',(#924),#195,.T.);
#1013=ADVANCED_FACE('',(#925),#196,.F.);
#1014=ADVANCED_FACE('',(#926),#197,.T.);
#1015=ADVANCED_FACE('',(#927),#198,.T.);
#1016=ADVANCED_FACE('',(#928),#199,.T.);
#1017=ADVANCED_FACE('',(#929),#200,.F.);
#1018=ADVANCED_FACE('',(#930),#201,.F.);
#1019=ADVANCED_FACE('',(#931),#202,.F.);
#1020=ADVANCED_FACE('',(#932),#203,.T.);
#1021=ADVANCED_FACE('',(#933),#204,.F.);
#1022=ADVANCED_FACE('',(#934),#205,.F.);
#1023=ADVANCED_FACE('',(#935,#936),#206,.T.);
#1024=ADVANCED_FACE('',(#937,#938),#977,.F.);
#1025=ADVANCED_FACE('',(#939),#46,.T.);
#1026=ADVANCED_FACE('',(#940),#207,.T.);
#1027=ADVANCED_FACE('',(#941),#208,.F.);
#1028=ADVANCED_FACE('',(#942),#47,.T.);
#1029=ADVANCED_FACE('',(#943,#944),#978,.F.);
#1030=ADVANCED_FACE('',(#945,#946),#48,.F.);
#1031=ADVANCED_FACE('',(#947,#948),#979,.F.);
#1032=ADVANCED_FACE('',(#949,#950),#49,.F.);
#1033=ADVANCED_FACE('',(#951),#209,.F.);
#1034=ADVANCED_FACE('',(#952),#210,.F.);
#1035=ADVANCED_FACE('',(#953),#211,.F.);
#1036=ADVANCED_FACE('',(#954),#980,.F.);
#1037=ADVANCED_FACE('',(#955),#981,.F.);
#1038=ADVANCED_FACE('',(#956),#982,.F.);
#1039=ADVANCED_FACE('',(#957),#983,.F.);
#1040=ADVANCED_FACE('',(#958),#984,.F.);
#1041=ADVANCED_FACE('',(#959),#985,.F.);
#1042=ADVANCED_FACE('',(#960),#986,.F.);
#1043=ADVANCED_FACE('',(#961),#987,.F.);
#1044=ADVANCED_FACE('',(#962),#988,.F.);
#1045=ADVANCED_FACE('',(#963),#989,.F.);
#1046=ADVANCED_FACE('',(#964),#990,.F.);
#1047=ADVANCED_FACE('',(#965),#991,.F.);
#1048=ADVANCED_FACE('',(#966),#992,.F.);
#1049=ADVANCED_FACE('',(#967),#993,.F.);
#1050=CLOSED_SHELL('',(#994,#995,#996,#997,#998,#999,#1000,#1001,#1002,
#1003,#1004,#1005,#1006,#1007,#1008,#1009,#1010,#1011,#1012,#1013,#1014,
#1015,#1016,#1017,#1018,#1019,#1020,#1021,#1022,#1023,#1024,#1025,#1026,
#1027,#1028,#1029,#1030,#1031,#1032,#1033,#1034,#1035,#1036,#1037,#1038,
#1039,#1040,#1041,#1042,#1043,#1044,#1045,#1046,#1047,#1048,#1049));
#1051=STYLED_ITEM('',(#1052),#1210);
#1052=PRESENTATION_STYLE_ASSIGNMENT((#1078));
#1053=PRESENTATION_STYLE_ASSIGNMENT((#1079));
#1054=PRESENTATION_STYLE_ASSIGNMENT((#1080));
#1055=PRESENTATION_STYLE_ASSIGNMENT((#1081));
#1056=PRESENTATION_STYLE_ASSIGNMENT((#1082));
#1057=PRESENTATION_STYLE_ASSIGNMENT((#1083));
#1058=PRESENTATION_STYLE_ASSIGNMENT((#1084));
#1059=PRESENTATION_STYLE_ASSIGNMENT((#1085));
#1060=PRESENTATION_STYLE_ASSIGNMENT((#1086));
#1061=PRESENTATION_STYLE_ASSIGNMENT((#1087));
#1062=PRESENTATION_STYLE_ASSIGNMENT((#1088));
#1063=PRESENTATION_STYLE_ASSIGNMENT((#1089));
#1064=PRESENTATION_STYLE_ASSIGNMENT((#1090));
#1065=PRESENTATION_STYLE_ASSIGNMENT((#1091));
#1066=PRESENTATION_STYLE_ASSIGNMENT((#1092));
#1067=PRESENTATION_STYLE_ASSIGNMENT((#1093));
#1068=PRESENTATION_STYLE_ASSIGNMENT((#1094));
#1069=PRESENTATION_STYLE_ASSIGNMENT((#1095));
#1070=PRESENTATION_STYLE_ASSIGNMENT((#1096));
#1071=PRESENTATION_STYLE_ASSIGNMENT((#1097));
#1072=PRESENTATION_STYLE_ASSIGNMENT((#1098));
#1073=PRESENTATION_STYLE_ASSIGNMENT((#1099));
#1074=PRESENTATION_STYLE_ASSIGNMENT((#1100));
#1075=PRESENTATION_STYLE_ASSIGNMENT((#1101));
#1076=PRESENTATION_STYLE_ASSIGNMENT((#1102));
#1077=PRESENTATION_STYLE_ASSIGNMENT((#1103));
#1078=SURFACE_STYLE_USAGE(.BOTH.,#1104);
#1079=SURFACE_STYLE_USAGE(.BOTH.,#1105);
#1080=SURFACE_STYLE_USAGE(.BOTH.,#1106);
#1081=SURFACE_STYLE_USAGE(.BOTH.,#1107);
#1082=SURFACE_STYLE_USAGE(.BOTH.,#1108);
#1083=SURFACE_STYLE_USAGE(.BOTH.,#1109);
#1084=SURFACE_STYLE_USAGE(.BOTH.,#1110);
#1085=SURFACE_STYLE_USAGE(.BOTH.,#1111);
#1086=SURFACE_STYLE_USAGE(.BOTH.,#1112);
#1087=SURFACE_STYLE_USAGE(.BOTH.,#1113);
#1088=SURFACE_STYLE_USAGE(.BOTH.,#1114);
#1089=SURFACE_STYLE_USAGE(.BOTH.,#1115);
#1090=SURFACE_STYLE_USAGE(.BOTH.,#1116);
#1091=SURFACE_STYLE_USAGE(.BOTH.,#1117);
#1092=SURFACE_STYLE_USAGE(.BOTH.,#1118);
#1093=SURFACE_STYLE_USAGE(.BOTH.,#1119);
#1094=SURFACE_STYLE_USAGE(.BOTH.,#1120);
#1095=SURFACE_STYLE_USAGE(.BOTH.,#1121);
#1096=SURFACE_STYLE_USAGE(.BOTH.,#1122);
#1097=SURFACE_STYLE_USAGE(.BOTH.,#1123);
#1098=SURFACE_STYLE_USAGE(.BOTH.,#1124);
#1099=SURFACE_STYLE_USAGE(.BOTH.,#1125);
#1100=SURFACE_STYLE_USAGE(.BOTH.,#1126);
#1101=SURFACE_STYLE_USAGE(.BOTH.,#1127);
#1102=SURFACE_STYLE_USAGE(.BOTH.,#1128);
#1103=SURFACE_STYLE_USAGE(.BOTH.,#1129);
#1104=SURFACE_SIDE_STYLE('',(#1130));
#1105=SURFACE_SIDE_STYLE('',(#1131));
#1106=SURFACE_SIDE_STYLE('',(#1132));
#1107=SURFACE_SIDE_STYLE('',(#1133));
#1108=SURFACE_SIDE_STYLE('',(#1134));
#1109=SURFACE_SIDE_STYLE('',(#1135));
#1110=SURFACE_SIDE_STYLE('',(#1136));
#1111=SURFACE_SIDE_STYLE('',(#1137));
#1112=SURFACE_SIDE_STYLE('',(#1138));
#1113=SURFACE_SIDE_STYLE('',(#1139));
#1114=SURFACE_SIDE_STYLE('',(#1140));
#1115=SURFACE_SIDE_STYLE('',(#1141));
#1116=SURFACE_SIDE_STYLE('',(#1142));
#1117=SURFACE_SIDE_STYLE('',(#1143));
#1118=SURFACE_SIDE_STYLE('',(#1144));
#1119=SURFACE_SIDE_STYLE('',(#1145));
#1120=SURFACE_SIDE_STYLE('',(#1146));
#1121=SURFACE_SIDE_STYLE('',(#1147));
#1122=SURFACE_SIDE_STYLE('',(#1148));
#1123=SURFACE_SIDE_STYLE('',(#1149));
#1124=SURFACE_SIDE_STYLE('',(#1150));
#1125=SURFACE_SIDE_STYLE('',(#1151));
#1126=SURFACE_SIDE_STYLE('',(#1152));
#1127=SURFACE_SIDE_STYLE('',(#1153));
#1128=SURFACE_SIDE_STYLE('',(#1154));
#1129=SURFACE_SIDE_STYLE('',(#1155));
#1130=SURFACE_STYLE_FILL_AREA(#1156);
#1131=SURFACE_STYLE_FILL_AREA(#1157);
#1132=SURFACE_STYLE_FILL_AREA(#1158);
#1133=SURFACE_STYLE_FILL_AREA(#1159);
#1134=SURFACE_STYLE_FILL_AREA(#1160);
#1135=SURFACE_STYLE_FILL_AREA(#1161);
#1136=SURFACE_STYLE_FILL_AREA(#1162);
#1137=SURFACE_STYLE_FILL_AREA(#1163);
#1138=SURFACE_STYLE_FILL_AREA(#1164);
#1139=SURFACE_STYLE_FILL_AREA(#1165);
#1140=SURFACE_STYLE_FILL_AREA(#1166);
#1141=SURFACE_STYLE_FILL_AREA(#1167);
#1142=SURFACE_STYLE_FILL_AREA(#1168);
#1143=SURFACE_STYLE_FILL_AREA(#1169);
#1144=SURFACE_STYLE_FILL_AREA(#1170);
#1145=SURFACE_STYLE_FILL_AREA(#1171);
#1146=SURFACE_STYLE_FILL_AREA(#1172);
#1147=SURFACE_STYLE_FILL_AREA(#1173);
#1148=SURFACE_STYLE_FILL_AREA(#1174);
#1149=SURFACE_STYLE_FILL_AREA(#1175);
#1150=SURFACE_STYLE_FILL_AREA(#1176);
#1151=SURFACE_STYLE_FILL_AREA(#1177);
#1152=SURFACE_STYLE_FILL_AREA(#1178);
#1153=SURFACE_STYLE_FILL_AREA(#1179);
#1154=SURFACE_STYLE_FILL_AREA(#1180);
#1155=SURFACE_STYLE_FILL_AREA(#1181);
#1156=FILL_AREA_STYLE('',(#1182));
#1157=FILL_AREA_STYLE('',(#1183));
#1158=FILL_AREA_STYLE('',(#1184));
#1159=FILL_AREA_STYLE('',(#1185));
#1160=FILL_AREA_STYLE('',(#1186));
#1161=FILL_AREA_STYLE('',(#1187));
#1162=FILL_AREA_STYLE('',(#1188));
#1163=FILL_AREA_STYLE('',(#1189));
#1164=FILL_AREA_STYLE('',(#1190));
#1165=FILL_AREA_STYLE('',(#1191));
#1166=FILL_AREA_STYLE('',(#1192));
#1167=FILL_AREA_STYLE('',(#1193));
#1168=FILL_AREA_STYLE('',(#1194));
#1169=FILL_AREA_STYLE('',(#1195));
#1170=FILL_AREA_STYLE('',(#1196));
#1171=FILL_AREA_STYLE('',(#1197));
#1172=FILL_AREA_STYLE('',(#1198));
#1173=FILL_AREA_STYLE('',(#1199));
#1174=FILL_AREA_STYLE('',(#1200));
#1175=FILL_AREA_STYLE('',(#1201));
#1176=FILL_AREA_STYLE('',(#1202));
#1177=FILL_AREA_STYLE('',(#1203));
#1178=FILL_AREA_STYLE('',(#1204));
#1179=FILL_AREA_STYLE('',(#1205));
#1180=FILL_AREA_STYLE('',(#1206));
#1181=FILL_AREA_STYLE('',(#1207));
#1182=FILL_AREA_STYLE_COLOUR('',#1208);
#1183=FILL_AREA_STYLE_COLOUR('',#1209);
#1184=FILL_AREA_STYLE_COLOUR('',#1209);
#1185=FILL_AREA_STYLE_COLOUR('',#1209);
#1186=FILL_AREA_STYLE_COLOUR('',#1209);
#1187=FILL_AREA_STYLE_COLOUR('',#1209);
#1188=FILL_AREA_STYLE_COLOUR('',#1209);
#1189=FILL_AREA_STYLE_COLOUR('',#1209);
#1190=FILL_AREA_STYLE_COLOUR('',#1209);
#1191=FILL_AREA_STYLE_COLOUR('',#1209);
#1192=FILL_AREA_STYLE_COLOUR('',#1209);
#1193=FILL_AREA_STYLE_COLOUR('',#1209);
#1194=FILL_AREA_STYLE_COLOUR('',#1209);
#1195=FILL_AREA_STYLE_COLOUR('',#1209);
#1196=FILL_AREA_STYLE_COLOUR('',#1209);
#1197=FILL_AREA_STYLE_COLOUR('',#1209);
#1198=FILL_AREA_STYLE_COLOUR('',#1209);
#1199=FILL_AREA_STYLE_COLOUR('',#1209);
#1200=FILL_AREA_STYLE_COLOUR('',#1209);
#1201=FILL_AREA_STYLE_COLOUR('',#1209);
#1202=FILL_AREA_STYLE_COLOUR('',#1209);
#1203=FILL_AREA_STYLE_COLOUR('',#1209);
#1204=FILL_AREA_STYLE_COLOUR('',#1209);
#1205=FILL_AREA_STYLE_COLOUR('',#1209);
#1206=FILL_AREA_STYLE_COLOUR('',#1209);
#1207=FILL_AREA_STYLE_COLOUR('',#1209);
#1208=COLOUR_RGB('',0.168627450980392,0.168627450980392,0.168627450980392);
#1209=COLOUR_RGB('',0.301960784313725,0.301960784313725,0.301960784313725);
#1210=MANIFOLD_SOLID_BREP('Part 1',#1050);
#1211=SHAPE_DEFINITION_REPRESENTATION(#1951,#1212);
#1212=SHAPE_REPRESENTATION('Part 1',(#1213),#1946);
#1213=AXIS2_PLACEMENT_3D('',#1637,#1331,#1332);
#1214=AXIS2_PLACEMENT_3D('',#1638,#1333,#1334);
#1215=AXIS2_PLACEMENT_3D('',#1639,#1335,#1336);
#1216=AXIS2_PLACEMENT_3D('',#1641,#1337,#1338);
#1217=AXIS2_PLACEMENT_3D('',#1643,#1339,#1340);
#1218=AXIS2_PLACEMENT_3D('',#1647,#1342,#1343);
#1219=AXIS2_PLACEMENT_3D('',#1651,#1345,#1346);
#1220=AXIS2_PLACEMENT_3D('',#1655,#1348,#1349);
#1221=AXIS2_PLACEMENT_3D('',#1656,#1350,#1351);
#1222=AXIS2_PLACEMENT_3D('',#1658,#1352,#1353);
#1223=AXIS2_PLACEMENT_3D('',#1663,#1355,#1356);
#1224=AXIS2_PLACEMENT_3D('',#1667,#1358,#1359);
#1225=AXIS2_PLACEMENT_3D('',#1671,#1361,#1362);
#1226=AXIS2_PLACEMENT_3D('',#1672,#1363,#1364);
#1227=AXIS2_PLACEMENT_3D('',#1674,#1365,#1366);
#1228=AXIS2_PLACEMENT_3D('',#1676,#1367,#1368);
#1229=AXIS2_PLACEMENT_3D('',#1678,#1369,#1370);
#1230=AXIS2_PLACEMENT_3D('',#1681,#1371,#1372);
#1231=AXIS2_PLACEMENT_3D('',#1683,#1373,#1374);
#1232=AXIS2_PLACEMENT_3D('',#1685,#1375,#1376);
#1233=AXIS2_PLACEMENT_3D('',#1687,#1377,#1378);
#1234=AXIS2_PLACEMENT_3D('',#1691,#1380,#1381);
#1235=AXIS2_PLACEMENT_3D('',#1697,#1384,#1385);
#1236=AXIS2_PLACEMENT_3D('',#1701,#1387,#1388);
#1237=AXIS2_PLACEMENT_3D('',#1705,#1390,#1391);
#1238=AXIS2_PLACEMENT_3D('',#1709,#1393,#1394);
#1239=AXIS2_PLACEMENT_3D('',#1713,#1396,#1397);
#1240=AXIS2_PLACEMENT_3D('',#1717,#1399,#1400);
#1241=AXIS2_PLACEMENT_3D('',#1721,#1402,#1403);
#1242=AXIS2_PLACEMENT_3D('',#1725,#1405,#1406);
#1243=AXIS2_PLACEMENT_3D('',#1726,#1407,#1408);
#1244=AXIS2_PLACEMENT_3D('',#1730,#1410,#1411);
#1245=AXIS2_PLACEMENT_3D('',#1734,#1413,#1414);
#1246=AXIS2_PLACEMENT_3D('',#1738,#1416,#1417);
#1247=AXIS2_PLACEMENT_3D('',#1739,#1418,#1419);
#1248=AXIS2_PLACEMENT_3D('',#1741,#1420,#1421);
#1249=AXIS2_PLACEMENT_3D('',#1743,#1422,#1423);
#1250=AXIS2_PLACEMENT_3D('',#1748,#1425,#1426);
#1251=AXIS2_PLACEMENT_3D('',#1752,#1428,#1429);
#1252=AXIS2_PLACEMENT_3D('',#1756,#1431,#1432);
#1253=AXIS2_PLACEMENT_3D('',#1760,#1434,#1435);
#1254=AXIS2_PLACEMENT_3D('',#1764,#1437,#1438);
#1255=AXIS2_PLACEMENT_3D('',#1765,#1439,#1440);
#1256=AXIS2_PLACEMENT_3D('',#1767,#1441,#1442);
#1257=AXIS2_PLACEMENT_3D('',#1769,#1443,#1444);
#1258=AXIS2_PLACEMENT_3D('',#1771,#1445,#1446);
#1259=AXIS2_PLACEMENT_3D('',#1773,#1447,#1448);
#1260=AXIS2_PLACEMENT_3D('',#1778,#1450,#1451);
#1261=AXIS2_PLACEMENT_3D('',#1782,#1453,#1454);
#1262=AXIS2_PLACEMENT_3D('',#1786,#1456,#1457);
#1263=AXIS2_PLACEMENT_3D('',#1790,#1459,#1460);
#1264=AXIS2_PLACEMENT_3D('',#1794,#1462,#1463);
#1265=AXIS2_PLACEMENT_3D('',#1798,#1465,#1466);
#1266=AXIS2_PLACEMENT_3D('',#1802,#1468,#1469);
#1267=AXIS2_PLACEMENT_3D('',#1806,#1471,#1472);
#1268=AXIS2_PLACEMENT_3D('',#1807,#1473,#1474);
#1269=AXIS2_PLACEMENT_3D('',#1813,#1478,#1479);
#1270=AXIS2_PLACEMENT_3D('',#1816,#1481,#1482);
#1271=AXIS2_PLACEMENT_3D('',#1817,#1483,#1484);
#1272=AXIS2_PLACEMENT_3D('',#1821,#1487,#1488);
#1273=AXIS2_PLACEMENT_3D('',#1822,#1489,#1490);
#1274=AXIS2_PLACEMENT_3D('',#1823,#1491,#1492);
#1275=AXIS2_PLACEMENT_3D('',#1824,#1493,#1494);
#1276=AXIS2_PLACEMENT_3D('',#1826,#1495,#1496);
#1277=AXIS2_PLACEMENT_3D('',#1834,#1497,#1498);
#1278=AXIS2_PLACEMENT_3D('',#1835,#1499,#1500);
#1279=AXIS2_PLACEMENT_3D('',#1837,#1501,#1502);
#1280=AXIS2_PLACEMENT_3D('',#1847,#1503,#1504);
#1281=AXIS2_PLACEMENT_3D('',#1848,#1505,#1506);
#1282=AXIS2_PLACEMENT_3D('',#1850,#1507,#1508);
#1283=AXIS2_PLACEMENT_3D('',#1851,#1509,#1510);
#1284=AXIS2_PLACEMENT_3D('',#1852,#1511,#1512);
#1285=AXIS2_PLACEMENT_3D('',#1854,#1513,#1514);
#1286=AXIS2_PLACEMENT_3D('',#1864,#1515,#1516);
#1287=AXIS2_PLACEMENT_3D('',#1865,#1517,#1518);
#1288=AXIS2_PLACEMENT_3D('',#1866,#1519,#1520);
#1289=AXIS2_PLACEMENT_3D('',#1868,#1521,#1522);
#1290=AXIS2_PLACEMENT_3D('',#1869,#1523,#1524);
#1291=AXIS2_PLACEMENT_3D('',#1872,#1527,#1528);
#1292=AXIS2_PLACEMENT_3D('',#1875,#1531,#1532);
#1293=AXIS2_PLACEMENT_3D('',#1878,#1535,#1536);
#1294=AXIS2_PLACEMENT_3D('',#1881,#1539,#1540);
#1295=AXIS2_PLACEMENT_3D('',#1884,#1543,#1544);
#1296=AXIS2_PLACEMENT_3D('',#1887,#1547,#1548);
#1297=AXIS2_PLACEMENT_3D('',#1890,#1551,#1552);
#1298=AXIS2_PLACEMENT_3D('',#1893,#1555,#1556);
#1299=AXIS2_PLACEMENT_3D('',#1896,#1559,#1560);
#1300=AXIS2_PLACEMENT_3D('',#1899,#1563,#1564);
#1301=AXIS2_PLACEMENT_3D('',#1902,#1567,#1568);
#1302=AXIS2_PLACEMENT_3D('',#1903,#1569,#1570);
#1303=AXIS2_PLACEMENT_3D('',#1905,#1571,#1572);
#1304=AXIS2_PLACEMENT_3D('',#1906,#1573,#1574);
#1305=AXIS2_PLACEMENT_3D('',#1909,#1577,#1578);
#1306=AXIS2_PLACEMENT_3D('',#1911,#1580,#1581);
#1307=AXIS2_PLACEMENT_3D('',#1913,#1583,#1584);
#1308=AXIS2_PLACEMENT_3D('',#1914,#1585,#1586);
#1309=AXIS2_PLACEMENT_3D('',#1915,#1587,#1588);
#1310=AXIS2_PLACEMENT_3D('',#1917,#1589,#1590);
#1311=AXIS2_PLACEMENT_3D('',#1918,#1591,#1592);
#1312=AXIS2_PLACEMENT_3D('',#1919,#1593,#1594);
#1313=AXIS2_PLACEMENT_3D('',#1921,#1595,#1596);
#1314=AXIS2_PLACEMENT_3D('',#1922,#1597,#1598);
#1315=AXIS2_PLACEMENT_3D('',#1925,#1601,#1602);
#1316=AXIS2_PLACEMENT_3D('',#1928,#1605,#1606);
#1317=AXIS2_PLACEMENT_3D('',#1931,#1609,#1610);
#1318=AXIS2_PLACEMENT_3D('',#1932,#1611,#1612);
#1319=AXIS2_PLACEMENT_3D('',#1933,#1613,#1614);
#1320=AXIS2_PLACEMENT_3D('',#1934,#1615,#1616);
#1321=AXIS2_PLACEMENT_3D('',#1935,#1617,#1618);
#1322=AXIS2_PLACEMENT_3D('',#1936,#1619,#1620);
#1323=AXIS2_PLACEMENT_3D('',#1937,#1621,#1622);
#1324=AXIS2_PLACEMENT_3D('',#1938,#1623,#1624);
#1325=AXIS2_PLACEMENT_3D('',#1939,#1625,#1626);
#1326=AXIS2_PLACEMENT_3D('',#1940,#1627,#1628);
#1327=AXIS2_PLACEMENT_3D('',#1941,#1629,#1630);
#1328=AXIS2_PLACEMENT_3D('',#1942,#1631,#1632);
#1329=AXIS2_PLACEMENT_3D('',#1943,#1633,#1634);
#1330=AXIS2_PLACEMENT_3D('',#1944,#1635,#1636);
#1331=DIRECTION('',(0.,0.,1.));
#1332=DIRECTION('',(1.,0.,0.));
#1333=DIRECTION('',(0.,-1.,0.));
#1334=DIRECTION('',(0.,0.,-1.));
#1335=DIRECTION('',(0.,-1.,0.));
#1336=DIRECTION('',(0.,0.,-1.));
#1337=DIRECTION('',(0.,1.,0.));
#1338=DIRECTION('',(0.,0.,1.));
#1339=DIRECTION('',(0.,-1.,0.));
#1340=DIRECTION('',(1.,0.,0.));
#1341=DIRECTION('',(-0.914931165935619,0.,0.40360991266282));
#1342=DIRECTION('',(0.,-1.,0.));
#1343=DIRECTION('',(0.,0.,-1.));
#1344=DIRECTION('',(0.914931165935619,0.,0.40360991266282));
#1345=DIRECTION('',(0.,-1.,0.));
#1346=DIRECTION('',(0.,0.,-1.));
#1347=DIRECTION('',(0.,0.,-1.));
#1348=DIRECTION('',(0.,-1.,0.));
#1349=DIRECTION('',(0.,0.,-1.));
#1350=DIRECTION('',(0.,1.,0.));
#1351=DIRECTION('',(0.,0.,1.));
#1352=DIRECTION('',(0.,1.,0.));
#1353=DIRECTION('',(0.,0.,1.));
#1354=DIRECTION('',(1.,0.,0.));
#1355=DIRECTION('',(0.,-1.,0.));
#1356=DIRECTION('',(0.,0.,-1.));
#1357=DIRECTION('',(-0.960823591180895,0.,-0.277160651302181));
#1358=DIRECTION('',(0.,-1.,0.));
#1359=DIRECTION('',(0.,0.,-1.));
#1360=DIRECTION('',(-0.960823591180895,0.,0.277160651302181));
#1361=DIRECTION('',(0.,-1.,0.));
#1362=DIRECTION('',(0.,0.,-1.));
#1363=DIRECTION('',(0.,-1.,0.));
#1364=DIRECTION('',(0.,0.,-1.));
#1365=DIRECTION('',(0.,-1.,0.));
#1366=DIRECTION('',(0.,0.,-1.));
#1367=DIRECTION('',(0.,1.,0.));
#1368=DIRECTION('',(0.,0.,1.));
#1369=DIRECTION('',(0.,1.,0.));
#1370=DIRECTION('',(0.,0.,1.));
#1371=DIRECTION('',(0.,-1.,0.));
#1372=DIRECTION('',(0.,0.,-1.));
#1373=DIRECTION('',(0.,1.,0.));
#1374=DIRECTION('',(0.,0.,1.));
#1375=DIRECTION('',(0.,-1.,0.));
#1376=DIRECTION('',(0.,0.,-1.));
#1377=DIRECTION('',(0.,1.,0.));
#1378=DIRECTION('',(0.,0.,1.));
#1379=DIRECTION('',(1.,0.,6.42490176287706E-17));
#1380=DIRECTION('',(0.,-1.,0.));
#1381=DIRECTION('',(0.,0.,-1.));
#1382=DIRECTION('',(-1.,0.,0.));
#1383=DIRECTION('',(1.,0.,0.));
#1384=DIRECTION('',(0.,-1.,0.));
#1385=DIRECTION('',(0.,0.,-1.));
#1386=DIRECTION('',(-0.960823591180895,0.,0.277160651302181));
#1387=DIRECTION('',(0.,-1.,0.));
#1388=DIRECTION('',(0.,0.,-1.));
#1389=DIRECTION('',(0.960823591180895,0.,0.277160651302181));
#1390=DIRECTION('',(0.,-1.,0.));
#1391=DIRECTION('',(0.,0.,-1.));
#1392=DIRECTION('',(1.,0.,5.4483060838463E-16));
#1393=DIRECTION('',(0.,-1.,0.));
#1394=DIRECTION('',(0.,0.,-1.));
#1395=DIRECTION('',(0.,0.,-1.));
#1396=DIRECTION('',(0.,-1.,0.));
#1397=DIRECTION('',(0.,0.,-1.));
#1398=DIRECTION('',(0.960823591180895,0.,-0.277160651302181));
#1399=DIRECTION('',(0.,-1.,0.));
#1400=DIRECTION('',(0.,0.,-1.));
#1401=DIRECTION('',(1.,0.,2.02806541592036E-16));
#1402=DIRECTION('',(0.,-1.,0.));
#1403=DIRECTION('',(0.,0.,-1.));
#1404=DIRECTION('',(0.960823591180895,0.,0.277160651302181));
#1405=DIRECTION('',(0.,-1.,0.));
#1406=DIRECTION('',(0.,0.,-1.));
#1407=DIRECTION('',(0.,-1.,0.));
#1408=DIRECTION('',(1.,0.,0.));
#1409=DIRECTION('',(0.,0.,-1.));
#1410=DIRECTION('',(0.,-1.,0.));
#1411=DIRECTION('',(0.,0.,-1.));
#1412=DIRECTION('',(0.914931165935619,0.,0.40360991266282));
#1413=DIRECTION('',(0.,-1.,0.));
#1414=DIRECTION('',(0.,0.,-1.));
#1415=DIRECTION('',(-0.914931165935619,0.,0.40360991266282));
#1416=DIRECTION('',(0.,-1.,0.));
#1417=DIRECTION('',(0.,0.,-1.));
#1418=DIRECTION('',(0.,-1.,0.));
#1419=DIRECTION('',(0.,0.,-1.));
#1420=DIRECTION('',(0.,-1.,0.));
#1421=DIRECTION('',(0.,0.,-1.));
#1422=DIRECTION('',(0.,1.,0.));
#1423=DIRECTION('',(0.,0.,1.));
#1424=DIRECTION('',(-0.960823591180895,0.,0.277160651302181));
#1425=DIRECTION('',(0.,-1.,0.));
#1426=DIRECTION('',(0.,0.,-1.));
#1427=DIRECTION('',(1.,0.,0.));
#1428=DIRECTION('',(0.,-1.,0.));
#1429=DIRECTION('',(0.,0.,-1.));
#1430=DIRECTION('',(0.,0.,-1.));
#1431=DIRECTION('',(0.,-1.,0.));
#1432=DIRECTION('',(0.,0.,-1.));
#1433=DIRECTION('',(1.,0.,5.4483060838463E-16));
#1434=DIRECTION('',(0.,-1.,0.));
#1435=DIRECTION('',(0.,0.,-1.));
#1436=DIRECTION('',(0.960823591180895,0.,0.277160651302181));
#1437=DIRECTION('',(0.,-1.,0.));
#1438=DIRECTION('',(0.,0.,-1.));
#1439=DIRECTION('',(0.,-1.,0.));
#1440=DIRECTION('',(0.,0.,-1.));
#1441=DIRECTION('',(0.,-1.,0.));
#1442=DIRECTION('',(0.,0.,-1.));
#1443=DIRECTION('',(0.,-1.,0.));
#1444=DIRECTION('',(0.,0.,-1.));
#1445=DIRECTION('',(0.,-1.,0.));
#1446=DIRECTION('',(0.,0.,-1.));
#1447=DIRECTION('',(0.,-1.,0.));
#1448=DIRECTION('',(0.,0.,-1.));
#1449=DIRECTION('',(1.,0.,0.));
#1450=DIRECTION('',(0.,-1.,0.));
#1451=DIRECTION('',(0.,0.,-1.));
#1452=DIRECTION('',(1.,0.,6.42490176287706E-17));
#1453=DIRECTION('',(0.,-1.,0.));
#1454=DIRECTION('',(0.,0.,-1.));
#1455=DIRECTION('',(-0.960823591180895,0.,0.277160651302181));
#1456=DIRECTION('',(0.,-1.,0.));
#1457=DIRECTION('',(0.,0.,-1.));
#1458=DIRECTION('',(-0.960823591180895,0.,-0.277160651302181));
#1459=DIRECTION('',(0.,-1.,0.));
#1460=DIRECTION('',(0.,0.,-1.));
#1461=DIRECTION('',(1.,0.,0.));
#1462=DIRECTION('',(0.,-1.,0.));
#1463=DIRECTION('',(0.,0.,-1.));
#1464=DIRECTION('',(1.,0.,2.02806541592036E-16));
#1465=DIRECTION('',(0.,-1.,0.));
#1466=DIRECTION('',(0.,0.,-1.));
#1467=DIRECTION('',(0.960823591180895,0.,-0.277160651302181));
#1468=DIRECTION('',(0.,-1.,0.));
#1469=DIRECTION('',(0.,0.,-1.));
#1470=DIRECTION('',(0.960823591180895,0.,0.277160651302181));
#1471=DIRECTION('',(0.,-1.,0.));
#1472=DIRECTION('',(0.,0.,-1.));
#1473=DIRECTION('',(0.,0.,1.));
#1474=DIRECTION('',(1.,0.,0.));
#1475=DIRECTION('',(0.,1.,0.));
#1476=DIRECTION('',(1.,0.,0.));
#1477=DIRECTION('',(0.,1.,0.));
#1478=DIRECTION('',(0.,1.,0.));
#1479=DIRECTION('',(0.,0.,1.));
#1480=DIRECTION('',(0.,1.,0.));
#1481=DIRECTION('',(0.,-1.,0.));
#1482=DIRECTION('',(0.,0.,-1.));
#1483=DIRECTION('',(-6.42490176287706E-17,0.,1.));
#1484=DIRECTION('',(1.,0.,6.42490176287706E-17));
#1485=DIRECTION('',(0.,1.,0.));
#1486=DIRECTION('',(-1.,0.,-6.42490176287706E-17));
#1487=DIRECTION('',(0.,1.,0.));
#1488=DIRECTION('',(0.,0.,1.));
#1489=DIRECTION('',(0.,-1.,0.));
#1490=DIRECTION('',(0.,0.,-1.));
#1491=DIRECTION('',(0.,1.,0.));
#1492=DIRECTION('',(0.,0.,1.));
#1493=DIRECTION('',(0.,1.,0.));
#1494=DIRECTION('',(0.,0.,1.));
#1495=DIRECTION('',(0.,-1.,0.));
#1496=DIRECTION('',(0.,0.,-1.));
#1497=DIRECTION('',(0.,1.,0.));
#1498=DIRECTION('',(0.,0.,1.));
#1499=DIRECTION('',(0.,1.,0.));
#1500=DIRECTION('',(0.,0.,1.));
#1501=DIRECTION('',(0.,-1.,0.));
#1502=DIRECTION('',(0.,0.,-1.));
#1503=DIRECTION('',(0.,1.,0.));
#1504=DIRECTION('',(0.,0.,1.));
#1505=DIRECTION('',(0.,1.,0.));
#1506=DIRECTION('',(0.,0.,1.));
#1507=DIRECTION('',(0.,-1.,0.));
#1508=DIRECTION('',(0.,0.,-1.));
#1509=DIRECTION('',(0.,1.,0.));
#1510=DIRECTION('',(0.,0.,1.));
#1511=DIRECTION('',(0.,1.,0.));
#1512=DIRECTION('',(0.,0.,1.));
#1513=DIRECTION('',(0.,-1.,0.));
#1514=DIRECTION('',(0.,0.,-1.));
#1515=DIRECTION('',(0.,-1.,0.));
#1516=DIRECTION('',(0.,0.,-1.));
#1517=DIRECTION('',(0.,-1.,0.));
#1518=DIRECTION('',(0.,0.,-1.));
#1519=DIRECTION('',(0.,-1.,0.));
#1520=DIRECTION('',(0.,0.,-1.));
#1521=DIRECTION('',(0.,-1.,0.));
#1522=DIRECTION('',(1.,0.,0.));
#1523=DIRECTION('',(0.277160651302181,0.,0.960823591180895));
#1524=DIRECTION('',(0.960823591180895,0.,-0.277160651302181));
#1525=DIRECTION('',(0.,-1.,0.));
#1526=DIRECTION('',(0.,-1.,0.));
#1527=DIRECTION('',(0.,0.,-1.));
#1528=DIRECTION('',(-1.,0.,0.));
#1529=DIRECTION('',(0.,-1.,0.));
#1530=DIRECTION('',(0.,-1.,0.));
#1531=DIRECTION('',(-1.,0.,0.));
#1532=DIRECTION('',(0.,0.,1.));
#1533=DIRECTION('',(0.,-1.,0.));
#1534=DIRECTION('',(0.,-1.,0.));
#1535=DIRECTION('',(5.4483060838463E-16,0.,-1.));
#1536=DIRECTION('',(-1.,0.,-5.4483060838463E-16));
#1537=DIRECTION('',(0.,-1.,0.));
#1538=DIRECTION('',(0.,-1.,0.));
#1539=DIRECTION('',(0.277160651302181,0.,-0.960823591180895));
#1540=DIRECTION('',(-0.960823591180895,0.,-0.277160651302181));
#1541=DIRECTION('',(0.,-1.,0.));
#1542=DIRECTION('',(0.,-1.,0.));
#1543=DIRECTION('',(0.,0.,-1.));
#1544=DIRECTION('',(-1.,0.,0.));
#1545=DIRECTION('',(0.,-1.,0.));
#1546=DIRECTION('',(0.,-1.,0.));
#1547=DIRECTION('',(0.277160651302181,0.,0.960823591180895));
#1548=DIRECTION('',(0.960823591180895,0.,-0.277160651302181));
#1549=DIRECTION('',(0.,-1.,0.));
#1550=DIRECTION('',(0.,-1.,0.));
#1551=DIRECTION('',(-0.277160651302181,0.,0.960823591180895));
#1552=DIRECTION('',(0.960823591180895,0.,0.277160651302181));
#1553=DIRECTION('',(0.,-1.,0.));
#1554=DIRECTION('',(0.,-1.,0.));
#1555=DIRECTION('',(2.02806541592036E-16,0.,-1.));
#1556=DIRECTION('',(-1.,0.,-2.02806541592036E-16));
#1557=DIRECTION('',(0.,-1.,0.));
#1558=DIRECTION('',(0.,-1.,0.));
#1559=DIRECTION('',(-0.277160651302181,0.,-0.960823591180895));
#1560=DIRECTION('',(-0.960823591180895,0.,0.277160651302181));
#1561=DIRECTION('',(0.,-1.,0.));
#1562=DIRECTION('',(0.,-1.,0.));
#1563=DIRECTION('',(0.277160651302181,0.,-0.960823591180895));
#1564=DIRECTION('',(-0.960823591180895,0.,-0.277160651302181));
#1565=DIRECTION('',(0.,-1.,0.));
#1566=DIRECTION('',(0.,-1.,0.));
#1567=DIRECTION('',(0.,1.,0.));
#1568=DIRECTION('',(-1.,0.,0.));
#1569=DIRECTION('',(0.,1.,0.));
#1570=DIRECTION('',(0.,0.,1.));
#1571=DIRECTION('',(0.,1.,0.));
#1572=DIRECTION('',(0.,0.,1.));
#1573=DIRECTION('',(0.,1.,0.));
#1574=DIRECTION('',(0.,0.,1.));
#1575=DIRECTION('',(0.,0.707106781186548,0.707106781186548));
#1576=DIRECTION('',(4.54309160498778E-17,0.707106781186548,-0.707106781186548));
#1577=DIRECTION('',(4.54309160498778E-17,-0.707106781186548,-0.707106781186548));
#1578=DIRECTION('',(-1.,0.,-6.42490176287706E-17));
#1579=DIRECTION('',(0.,0.707106781186548,-0.707106781186548));
#1580=DIRECTION('',(0.,0.707106781186548,-0.707106781186548));
#1581=DIRECTION('',(1.,0.,0.));
#1582=DIRECTION('',(0.,-0.707106781186548,-0.707106781186548));
#1583=DIRECTION('',(0.,1.,0.));
#1584=DIRECTION('',(0.,0.,1.));
#1585=DIRECTION('',(0.,1.,0.));
#1586=DIRECTION('',(0.,0.,1.));
#1587=DIRECTION('',(0.,1.,0.));
#1588=DIRECTION('',(0.,0.,1.));
#1589=DIRECTION('',(0.,-1.,0.));
#1590=DIRECTION('',(0.,0.,-1.));
#1591=DIRECTION('',(0.,1.,0.));
#1592=DIRECTION('',(0.,0.,1.));
#1593=DIRECTION('',(0.,1.,0.));
#1594=DIRECTION('',(0.,0.,1.));
#1595=DIRECTION('',(0.,-1.,0.));
#1596=DIRECTION('',(0.,0.,-1.));
#1597=DIRECTION('',(0.40360991266282,0.,0.914931165935619));
#1598=DIRECTION('',(0.914931165935619,0.,-0.40360991266282));
#1599=DIRECTION('',(0.,-1.,0.));
#1600=DIRECTION('',(0.,-1.,0.));
#1601=DIRECTION('',(-1.,0.,0.));
#1602=DIRECTION('',(0.,0.,1.));
#1603=DIRECTION('',(0.,-1.,0.));
#1604=DIRECTION('',(0.,-1.,0.));
#1605=DIRECTION('',(0.40360991266282,0.,-0.914931165935619));
#1606=DIRECTION('',(-0.914931165935619,0.,-0.40360991266282));
#1607=DIRECTION('',(0.,-1.,0.));
#1608=DIRECTION('',(0.,-1.,0.));
#1609=DIRECTION('',(0.,1.,0.));
#1610=DIRECTION('',(0.,0.,1.));
#1611=DIRECTION('',(0.,1.,0.));
#1612=DIRECTION('',(0.,0.,1.));
#1613=DIRECTION('',(0.,1.,0.));
#1614=DIRECTION('',(0.,0.,1.));
#1615=DIRECTION('',(0.,1.,0.));
#1616=DIRECTION('',(0.,0.,1.));
#1617=DIRECTION('',(0.,1.,0.));
#1618=DIRECTION('',(0.,0.,1.));
#1619=DIRECTION('',(0.,1.,0.));
#1620=DIRECTION('',(0.,0.,1.));
#1621=DIRECTION('',(0.,-1.,0.));
#1622=DIRECTION('',(0.,0.,-1.));
#1623=DIRECTION('',(0.,1.,0.));
#1624=DIRECTION('',(0.,0.,1.));
#1625=DIRECTION('',(0.,1.,0.));
#1626=DIRECTION('',(0.,0.,1.));
#1627=DIRECTION('',(0.,-1.,0.));
#1628=DIRECTION('',(0.,0.,-1.));
#1629=DIRECTION('',(0.,1.,0.));
#1630=DIRECTION('',(0.,0.,1.));
#1631=DIRECTION('',(0.,-1.,0.));
#1632=DIRECTION('',(0.,0.,-1.));
#1633=DIRECTION('',(0.,-1.,0.));
#1634=DIRECTION('',(0.,0.,-1.));
#1635=DIRECTION('',(0.,1.,0.));
#1636=DIRECTION('',(0.,0.,1.));
#1637=CARTESIAN_POINT('',(0.,0.,0.));
#1638=CARTESIAN_POINT('',(0.108,0.12281248491651,-1.33671326625392E-18));
#1639=CARTESIAN_POINT('',(0.108,-0.0089,-1.33671326625392E-18));
#1640=CARTESIAN_POINT('',(0.108,-0.0089,-0.0065));
#1641=CARTESIAN_POINT('',(0.108,-0.0011,-1.33671326625392E-18));
#1642=CARTESIAN_POINT('',(0.108,-0.0011,0.0065));
#1643=CARTESIAN_POINT('',(0.054,-0.01,0.));
#1644=CARTESIAN_POINT('',(0.0397,-0.01,0.003125));
#1645=CARTESIAN_POINT('',(0.0447099385364644,-0.01,0.000914931165935618));
#1646=CARTESIAN_POINT('',(0.0340196414474548,-0.01,0.0056308158522142));
#1647=CARTESIAN_POINT('',(0.0443063286238016,-0.01,-2.16840434497101E-18));
#1648=CARTESIAN_POINT('',(0.0447099385364644,-0.01,-0.000914931165935622));
#1649=CARTESIAN_POINT('',(0.0397,-0.01,-0.003125));
#1650=CARTESIAN_POINT('',(0.0340196414474548,-0.01,-0.00563081585221421));
#1651=CARTESIAN_POINT('',(0.0336160315347919,-0.01,-0.00471588468627859));
#1652=CARTESIAN_POINT('',(0.032616031534792,-0.01,-0.00471588468627859));
#1653=CARTESIAN_POINT('',(0.032616031534792,-0.01,-1.7347234759768E-18));
#1654=CARTESIAN_POINT('',(0.032616031534792,-0.01,0.00471588468627858));
#1655=CARTESIAN_POINT('',(0.0336160315347919,-0.01,0.00471588468627858));
#1656=CARTESIAN_POINT('',(0.025,-0.01,0.005));
#1657=CARTESIAN_POINT('',(0.025,-0.01,0.00836));
#1658=CARTESIAN_POINT('',(0.025,-0.01,-0.005));
#1659=CARTESIAN_POINT('',(0.025,-0.01,-0.00164));
#1660=CARTESIAN_POINT('',(0.054,-0.01,-0.00825));
#1661=CARTESIAN_POINT('',(0.0396907139688545,-0.01,-0.00825));
#1662=CARTESIAN_POINT('',(0.0683092860311455,-0.01,-0.00825));
#1663=CARTESIAN_POINT('',(0.0396907139688545,-0.01,-0.00725));
#1664=CARTESIAN_POINT('',(0.0394135533175523,-0.01,-0.0062891764088191));
#1665=CARTESIAN_POINT('',(0.043308015767396,-0.01,-0.00516577377905652));
#1666=CARTESIAN_POINT('',(0.0537228393486978,-0.01,-0.00216149774598867));
#1667=CARTESIAN_POINT('',(0.054,-0.01,-0.00312232133716957));
#1668=CARTESIAN_POINT('',(0.0542771606513022,-0.01,-0.00216149774598867));
#1669=CARTESIAN_POINT('',(0.064691984232604,-0.01,-0.00516577377905652));
#1670=CARTESIAN_POINT('',(0.0685864466824477,-0.01,-0.0062891764088191));
#1671=CARTESIAN_POINT('',(0.0683092860311455,-0.01,-0.00725));
#1672=CARTESIAN_POINT('',(0.108,-0.01,-8.7747071657366E-19));
#1673=CARTESIAN_POINT('',(0.108,-0.01,-0.0075));
#1674=CARTESIAN_POINT('',(0.,-0.01,2.60237444818812E-19));
#1675=CARTESIAN_POINT('',(0.,-0.01,-0.00425));
#1676=CARTESIAN_POINT('',(0.008,-0.01,0.));
#1677=CARTESIAN_POINT('',(0.008,-0.01,0.00225));
#1678=CARTESIAN_POINT('',(4.89858719658941E-19,-0.01,0.008));
#1679=CARTESIAN_POINT('',(0.00187082869338697,-0.01,0.00925));
#1680=CARTESIAN_POINT('',(-0.00199975584447202,-0.01,0.00903125));
#1681=CARTESIAN_POINT('',(-6.88863824520386E-19,-0.01,0.));
#1682=CARTESIAN_POINT('',(-0.00903125,-0.01,0.00199975584447202));
#1683=CARTESIAN_POINT('',(-0.008,-0.01,1.7347234759768E-18));
#1684=CARTESIAN_POINT('',(-0.00903125,-0.01,-0.00199975584447202));
#1685=CARTESIAN_POINT('',(-6.88863824520386E-19,-0.01,0.));
#1686=CARTESIAN_POINT('',(-0.00199975584447202,-0.01,-0.00903125));
#1687=CARTESIAN_POINT('',(-1.46957615897682E-18,-0.01,-0.008));
#1688=CARTESIAN_POINT('',(0.00187082869338697,-0.01,-0.00925));
#1689=CARTESIAN_POINT('',(0.108,-0.01,-0.00925));
#1690=CARTESIAN_POINT('',(0.108,-0.01,-0.00925));
#1691=CARTESIAN_POINT('',(0.108,-0.01,-1.7347234759768E-18));
#1692=CARTESIAN_POINT('',(0.108,-0.01,0.00925));
#1693=CARTESIAN_POINT('',(0.054,-0.01,0.00925));
#1694=CARTESIAN_POINT('',(0.0914080157673959,-0.01,-0.00825));
#1695=CARTESIAN_POINT('',(0.0899573806355212,-0.01,-0.00825));
#1696=CARTESIAN_POINT('',(0.092,-0.01,-0.00825));
#1697=CARTESIAN_POINT('',(0.0899573806355212,-0.01,-0.00725));
#1698=CARTESIAN_POINT('',(0.089680219984219,-0.01,-0.00821082359118089));
#1699=CARTESIAN_POINT('',(0.0755160315347919,-0.01,-0.004125));
#1700=CARTESIAN_POINT('',(0.0645468866508857,-0.01,-0.000960823591180896));
#1701=CARTESIAN_POINT('',(0.0648240473021879,-0.01,-4.33680868994202E-19));
#1702=CARTESIAN_POINT('',(0.0645468866508857,-0.01,0.000960823591180894));
#1703=CARTESIAN_POINT('',(0.0755160315347919,-0.01,0.004125));
#1704=CARTESIAN_POINT('',(0.089680219984219,-0.01,0.0082108235911809));
#1705=CARTESIAN_POINT('',(0.0899573806355212,-0.01,0.00725));
#1706=CARTESIAN_POINT('',(0.0899573806355212,-0.01,0.00825));
#1707=CARTESIAN_POINT('',(0.0914080157673959,-0.01,0.00825));
#1708=CARTESIAN_POINT('',(0.092,-0.01,0.00825));
#1709=CARTESIAN_POINT('',(0.092,-0.01,0.00725));
#1710=CARTESIAN_POINT('',(0.093,-0.01,0.00725));
#1711=CARTESIAN_POINT('',(0.093,-0.01,0.));
#1712=CARTESIAN_POINT('',(0.093,-0.01,-0.00725));
#1713=CARTESIAN_POINT('',(0.092,-0.01,-0.00725));
#1714=CARTESIAN_POINT('',(0.043308015767396,-0.01,0.00516577377905652));
#1715=CARTESIAN_POINT('',(0.0394135533175523,-0.01,0.0062891764088191));
#1716=CARTESIAN_POINT('',(0.0537228393486978,-0.01,0.00216149774598867));
#1717=CARTESIAN_POINT('',(0.0396907139688545,-0.01,0.00725));
#1718=CARTESIAN_POINT('',(0.0396907139688545,-0.01,0.00825));
#1719=CARTESIAN_POINT('',(0.054,-0.01,0.00825));
#1720=CARTESIAN_POINT('',(0.0683092860311455,-0.01,0.00825));
#1721=CARTESIAN_POINT('',(0.0683092860311455,-0.01,0.00725));
#1722=CARTESIAN_POINT('',(0.0685864466824477,-0.01,0.0062891764088191));
#1723=CARTESIAN_POINT('',(0.064691984232604,-0.01,0.00516577377905652));
#1724=CARTESIAN_POINT('',(0.0542771606513022,-0.01,0.00216149774598868));
#1725=CARTESIAN_POINT('',(0.054,-0.01,0.00312232133716957));
#1726=CARTESIAN_POINT('',(0.054,0.,0.));
#1727=CARTESIAN_POINT('',(0.032616031534792,0.,0.));
#1728=CARTESIAN_POINT('',(0.032616031534792,0.,0.00471588468627858));
#1729=CARTESIAN_POINT('',(0.032616031534792,0.,-0.00471588468627859));
#1730=CARTESIAN_POINT('',(0.0336160315347919,0.,-0.00471588468627859));
#1731=CARTESIAN_POINT('',(0.0340196414474548,0.,-0.00563081585221421));
#1732=CARTESIAN_POINT('',(0.0528245015240487,0.,0.00266470212305249));
#1733=CARTESIAN_POINT('',(0.0447099385364644,0.,-0.000914931165935621));
#1734=CARTESIAN_POINT('',(0.0443063286238016,0.,-2.16840434497101E-18));
#1735=CARTESIAN_POINT('',(0.0447099385364644,0.,0.000914931165935619));
#1736=CARTESIAN_POINT('',(0.0528245015240487,0.,-0.00266470212305249));
#1737=CARTESIAN_POINT('',(0.0340196414474548,0.,0.0056308158522142));
#1738=CARTESIAN_POINT('',(0.0336160315347919,0.,0.00471588468627858));
#1739=CARTESIAN_POINT('',(0.025,0.,0.005));
#1740=CARTESIAN_POINT('',(0.025,0.,0.0033));
#1741=CARTESIAN_POINT('',(0.025,0.,-0.005));
#1742=CARTESIAN_POINT('',(0.025,0.,-0.0067));
#1743=CARTESIAN_POINT('',(0.108,0.,-1.27548092629655E-18));
#1744=CARTESIAN_POINT('',(0.108,0.,0.0075));
#1745=CARTESIAN_POINT('',(0.0545543213026044,0.,0.00192164718236179));
#1746=CARTESIAN_POINT('',(0.089680219984219,0.,-0.00821082359118089));
#1747=CARTESIAN_POINT('',(0.0645468866508857,0.,-0.000960823591180897));
#1748=CARTESIAN_POINT('',(0.0899573806355212,0.,-0.00725));
#1749=CARTESIAN_POINT('',(0.0899573806355212,0.,-0.00825));
#1750=CARTESIAN_POINT('',(0.054,0.,-0.00825));
#1751=CARTESIAN_POINT('',(0.092,0.,-0.00825));
#1752=CARTESIAN_POINT('',(0.092,0.,-0.00725));
#1753=CARTESIAN_POINT('',(0.093,0.,-0.00725));
#1754=CARTESIAN_POINT('',(0.093,0.,0.));
#1755=CARTESIAN_POINT('',(0.093,0.,0.00725));
#1756=CARTESIAN_POINT('',(0.092,0.,0.00725));
#1757=CARTESIAN_POINT('',(0.092,0.,0.00825));
#1758=CARTESIAN_POINT('',(0.054,0.,0.00825));
#1759=CARTESIAN_POINT('',(0.0899573806355212,0.,0.00825));
#1760=CARTESIAN_POINT('',(0.0899573806355212,0.,0.00725));
#1761=CARTESIAN_POINT('',(0.089680219984219,0.,0.0082108235911809));
#1762=CARTESIAN_POINT('',(0.0545543213026044,0.,-0.00192164718236179));
#1763=CARTESIAN_POINT('',(0.0645468866508857,0.,0.000960823591180897));
#1764=CARTESIAN_POINT('',(0.0648240473021879,0.,-4.33680868994202E-19));
#1765=CARTESIAN_POINT('',(0.,0.,2.60237444818812E-19));
#1766=CARTESIAN_POINT('',(0.,0.,-0.00425));
#1767=CARTESIAN_POINT('',(4.89858719658941E-19,0.,0.008));
#1768=CARTESIAN_POINT('',(4.89858719658941E-19,0.,0.0068));
#1769=CARTESIAN_POINT('',(0.008,0.,0.));
#1770=CARTESIAN_POINT('',(0.008,0.,-0.0012));
#1771=CARTESIAN_POINT('',(-1.46957615897682E-18,0.,-0.008));
#1772=CARTESIAN_POINT('',(-1.46957615897682E-18,0.,-0.0092));
#1773=CARTESIAN_POINT('',(-0.008,0.,1.7347234759768E-18));
#1774=CARTESIAN_POINT('',(-0.008,0.,-0.0012));
#1775=CARTESIAN_POINT('',(0.054,0.,0.01125));
#1776=CARTESIAN_POINT('',(0.,0.,0.01125));
#1777=CARTESIAN_POINT('',(0.108,0.,0.01125));
#1778=CARTESIAN_POINT('',(0.108,0.,-1.7347234759768E-18));
#1779=CARTESIAN_POINT('',(0.108,0.,-0.01125));
#1780=CARTESIAN_POINT('',(0.054,0.,-0.01125));
#1781=CARTESIAN_POINT('',(0.,0.,-0.01125));
#1782=CARTESIAN_POINT('',(-6.88863824520386E-19,0.,0.));
#1783=CARTESIAN_POINT('',(0.0534456786973956,0.,-0.00192164718236179));
#1784=CARTESIAN_POINT('',(0.0685864466824477,0.,-0.0062891764088191));
#1785=CARTESIAN_POINT('',(0.0542771606513022,0.,-0.00216149774598867));
#1786=CARTESIAN_POINT('',(0.054,0.,-0.00312232133716957));
#1787=CARTESIAN_POINT('',(0.0537228393486978,0.,-0.00216149774598867));
#1788=CARTESIAN_POINT('',(0.0545543213026044,0.,-0.00192164718236179));
#1789=CARTESIAN_POINT('',(0.0394135533175523,0.,-0.0062891764088191));
#1790=CARTESIAN_POINT('',(0.0396907139688545,0.,-0.00725));
#1791=CARTESIAN_POINT('',(0.0396907139688545,0.,-0.00825));
#1792=CARTESIAN_POINT('',(0.054,0.,-0.00825));
#1793=CARTESIAN_POINT('',(0.0683092860311455,0.,-0.00825));
#1794=CARTESIAN_POINT('',(0.0683092860311455,0.,-0.00725));
#1795=CARTESIAN_POINT('',(0.054,0.,0.00825));
#1796=CARTESIAN_POINT('',(0.0396907139688545,0.,0.00825));
#1797=CARTESIAN_POINT('',(0.0683092860311455,0.,0.00825));
#1798=CARTESIAN_POINT('',(0.0396907139688545,0.,0.00725));
#1799=CARTESIAN_POINT('',(0.0394135533175523,0.,0.0062891764088191));
#1800=CARTESIAN_POINT('',(0.0545543213026044,0.,0.0019216471823618));
#1801=CARTESIAN_POINT('',(0.0537228393486978,0.,0.00216149774598867));
#1802=CARTESIAN_POINT('',(0.054,0.,0.00312232133716957));
#1803=CARTESIAN_POINT('',(0.0542771606513022,0.,0.00216149774598868));
#1804=CARTESIAN_POINT('',(0.0534456786973956,0.,0.00192164718236179));
#1805=CARTESIAN_POINT('',(0.0685864466824477,0.,0.00628917640881911));
#1806=CARTESIAN_POINT('',(0.0683092860311455,0.,0.00725));
#1807=CARTESIAN_POINT('',(0.054,-0.01,0.01125));
#1808=CARTESIAN_POINT('',(0.,-0.01,0.01125));
#1809=CARTESIAN_POINT('',(0.,-0.008,0.01125));
#1810=CARTESIAN_POINT('',(0.054,-0.008,0.01125));
#1811=CARTESIAN_POINT('',(0.108,-0.008,0.01125));
#1812=CARTESIAN_POINT('',(0.108,-0.01,0.01125));
#1813=CARTESIAN_POINT('',(-6.88863824520386E-19,-0.01,0.));
#1814=CARTESIAN_POINT('',(0.,-0.01,-0.01125));
#1815=CARTESIAN_POINT('',(0.,-0.008,-0.01125));
#1816=CARTESIAN_POINT('',(-6.88863824520386E-19,-0.008,0.));
#1817=CARTESIAN_POINT('',(0.054,-0.01,-0.01125));
#1818=CARTESIAN_POINT('',(0.108,-0.01,-0.01125));
#1819=CARTESIAN_POINT('',(0.108,-0.008,-0.01125));
#1820=CARTESIAN_POINT('',(4.81482486096809E-35,-0.008,-0.01125));
#1821=CARTESIAN_POINT('',(0.108,-0.01,-1.7347234759768E-18));
#1822=CARTESIAN_POINT('',(0.108,-0.008,-1.7347234759768E-18));
#1823=CARTESIAN_POINT('',(-0.008,-0.01,1.7347234759768E-18));
#1824=CARTESIAN_POINT('',(-0.008,-0.00895,1.7347234759768E-18));
#1825=CARTESIAN_POINT('',(-0.008,-0.00895,0.0012));
#1826=CARTESIAN_POINT('',(-0.008,-0.01,1.7347234759768E-18));
#1827=CARTESIAN_POINT('',(-0.00903125,-0.01,0.00199975584447202));
#1828=CARTESIAN_POINT('',(-0.00924156340598345,-0.00985369502192456,0.00172668655848908));
#1829=CARTESIAN_POINT('',(-0.00959818792843397,-0.00960560839761113,0.00112517463413255));
#1830=CARTESIAN_POINT('',(-0.00982429197691397,-0.00944831862475554,3.65544261982335E-6));
#1831=CARTESIAN_POINT('',(-0.00960461903666903,-0.00960113458318664,-0.00110988406674829));
#1832=CARTESIAN_POINT('',(-0.0092422271208518,-0.00985323330723353,-0.00172582479628068));
#1833=CARTESIAN_POINT('',(-0.00903125,-0.01,-0.00199975584447202));
#1834=CARTESIAN_POINT('',(-1.46957615897682E-18,-0.01,-0.008));
#1835=CARTESIAN_POINT('',(-1.46957615897682E-18,-0.00895,-0.008));
#1836=CARTESIAN_POINT('',(-1.46957615897682E-18,-0.00895,-0.0068));
#1837=CARTESIAN_POINT('',(-1.46957615897682E-18,-0.01,-0.008));
#1838=CARTESIAN_POINT('',(-0.00199975584447202,-0.01,-0.00903125));
#1839=CARTESIAN_POINT('',(-0.00145163969577825,-0.00970633049839795,-0.00945339990855295));
#1840=CARTESIAN_POINT('',(-0.000756553487782778,-0.0095,-0.00975));
#1841=CARTESIAN_POINT('',(2.05961884993384E-19,-0.0095,-0.00975));
#1842=CARTESIAN_POINT('',(2.05961884993384E-19,-0.0095,-0.00975));
#1843=CARTESIAN_POINT('',(-6.24359026398723E-20,-0.0095,-0.00975));
#1844=CARTESIAN_POINT('',(0.00068642494403983,-0.0095,-0.00975));
#1845=CARTESIAN_POINT('',(0.00132650795129483,-0.00970904832493952,-0.00954095167506047));
#1846=CARTESIAN_POINT('',(0.00187082869338697,-0.01,-0.00925));
#1847=CARTESIAN_POINT('',(0.008,-0.01,0.));
#1848=CARTESIAN_POINT('',(0.008,-0.00895,0.));
#1849=CARTESIAN_POINT('',(0.008,-0.00895,0.0012));
#1850=CARTESIAN_POINT('',(0.008,-0.01,0.));
#1851=CARTESIAN_POINT('',(4.89858719658941E-19,-0.01,0.008));
#1852=CARTESIAN_POINT('',(4.89858719658941E-19,-0.00895,0.008));
#1853=CARTESIAN_POINT('',(4.89858719658941E-19,-0.00895,0.0092));
#1854=CARTESIAN_POINT('',(4.89858719658941E-19,-0.01,0.008));
#1855=CARTESIAN_POINT('',(0.00187082869338697,-0.01,0.00925));
#1856=CARTESIAN_POINT('',(0.00132647661449914,-0.00970903157471765,0.00954096842528235));
#1857=CARTESIAN_POINT('',(0.000687581968861032,-0.0095,0.00975));
#1858=CARTESIAN_POINT('',(-1.59437773892279E-18,-0.0095,0.00975));
#1859=CARTESIAN_POINT('',(-1.59437773892279E-18,-0.0095,0.00975));
#1860=CARTESIAN_POINT('',(-6.88863824520386E-19,-0.0095,0.00975));
#1861=CARTESIAN_POINT('',(-0.000751414540800138,-0.0095,0.00975));
#1862=CARTESIAN_POINT('',(-0.00145338746542507,-0.00970726691788188,0.0094520538055448));
#1863=CARTESIAN_POINT('',(-0.00199975584447202,-0.01,0.00903125));
#1864=CARTESIAN_POINT('',(0.,0.12281248491651,2.60237444818812E-19));
#1865=CARTESIAN_POINT('',(0.108,-0.0089,-8.7747071657366E-19));
#1866=CARTESIAN_POINT('',(0.108,-0.0089,-8.7747071657366E-19));
#1867=CARTESIAN_POINT('',(0.108,-0.0089,-0.0075));
#1868=CARTESIAN_POINT('',(0.054,-0.0089,0.));
#1869=CARTESIAN_POINT('',(0.0755160315347919,0.12281248491651,-0.004125));
#1870=CARTESIAN_POINT('',(0.089680219984219,0.12281248491651,-0.00821082359118089));
#1871=CARTESIAN_POINT('',(0.0645468866508857,-0.01,-0.000960823591180896));
#1872=CARTESIAN_POINT('',(0.0914080157673959,0.12281248491651,-0.00825));
#1873=CARTESIAN_POINT('',(0.0899573806355212,0.12281248491651,-0.00825));
#1874=CARTESIAN_POINT('',(0.092,0.12281248491651,-0.00825));
#1875=CARTESIAN_POINT('',(0.093,0.12281248491651,0.));
#1876=CARTESIAN_POINT('',(0.093,0.12281248491651,-0.00725));
#1877=CARTESIAN_POINT('',(0.093,0.,0.00725));
#1878=CARTESIAN_POINT('',(0.0914080157673959,0.12281248491651,0.00825));
#1879=CARTESIAN_POINT('',(0.0899573806355212,2.77555756156289E-17,0.00825));
#1880=CARTESIAN_POINT('',(0.092,-0.01,0.00825));
#1881=CARTESIAN_POINT('',(0.0755160315347919,0.12281248491651,0.004125));
#1882=CARTESIAN_POINT('',(0.089680219984219,-0.01,0.0082108235911809));
#1883=CARTESIAN_POINT('',(0.0645468866508857,0.,0.000960823591180895));
#1884=CARTESIAN_POINT('',(0.054,0.12281248491651,-0.00825));
#1885=CARTESIAN_POINT('',(0.0396907139688545,-0.01,-0.00825));
#1886=CARTESIAN_POINT('',(0.0683092860311455,2.77555756156289E-17,-0.00825));
#1887=CARTESIAN_POINT('',(0.064691984232604,0.12281248491651,-0.00516577377905652));
#1888=CARTESIAN_POINT('',(0.0542771606513022,0.,-0.00216149774598867));
#1889=CARTESIAN_POINT('',(0.0685864466824477,-0.01,-0.0062891764088191));
#1890=CARTESIAN_POINT('',(0.043308015767396,0.12281248491651,-0.00516577377905652));
#1891=CARTESIAN_POINT('',(0.0537228393486978,-0.01,-0.00216149774598867));
#1892=CARTESIAN_POINT('',(0.0394135533175523,0.,-0.0062891764088191));
#1893=CARTESIAN_POINT('',(0.054,0.12281248491651,0.00825));
#1894=CARTESIAN_POINT('',(0.0683092860311455,0.12281248491651,0.00825));
#1895=CARTESIAN_POINT('',(0.0396907139688545,0.12281248491651,0.00825));
#1896=CARTESIAN_POINT('',(0.043308015767396,0.12281248491651,0.00516577377905652));
#1897=CARTESIAN_POINT('',(0.0394135533175523,0.12281248491651,0.0062891764088191));
#1898=CARTESIAN_POINT('',(0.0537228393486978,0.,0.00216149774598867));
#1899=CARTESIAN_POINT('',(0.064691984232604,0.12281248491651,0.00516577377905652));
#1900=CARTESIAN_POINT('',(0.0685864466824477,0.12281248491651,0.0062891764088191));
#1901=CARTESIAN_POINT('',(0.0542771606513022,-0.01,0.00216149774598868));
#1902=CARTESIAN_POINT('',(0.054,-0.0011,0.));
#1903=CARTESIAN_POINT('',(0.108,-0.0011,-1.27548092629655E-18));
#1904=CARTESIAN_POINT('',(0.108,-0.0011,0.0075));
#1905=CARTESIAN_POINT('',(0.108,-0.0011,-1.27548092629655E-18));
#1906=CARTESIAN_POINT('',(-6.88863824520386E-19,-0.01,0.));
#1907=CARTESIAN_POINT('',(-6.88863824520386E-19,-0.014625,0.004625));
#1908=CARTESIAN_POINT('',(-3.91712117987322E-19,-0.014625,-0.004625));
#1909=CARTESIAN_POINT('',(0.054,-0.01,-0.00925));
#1910=CARTESIAN_POINT('',(0.108,-0.01,-0.00925));
#1911=CARTESIAN_POINT('',(0.054,-0.008,0.01125));
#1912=CARTESIAN_POINT('',(0.108,-0.008,0.01125));
#1913=CARTESIAN_POINT('',(0.108,-0.01,-1.7347234759768E-18));
#1914=CARTESIAN_POINT('',(0.025,-0.01,-0.005));
#1915=CARTESIAN_POINT('',(0.025,-0.00834,-0.005));
#1916=CARTESIAN_POINT('',(0.025,-0.00834,-0.0033));
#1917=CARTESIAN_POINT('',(0.025,-0.01,-0.005));
#1918=CARTESIAN_POINT('',(0.025,-0.01,0.005));
#1919=CARTESIAN_POINT('',(0.025,-0.00834,0.005));
#1920=CARTESIAN_POINT('',(0.025,-0.00834,0.0067));
#1921=CARTESIAN_POINT('',(0.025,-0.01,0.005));
#1922=CARTESIAN_POINT('',(0.0397,0.122833493554205,0.003125));
#1923=CARTESIAN_POINT('',(0.0447099385364644,-0.01,0.000914931165935618));
#1924=CARTESIAN_POINT('',(0.0340196414474548,0.,0.0056308158522142));
#1925=CARTESIAN_POINT('',(0.032616031534792,0.122833493554205,-1.7347234759768E-18));
#1926=CARTESIAN_POINT('',(0.032616031534792,0.,-0.00471588468627859));
#1927=CARTESIAN_POINT('',(0.032616031534792,-0.01,0.00471588468627858));
#1928=CARTESIAN_POINT('',(0.0397,0.122833493554205,-0.003125));
#1929=CARTESIAN_POINT('',(0.0447099385364644,0.,-0.000914931165935623));
#1930=CARTESIAN_POINT('',(0.0340196414474548,-0.01,-0.00563081585221421));
#1931=CARTESIAN_POINT('',(0.0443063286238016,0.122833493554205,-2.16840434497101E-18));
#1932=CARTESIAN_POINT('',(0.0336160315347919,0.122833493554205,-0.00471588468627859));
#1933=CARTESIAN_POINT('',(0.0336160315347919,0.122833493554205,0.00471588468627858));
#1934=CARTESIAN_POINT('',(0.054,0.12281248491651,-0.00312232133716957));
#1935=CARTESIAN_POINT('',(0.0396907139688545,0.12281248491651,-0.00725));
#1936=CARTESIAN_POINT('',(0.0683092860311455,0.12281248491651,-0.00725));
#1937=CARTESIAN_POINT('',(0.0899573806355212,0.12281248491651,-0.00725));
#1938=CARTESIAN_POINT('',(0.0899573806355212,0.12281248491651,0.00725));
#1939=CARTESIAN_POINT('',(0.0648240473021879,0.12281248491651,-4.33680868994202E-19));
#1940=CARTESIAN_POINT('',(0.092,0.12281248491651,-0.00725));
#1941=CARTESIAN_POINT('',(0.092,0.12281248491651,0.00725));
#1942=CARTESIAN_POINT('',(0.0683092860311455,0.12281248491651,0.00725));
#1943=CARTESIAN_POINT('',(0.0396907139688545,0.12281248491651,0.00725));
#1944=CARTESIAN_POINT('',(0.054,0.12281248491651,0.00312232133716957));
#1945=MECHANICAL_DESIGN_GEOMETRIC_PRESENTATION_REPRESENTATION('',(#1051,
#12,#13,#14,#15,#16,#17,#18,#19,#20,#21,#22,#23,#24,#25,#26,#27,#28,#29,
#30,#31,#32,#33,#34,#35,#36),#1946);
#1946=(
GEOMETRIC_REPRESENTATION_CONTEXT(3)
GLOBAL_UNCERTAINTY_ASSIGNED_CONTEXT((#1947))
GLOBAL_UNIT_ASSIGNED_CONTEXT((#1950,#1949,#1948))
REPRESENTATION_CONTEXT('Part 1','TOP_LEVEL_ASSEMBLY_PART')
);
#1947=UNCERTAINTY_MEASURE_WITH_UNIT(LENGTH_MEASURE(2.E-5),#1950,
'DISTANCE_ACCURACY_VALUE','Maximum Tolerance applied to model');
#1948=(
NAMED_UNIT(*)
SI_UNIT($,.STERADIAN.)
SOLID_ANGLE_UNIT()
);
#1949=(
NAMED_UNIT(*)
PLANE_ANGLE_UNIT()
SI_UNIT($,.RADIAN.)
);
#1950=(
LENGTH_UNIT()
NAMED_UNIT(*)
SI_UNIT($,.METRE.)
);
#1951=PRODUCT_DEFINITION_SHAPE('','',#1952);
#1952=PRODUCT_DEFINITION('','',#1954,#1953);
#1953=PRODUCT_DEFINITION_CONTEXT('',#1960,'design');
#1954=PRODUCT_DEFINITION_FORMATION_WITH_SPECIFIED_SOURCE('','',#1956,
 .NOT_KNOWN.);
#1955=PRODUCT_RELATED_PRODUCT_CATEGORY('','',(#1956));
#1956=PRODUCT('Part 1','Part 1','Part 1',(#1958));
#1957=PRODUCT_CATEGORY('','');
#1958=PRODUCT_CONTEXT('',#1960,'mechanical');
#1959=APPLICATION_PROTOCOL_DEFINITION('international standard',
'ap242_managed_model_based_3d_engineering',2011,#1960);
#1960=APPLICATION_CONTEXT('managed model based 3d engineering');
ENDSEC;
END-ISO-10303-21;
