ISO-10303-21;
HEADER;
/* Generated by software containing ST-Developer
 * from STEP Tools, Inc. (www.steptools.com) 
 */
/* OPTION: using custom renumber hook */

FILE_DESCRIPTION(
/* description */ ('STEP AP242',
'CAx-IF Rec.Pracs.---Representation and Presentation of Product Manufa
cturing Information (PMI)---4.0---2014-10-13',
'CAx-IF Rec.Pracs.---3D Tessellated Geometry---0.4---2014-09-14','2;1'),

/* implementation_level */ '2;1');

FILE_NAME(
/* name */ '6874013bd1955a75fb7b32cd',
/* time_stamp */ '2025-07-13T18:55:55Z',
/* author */ (''),
/* organization */ (''),
/* preprocessor_version */ 'ST-DEVELOPER v20',
/* originating_system */ 'ONSHAPE BY PTC INC, 1.200',
/* authorisation */ '  ');

FILE_SCHEMA (('AP242_MANAGED_MODEL_BASED_3D_ENGINEERING_MIM_LF { 1 0 10303 442 1 1 4 }'));
ENDSEC;

DATA;
#10=SHAPE_REPRESENTATION_RELATIONSHIP('','',#425,#11);
#11=ADVANCED_BREP_SHAPE_REPRESENTATION('',(#423),#746);
#12=B_SPLINE_CURVE_WITH_KNOTS('',3,(#647,#648,#649,#650),.UNSPECIFIED.,
 .F.,.F.,(4,4),(0.,0.00190942163298607),.UNSPECIFIED.);
#13=B_SPLINE_CURVE_WITH_KNOTS('',3,(#678,#679,#680,#681,#682,#683,#684),
 .UNSPECIFIED.,.F.,.F.,(4,1,1,1,4),(0.,0.00265692961675626,0.00531385923351252,
0.00797078885026878,0.010627718467025),.UNSPECIFIED.);
#14=B_SPLINE_CURVE_WITH_KNOTS('',3,(#685,#686,#687,#688,#689,#690,#691,
#692),.UNSPECIFIED.,.F.,.F.,(4,1,1,1,1,4),(0.,0.00266588505717138,0.00399882758575706,
0.00533177011434275,0.00799765517151413,0.0106635402286855),
 .UNSPECIFIED.);
#15=B_SPLINE_CURVE_WITH_KNOTS('',3,(#694,#695,#696,#697,#698,#699,#700,
#701),.UNSPECIFIED.,.F.,.F.,(4,1,1,1,1,4),(0.,0.00266588505717137,0.00399882758575706,
0.00533177011434274,0.00799765517151411,0.0106635402286855),
 .UNSPECIFIED.);
#16=B_SPLINE_CURVE_WITH_KNOTS('',3,(#702,#703,#704,#705,#706,#707,#708),
 .UNSPECIFIED.,.F.,.F.,(4,1,1,1,4),(0.,0.00265692961675626,0.00531385923351251,
0.00797078885026877,0.010627718467025),.UNSPECIFIED.);
#17=B_SPLINE_CURVE_WITH_KNOTS('',3,(#710,#711,#712,#713),.UNSPECIFIED.,
 .F.,.F.,(4,4),(6.91503475855258E-19,0.00134471948341474),.UNSPECIFIED.);
#18=B_SPLINE_CURVE_WITH_KNOTS('',3,(#714,#715,#716,#717),.UNSPECIFIED.,
 .F.,.F.,(4,4),(0.,0.00134471948341474),.UNSPECIFIED.);
#19=B_SPLINE_CURVE_WITH_KNOTS('',3,(#719,#720,#721,#722),.UNSPECIFIED.,
 .F.,.F.,(4,4),(2.64267458754602E-35,0.00134471948341474),.UNSPECIFIED.);
#20=B_SPLINE_CURVE_WITH_KNOTS('',3,(#723,#724,#725,#726),.UNSPECIFIED.,
 .F.,.F.,(4,4),(0.,0.00134471948341474),.UNSPECIFIED.);
#21=LINE('',#592,#48);
#22=LINE('',#595,#49);
#23=LINE('',#597,#50);
#24=LINE('',#599,#51);
#25=LINE('',#601,#52);
#26=LINE('',#604,#53);
#27=LINE('',#606,#54);
#28=LINE('',#608,#55);
#29=LINE('',#610,#56);
#30=LINE('',#613,#57);
#31=LINE('',#615,#58);
#32=LINE('',#617,#59);
#33=LINE('',#619,#60);
#34=LINE('',#622,#61);
#35=LINE('',#627,#62);
#36=LINE('',#629,#63);
#37=LINE('',#637,#64);
#38=LINE('',#639,#65);
#39=LINE('',#641,#66);
#40=LINE('',#653,#67);
#41=LINE('',#656,#68);
#42=LINE('',#658,#69);
#43=LINE('',#660,#70);
#44=LINE('',#662,#71);
#45=LINE('',#665,#72);
#46=LINE('',#667,#73);
#47=LINE('',#669,#74);
#48=VECTOR('',#480,1.);
#49=VECTOR('',#481,1.);
#50=VECTOR('',#482,1.);
#51=VECTOR('',#483,1.);
#52=VECTOR('',#486,1.);
#53=VECTOR('',#487,1.);
#54=VECTOR('',#488,1.);
#55=VECTOR('',#489,1.);
#56=VECTOR('',#492,1.);
#57=VECTOR('',#493,1.);
#58=VECTOR('',#494,1.);
#59=VECTOR('',#495,1.);
#60=VECTOR('',#498,1.);
#61=VECTOR('',#499,1.);
#62=VECTOR('',#504,1.);
#63=VECTOR('',#505,1.);
#64=VECTOR('',#514,1.);
#65=VECTOR('',#515,1.);
#66=VECTOR('',#516,1.);
#67=VECTOR('',#527,1.);
#68=VECTOR('',#528,1.);
#69=VECTOR('',#529,1.);
#70=VECTOR('',#530,1.);
#71=VECTOR('',#533,1.);
#72=VECTOR('',#534,1.);
#73=VECTOR('',#535,1.);
#74=VECTOR('',#536,1.);
#75=PLANE('',#430);
#76=PLANE('',#431);
#77=PLANE('',#432);
#78=PLANE('',#433);
#79=PLANE('',#437);
#80=PLANE('',#443);
#81=PLANE('',#444);
#82=PLANE('',#445);
#83=PLANE('',#446);
#84=PLANE('',#460);
#85=PLANE('',#464);
#86=PLANE('',#467);
#87=ORIENTED_EDGE('',*,*,#195,.F.);
#88=ORIENTED_EDGE('',*,*,#196,.T.);
#89=ORIENTED_EDGE('',*,*,#197,.T.);
#90=ORIENTED_EDGE('',*,*,#198,.T.);
#91=ORIENTED_EDGE('',*,*,#199,.T.);
#92=ORIENTED_EDGE('',*,*,#200,.T.);
#93=ORIENTED_EDGE('',*,*,#201,.T.);
#94=ORIENTED_EDGE('',*,*,#202,.T.);
#95=ORIENTED_EDGE('',*,*,#203,.F.);
#96=ORIENTED_EDGE('',*,*,#204,.T.);
#97=ORIENTED_EDGE('',*,*,#205,.T.);
#98=ORIENTED_EDGE('',*,*,#206,.T.);
#99=ORIENTED_EDGE('',*,*,#207,.F.);
#100=ORIENTED_EDGE('',*,*,#208,.T.);
#101=ORIENTED_EDGE('',*,*,#209,.T.);
#102=ORIENTED_EDGE('',*,*,#210,.T.);
#103=ORIENTED_EDGE('',*,*,#211,.T.);
#104=ORIENTED_EDGE('',*,*,#203,.T.);
#105=ORIENTED_EDGE('',*,*,#212,.T.);
#106=ORIENTED_EDGE('',*,*,#213,.T.);
#107=ORIENTED_EDGE('',*,*,#214,.T.);
#108=ORIENTED_EDGE('',*,*,#215,.F.);
#109=ORIENTED_EDGE('',*,*,#216,.F.);
#110=ORIENTED_EDGE('',*,*,#217,.T.);
#111=ORIENTED_EDGE('',*,*,#218,.T.);
#112=ORIENTED_EDGE('',*,*,#219,.T.);
#113=ORIENTED_EDGE('',*,*,#220,.T.);
#114=ORIENTED_EDGE('',*,*,#221,.T.);
#115=ORIENTED_EDGE('',*,*,#201,.F.);
#116=ORIENTED_EDGE('',*,*,#222,.F.);
#117=ORIENTED_EDGE('',*,*,#215,.T.);
#118=ORIENTED_EDGE('',*,*,#223,.T.);
#119=ORIENTED_EDGE('',*,*,#196,.F.);
#120=ORIENTED_EDGE('',*,*,#222,.T.);
#121=ORIENTED_EDGE('',*,*,#224,.F.);
#122=ORIENTED_EDGE('',*,*,#225,.T.);
#123=ORIENTED_EDGE('',*,*,#226,.T.);
#124=ORIENTED_EDGE('',*,*,#227,.T.);
#125=ORIENTED_EDGE('',*,*,#228,.T.);
#126=ORIENTED_EDGE('',*,*,#229,.T.);
#127=ORIENTED_EDGE('',*,*,#230,.T.);
#128=ORIENTED_EDGE('',*,*,#231,.T.);
#129=ORIENTED_EDGE('',*,*,#232,.F.);
#130=ORIENTED_EDGE('',*,*,#230,.F.);
#131=ORIENTED_EDGE('',*,*,#233,.T.);
#132=ORIENTED_EDGE('',*,*,#197,.F.);
#133=ORIENTED_EDGE('',*,*,#234,.T.);
#134=ORIENTED_EDGE('',*,*,#224,.T.);
#135=ORIENTED_EDGE('',*,*,#235,.T.);
#136=ORIENTED_EDGE('',*,*,#207,.T.);
#137=ORIENTED_EDGE('',*,*,#236,.T.);
#138=ORIENTED_EDGE('',*,*,#219,.F.);
#139=ORIENTED_EDGE('',*,*,#237,.T.);
#140=ORIENTED_EDGE('',*,*,#228,.F.);
#141=ORIENTED_EDGE('',*,*,#238,.T.);
#142=ORIENTED_EDGE('',*,*,#226,.F.);
#143=ORIENTED_EDGE('',*,*,#239,.T.);
#144=ORIENTED_EDGE('',*,*,#209,.F.);
#145=ORIENTED_EDGE('',*,*,#223,.F.);
#146=ORIENTED_EDGE('',*,*,#214,.F.);
#147=ORIENTED_EDGE('',*,*,#240,.T.);
#148=ORIENTED_EDGE('',*,*,#221,.F.);
#149=ORIENTED_EDGE('',*,*,#241,.T.);
#150=ORIENTED_EDGE('',*,*,#205,.F.);
#151=ORIENTED_EDGE('',*,*,#242,.T.);
#152=ORIENTED_EDGE('',*,*,#212,.F.);
#153=ORIENTED_EDGE('',*,*,#202,.F.);
#154=ORIENTED_EDGE('',*,*,#199,.F.);
#155=ORIENTED_EDGE('',*,*,#243,.T.);
#156=ORIENTED_EDGE('',*,*,#217,.F.);
#157=ORIENTED_EDGE('',*,*,#204,.F.);
#158=ORIENTED_EDGE('',*,*,#211,.F.);
#159=ORIENTED_EDGE('',*,*,#244,.T.);
#160=ORIENTED_EDGE('',*,*,#233,.F.);
#161=ORIENTED_EDGE('',*,*,#229,.F.);
#162=ORIENTED_EDGE('',*,*,#237,.F.);
#163=ORIENTED_EDGE('',*,*,#218,.F.);
#164=ORIENTED_EDGE('',*,*,#243,.F.);
#165=ORIENTED_EDGE('',*,*,#198,.F.);
#166=ORIENTED_EDGE('',*,*,#236,.F.);
#167=ORIENTED_EDGE('',*,*,#206,.F.);
#168=ORIENTED_EDGE('',*,*,#241,.F.);
#169=ORIENTED_EDGE('',*,*,#220,.F.);
#170=ORIENTED_EDGE('',*,*,#238,.F.);
#171=ORIENTED_EDGE('',*,*,#231,.F.);
#172=ORIENTED_EDGE('',*,*,#234,.F.);
#173=ORIENTED_EDGE('',*,*,#200,.F.);
#174=ORIENTED_EDGE('',*,*,#244,.F.);
#175=ORIENTED_EDGE('',*,*,#210,.F.);
#176=ORIENTED_EDGE('',*,*,#239,.F.);
#177=ORIENTED_EDGE('',*,*,#225,.F.);
#178=ORIENTED_EDGE('',*,*,#235,.F.);
#179=ORIENTED_EDGE('',*,*,#227,.F.);
#180=ORIENTED_EDGE('',*,*,#240,.F.);
#181=ORIENTED_EDGE('',*,*,#213,.F.);
#182=ORIENTED_EDGE('',*,*,#242,.F.);
#183=ORIENTED_EDGE('',*,*,#208,.F.);
#184=ORIENTED_EDGE('',*,*,#245,.T.);
#185=ORIENTED_EDGE('',*,*,#246,.T.);
#186=ORIENTED_EDGE('',*,*,#245,.F.);
#187=ORIENTED_EDGE('',*,*,#232,.T.);
#188=ORIENTED_EDGE('',*,*,#247,.T.);
#189=ORIENTED_EDGE('',*,*,#247,.F.);
#190=ORIENTED_EDGE('',*,*,#246,.F.);
#191=ORIENTED_EDGE('',*,*,#248,.T.);
#192=ORIENTED_EDGE('',*,*,#195,.T.);
#193=ORIENTED_EDGE('',*,*,#248,.F.);
#194=ORIENTED_EDGE('',*,*,#216,.T.);
#195=EDGE_CURVE('',#249,#249,#288,.T.);
#196=EDGE_CURVE('',#250,#250,#289,.T.);
#197=EDGE_CURVE('',#251,#252,#21,.T.);
#198=EDGE_CURVE('',#252,#253,#22,.T.);
#199=EDGE_CURVE('',#253,#254,#23,.F.);
#200=EDGE_CURVE('',#254,#251,#24,.F.);
#201=EDGE_CURVE('',#255,#256,#25,.T.);
#202=EDGE_CURVE('',#256,#257,#26,.F.);
#203=EDGE_CURVE('',#258,#257,#27,.T.);
#204=EDGE_CURVE('',#258,#255,#28,.T.);
#205=EDGE_CURVE('',#259,#260,#29,.T.);
#206=EDGE_CURVE('',#260,#261,#30,.F.);
#207=EDGE_CURVE('',#262,#261,#31,.T.);
#208=EDGE_CURVE('',#262,#259,#32,.T.);
#209=EDGE_CURVE('',#263,#264,#33,.T.);
#210=EDGE_CURVE('',#264,#265,#34,.T.);
#211=EDGE_CURVE('',#265,#258,#290,.T.);
#212=EDGE_CURVE('',#257,#266,#291,.T.);
#213=EDGE_CURVE('',#266,#267,#35,.F.);
#214=EDGE_CURVE('',#267,#268,#36,.T.);
#215=EDGE_CURVE('',#263,#268,#292,.T.);
#216=EDGE_CURVE('',#269,#269,#293,.F.);
#217=EDGE_CURVE('',#255,#270,#294,.F.);
#218=EDGE_CURVE('',#270,#271,#37,.T.);
#219=EDGE_CURVE('',#271,#272,#38,.F.);
#220=EDGE_CURVE('',#272,#273,#39,.F.);
#221=EDGE_CURVE('',#273,#256,#295,.F.);
#222=EDGE_CURVE('',#274,#274,#296,.T.);
#223=EDGE_CURVE('',#268,#263,#12,.T.);
#224=EDGE_CURVE('',#275,#276,#40,.T.);
#225=EDGE_CURVE('',#275,#277,#41,.T.);
#226=EDGE_CURVE('',#277,#278,#42,.F.);
#227=EDGE_CURVE('',#278,#276,#43,.F.);
#228=EDGE_CURVE('',#279,#280,#44,.F.);
#229=EDGE_CURVE('',#280,#281,#45,.F.);
#230=EDGE_CURVE('',#281,#282,#46,.T.);
#231=EDGE_CURVE('',#282,#279,#47,.T.);
#232=EDGE_CURVE('',#283,#283,#297,.T.);
#233=EDGE_CURVE('',#281,#252,#298,.T.);
#234=EDGE_CURVE('',#251,#275,#299,.T.);
#235=EDGE_CURVE('',#276,#262,#300,.T.);
#236=EDGE_CURVE('',#261,#282,#301,.T.);
#237=EDGE_CURVE('',#271,#280,#13,.T.);
#238=EDGE_CURVE('',#279,#272,#14,.T.);
#239=EDGE_CURVE('',#277,#264,#15,.T.);
#240=EDGE_CURVE('',#267,#278,#16,.T.);
#241=EDGE_CURVE('',#273,#260,#17,.T.);
#242=EDGE_CURVE('',#259,#266,#18,.F.);
#243=EDGE_CURVE('',#253,#270,#19,.F.);
#244=EDGE_CURVE('',#265,#254,#20,.T.);
#245=EDGE_CURVE('',#284,#284,#302,.T.);
#246=EDGE_CURVE('',#285,#285,#303,.F.);
#247=EDGE_CURVE('',#286,#286,#304,.T.);
#248=EDGE_CURVE('',#287,#287,#305,.T.);
#249=VERTEX_POINT('',#588);
#250=VERTEX_POINT('',#590);
#251=VERTEX_POINT('',#593);
#252=VERTEX_POINT('',#594);
#253=VERTEX_POINT('',#596);
#254=VERTEX_POINT('',#598);
#255=VERTEX_POINT('',#602);
#256=VERTEX_POINT('',#603);
#257=VERTEX_POINT('',#605);
#258=VERTEX_POINT('',#607);
#259=VERTEX_POINT('',#611);
#260=VERTEX_POINT('',#612);
#261=VERTEX_POINT('',#614);
#262=VERTEX_POINT('',#616);
#263=VERTEX_POINT('',#620);
#264=VERTEX_POINT('',#621);
#265=VERTEX_POINT('',#623);
#266=VERTEX_POINT('',#626);
#267=VERTEX_POINT('',#628);
#268=VERTEX_POINT('',#630);
#269=VERTEX_POINT('',#634);
#270=VERTEX_POINT('',#636);
#271=VERTEX_POINT('',#638);
#272=VERTEX_POINT('',#640);
#273=VERTEX_POINT('',#642);
#274=VERTEX_POINT('',#646);
#275=VERTEX_POINT('',#654);
#276=VERTEX_POINT('',#655);
#277=VERTEX_POINT('',#657);
#278=VERTEX_POINT('',#659);
#279=VERTEX_POINT('',#663);
#280=VERTEX_POINT('',#664);
#281=VERTEX_POINT('',#666);
#282=VERTEX_POINT('',#668);
#283=VERTEX_POINT('',#672);
#284=VERTEX_POINT('',#733);
#285=VERTEX_POINT('',#735);
#286=VERTEX_POINT('',#739);
#287=VERTEX_POINT('',#743);
#288=CIRCLE('',#428,0.004);
#289=CIRCLE('',#429,0.004);
#290=CIRCLE('',#434,0.004);
#291=CIRCLE('',#435,0.004);
#292=CIRCLE('',#436,0.0046);
#293=CIRCLE('',#438,0.00225);
#294=CIRCLE('',#439,0.004);
#295=CIRCLE('',#440,0.004);
#296=CIRCLE('',#442,0.0046);
#297=CIRCLE('',#447,0.0041);
#298=CIRCLE('',#448,0.005);
#299=CIRCLE('',#449,0.005);
#300=CIRCLE('',#450,0.005);
#301=CIRCLE('',#451,0.005);
#302=CIRCLE('',#461,0.0041);
#303=CIRCLE('',#462,0.00325);
#304=CIRCLE('',#465,0.00325);
#305=CIRCLE('',#468,0.00225);
#306=EDGE_LOOP('',(#87));
#307=EDGE_LOOP('',(#88));
#308=EDGE_LOOP('',(#89,#90,#91,#92));
#309=EDGE_LOOP('',(#93,#94,#95,#96));
#310=EDGE_LOOP('',(#97,#98,#99,#100));
#311=EDGE_LOOP('',(#101,#102,#103,#104,#105,#106,#107,#108));
#312=EDGE_LOOP('',(#109));
#313=EDGE_LOOP('',(#110,#111,#112,#113,#114,#115));
#314=EDGE_LOOP('',(#116));
#315=EDGE_LOOP('',(#117,#118));
#316=EDGE_LOOP('',(#119));
#317=EDGE_LOOP('',(#120));
#318=EDGE_LOOP('',(#121,#122,#123,#124));
#319=EDGE_LOOP('',(#125,#126,#127,#128));
#320=EDGE_LOOP('',(#129));
#321=EDGE_LOOP('',(#130,#131,#132,#133,#134,#135,#136,#137));
#322=EDGE_LOOP('',(#138,#139,#140,#141));
#323=EDGE_LOOP('',(#142,#143,#144,#145,#146,#147));
#324=EDGE_LOOP('',(#148,#149,#150,#151,#152,#153));
#325=EDGE_LOOP('',(#154,#155,#156,#157,#158,#159));
#326=EDGE_LOOP('',(#160,#161,#162,#163,#164,#165));
#327=EDGE_LOOP('',(#166,#167,#168,#169,#170,#171));
#328=EDGE_LOOP('',(#172,#173,#174,#175,#176,#177));
#329=EDGE_LOOP('',(#178,#179,#180,#181,#182,#183));
#330=EDGE_LOOP('',(#184));
#331=EDGE_LOOP('',(#185));
#332=EDGE_LOOP('',(#186));
#333=EDGE_LOOP('',(#187));
#334=EDGE_LOOP('',(#188));
#335=EDGE_LOOP('',(#189));
#336=EDGE_LOOP('',(#190));
#337=EDGE_LOOP('',(#191));
#338=EDGE_LOOP('',(#192));
#339=EDGE_LOOP('',(#193));
#340=EDGE_LOOP('',(#194));
#341=FACE_BOUND('',#306,.T.);
#342=FACE_BOUND('',#307,.T.);
#343=FACE_BOUND('',#308,.T.);
#344=FACE_BOUND('',#309,.T.);
#345=FACE_BOUND('',#310,.T.);
#346=FACE_BOUND('',#311,.T.);
#347=FACE_BOUND('',#312,.T.);
#348=FACE_BOUND('',#313,.T.);
#349=FACE_BOUND('',#314,.T.);
#350=FACE_BOUND('',#315,.T.);
#351=FACE_BOUND('',#316,.T.);
#352=FACE_BOUND('',#317,.T.);
#353=FACE_BOUND('',#318,.T.);
#354=FACE_BOUND('',#319,.T.);
#355=FACE_BOUND('',#320,.T.);
#356=FACE_BOUND('',#321,.T.);
#357=FACE_BOUND('',#322,.T.);
#358=FACE_BOUND('',#323,.T.);
#359=FACE_BOUND('',#324,.T.);
#360=FACE_BOUND('',#325,.T.);
#361=FACE_BOUND('',#326,.T.);
#362=FACE_BOUND('',#327,.T.);
#363=FACE_BOUND('',#328,.T.);
#364=FACE_BOUND('',#329,.T.);
#365=FACE_BOUND('',#330,.T.);
#366=FACE_BOUND('',#331,.T.);
#367=FACE_BOUND('',#332,.T.);
#368=FACE_BOUND('',#333,.T.);
#369=FACE_BOUND('',#334,.T.);
#370=FACE_BOUND('',#335,.T.);
#371=FACE_BOUND('',#336,.T.);
#372=FACE_BOUND('',#337,.T.);
#373=FACE_BOUND('',#338,.T.);
#374=FACE_BOUND('',#339,.T.);
#375=FACE_BOUND('',#340,.T.);
#376=CYLINDRICAL_SURFACE('',#427,0.004);
#377=CYLINDRICAL_SURFACE('',#441,0.0046);
#378=CYLINDRICAL_SURFACE('',#452,0.0075);
#379=CYLINDRICAL_SURFACE('',#453,0.0075);
#380=CYLINDRICAL_SURFACE('',#454,0.004);
#381=CYLINDRICAL_SURFACE('',#455,0.004);
#382=CYLINDRICAL_SURFACE('',#456,0.005);
#383=CYLINDRICAL_SURFACE('',#457,0.005);
#384=CYLINDRICAL_SURFACE('',#458,0.005);
#385=CYLINDRICAL_SURFACE('',#459,0.005);
#386=CYLINDRICAL_SURFACE('',#463,0.0041);
#387=CYLINDRICAL_SURFACE('',#466,0.00325);
#388=CYLINDRICAL_SURFACE('',#469,0.00225);
#389=ADVANCED_FACE('',(#341,#342),#376,.F.);
#390=ADVANCED_FACE('',(#343),#75,.F.);
#391=ADVANCED_FACE('',(#344),#76,.F.);
#392=ADVANCED_FACE('',(#345),#77,.F.);
#393=ADVANCED_FACE('',(#346),#78,.T.);
#394=ADVANCED_FACE('',(#347,#348),#79,.F.);
#395=ADVANCED_FACE('',(#349,#350),#377,.F.);
#396=ADVANCED_FACE('',(#351,#352),#80,.T.);
#397=ADVANCED_FACE('',(#353),#81,.F.);
#398=ADVANCED_FACE('',(#354),#82,.T.);
#399=ADVANCED_FACE('',(#355,#356),#83,.T.);
#400=ADVANCED_FACE('',(#357),#378,.F.);
#401=ADVANCED_FACE('',(#358),#379,.F.);
#402=ADVANCED_FACE('',(#359),#380,.T.);
#403=ADVANCED_FACE('',(#360),#381,.T.);
#404=ADVANCED_FACE('',(#361),#382,.T.);
#405=ADVANCED_FACE('',(#362),#383,.T.);
#406=ADVANCED_FACE('',(#363),#384,.T.);
#407=ADVANCED_FACE('',(#364),#385,.T.);
#408=ADVANCED_FACE('',(#365,#366),#84,.T.);
#409=ADVANCED_FACE('',(#367,#368),#386,.F.);
#410=ADVANCED_FACE('',(#369),#85,.T.);
#411=ADVANCED_FACE('',(#370,#371),#387,.F.);
#412=ADVANCED_FACE('',(#372,#373),#86,.T.);
#413=ADVANCED_FACE('',(#374,#375),#388,.F.);
#414=CLOSED_SHELL('',(#389,#390,#391,#392,#393,#394,#395,#396,#397,#398,
#399,#400,#401,#402,#403,#404,#405,#406,#407,#408,#409,#410,#411,#412,#413));
#415=STYLED_ITEM('',(#416),#423);
#416=PRESENTATION_STYLE_ASSIGNMENT((#417));
#417=SURFACE_STYLE_USAGE(.BOTH.,#418);
#418=SURFACE_SIDE_STYLE('',(#419));
#419=SURFACE_STYLE_FILL_AREA(#420);
#420=FILL_AREA_STYLE('',(#421));
#421=FILL_AREA_STYLE_COLOUR('',#422);
#422=COLOUR_RGB('',0.301960784313725,0.301960784313725,0.301960784313725);
#423=MANIFOLD_SOLID_BREP('Part 1',#414);
#424=SHAPE_DEFINITION_REPRESENTATION(#751,#425);
#425=SHAPE_REPRESENTATION('Part 1',(#426),#746);
#426=AXIS2_PLACEMENT_3D('',#585,#470,#471);
#427=AXIS2_PLACEMENT_3D('',#586,#472,#473);
#428=AXIS2_PLACEMENT_3D('',#587,#474,#475);
#429=AXIS2_PLACEMENT_3D('',#589,#476,#477);
#430=AXIS2_PLACEMENT_3D('',#591,#478,#479);
#431=AXIS2_PLACEMENT_3D('',#600,#484,#485);
#432=AXIS2_PLACEMENT_3D('',#609,#490,#491);
#433=AXIS2_PLACEMENT_3D('',#618,#496,#497);
#434=AXIS2_PLACEMENT_3D('',#624,#500,#501);
#435=AXIS2_PLACEMENT_3D('',#625,#502,#503);
#436=AXIS2_PLACEMENT_3D('',#631,#506,#507);
#437=AXIS2_PLACEMENT_3D('',#632,#508,#509);
#438=AXIS2_PLACEMENT_3D('',#633,#510,#511);
#439=AXIS2_PLACEMENT_3D('',#635,#512,#513);
#440=AXIS2_PLACEMENT_3D('',#643,#517,#518);
#441=AXIS2_PLACEMENT_3D('',#644,#519,#520);
#442=AXIS2_PLACEMENT_3D('',#645,#521,#522);
#443=AXIS2_PLACEMENT_3D('',#651,#523,#524);
#444=AXIS2_PLACEMENT_3D('',#652,#525,#526);
#445=AXIS2_PLACEMENT_3D('',#661,#531,#532);
#446=AXIS2_PLACEMENT_3D('',#670,#537,#538);
#447=AXIS2_PLACEMENT_3D('',#671,#539,#540);
#448=AXIS2_PLACEMENT_3D('',#673,#541,#542);
#449=AXIS2_PLACEMENT_3D('',#674,#543,#544);
#450=AXIS2_PLACEMENT_3D('',#675,#545,#546);
#451=AXIS2_PLACEMENT_3D('',#676,#547,#548);
#452=AXIS2_PLACEMENT_3D('',#677,#549,#550);
#453=AXIS2_PLACEMENT_3D('',#693,#551,#552);
#454=AXIS2_PLACEMENT_3D('',#709,#553,#554);
#455=AXIS2_PLACEMENT_3D('',#718,#555,#556);
#456=AXIS2_PLACEMENT_3D('',#727,#557,#558);
#457=AXIS2_PLACEMENT_3D('',#728,#559,#560);
#458=AXIS2_PLACEMENT_3D('',#729,#561,#562);
#459=AXIS2_PLACEMENT_3D('',#730,#563,#564);
#460=AXIS2_PLACEMENT_3D('',#731,#565,#566);
#461=AXIS2_PLACEMENT_3D('',#732,#567,#568);
#462=AXIS2_PLACEMENT_3D('',#734,#569,#570);
#463=AXIS2_PLACEMENT_3D('',#736,#571,#572);
#464=AXIS2_PLACEMENT_3D('',#737,#573,#574);
#465=AXIS2_PLACEMENT_3D('',#738,#575,#576);
#466=AXIS2_PLACEMENT_3D('',#740,#577,#578);
#467=AXIS2_PLACEMENT_3D('',#741,#579,#580);
#468=AXIS2_PLACEMENT_3D('',#742,#581,#582);
#469=AXIS2_PLACEMENT_3D('',#744,#583,#584);
#470=DIRECTION('',(0.,0.,1.));
#471=DIRECTION('',(1.,0.,0.));
#472=DIRECTION('',(0.,0.,-1.));
#473=DIRECTION('',(-1.,0.,0.));
#474=DIRECTION('',(0.,0.,1.));
#475=DIRECTION('',(1.,0.,0.));
#476=DIRECTION('',(0.,0.,1.));
#477=DIRECTION('',(1.,0.,0.));
#478=DIRECTION('',(3.85494105772624E-16,-1.,0.));
#479=DIRECTION('',(1.,3.85494105772624E-16,0.));
#480=DIRECTION('',(0.,-2.08166817117217E-16,-1.));
#481=DIRECTION('',(-1.,-3.85494105772624E-16,5.34980540107565E-32));
#482=DIRECTION('',(0.,0.,-1.));
#483=DIRECTION('',(-1.,-3.85494105772624E-16,1.06996108021513E-31));
#484=DIRECTION('',(1.,1.38777878078145E-16,0.));
#485=DIRECTION('',(-1.38777878078145E-16,1.,0.));
#486=DIRECTION('',(1.38777878078145E-16,-1.,0.));
#487=DIRECTION('',(0.,0.,-1.));
#488=DIRECTION('',(1.38777878078145E-16,-1.,0.));
#489=DIRECTION('',(0.,0.,-1.));
#490=DIRECTION('',(-3.37307342551046E-16,1.,0.));
#491=DIRECTION('',(-1.,-3.37307342551046E-16,0.));
#492=DIRECTION('',(0.,0.,-1.));
#493=DIRECTION('',(-1.,-3.37307342551046E-16,4.6810797259412E-32));
#494=DIRECTION('',(0.,-2.08166817117217E-16,-1.));
#495=DIRECTION('',(-1.,-3.37307342551046E-16,9.36215945188239E-32));
#496=DIRECTION('',(0.,0.,1.));
#497=DIRECTION('',(1.,0.,0.));
#498=DIRECTION('',(0.,1.,0.));
#499=DIRECTION('',(-1.,-3.85494105772624E-16,1.06996108021513E-31));
#500=DIRECTION('',(0.,0.,1.));
#501=DIRECTION('',(1.,0.,0.));
#502=DIRECTION('',(0.,0.,1.));
#503=DIRECTION('',(1.,0.,0.));
#504=DIRECTION('',(-1.,-3.37307342551046E-16,9.36215945188239E-32));
#505=DIRECTION('',(0.,1.,0.));
#506=DIRECTION('',(0.,0.,1.));
#507=DIRECTION('',(1.,0.,0.));
#508=DIRECTION('',(0.,0.,1.));
#509=DIRECTION('',(1.,0.,0.));
#510=DIRECTION('',(0.,0.,1.));
#511=DIRECTION('',(1.,0.,0.));
#512=DIRECTION('',(0.,0.,1.));
#513=DIRECTION('',(1.,0.,0.));
#514=DIRECTION('',(1.,3.85494105772624E-16,-5.34980540107565E-32));
#515=DIRECTION('',(0.,1.,0.));
#516=DIRECTION('',(1.,3.37307342551046E-16,-4.6810797259412E-32));
#517=DIRECTION('',(0.,0.,1.));
#518=DIRECTION('',(1.,0.,0.));
#519=DIRECTION('',(0.,0.,1.));
#520=DIRECTION('',(1.,0.,0.));
#521=DIRECTION('',(0.,0.,1.));
#522=DIRECTION('',(1.,0.,0.));
#523=DIRECTION('',(0.,0.,1.));
#524=DIRECTION('',(1.,0.,0.));
#525=DIRECTION('',(0.,-2.77555756156289E-16,-1.));
#526=DIRECTION('',(0.,1.,-2.77555756156289E-16));
#527=DIRECTION('',(0.,-1.,2.77555756156289E-16));
#528=DIRECTION('',(-1.,-3.85494105772624E-16,1.06996108021513E-31));
#529=DIRECTION('',(0.,1.,0.));
#530=DIRECTION('',(-1.,-3.37307342551046E-16,9.36215945188239E-32));
#531=DIRECTION('',(0.,-1.38777878078145E-16,-1.));
#532=DIRECTION('',(0.,1.,-1.38777878078145E-16));
#533=DIRECTION('',(0.,-1.,0.));
#534=DIRECTION('',(-1.,-3.85494105772624E-16,5.34980540107565E-32));
#535=DIRECTION('',(0.,-1.,1.38777878078145E-16));
#536=DIRECTION('',(-1.,-3.37307342551046E-16,4.6810797259412E-32));
#537=DIRECTION('',(1.,0.,0.));
#538=DIRECTION('',(0.,1.,0.));
#539=DIRECTION('',(1.,0.,0.));
#540=DIRECTION('',(0.,0.,-1.));
#541=DIRECTION('',(1.,0.,0.));
#542=DIRECTION('',(0.,0.,-1.));
#543=DIRECTION('',(1.,0.,0.));
#544=DIRECTION('',(0.,0.,-1.));
#545=DIRECTION('',(1.,0.,0.));
#546=DIRECTION('',(0.,0.,-1.));
#547=DIRECTION('',(1.,0.,0.));
#548=DIRECTION('',(0.,0.,-1.));
#549=DIRECTION('',(0.,-1.,0.));
#550=DIRECTION('',(0.,0.,-1.));
#551=DIRECTION('',(0.,1.,0.));
#552=DIRECTION('',(0.,0.,1.));
#553=DIRECTION('',(0.,0.,-1.));
#554=DIRECTION('',(-1.,0.,0.));
#555=DIRECTION('',(0.,0.,-1.));
#556=DIRECTION('',(-1.,0.,0.));
#557=DIRECTION('',(1.,3.85494105772624E-16,-5.34980540107565E-32));
#558=DIRECTION('',(-3.85494105772624E-16,1.,0.));
#559=DIRECTION('',(1.,3.37307342551046E-16,-4.6810797259412E-32));
#560=DIRECTION('',(-3.37307342551046E-16,1.,0.));
#561=DIRECTION('',(-1.,-3.85494105772624E-16,1.06996108021513E-31));
#562=DIRECTION('',(3.85494105772624E-16,-1.,0.));
#563=DIRECTION('',(-1.,-3.37307342551046E-16,9.36215945188239E-32));
#564=DIRECTION('',(3.37307342551046E-16,-1.,0.));
#565=DIRECTION('',(1.,0.,0.));
#566=DIRECTION('',(0.,1.,0.));
#567=DIRECTION('',(1.,0.,0.));
#568=DIRECTION('',(0.,0.,-1.));
#569=DIRECTION('',(1.,0.,0.));
#570=DIRECTION('',(0.,0.,-1.));
#571=DIRECTION('',(1.,0.,0.));
#572=DIRECTION('',(0.,0.,-1.));
#573=DIRECTION('',(1.,0.,0.));
#574=DIRECTION('',(0.,1.,0.));
#575=DIRECTION('',(1.,0.,0.));
#576=DIRECTION('',(0.,0.,-1.));
#577=DIRECTION('',(1.,0.,0.));
#578=DIRECTION('',(0.,0.,-1.));
#579=DIRECTION('',(0.,0.,1.));
#580=DIRECTION('',(1.,0.,0.));
#581=DIRECTION('',(0.,0.,-1.));
#582=DIRECTION('',(-1.,0.,0.));
#583=DIRECTION('',(0.,0.,-1.));
#584=DIRECTION('',(-1.,0.,0.));
#585=CARTESIAN_POINT('',(0.,0.,0.));
#586=CARTESIAN_POINT('',(0.,2.4492935982947E-19,0.0045));
#587=CARTESIAN_POINT('',(0.,2.4492935982947E-19,0.0015));
#588=CARTESIAN_POINT('',(0.004,2.4492935982947E-19,0.0015));
#589=CARTESIAN_POINT('',(0.,2.4492935982947E-19,0.0035));
#590=CARTESIAN_POINT('',(0.004,2.4492935982947E-19,0.0035));
#591=CARTESIAN_POINT('',(0.003,0.00625,0.0045));
#592=CARTESIAN_POINT('',(0.022,0.00625,0.00225));
#593=CARTESIAN_POINT('',(0.022,0.00625,0.0035));
#594=CARTESIAN_POINT('',(0.022,0.00625,0.001));
#595=CARTESIAN_POINT('',(0.0111332495807108,0.00625,0.001));
#596=CARTESIAN_POINT('',(-0.002,0.00625,0.001));
#597=CARTESIAN_POINT('',(-0.002,0.00625,0.0045));
#598=CARTESIAN_POINT('',(-0.002,0.00625,0.0035));
#599=CARTESIAN_POINT('',(0.003,0.00625,0.0035));
#600=CARTESIAN_POINT('',(-0.006,0.,0.0045));
#601=CARTESIAN_POINT('',(-0.006,0.,0.));
#602=CARTESIAN_POINT('',(-0.006,0.00225,0.));
#603=CARTESIAN_POINT('',(-0.006,-0.00225,0.));
#604=CARTESIAN_POINT('',(-0.006,-0.00225,0.0045));
#605=CARTESIAN_POINT('',(-0.006,-0.00225,0.0045));
#606=CARTESIAN_POINT('',(-0.006,0.,0.0045));
#607=CARTESIAN_POINT('',(-0.006,0.00225,0.0045));
#608=CARTESIAN_POINT('',(-0.006,0.00225,0.0045));
#609=CARTESIAN_POINT('',(0.003,-0.00625,0.0045));
#610=CARTESIAN_POINT('',(-0.002,-0.00625,0.0045));
#611=CARTESIAN_POINT('',(-0.002,-0.00625,0.0035));
#612=CARTESIAN_POINT('',(-0.002,-0.00625,0.001));
#613=CARTESIAN_POINT('',(0.022,-0.00625,0.001));
#614=CARTESIAN_POINT('',(0.022,-0.00625,0.001));
#615=CARTESIAN_POINT('',(0.022,-0.00625,0.00225));
#616=CARTESIAN_POINT('',(0.022,-0.00625,0.0035));
#617=CARTESIAN_POINT('',(0.003,-0.00625,0.0035));
#618=CARTESIAN_POINT('',(0.003,3.46944695195361E-18,0.0045));
#619=CARTESIAN_POINT('',(0.0045,3.46944695195361E-18,0.0045));
#620=CARTESIAN_POINT('',(0.0045,0.000953939201416919,0.0045));
#621=CARTESIAN_POINT('',(0.0045,0.00614897948556636,0.0045));
#622=CARTESIAN_POINT('',(0.0045,0.00614897948556636,0.0045));
#623=CARTESIAN_POINT('',(-0.00289328549251217,0.00614897948556636,0.0045));
#624=CARTESIAN_POINT('',(-0.002,0.00225,0.0045));
#625=CARTESIAN_POINT('',(-0.002,-0.00225,0.0045));
#626=CARTESIAN_POINT('',(-0.00289328549251216,-0.00614897948556636,0.0045));
#627=CARTESIAN_POINT('',(-0.00289328549251216,-0.00614897948556636,0.0045));
#628=CARTESIAN_POINT('',(0.0045,-0.00614897948556635,0.0045));
#629=CARTESIAN_POINT('',(0.0045,3.46944695195361E-18,0.0045));
#630=CARTESIAN_POINT('',(0.0045,-0.000953939201416919,0.0045));
#631=CARTESIAN_POINT('',(0.,2.81668763803891E-19,0.0045));
#632=CARTESIAN_POINT('',(0.003,3.46944695195361E-18,0.));
#633=CARTESIAN_POINT('',(0.,2.4492935982947E-19,0.));
#634=CARTESIAN_POINT('',(0.00225,2.4492935982947E-19,0.));
#635=CARTESIAN_POINT('',(-0.002,0.00225,0.));
#636=CARTESIAN_POINT('',(-0.00289328549251217,0.00614897948556636,0.));
#637=CARTESIAN_POINT('',(-0.00289328549251217,0.00614897948556636,4.77890355254415E-35));
#638=CARTESIAN_POINT('',(0.0045,0.00614897948556636,0.));
#639=CARTESIAN_POINT('',(0.0045,-0.00625,0.));
#640=CARTESIAN_POINT('',(0.0045,-0.00614897948556635,0.));
#641=CARTESIAN_POINT('',(0.0045,-0.00614897948556635,0.));
#642=CARTESIAN_POINT('',(-0.00289328549251217,-0.00614897948556636,0.));
#643=CARTESIAN_POINT('',(-0.002,-0.00225,0.));
#644=CARTESIAN_POINT('',(0.,2.81668763803891E-19,0.0035));
#645=CARTESIAN_POINT('',(0.,2.81668763803891E-19,0.0035));
#646=CARTESIAN_POINT('',(0.0046,2.81668763803891E-19,0.0035));
#647=CARTESIAN_POINT('',(0.0045,-0.000953939201416919,0.0045));
#648=CARTESIAN_POINT('',(0.00463389112485813,-0.000322337039595012,0.0045));
#649=CARTESIAN_POINT('',(0.00463389124760191,0.000322336460578043,0.0045));
#650=CARTESIAN_POINT('',(0.0045,0.000953939201416919,0.0045));
#651=CARTESIAN_POINT('',(0.003,3.46944695195361E-18,0.0035));
#652=CARTESIAN_POINT('',(0.022,8.67361737988404E-19,0.0085));
#653=CARTESIAN_POINT('',(0.022,8.67361737988404E-19,0.0085));
#654=CARTESIAN_POINT('',(0.022,0.00125000000000001,0.0085));
#655=CARTESIAN_POINT('',(0.022,-0.00125,0.0085));
#656=CARTESIAN_POINT('',(0.022,0.00125000000000001,0.0085));
#657=CARTESIAN_POINT('',(0.0111332495807108,0.00125,0.0085));
#658=CARTESIAN_POINT('',(0.0111332495807108,5.96744875736022E-18,0.0085));
#659=CARTESIAN_POINT('',(0.0111332495807108,-0.00125,0.0085));
#660=CARTESIAN_POINT('',(0.022,-0.00125,0.0085));
#661=CARTESIAN_POINT('',(0.022,-8.67361737988404E-19,-0.004));
#662=CARTESIAN_POINT('',(0.0111332495807108,5.68989300120393E-18,-0.004));
#663=CARTESIAN_POINT('',(0.0111332495807108,-0.00125,-0.004));
#664=CARTESIAN_POINT('',(0.0111332495807108,0.00125,-0.004));
#665=CARTESIAN_POINT('',(0.022,0.00125,-0.004));
#666=CARTESIAN_POINT('',(0.022,0.00125,-0.004));
#667=CARTESIAN_POINT('',(0.022,-8.67361737988404E-19,-0.004));
#668=CARTESIAN_POINT('',(0.022,-0.00125,-0.004));
#669=CARTESIAN_POINT('',(0.0111332495807108,-0.00125,-0.004));
#670=CARTESIAN_POINT('',(0.022,3.46944695195361E-18,0.00225));
#671=CARTESIAN_POINT('',(0.022,0.,0.00225));
#672=CARTESIAN_POINT('',(0.022,0.,-0.00185));
#673=CARTESIAN_POINT('',(0.022,0.00125,0.001));
#674=CARTESIAN_POINT('',(0.022,0.00125,0.0035));
#675=CARTESIAN_POINT('',(0.022,-0.00125,0.0035));
#676=CARTESIAN_POINT('',(0.022,-0.00125,0.001));
#677=CARTESIAN_POINT('',(0.0045,3.46944695195361E-18,-0.0075));
#678=CARTESIAN_POINT('',(0.0045,0.00614897948556636,0.));
#679=CARTESIAN_POINT('',(0.00539939092691634,0.00614897948556636,0.));
#680=CARTESIAN_POINT('',(0.00716459395720664,0.00609885535375034,-0.000316597028910643));
#681=CARTESIAN_POINT('',(0.00949743265238549,0.00560549169916168,-0.00170933490507532));
#682=CARTESIAN_POINT('',(0.010900829544817,0.00394318468798949,-0.00348332161568827));
#683=CARTESIAN_POINT('',(0.0111332495807108,0.00215382724166882,-0.004));
#684=CARTESIAN_POINT('',(0.0111332495807108,0.00125,-0.004));
#685=CARTESIAN_POINT('',(0.0111332495807108,-0.00125,-0.004));
#686=CARTESIAN_POINT('',(0.0111332495807108,-0.00215121377813673,-0.004));
#687=CARTESIAN_POINT('',(0.0109555815499695,-0.00347651732946808,-0.0036174004109343));
#688=CARTESIAN_POINT('',(0.0102150727094644,-0.00478097521826204,-0.00260356684557502));
#689=CARTESIAN_POINT('',(0.00911181526120314,-0.00567605361045138,-0.00148439901032032));
#690=CARTESIAN_POINT('',(0.00717864851206061,-0.00610142411643958,-0.000319418829914255));
#691=CARTESIAN_POINT('',(0.0053980472149117,-0.00614897948556635,3.68767408934163E-19));
#692=CARTESIAN_POINT('',(0.0045,-0.00614897948556635,3.68767408934163E-19));
#693=CARTESIAN_POINT('',(0.0045,3.46944695195361E-18,0.012));
#694=CARTESIAN_POINT('',(0.0111332495807108,0.00125,0.0085));
#695=CARTESIAN_POINT('',(0.0111332495807108,0.00215121377813673,0.0085));
#696=CARTESIAN_POINT('',(0.0109555815499695,0.00347651732946807,0.0081174004109343));
#697=CARTESIAN_POINT('',(0.0102150727094644,0.00478097521826203,0.00710356684557502));
#698=CARTESIAN_POINT('',(0.00911181526120314,0.00567605361045136,0.00598439901032032));
#699=CARTESIAN_POINT('',(0.00717864851206061,0.00610142411643956,0.00481941882991425));
#700=CARTESIAN_POINT('',(0.0053980472149117,0.00614897948556636,0.0045));
#701=CARTESIAN_POINT('',(0.0045,0.00614897948556636,0.0045));
#702=CARTESIAN_POINT('',(0.0045,-0.00614897948556635,0.0045));
#703=CARTESIAN_POINT('',(0.00539939092691634,-0.00614897948556635,0.0045));
#704=CARTESIAN_POINT('',(0.00716459395720663,-0.00609885535375034,0.00481659702891064));
#705=CARTESIAN_POINT('',(0.00949743265238549,-0.00560549169916168,0.00620933490507532));
#706=CARTESIAN_POINT('',(0.010900829544817,-0.00394318468798949,0.00798332161568827));
#707=CARTESIAN_POINT('',(0.0111332495807108,-0.00215382724166882,0.0085));
#708=CARTESIAN_POINT('',(0.0111332495807108,-0.00125,0.0085));
#709=CARTESIAN_POINT('',(-0.002,-0.00225,0.0045));
#710=CARTESIAN_POINT('',(-0.00289328549251217,-0.00614897948556635,4.18154060847613E-35));
#711=CARTESIAN_POINT('',(-0.00259767229765843,-0.00621670668939894,0.000331794182190607));
#712=CARTESIAN_POINT('',(-0.00229882662105188,-0.00625,0.000665901634536112));
#713=CARTESIAN_POINT('',(-0.002,-0.00625,0.001));
#714=CARTESIAN_POINT('',(-0.00289328549251216,-0.00614897948556636,0.0045));
#715=CARTESIAN_POINT('',(-0.00259767229765842,-0.00621670668939894,0.00416820581780939));
#716=CARTESIAN_POINT('',(-0.00229882662103559,-0.00625,0.00383409836547846));
#717=CARTESIAN_POINT('',(-0.002,-0.00625,0.0035));
#718=CARTESIAN_POINT('',(-0.002,0.00225,0.0045));
#719=CARTESIAN_POINT('',(-0.00289328549251217,0.00614897948556636,4.77890355254415E-35));
#720=CARTESIAN_POINT('',(-0.00259767229765843,0.00621670668939895,0.000331794182190609));
#721=CARTESIAN_POINT('',(-0.00229882662103572,0.00625,0.000665901634521658));
#722=CARTESIAN_POINT('',(-0.002,0.00625,0.001));
#723=CARTESIAN_POINT('',(-0.00289328549251217,0.00614897948556636,0.0045));
#724=CARTESIAN_POINT('',(-0.00259767229765843,0.00621670668939895,0.00416820581780939));
#725=CARTESIAN_POINT('',(-0.00229882662105173,0.00625,0.00383409836546402));
#726=CARTESIAN_POINT('',(-0.002,0.00625,0.0035));
#727=CARTESIAN_POINT('',(0.003,0.00125,0.001));
#728=CARTESIAN_POINT('',(0.022,-0.00125,0.001));
#729=CARTESIAN_POINT('',(0.022,0.00125,0.0035));
#730=CARTESIAN_POINT('',(0.003,-0.00125,0.0035));
#731=CARTESIAN_POINT('',(0.021,0.,0.00225));
#732=CARTESIAN_POINT('',(0.021,0.,0.00225));
#733=CARTESIAN_POINT('',(0.021,0.,-0.00185));
#734=CARTESIAN_POINT('',(0.021,0.,0.00225));
#735=CARTESIAN_POINT('',(0.021,0.,-0.001));
#736=CARTESIAN_POINT('',(0.021,0.,0.00225));
#737=CARTESIAN_POINT('',(0.012,0.,0.00225));
#738=CARTESIAN_POINT('',(0.012,0.,0.00225));
#739=CARTESIAN_POINT('',(0.012,0.,-0.001));
#740=CARTESIAN_POINT('',(0.012,0.,0.00225));
#741=CARTESIAN_POINT('',(0.003,3.46944695195361E-18,0.0015));
#742=CARTESIAN_POINT('',(0.,2.4492935982947E-19,0.0015));
#743=CARTESIAN_POINT('',(-0.00225,2.4492935982947E-19,0.0015));
#744=CARTESIAN_POINT('',(0.,2.4492935982947E-19,0.0015));
#745=MECHANICAL_DESIGN_GEOMETRIC_PRESENTATION_REPRESENTATION('',(#415),
#746);
#746=(
GEOMETRIC_REPRESENTATION_CONTEXT(3)
GLOBAL_UNCERTAINTY_ASSIGNED_CONTEXT((#747))
GLOBAL_UNIT_ASSIGNED_CONTEXT((#750,#749,#748))
REPRESENTATION_CONTEXT('Part 1','TOP_LEVEL_ASSEMBLY_PART')
);
#747=UNCERTAINTY_MEASURE_WITH_UNIT(LENGTH_MEASURE(2.E-5),#750,
'DISTANCE_ACCURACY_VALUE','Maximum Tolerance applied to model');
#748=(
NAMED_UNIT(*)
SI_UNIT($,.STERADIAN.)
SOLID_ANGLE_UNIT()
);
#749=(
NAMED_UNIT(*)
PLANE_ANGLE_UNIT()
SI_UNIT($,.RADIAN.)
);
#750=(
LENGTH_UNIT()
NAMED_UNIT(*)
SI_UNIT($,.METRE.)
);
#751=PRODUCT_DEFINITION_SHAPE('','',#752);
#752=PRODUCT_DEFINITION('','',#754,#753);
#753=PRODUCT_DEFINITION_CONTEXT('',#760,'design');
#754=PRODUCT_DEFINITION_FORMATION_WITH_SPECIFIED_SOURCE('','',#756,
 .NOT_KNOWN.);
#755=PRODUCT_RELATED_PRODUCT_CATEGORY('','',(#756));
#756=PRODUCT('Part 1','Part 1','Part 1',(#758));
#757=PRODUCT_CATEGORY('','');
#758=PRODUCT_CONTEXT('',#760,'mechanical');
#759=APPLICATION_PROTOCOL_DEFINITION('international standard',
'ap242_managed_model_based_3d_engineering',2011,#760);
#760=APPLICATION_CONTEXT('managed model based 3d engineering');
ENDSEC;
END-ISO-10303-21;
