ISO-10303-21;
HEADER;
/* Generated by software containing ST-Developer
 * from STEP Tools, Inc. (www.steptools.com) 
 */
/* OPTION: using custom renumber hook */

FILE_DESCRIPTION(
/* description */ ('STEP AP242',
'CAx-IF Rec.Pracs.---Representation and Presentation of Product Manufa
cturing Information (PMI)---4.0---2014-10-13',
'CAx-IF Rec.Pracs.---3D Tessellated Geometry---0.4---2014-09-14','2;1'),

/* implementation_level */ '2;1');

FILE_NAME(
/* name */ '68740103d1955a75fb7b323a',
/* time_stamp */ '2025-07-13T18:54:59Z',
/* author */ (''),
/* organization */ (''),
/* preprocessor_version */ 'ST-DEVELOPER v20',
/* originating_system */ 'ONSHAPE BY PTC INC, 1.200',
/* authorisation */ '  ');

FILE_SCHEMA (('AP242_MANAGED_MODEL_BASED_3D_ENGINEERING_MIM_LF { 1 0 10303 442 1 1 4 }'));
ENDSEC;

DATA;
#10=SHAPE_REPRESENTATION_RELATIONSHIP('','',#1408,#11);
#11=ADVANCED_BREP_SHAPE_REPRESENTATION('',(#1406),#2283);
#12=CONICAL_SURFACE('',#1444,0.00448,0.785398163397448);
#13=CONICAL_SURFACE('',#1447,0.00448,0.785398163397448);
#14=CYLINDRICAL_SURFACE('',#1442,0.00225);
#15=CYLINDRICAL_SURFACE('',#1445,0.00225);
#16=CYLINDRICAL_SURFACE('',#1451,0.00448);
#17=CYLINDRICAL_SURFACE('',#1458,0.005);
#18=CYLINDRICAL_SURFACE('',#1460,0.00448);
#19=CYLINDRICAL_SURFACE('',#1462,0.005);
#20=CYLINDRICAL_SURFACE('',#1468,0.0033375);
#21=CYLINDRICAL_SURFACE('',#1471,0.004125);
#22=CYLINDRICAL_SURFACE('',#1509,0.008);
#23=CYLINDRICAL_SURFACE('',#1510,0.008);
#24=CYLINDRICAL_SURFACE('',#1511,0.008);
#25=CYLINDRICAL_SURFACE('',#1512,0.008);
#26=CYLINDRICAL_SURFACE('',#1513,0.008);
#27=CIRCLE('',#1411,0.00448);
#28=CIRCLE('',#1413,0.004125);
#29=CIRCLE('',#1414,0.005);
#30=CIRCLE('',#1415,0.00448);
#31=CIRCLE('',#1416,0.005);
#32=CIRCLE('',#1418,0.00448);
#33=CIRCLE('',#1419,0.008);
#34=CIRCLE('',#1420,0.008);
#35=CIRCLE('',#1421,0.008);
#36=CIRCLE('',#1422,0.008);
#37=CIRCLE('',#1423,0.008);
#38=CIRCLE('',#1424,0.005);
#39=CIRCLE('',#1425,0.00448);
#40=CIRCLE('',#1426,0.00448);
#41=CIRCLE('',#1427,0.005);
#42=CIRCLE('',#1435,0.00225);
#43=CIRCLE('',#1436,0.00225);
#44=CIRCLE('',#1437,0.008);
#45=CIRCLE('',#1438,0.008);
#46=CIRCLE('',#1439,0.008);
#47=CIRCLE('',#1440,0.008);
#48=CIRCLE('',#1441,0.008);
#49=CIRCLE('',#1443,0.00225);
#50=CIRCLE('',#1446,0.00225);
#51=CIRCLE('',#1448,0.00448);
#52=CIRCLE('',#1449,0.00448);
#53=CIRCLE('',#1469,0.0033375);
#54=CIRCLE('',#1470,0.0033375);
#55=CIRCLE('',#1472,0.004125);
#56=ORIENTED_EDGE('',*,*,#438,.F.);
#57=ORIENTED_EDGE('',*,*,#439,.T.);
#58=ORIENTED_EDGE('',*,*,#440,.T.);
#59=ORIENTED_EDGE('',*,*,#441,.F.);
#60=ORIENTED_EDGE('',*,*,#442,.F.);
#61=ORIENTED_EDGE('',*,*,#443,.F.);
#62=ORIENTED_EDGE('',*,*,#444,.F.);
#63=ORIENTED_EDGE('',*,*,#445,.T.);
#64=ORIENTED_EDGE('',*,*,#446,.T.);
#65=ORIENTED_EDGE('',*,*,#447,.T.);
#66=ORIENTED_EDGE('',*,*,#448,.T.);
#67=ORIENTED_EDGE('',*,*,#449,.T.);
#68=ORIENTED_EDGE('',*,*,#450,.T.);
#69=ORIENTED_EDGE('',*,*,#451,.T.);
#70=ORIENTED_EDGE('',*,*,#452,.T.);
#71=ORIENTED_EDGE('',*,*,#453,.T.);
#72=ORIENTED_EDGE('',*,*,#454,.T.);
#73=ORIENTED_EDGE('',*,*,#455,.T.);
#74=ORIENTED_EDGE('',*,*,#456,.T.);
#75=ORIENTED_EDGE('',*,*,#457,.T.);
#76=ORIENTED_EDGE('',*,*,#458,.T.);
#77=ORIENTED_EDGE('',*,*,#459,.T.);
#78=ORIENTED_EDGE('',*,*,#460,.T.);
#79=ORIENTED_EDGE('',*,*,#461,.T.);
#80=ORIENTED_EDGE('',*,*,#462,.T.);
#81=ORIENTED_EDGE('',*,*,#463,.T.);
#82=ORIENTED_EDGE('',*,*,#464,.T.);
#83=ORIENTED_EDGE('',*,*,#465,.T.);
#84=ORIENTED_EDGE('',*,*,#466,.F.);
#85=ORIENTED_EDGE('',*,*,#467,.F.);
#86=ORIENTED_EDGE('',*,*,#468,.T.);
#87=ORIENTED_EDGE('',*,*,#469,.T.);
#88=ORIENTED_EDGE('',*,*,#470,.T.);
#89=ORIENTED_EDGE('',*,*,#471,.F.);
#90=ORIENTED_EDGE('',*,*,#472,.T.);
#91=ORIENTED_EDGE('',*,*,#473,.T.);
#92=ORIENTED_EDGE('',*,*,#474,.F.);
#93=ORIENTED_EDGE('',*,*,#475,.F.);
#94=ORIENTED_EDGE('',*,*,#476,.F.);
#95=ORIENTED_EDGE('',*,*,#477,.F.);
#96=ORIENTED_EDGE('',*,*,#478,.T.);
#97=ORIENTED_EDGE('',*,*,#479,.T.);
#98=ORIENTED_EDGE('',*,*,#480,.T.);
#99=ORIENTED_EDGE('',*,*,#481,.T.);
#100=ORIENTED_EDGE('',*,*,#482,.T.);
#101=ORIENTED_EDGE('',*,*,#483,.T.);
#102=ORIENTED_EDGE('',*,*,#484,.T.);
#103=ORIENTED_EDGE('',*,*,#485,.T.);
#104=ORIENTED_EDGE('',*,*,#486,.T.);
#105=ORIENTED_EDGE('',*,*,#487,.T.);
#106=ORIENTED_EDGE('',*,*,#488,.T.);
#107=ORIENTED_EDGE('',*,*,#489,.T.);
#108=ORIENTED_EDGE('',*,*,#490,.F.);
#109=ORIENTED_EDGE('',*,*,#491,.T.);
#110=ORIENTED_EDGE('',*,*,#492,.T.);
#111=ORIENTED_EDGE('',*,*,#493,.T.);
#112=ORIENTED_EDGE('',*,*,#494,.T.);
#113=ORIENTED_EDGE('',*,*,#495,.T.);
#114=ORIENTED_EDGE('',*,*,#496,.T.);
#115=ORIENTED_EDGE('',*,*,#497,.T.);
#116=ORIENTED_EDGE('',*,*,#498,.F.);
#117=ORIENTED_EDGE('',*,*,#499,.T.);
#118=ORIENTED_EDGE('',*,*,#500,.F.);
#119=ORIENTED_EDGE('',*,*,#501,.F.);
#120=ORIENTED_EDGE('',*,*,#502,.T.);
#121=ORIENTED_EDGE('',*,*,#503,.T.);
#122=ORIENTED_EDGE('',*,*,#504,.T.);
#123=ORIENTED_EDGE('',*,*,#505,.T.);
#124=ORIENTED_EDGE('',*,*,#506,.T.);
#125=ORIENTED_EDGE('',*,*,#507,.F.);
#126=ORIENTED_EDGE('',*,*,#481,.F.);
#127=ORIENTED_EDGE('',*,*,#508,.T.);
#128=ORIENTED_EDGE('',*,*,#509,.T.);
#129=ORIENTED_EDGE('',*,*,#510,.T.);
#130=ORIENTED_EDGE('',*,*,#511,.T.);
#131=ORIENTED_EDGE('',*,*,#512,.T.);
#132=ORIENTED_EDGE('',*,*,#483,.F.);
#133=ORIENTED_EDGE('',*,*,#513,.T.);
#134=ORIENTED_EDGE('',*,*,#514,.T.);
#135=ORIENTED_EDGE('',*,*,#515,.T.);
#136=ORIENTED_EDGE('',*,*,#485,.F.);
#137=ORIENTED_EDGE('',*,*,#516,.T.);
#138=ORIENTED_EDGE('',*,*,#487,.F.);
#139=ORIENTED_EDGE('',*,*,#517,.T.);
#140=ORIENTED_EDGE('',*,*,#518,.T.);
#141=ORIENTED_EDGE('',*,*,#519,.F.);
#142=ORIENTED_EDGE('',*,*,#520,.T.);
#143=ORIENTED_EDGE('',*,*,#521,.T.);
#144=ORIENTED_EDGE('',*,*,#488,.F.);
#145=ORIENTED_EDGE('',*,*,#519,.T.);
#146=ORIENTED_EDGE('',*,*,#522,.T.);
#147=ORIENTED_EDGE('',*,*,#523,.T.);
#148=ORIENTED_EDGE('',*,*,#479,.F.);
#149=ORIENTED_EDGE('',*,*,#524,.T.);
#150=ORIENTED_EDGE('',*,*,#525,.F.);
#151=ORIENTED_EDGE('',*,*,#526,.F.);
#152=ORIENTED_EDGE('',*,*,#509,.F.);
#153=ORIENTED_EDGE('',*,*,#527,.T.);
#154=ORIENTED_EDGE('',*,*,#522,.F.);
#155=ORIENTED_EDGE('',*,*,#528,.T.);
#156=ORIENTED_EDGE('',*,*,#520,.F.);
#157=ORIENTED_EDGE('',*,*,#518,.F.);
#158=ORIENTED_EDGE('',*,*,#529,.T.);
#159=ORIENTED_EDGE('',*,*,#514,.F.);
#160=ORIENTED_EDGE('',*,*,#530,.T.);
#161=ORIENTED_EDGE('',*,*,#511,.F.);
#162=ORIENTED_EDGE('',*,*,#531,.T.);
#163=ORIENTED_EDGE('',*,*,#532,.F.);
#164=ORIENTED_EDGE('',*,*,#526,.T.);
#165=ORIENTED_EDGE('',*,*,#532,.T.);
#166=ORIENTED_EDGE('',*,*,#478,.F.);
#167=ORIENTED_EDGE('',*,*,#533,.F.);
#168=ORIENTED_EDGE('',*,*,#525,.T.);
#169=ORIENTED_EDGE('',*,*,#533,.T.);
#170=ORIENTED_EDGE('',*,*,#492,.F.);
#171=ORIENTED_EDGE('',*,*,#534,.F.);
#172=ORIENTED_EDGE('',*,*,#499,.F.);
#173=ORIENTED_EDGE('',*,*,#535,.F.);
#174=ORIENTED_EDGE('',*,*,#493,.F.);
#175=ORIENTED_EDGE('',*,*,#536,.F.);
#176=ORIENTED_EDGE('',*,*,#438,.T.);
#177=ORIENTED_EDGE('',*,*,#537,.T.);
#178=ORIENTED_EDGE('',*,*,#535,.T.);
#179=ORIENTED_EDGE('',*,*,#538,.F.);
#180=ORIENTED_EDGE('',*,*,#439,.F.);
#181=ORIENTED_EDGE('',*,*,#536,.T.);
#182=ORIENTED_EDGE('',*,*,#498,.T.);
#183=ORIENTED_EDGE('',*,*,#539,.F.);
#184=ORIENTED_EDGE('',*,*,#440,.F.);
#185=ORIENTED_EDGE('',*,*,#538,.T.);
#186=ORIENTED_EDGE('',*,*,#497,.F.);
#187=ORIENTED_EDGE('',*,*,#540,.F.);
#188=ORIENTED_EDGE('',*,*,#441,.T.);
#189=ORIENTED_EDGE('',*,*,#539,.T.);
#190=ORIENTED_EDGE('',*,*,#496,.F.);
#191=ORIENTED_EDGE('',*,*,#541,.F.);
#192=ORIENTED_EDGE('',*,*,#442,.T.);
#193=ORIENTED_EDGE('',*,*,#540,.T.);
#194=ORIENTED_EDGE('',*,*,#495,.F.);
#195=ORIENTED_EDGE('',*,*,#542,.F.);
#196=ORIENTED_EDGE('',*,*,#443,.T.);
#197=ORIENTED_EDGE('',*,*,#541,.T.);
#198=ORIENTED_EDGE('',*,*,#494,.F.);
#199=ORIENTED_EDGE('',*,*,#537,.F.);
#200=ORIENTED_EDGE('',*,*,#444,.T.);
#201=ORIENTED_EDGE('',*,*,#542,.T.);
#202=ORIENTED_EDGE('',*,*,#502,.F.);
#203=ORIENTED_EDGE('',*,*,#543,.F.);
#204=ORIENTED_EDGE('',*,*,#467,.T.);
#205=ORIENTED_EDGE('',*,*,#544,.T.);
#206=ORIENTED_EDGE('',*,*,#501,.T.);
#207=ORIENTED_EDGE('',*,*,#545,.F.);
#208=ORIENTED_EDGE('',*,*,#468,.F.);
#209=ORIENTED_EDGE('',*,*,#543,.T.);
#210=ORIENTED_EDGE('',*,*,#500,.T.);
#211=ORIENTED_EDGE('',*,*,#546,.F.);
#212=ORIENTED_EDGE('',*,*,#469,.F.);
#213=ORIENTED_EDGE('',*,*,#545,.T.);
#214=ORIENTED_EDGE('',*,*,#534,.T.);
#215=ORIENTED_EDGE('',*,*,#547,.F.);
#216=ORIENTED_EDGE('',*,*,#470,.F.);
#217=ORIENTED_EDGE('',*,*,#546,.T.);
#218=ORIENTED_EDGE('',*,*,#491,.F.);
#219=ORIENTED_EDGE('',*,*,#548,.F.);
#220=ORIENTED_EDGE('',*,*,#471,.T.);
#221=ORIENTED_EDGE('',*,*,#547,.T.);
#222=ORIENTED_EDGE('',*,*,#490,.T.);
#223=ORIENTED_EDGE('',*,*,#549,.F.);
#224=ORIENTED_EDGE('',*,*,#472,.F.);
#225=ORIENTED_EDGE('',*,*,#548,.T.);
#226=ORIENTED_EDGE('',*,*,#507,.T.);
#227=ORIENTED_EDGE('',*,*,#550,.F.);
#228=ORIENTED_EDGE('',*,*,#473,.F.);
#229=ORIENTED_EDGE('',*,*,#549,.T.);
#230=ORIENTED_EDGE('',*,*,#506,.F.);
#231=ORIENTED_EDGE('',*,*,#551,.F.);
#232=ORIENTED_EDGE('',*,*,#474,.T.);
#233=ORIENTED_EDGE('',*,*,#550,.T.);
#234=ORIENTED_EDGE('',*,*,#505,.F.);
#235=ORIENTED_EDGE('',*,*,#552,.F.);
#236=ORIENTED_EDGE('',*,*,#475,.T.);
#237=ORIENTED_EDGE('',*,*,#551,.T.);
#238=ORIENTED_EDGE('',*,*,#504,.F.);
#239=ORIENTED_EDGE('',*,*,#553,.F.);
#240=ORIENTED_EDGE('',*,*,#476,.T.);
#241=ORIENTED_EDGE('',*,*,#552,.T.);
#242=ORIENTED_EDGE('',*,*,#503,.F.);
#243=ORIENTED_EDGE('',*,*,#544,.F.);
#244=ORIENTED_EDGE('',*,*,#477,.T.);
#245=ORIENTED_EDGE('',*,*,#553,.T.);
#246=ORIENTED_EDGE('',*,*,#554,.T.);
#247=ORIENTED_EDGE('',*,*,#555,.T.);
#248=ORIENTED_EDGE('',*,*,#556,.F.);
#249=ORIENTED_EDGE('',*,*,#466,.T.);
#250=ORIENTED_EDGE('',*,*,#554,.F.);
#251=ORIENTED_EDGE('',*,*,#556,.T.);
#252=ORIENTED_EDGE('',*,*,#557,.F.);
#253=ORIENTED_EDGE('',*,*,#558,.F.);
#254=ORIENTED_EDGE('',*,*,#559,.F.);
#255=ORIENTED_EDGE('',*,*,#560,.F.);
#256=ORIENTED_EDGE('',*,*,#561,.F.);
#257=ORIENTED_EDGE('',*,*,#562,.F.);
#258=ORIENTED_EDGE('',*,*,#563,.F.);
#259=ORIENTED_EDGE('',*,*,#564,.F.);
#260=ORIENTED_EDGE('',*,*,#565,.F.);
#261=ORIENTED_EDGE('',*,*,#566,.F.);
#262=ORIENTED_EDGE('',*,*,#567,.F.);
#263=ORIENTED_EDGE('',*,*,#568,.F.);
#264=ORIENTED_EDGE('',*,*,#559,.T.);
#265=ORIENTED_EDGE('',*,*,#569,.T.);
#266=ORIENTED_EDGE('',*,*,#570,.F.);
#267=ORIENTED_EDGE('',*,*,#571,.F.);
#268=ORIENTED_EDGE('',*,*,#560,.T.);
#269=ORIENTED_EDGE('',*,*,#568,.T.);
#270=ORIENTED_EDGE('',*,*,#572,.F.);
#271=ORIENTED_EDGE('',*,*,#573,.F.);
#272=ORIENTED_EDGE('',*,*,#561,.T.);
#273=ORIENTED_EDGE('',*,*,#571,.T.);
#274=ORIENTED_EDGE('',*,*,#574,.F.);
#275=ORIENTED_EDGE('',*,*,#575,.F.);
#276=ORIENTED_EDGE('',*,*,#562,.T.);
#277=ORIENTED_EDGE('',*,*,#573,.T.);
#278=ORIENTED_EDGE('',*,*,#576,.F.);
#279=ORIENTED_EDGE('',*,*,#577,.F.);
#280=ORIENTED_EDGE('',*,*,#563,.T.);
#281=ORIENTED_EDGE('',*,*,#575,.T.);
#282=ORIENTED_EDGE('',*,*,#578,.F.);
#283=ORIENTED_EDGE('',*,*,#579,.F.);
#284=ORIENTED_EDGE('',*,*,#564,.T.);
#285=ORIENTED_EDGE('',*,*,#577,.T.);
#286=ORIENTED_EDGE('',*,*,#580,.F.);
#287=ORIENTED_EDGE('',*,*,#581,.F.);
#288=ORIENTED_EDGE('',*,*,#565,.T.);
#289=ORIENTED_EDGE('',*,*,#579,.T.);
#290=ORIENTED_EDGE('',*,*,#582,.F.);
#291=ORIENTED_EDGE('',*,*,#583,.F.);
#292=ORIENTED_EDGE('',*,*,#566,.T.);
#293=ORIENTED_EDGE('',*,*,#581,.T.);
#294=ORIENTED_EDGE('',*,*,#584,.F.);
#295=ORIENTED_EDGE('',*,*,#585,.F.);
#296=ORIENTED_EDGE('',*,*,#557,.T.);
#297=ORIENTED_EDGE('',*,*,#583,.T.);
#298=ORIENTED_EDGE('',*,*,#586,.F.);
#299=ORIENTED_EDGE('',*,*,#569,.F.);
#300=ORIENTED_EDGE('',*,*,#558,.T.);
#301=ORIENTED_EDGE('',*,*,#585,.T.);
#302=ORIENTED_EDGE('',*,*,#586,.T.);
#303=ORIENTED_EDGE('',*,*,#584,.T.);
#304=ORIENTED_EDGE('',*,*,#582,.T.);
#305=ORIENTED_EDGE('',*,*,#580,.T.);
#306=ORIENTED_EDGE('',*,*,#578,.T.);
#307=ORIENTED_EDGE('',*,*,#576,.T.);
#308=ORIENTED_EDGE('',*,*,#574,.T.);
#309=ORIENTED_EDGE('',*,*,#572,.T.);
#310=ORIENTED_EDGE('',*,*,#570,.T.);
#311=ORIENTED_EDGE('',*,*,#567,.T.);
#312=ORIENTED_EDGE('',*,*,#555,.F.);
#313=ORIENTED_EDGE('',*,*,#457,.F.);
#314=ORIENTED_EDGE('',*,*,#587,.F.);
#315=ORIENTED_EDGE('',*,*,#588,.T.);
#316=ORIENTED_EDGE('',*,*,#589,.T.);
#317=ORIENTED_EDGE('',*,*,#465,.F.);
#318=ORIENTED_EDGE('',*,*,#590,.F.);
#319=ORIENTED_EDGE('',*,*,#591,.T.);
#320=ORIENTED_EDGE('',*,*,#587,.T.);
#321=ORIENTED_EDGE('',*,*,#464,.F.);
#322=ORIENTED_EDGE('',*,*,#592,.F.);
#323=ORIENTED_EDGE('',*,*,#593,.T.);
#324=ORIENTED_EDGE('',*,*,#590,.T.);
#325=ORIENTED_EDGE('',*,*,#463,.F.);
#326=ORIENTED_EDGE('',*,*,#594,.F.);
#327=ORIENTED_EDGE('',*,*,#595,.T.);
#328=ORIENTED_EDGE('',*,*,#592,.T.);
#329=ORIENTED_EDGE('',*,*,#462,.F.);
#330=ORIENTED_EDGE('',*,*,#596,.F.);
#331=ORIENTED_EDGE('',*,*,#597,.T.);
#332=ORIENTED_EDGE('',*,*,#594,.T.);
#333=ORIENTED_EDGE('',*,*,#461,.F.);
#334=ORIENTED_EDGE('',*,*,#598,.F.);
#335=ORIENTED_EDGE('',*,*,#599,.T.);
#336=ORIENTED_EDGE('',*,*,#596,.T.);
#337=ORIENTED_EDGE('',*,*,#460,.F.);
#338=ORIENTED_EDGE('',*,*,#600,.F.);
#339=ORIENTED_EDGE('',*,*,#601,.T.);
#340=ORIENTED_EDGE('',*,*,#598,.T.);
#341=ORIENTED_EDGE('',*,*,#459,.F.);
#342=ORIENTED_EDGE('',*,*,#602,.F.);
#343=ORIENTED_EDGE('',*,*,#603,.T.);
#344=ORIENTED_EDGE('',*,*,#600,.T.);
#345=ORIENTED_EDGE('',*,*,#458,.F.);
#346=ORIENTED_EDGE('',*,*,#589,.F.);
#347=ORIENTED_EDGE('',*,*,#604,.T.);
#348=ORIENTED_EDGE('',*,*,#602,.T.);
#349=ORIENTED_EDGE('',*,*,#588,.F.);
#350=ORIENTED_EDGE('',*,*,#591,.F.);
#351=ORIENTED_EDGE('',*,*,#593,.F.);
#352=ORIENTED_EDGE('',*,*,#595,.F.);
#353=ORIENTED_EDGE('',*,*,#597,.F.);
#354=ORIENTED_EDGE('',*,*,#599,.F.);
#355=ORIENTED_EDGE('',*,*,#601,.F.);
#356=ORIENTED_EDGE('',*,*,#603,.F.);
#357=ORIENTED_EDGE('',*,*,#604,.F.);
#358=ORIENTED_EDGE('',*,*,#446,.F.);
#359=ORIENTED_EDGE('',*,*,#605,.F.);
#360=ORIENTED_EDGE('',*,*,#606,.T.);
#361=ORIENTED_EDGE('',*,*,#607,.T.);
#362=ORIENTED_EDGE('',*,*,#445,.F.);
#363=ORIENTED_EDGE('',*,*,#608,.F.);
#364=ORIENTED_EDGE('',*,*,#609,.T.);
#365=ORIENTED_EDGE('',*,*,#605,.T.);
#366=ORIENTED_EDGE('',*,*,#456,.F.);
#367=ORIENTED_EDGE('',*,*,#610,.F.);
#368=ORIENTED_EDGE('',*,*,#611,.T.);
#369=ORIENTED_EDGE('',*,*,#608,.T.);
#370=ORIENTED_EDGE('',*,*,#455,.F.);
#371=ORIENTED_EDGE('',*,*,#612,.F.);
#372=ORIENTED_EDGE('',*,*,#613,.T.);
#373=ORIENTED_EDGE('',*,*,#610,.T.);
#374=ORIENTED_EDGE('',*,*,#454,.F.);
#375=ORIENTED_EDGE('',*,*,#614,.F.);
#376=ORIENTED_EDGE('',*,*,#615,.T.);
#377=ORIENTED_EDGE('',*,*,#612,.T.);
#378=ORIENTED_EDGE('',*,*,#453,.F.);
#379=ORIENTED_EDGE('',*,*,#616,.F.);
#380=ORIENTED_EDGE('',*,*,#617,.T.);
#381=ORIENTED_EDGE('',*,*,#614,.T.);
#382=ORIENTED_EDGE('',*,*,#452,.F.);
#383=ORIENTED_EDGE('',*,*,#618,.F.);
#384=ORIENTED_EDGE('',*,*,#619,.T.);
#385=ORIENTED_EDGE('',*,*,#616,.T.);
#386=ORIENTED_EDGE('',*,*,#451,.F.);
#387=ORIENTED_EDGE('',*,*,#620,.F.);
#388=ORIENTED_EDGE('',*,*,#621,.T.);
#389=ORIENTED_EDGE('',*,*,#618,.T.);
#390=ORIENTED_EDGE('',*,*,#450,.F.);
#391=ORIENTED_EDGE('',*,*,#622,.F.);
#392=ORIENTED_EDGE('',*,*,#623,.T.);
#393=ORIENTED_EDGE('',*,*,#620,.T.);
#394=ORIENTED_EDGE('',*,*,#449,.F.);
#395=ORIENTED_EDGE('',*,*,#624,.F.);
#396=ORIENTED_EDGE('',*,*,#625,.T.);
#397=ORIENTED_EDGE('',*,*,#622,.T.);
#398=ORIENTED_EDGE('',*,*,#448,.F.);
#399=ORIENTED_EDGE('',*,*,#626,.F.);
#400=ORIENTED_EDGE('',*,*,#627,.T.);
#401=ORIENTED_EDGE('',*,*,#624,.T.);
#402=ORIENTED_EDGE('',*,*,#447,.F.);
#403=ORIENTED_EDGE('',*,*,#607,.F.);
#404=ORIENTED_EDGE('',*,*,#628,.T.);
#405=ORIENTED_EDGE('',*,*,#626,.T.);
#406=ORIENTED_EDGE('',*,*,#606,.F.);
#407=ORIENTED_EDGE('',*,*,#609,.F.);
#408=ORIENTED_EDGE('',*,*,#611,.F.);
#409=ORIENTED_EDGE('',*,*,#613,.F.);
#410=ORIENTED_EDGE('',*,*,#615,.F.);
#411=ORIENTED_EDGE('',*,*,#617,.F.);
#412=ORIENTED_EDGE('',*,*,#619,.F.);
#413=ORIENTED_EDGE('',*,*,#621,.F.);
#414=ORIENTED_EDGE('',*,*,#623,.F.);
#415=ORIENTED_EDGE('',*,*,#625,.F.);
#416=ORIENTED_EDGE('',*,*,#627,.F.);
#417=ORIENTED_EDGE('',*,*,#628,.F.);
#418=ORIENTED_EDGE('',*,*,#480,.F.);
#419=ORIENTED_EDGE('',*,*,#523,.F.);
#420=ORIENTED_EDGE('',*,*,#527,.F.);
#421=ORIENTED_EDGE('',*,*,#508,.F.);
#422=ORIENTED_EDGE('',*,*,#489,.F.);
#423=ORIENTED_EDGE('',*,*,#521,.F.);
#424=ORIENTED_EDGE('',*,*,#528,.F.);
#425=ORIENTED_EDGE('',*,*,#524,.F.);
#426=ORIENTED_EDGE('',*,*,#486,.F.);
#427=ORIENTED_EDGE('',*,*,#515,.F.);
#428=ORIENTED_EDGE('',*,*,#529,.F.);
#429=ORIENTED_EDGE('',*,*,#517,.F.);
#430=ORIENTED_EDGE('',*,*,#484,.F.);
#431=ORIENTED_EDGE('',*,*,#512,.F.);
#432=ORIENTED_EDGE('',*,*,#530,.F.);
#433=ORIENTED_EDGE('',*,*,#516,.F.);
#434=ORIENTED_EDGE('',*,*,#482,.F.);
#435=ORIENTED_EDGE('',*,*,#510,.F.);
#436=ORIENTED_EDGE('',*,*,#531,.F.);
#437=ORIENTED_EDGE('',*,*,#513,.F.);
#438=EDGE_CURVE('',#629,#630,#758,.T.);
#439=EDGE_CURVE('',#629,#631,#27,.T.);
#440=EDGE_CURVE('',#631,#632,#759,.T.);
#441=EDGE_CURVE('',#633,#632,#760,.T.);
#442=EDGE_CURVE('',#634,#633,#761,.T.);
#443=EDGE_CURVE('',#635,#634,#762,.T.);
#444=EDGE_CURVE('',#630,#635,#763,.T.);
#445=EDGE_CURVE('',#636,#637,#764,.T.);
#446=EDGE_CURVE('',#637,#638,#765,.T.);
#447=EDGE_CURVE('',#638,#639,#766,.T.);
#448=EDGE_CURVE('',#639,#640,#767,.T.);
#449=EDGE_CURVE('',#640,#641,#768,.T.);
#450=EDGE_CURVE('',#641,#642,#769,.T.);
#451=EDGE_CURVE('',#642,#643,#770,.T.);
#452=EDGE_CURVE('',#643,#644,#771,.T.);
#453=EDGE_CURVE('',#644,#645,#772,.T.);
#454=EDGE_CURVE('',#645,#646,#773,.T.);
#455=EDGE_CURVE('',#646,#647,#774,.T.);
#456=EDGE_CURVE('',#647,#636,#775,.T.);
#457=EDGE_CURVE('',#648,#649,#776,.T.);
#458=EDGE_CURVE('',#649,#650,#777,.T.);
#459=EDGE_CURVE('',#650,#651,#778,.T.);
#460=EDGE_CURVE('',#651,#652,#779,.T.);
#461=EDGE_CURVE('',#652,#653,#780,.T.);
#462=EDGE_CURVE('',#653,#654,#781,.T.);
#463=EDGE_CURVE('',#654,#655,#782,.T.);
#464=EDGE_CURVE('',#655,#656,#783,.T.);
#465=EDGE_CURVE('',#656,#648,#784,.T.);
#466=EDGE_CURVE('',#657,#657,#28,.T.);
#467=EDGE_CURVE('',#658,#659,#785,.T.);
#468=EDGE_CURVE('',#658,#660,#29,.T.);
#469=EDGE_CURVE('',#660,#661,#786,.T.);
#470=EDGE_CURVE('',#661,#662,#30,.T.);
#471=EDGE_CURVE('',#663,#662,#787,.T.);
#472=EDGE_CURVE('',#663,#664,#31,.T.);
#473=EDGE_CURVE('',#664,#665,#788,.T.);
#474=EDGE_CURVE('',#666,#665,#789,.T.);
#475=EDGE_CURVE('',#667,#666,#790,.T.);
#476=EDGE_CURVE('',#668,#667,#791,.T.);
#477=EDGE_CURVE('',#659,#668,#792,.T.);
#478=EDGE_CURVE('',#669,#669,#32,.T.);
#479=EDGE_CURVE('',#670,#671,#793,.T.);
#480=EDGE_CURVE('',#671,#672,#33,.T.);
#481=EDGE_CURVE('',#672,#673,#794,.T.);
#482=EDGE_CURVE('',#673,#674,#34,.T.);
#483=EDGE_CURVE('',#674,#675,#795,.T.);
#484=EDGE_CURVE('',#675,#676,#35,.T.);
#485=EDGE_CURVE('',#676,#677,#796,.T.);
#486=EDGE_CURVE('',#677,#678,#36,.T.);
#487=EDGE_CURVE('',#678,#679,#797,.T.);
#488=EDGE_CURVE('',#679,#680,#798,.T.);
#489=EDGE_CURVE('',#680,#670,#37,.T.);
#490=EDGE_CURVE('',#681,#682,#38,.T.);
#491=EDGE_CURVE('',#681,#683,#799,.T.);
#492=EDGE_CURVE('',#683,#684,#39,.T.);
#493=EDGE_CURVE('',#684,#685,#800,.T.);
#494=EDGE_CURVE('',#685,#686,#801,.T.);
#495=EDGE_CURVE('',#686,#687,#802,.T.);
#496=EDGE_CURVE('',#687,#688,#803,.T.);
#497=EDGE_CURVE('',#688,#689,#804,.T.);
#498=EDGE_CURVE('',#690,#689,#805,.T.);
#499=EDGE_CURVE('',#690,#691,#40,.T.);
#500=EDGE_CURVE('',#692,#691,#806,.T.);
#501=EDGE_CURVE('',#693,#692,#41,.T.);
#502=EDGE_CURVE('',#693,#694,#807,.T.);
#503=EDGE_CURVE('',#694,#695,#808,.T.);
#504=EDGE_CURVE('',#695,#696,#809,.T.);
#505=EDGE_CURVE('',#696,#697,#810,.T.);
#506=EDGE_CURVE('',#697,#698,#811,.T.);
#507=EDGE_CURVE('',#682,#698,#812,.T.);
#508=EDGE_CURVE('',#672,#699,#813,.T.);
#509=EDGE_CURVE('',#699,#700,#814,.T.);
#510=EDGE_CURVE('',#700,#673,#815,.F.);
#511=EDGE_CURVE('',#701,#702,#816,.T.);
#512=EDGE_CURVE('',#702,#675,#817,.F.);
#513=EDGE_CURVE('',#674,#701,#818,.T.);
#514=EDGE_CURVE('',#703,#704,#819,.T.);
#515=EDGE_CURVE('',#704,#677,#820,.F.);
#516=EDGE_CURVE('',#676,#703,#821,.T.);
#517=EDGE_CURVE('',#678,#705,#822,.T.);
#518=EDGE_CURVE('',#705,#706,#823,.T.);
#519=EDGE_CURVE('',#679,#706,#824,.T.);
#520=EDGE_CURVE('',#706,#707,#825,.T.);
#521=EDGE_CURVE('',#707,#680,#826,.F.);
#522=EDGE_CURVE('',#708,#709,#827,.T.);
#523=EDGE_CURVE('',#709,#671,#828,.F.);
#524=EDGE_CURVE('',#670,#708,#829,.T.);
#525=EDGE_CURVE('',#710,#710,#42,.F.);
#526=EDGE_CURVE('',#711,#711,#43,.F.);
#527=EDGE_CURVE('',#699,#709,#44,.F.);
#528=EDGE_CURVE('',#708,#707,#45,.F.);
#529=EDGE_CURVE('',#705,#704,#46,.F.);
#530=EDGE_CURVE('',#703,#702,#47,.F.);
#531=EDGE_CURVE('',#701,#700,#48,.F.);
#532=EDGE_CURVE('',#712,#712,#49,.T.);
#533=EDGE_CURVE('',#713,#713,#50,.T.);
#534=EDGE_CURVE('',#691,#683,#51,.T.);
#535=EDGE_CURVE('',#684,#690,#52,.T.);
#536=EDGE_CURVE('',#629,#684,#830,.T.);
#537=EDGE_CURVE('',#630,#685,#831,.T.);
#538=EDGE_CURVE('',#631,#690,#832,.T.);
#539=EDGE_CURVE('',#632,#689,#833,.T.);
#540=EDGE_CURVE('',#633,#688,#834,.T.);
#541=EDGE_CURVE('',#634,#687,#835,.T.);
#542=EDGE_CURVE('',#635,#686,#836,.T.);
#543=EDGE_CURVE('',#658,#693,#837,.T.);
#544=EDGE_CURVE('',#659,#694,#838,.T.);
#545=EDGE_CURVE('',#660,#692,#839,.T.);
#546=EDGE_CURVE('',#661,#691,#840,.T.);
#547=EDGE_CURVE('',#662,#683,#841,.T.);
#548=EDGE_CURVE('',#663,#681,#842,.T.);
#549=EDGE_CURVE('',#664,#682,#843,.T.);
#550=EDGE_CURVE('',#665,#698,#844,.T.);
#551=EDGE_CURVE('',#666,#697,#845,.T.);
#552=EDGE_CURVE('',#667,#696,#846,.T.);
#553=EDGE_CURVE('',#668,#695,#847,.T.);
#554=EDGE_CURVE('',#714,#714,#53,.T.);
#555=EDGE_CURVE('',#715,#715,#54,.F.);
#556=EDGE_CURVE('',#716,#716,#55,.T.);
#557=EDGE_CURVE('',#717,#718,#848,.T.);
#558=EDGE_CURVE('',#719,#717,#849,.T.);
#559=EDGE_CURVE('',#720,#719,#850,.T.);
#560=EDGE_CURVE('',#721,#720,#851,.T.);
#561=EDGE_CURVE('',#722,#721,#852,.T.);
#562=EDGE_CURVE('',#723,#722,#853,.T.);
#563=EDGE_CURVE('',#724,#723,#854,.T.);
#564=EDGE_CURVE('',#725,#724,#855,.T.);
#565=EDGE_CURVE('',#726,#725,#856,.T.);
#566=EDGE_CURVE('',#718,#726,#857,.T.);
#567=EDGE_CURVE('',#727,#728,#858,.T.);
#568=EDGE_CURVE('',#720,#727,#859,.T.);
#569=EDGE_CURVE('',#719,#728,#860,.T.);
#570=EDGE_CURVE('',#729,#727,#861,.T.);
#571=EDGE_CURVE('',#721,#729,#862,.T.);
#572=EDGE_CURVE('',#730,#729,#863,.T.);
#573=EDGE_CURVE('',#722,#730,#864,.T.);
#574=EDGE_CURVE('',#731,#730,#865,.T.);
#575=EDGE_CURVE('',#723,#731,#866,.T.);
#576=EDGE_CURVE('',#732,#731,#867,.T.);
#577=EDGE_CURVE('',#724,#732,#868,.T.);
#578=EDGE_CURVE('',#733,#732,#869,.T.);
#579=EDGE_CURVE('',#725,#733,#870,.T.);
#580=EDGE_CURVE('',#734,#733,#871,.T.);
#581=EDGE_CURVE('',#726,#734,#872,.T.);
#582=EDGE_CURVE('',#735,#734,#873,.T.);
#583=EDGE_CURVE('',#718,#735,#874,.T.);
#584=EDGE_CURVE('',#736,#735,#875,.T.);
#585=EDGE_CURVE('',#717,#736,#876,.T.);
#586=EDGE_CURVE('',#728,#736,#877,.T.);
#587=EDGE_CURVE('',#737,#648,#878,.T.);
#588=EDGE_CURVE('',#737,#738,#879,.T.);
#589=EDGE_CURVE('',#738,#649,#880,.T.);
#590=EDGE_CURVE('',#739,#656,#881,.T.);
#591=EDGE_CURVE('',#739,#737,#882,.T.);
#592=EDGE_CURVE('',#740,#655,#883,.T.);
#593=EDGE_CURVE('',#740,#739,#884,.T.);
#594=EDGE_CURVE('',#741,#654,#885,.T.);
#595=EDGE_CURVE('',#741,#740,#886,.T.);
#596=EDGE_CURVE('',#742,#653,#887,.T.);
#597=EDGE_CURVE('',#742,#741,#888,.T.);
#598=EDGE_CURVE('',#743,#652,#889,.T.);
#599=EDGE_CURVE('',#743,#742,#890,.T.);
#600=EDGE_CURVE('',#744,#651,#891,.T.);
#601=EDGE_CURVE('',#744,#743,#892,.T.);
#602=EDGE_CURVE('',#745,#650,#893,.T.);
#603=EDGE_CURVE('',#745,#744,#894,.T.);
#604=EDGE_CURVE('',#738,#745,#895,.T.);
#605=EDGE_CURVE('',#746,#637,#896,.T.);
#606=EDGE_CURVE('',#746,#747,#897,.T.);
#607=EDGE_CURVE('',#747,#638,#898,.T.);
#608=EDGE_CURVE('',#748,#636,#899,.T.);
#609=EDGE_CURVE('',#748,#746,#900,.T.);
#610=EDGE_CURVE('',#749,#647,#901,.T.);
#611=EDGE_CURVE('',#749,#748,#902,.T.);
#612=EDGE_CURVE('',#750,#646,#903,.T.);
#613=EDGE_CURVE('',#750,#749,#904,.T.);
#614=EDGE_CURVE('',#751,#645,#905,.T.);
#615=EDGE_CURVE('',#751,#750,#906,.T.);
#616=EDGE_CURVE('',#752,#644,#907,.T.);
#617=EDGE_CURVE('',#752,#751,#908,.T.);
#618=EDGE_CURVE('',#753,#643,#909,.T.);
#619=EDGE_CURVE('',#753,#752,#910,.T.);
#620=EDGE_CURVE('',#754,#642,#911,.T.);
#621=EDGE_CURVE('',#754,#753,#912,.T.);
#622=EDGE_CURVE('',#755,#641,#913,.T.);
#623=EDGE_CURVE('',#755,#754,#914,.T.);
#624=EDGE_CURVE('',#756,#640,#915,.T.);
#625=EDGE_CURVE('',#756,#755,#916,.T.);
#626=EDGE_CURVE('',#757,#639,#917,.T.);
#627=EDGE_CURVE('',#757,#756,#918,.T.);
#628=EDGE_CURVE('',#747,#757,#919,.T.);
#629=VERTEX_POINT('',#1889);
#630=VERTEX_POINT('',#1890);
#631=VERTEX_POINT('',#1892);
#632=VERTEX_POINT('',#1894);
#633=VERTEX_POINT('',#1896);
#634=VERTEX_POINT('',#1898);
#635=VERTEX_POINT('',#1900);
#636=VERTEX_POINT('',#1903);
#637=VERTEX_POINT('',#1904);
#638=VERTEX_POINT('',#1906);
#639=VERTEX_POINT('',#1908);
#640=VERTEX_POINT('',#1910);
#641=VERTEX_POINT('',#1912);
#642=VERTEX_POINT('',#1914);
#643=VERTEX_POINT('',#1916);
#644=VERTEX_POINT('',#1918);
#645=VERTEX_POINT('',#1920);
#646=VERTEX_POINT('',#1922);
#647=VERTEX_POINT('',#1924);
#648=VERTEX_POINT('',#1928);
#649=VERTEX_POINT('',#1929);
#650=VERTEX_POINT('',#1931);
#651=VERTEX_POINT('',#1933);
#652=VERTEX_POINT('',#1935);
#653=VERTEX_POINT('',#1937);
#654=VERTEX_POINT('',#1939);
#655=VERTEX_POINT('',#1941);
#656=VERTEX_POINT('',#1943);
#657=VERTEX_POINT('',#1946);
#658=VERTEX_POINT('',#1948);
#659=VERTEX_POINT('',#1949);
#660=VERTEX_POINT('',#1951);
#661=VERTEX_POINT('',#1953);
#662=VERTEX_POINT('',#1955);
#663=VERTEX_POINT('',#1957);
#664=VERTEX_POINT('',#1959);
#665=VERTEX_POINT('',#1961);
#666=VERTEX_POINT('',#1963);
#667=VERTEX_POINT('',#1965);
#668=VERTEX_POINT('',#1967);
#669=VERTEX_POINT('',#1971);
#670=VERTEX_POINT('',#1973);
#671=VERTEX_POINT('',#1974);
#672=VERTEX_POINT('',#1976);
#673=VERTEX_POINT('',#1978);
#674=VERTEX_POINT('',#1980);
#675=VERTEX_POINT('',#1982);
#676=VERTEX_POINT('',#1984);
#677=VERTEX_POINT('',#1986);
#678=VERTEX_POINT('',#1988);
#679=VERTEX_POINT('',#1990);
#680=VERTEX_POINT('',#1992);
#681=VERTEX_POINT('',#1995);
#682=VERTEX_POINT('',#1996);
#683=VERTEX_POINT('',#1998);
#684=VERTEX_POINT('',#2000);
#685=VERTEX_POINT('',#2002);
#686=VERTEX_POINT('',#2004);
#687=VERTEX_POINT('',#2006);
#688=VERTEX_POINT('',#2008);
#689=VERTEX_POINT('',#2010);
#690=VERTEX_POINT('',#2012);
#691=VERTEX_POINT('',#2014);
#692=VERTEX_POINT('',#2016);
#693=VERTEX_POINT('',#2018);
#694=VERTEX_POINT('',#2020);
#695=VERTEX_POINT('',#2022);
#696=VERTEX_POINT('',#2024);
#697=VERTEX_POINT('',#2026);
#698=VERTEX_POINT('',#2028);
#699=VERTEX_POINT('',#2032);
#700=VERTEX_POINT('',#2034);
#701=VERTEX_POINT('',#2038);
#702=VERTEX_POINT('',#2039);
#703=VERTEX_POINT('',#2044);
#704=VERTEX_POINT('',#2045);
#705=VERTEX_POINT('',#2050);
#706=VERTEX_POINT('',#2052);
#707=VERTEX_POINT('',#2056);
#708=VERTEX_POINT('',#2060);
#709=VERTEX_POINT('',#2061);
#710=VERTEX_POINT('',#2066);
#711=VERTEX_POINT('',#2068);
#712=VERTEX_POINT('',#2076);
#713=VERTEX_POINT('',#2080);
#714=VERTEX_POINT('',#2122);
#715=VERTEX_POINT('',#2124);
#716=VERTEX_POINT('',#2127);
#717=VERTEX_POINT('',#2131);
#718=VERTEX_POINT('',#2132);
#719=VERTEX_POINT('',#2134);
#720=VERTEX_POINT('',#2136);
#721=VERTEX_POINT('',#2138);
#722=VERTEX_POINT('',#2140);
#723=VERTEX_POINT('',#2142);
#724=VERTEX_POINT('',#2144);
#725=VERTEX_POINT('',#2146);
#726=VERTEX_POINT('',#2148);
#727=VERTEX_POINT('',#2152);
#728=VERTEX_POINT('',#2153);
#729=VERTEX_POINT('',#2158);
#730=VERTEX_POINT('',#2162);
#731=VERTEX_POINT('',#2166);
#732=VERTEX_POINT('',#2170);
#733=VERTEX_POINT('',#2174);
#734=VERTEX_POINT('',#2178);
#735=VERTEX_POINT('',#2182);
#736=VERTEX_POINT('',#2186);
#737=VERTEX_POINT('',#2193);
#738=VERTEX_POINT('',#2195);
#739=VERTEX_POINT('',#2199);
#740=VERTEX_POINT('',#2203);
#741=VERTEX_POINT('',#2207);
#742=VERTEX_POINT('',#2211);
#743=VERTEX_POINT('',#2215);
#744=VERTEX_POINT('',#2219);
#745=VERTEX_POINT('',#2223);
#746=VERTEX_POINT('',#2230);
#747=VERTEX_POINT('',#2232);
#748=VERTEX_POINT('',#2236);
#749=VERTEX_POINT('',#2240);
#750=VERTEX_POINT('',#2244);
#751=VERTEX_POINT('',#2248);
#752=VERTEX_POINT('',#2252);
#753=VERTEX_POINT('',#2256);
#754=VERTEX_POINT('',#2260);
#755=VERTEX_POINT('',#2264);
#756=VERTEX_POINT('',#2268);
#757=VERTEX_POINT('',#2272);
#758=LINE('',#1888,#920);
#759=LINE('',#1893,#921);
#760=LINE('',#1895,#922);
#761=LINE('',#1897,#923);
#762=LINE('',#1899,#924);
#763=LINE('',#1901,#925);
#764=LINE('',#1902,#926);
#765=LINE('',#1905,#927);
#766=LINE('',#1907,#928);
#767=LINE('',#1909,#929);
#768=LINE('',#1911,#930);
#769=LINE('',#1913,#931);
#770=LINE('',#1915,#932);
#771=LINE('',#1917,#933);
#772=LINE('',#1919,#934);
#773=LINE('',#1921,#935);
#774=LINE('',#1923,#936);
#775=LINE('',#1925,#937);
#776=LINE('',#1927,#938);
#777=LINE('',#1930,#939);
#778=LINE('',#1932,#940);
#779=LINE('',#1934,#941);
#780=LINE('',#1936,#942);
#781=LINE('',#1938,#943);
#782=LINE('',#1940,#944);
#783=LINE('',#1942,#945);
#784=LINE('',#1944,#946);
#785=LINE('',#1947,#947);
#786=LINE('',#1952,#948);
#787=LINE('',#1956,#949);
#788=LINE('',#1960,#950);
#789=LINE('',#1962,#951);
#790=LINE('',#1964,#952);
#791=LINE('',#1966,#953);
#792=LINE('',#1968,#954);
#793=LINE('',#1972,#955);
#794=LINE('',#1977,#956);
#795=LINE('',#1981,#957);
#796=LINE('',#1985,#958);
#797=LINE('',#1989,#959);
#798=LINE('',#1991,#960);
#799=LINE('',#1997,#961);
#800=LINE('',#2001,#962);
#801=LINE('',#2003,#963);
#802=LINE('',#2005,#964);
#803=LINE('',#2007,#965);
#804=LINE('',#2009,#966);
#805=LINE('',#2011,#967);
#806=LINE('',#2015,#968);
#807=LINE('',#2019,#969);
#808=LINE('',#2021,#970);
#809=LINE('',#2023,#971);
#810=LINE('',#2025,#972);
#811=LINE('',#2027,#973);
#812=LINE('',#2029,#974);
#813=LINE('',#2031,#975);
#814=LINE('',#2033,#976);
#815=LINE('',#2035,#977);
#816=LINE('',#2037,#978);
#817=LINE('',#2040,#979);
#818=LINE('',#2041,#980);
#819=LINE('',#2043,#981);
#820=LINE('',#2046,#982);
#821=LINE('',#2047,#983);
#822=LINE('',#2049,#984);
#823=LINE('',#2051,#985);
#824=LINE('',#2053,#986);
#825=LINE('',#2055,#987);
#826=LINE('',#2057,#988);
#827=LINE('',#2059,#989);
#828=LINE('',#2062,#990);
#829=LINE('',#2063,#991);
#830=LINE('',#2085,#992);
#831=LINE('',#2086,#993);
#832=LINE('',#2088,#994);
#833=LINE('',#2090,#995);
#834=LINE('',#2092,#996);
#835=LINE('',#2094,#997);
#836=LINE('',#2096,#998);
#837=LINE('',#2099,#999);
#838=LINE('',#2100,#1000);
#839=LINE('',#2102,#1001);
#840=LINE('',#2104,#1002);
#841=LINE('',#2106,#1003);
#842=LINE('',#2108,#1004);
#843=LINE('',#2110,#1005);
#844=LINE('',#2112,#1006);
#845=LINE('',#2114,#1007);
#846=LINE('',#2116,#1008);
#847=LINE('',#2118,#1009);
#848=LINE('',#2130,#1010);
#849=LINE('',#2133,#1011);
#850=LINE('',#2135,#1012);
#851=LINE('',#2137,#1013);
#852=LINE('',#2139,#1014);
#853=LINE('',#2141,#1015);
#854=LINE('',#2143,#1016);
#855=LINE('',#2145,#1017);
#856=LINE('',#2147,#1018);
#857=LINE('',#2149,#1019);
#858=LINE('',#2151,#1020);
#859=LINE('',#2154,#1021);
#860=LINE('',#2155,#1022);
#861=LINE('',#2157,#1023);
#862=LINE('',#2159,#1024);
#863=LINE('',#2161,#1025);
#864=LINE('',#2163,#1026);
#865=LINE('',#2165,#1027);
#866=LINE('',#2167,#1028);
#867=LINE('',#2169,#1029);
#868=LINE('',#2171,#1030);
#869=LINE('',#2173,#1031);
#870=LINE('',#2175,#1032);
#871=LINE('',#2177,#1033);
#872=LINE('',#2179,#1034);
#873=LINE('',#2181,#1035);
#874=LINE('',#2183,#1036);
#875=LINE('',#2185,#1037);
#876=LINE('',#2187,#1038);
#877=LINE('',#2189,#1039);
#878=LINE('',#2192,#1040);
#879=LINE('',#2194,#1041);
#880=LINE('',#2196,#1042);
#881=LINE('',#2198,#1043);
#882=LINE('',#2200,#1044);
#883=LINE('',#2202,#1045);
#884=LINE('',#2204,#1046);
#885=LINE('',#2206,#1047);
#886=LINE('',#2208,#1048);
#887=LINE('',#2210,#1049);
#888=LINE('',#2212,#1050);
#889=LINE('',#2214,#1051);
#890=LINE('',#2216,#1052);
#891=LINE('',#2218,#1053);
#892=LINE('',#2220,#1054);
#893=LINE('',#2222,#1055);
#894=LINE('',#2224,#1056);
#895=LINE('',#2226,#1057);
#896=LINE('',#2229,#1058);
#897=LINE('',#2231,#1059);
#898=LINE('',#2233,#1060);
#899=LINE('',#2235,#1061);
#900=LINE('',#2237,#1062);
#901=LINE('',#2239,#1063);
#902=LINE('',#2241,#1064);
#903=LINE('',#2243,#1065);
#904=LINE('',#2245,#1066);
#905=LINE('',#2247,#1067);
#906=LINE('',#2249,#1068);
#907=LINE('',#2251,#1069);
#908=LINE('',#2253,#1070);
#909=LINE('',#2255,#1071);
#910=LINE('',#2257,#1072);
#911=LINE('',#2259,#1073);
#912=LINE('',#2261,#1074);
#913=LINE('',#2263,#1075);
#914=LINE('',#2265,#1076);
#915=LINE('',#2267,#1077);
#916=LINE('',#2269,#1078);
#917=LINE('',#2271,#1079);
#918=LINE('',#2273,#1080);
#919=LINE('',#2275,#1081);
#920=VECTOR('',#1518,1.);
#921=VECTOR('',#1521,1.);
#922=VECTOR('',#1522,1.);
#923=VECTOR('',#1523,1.);
#924=VECTOR('',#1524,1.);
#925=VECTOR('',#1525,1.);
#926=VECTOR('',#1526,1.);
#927=VECTOR('',#1527,1.);
#928=VECTOR('',#1528,1.);
#929=VECTOR('',#1529,1.);
#930=VECTOR('',#1530,1.);
#931=VECTOR('',#1531,1.);
#932=VECTOR('',#1532,1.);
#933=VECTOR('',#1533,1.);
#934=VECTOR('',#1534,1.);
#935=VECTOR('',#1535,1.);
#936=VECTOR('',#1536,1.);
#937=VECTOR('',#1537,1.);
#938=VECTOR('',#1540,1.);
#939=VECTOR('',#1541,1.);
#940=VECTOR('',#1542,1.);
#941=VECTOR('',#1543,1.);
#942=VECTOR('',#1544,1.);
#943=VECTOR('',#1545,1.);
#944=VECTOR('',#1546,1.);
#945=VECTOR('',#1547,1.);
#946=VECTOR('',#1548,1.);
#947=VECTOR('',#1551,1.);
#948=VECTOR('',#1554,1.);
#949=VECTOR('',#1557,1.);
#950=VECTOR('',#1560,1.);
#951=VECTOR('',#1561,1.);
#952=VECTOR('',#1562,1.);
#953=VECTOR('',#1563,1.);
#954=VECTOR('',#1564,1.);
#955=VECTOR('',#1569,1.);
#956=VECTOR('',#1572,1.);
#957=VECTOR('',#1575,1.);
#958=VECTOR('',#1578,1.);
#959=VECTOR('',#1581,1.);
#960=VECTOR('',#1582,1.);
#961=VECTOR('',#1587,1.);
#962=VECTOR('',#1590,1.);
#963=VECTOR('',#1591,1.);
#964=VECTOR('',#1592,1.);
#965=VECTOR('',#1593,1.);
#966=VECTOR('',#1594,1.);
#967=VECTOR('',#1595,1.);
#968=VECTOR('',#1598,1.);
#969=VECTOR('',#1601,1.);
#970=VECTOR('',#1602,1.);
#971=VECTOR('',#1603,1.);
#972=VECTOR('',#1604,1.);
#973=VECTOR('',#1605,1.);
#974=VECTOR('',#1606,1.);
#975=VECTOR('',#1609,1.);
#976=VECTOR('',#1610,1.);
#977=VECTOR('',#1611,1.);
#978=VECTOR('',#1614,1.);
#979=VECTOR('',#1615,1.);
#980=VECTOR('',#1616,1.);
#981=VECTOR('',#1619,1.);
#982=VECTOR('',#1620,1.);
#983=VECTOR('',#1621,1.);
#984=VECTOR('',#1624,1.);
#985=VECTOR('',#1625,1.);
#986=VECTOR('',#1626,1.);
#987=VECTOR('',#1629,1.);
#988=VECTOR('',#1630,1.);
#989=VECTOR('',#1633,1.);
#990=VECTOR('',#1634,1.);
#991=VECTOR('',#1635,1.);
#992=VECTOR('',#1670,1.);
#993=VECTOR('',#1671,1.);
#994=VECTOR('',#1674,1.);
#995=VECTOR('',#1677,1.);
#996=VECTOR('',#1680,1.);
#997=VECTOR('',#1683,1.);
#998=VECTOR('',#1686,1.);
#999=VECTOR('',#1691,1.);
#1000=VECTOR('',#1692,1.);
#1001=VECTOR('',#1695,1.);
#1002=VECTOR('',#1698,1.);
#1003=VECTOR('',#1701,1.);
#1004=VECTOR('',#1704,1.);
#1005=VECTOR('',#1707,1.);
#1006=VECTOR('',#1710,1.);
#1007=VECTOR('',#1713,1.);
#1008=VECTOR('',#1716,1.);
#1009=VECTOR('',#1719,1.);
#1010=VECTOR('',#1736,1.);
#1011=VECTOR('',#1737,1.);
#1012=VECTOR('',#1738,1.);
#1013=VECTOR('',#1739,1.);
#1014=VECTOR('',#1740,1.);
#1015=VECTOR('',#1741,1.);
#1016=VECTOR('',#1742,1.);
#1017=VECTOR('',#1743,1.);
#1018=VECTOR('',#1744,1.);
#1019=VECTOR('',#1745,1.);
#1020=VECTOR('',#1748,1.);
#1021=VECTOR('',#1749,1.);
#1022=VECTOR('',#1750,1.);
#1023=VECTOR('',#1753,1.);
#1024=VECTOR('',#1754,1.);
#1025=VECTOR('',#1757,1.);
#1026=VECTOR('',#1758,1.);
#1027=VECTOR('',#1761,1.);
#1028=VECTOR('',#1762,1.);
#1029=VECTOR('',#1765,1.);
#1030=VECTOR('',#1766,1.);
#1031=VECTOR('',#1769,1.);
#1032=VECTOR('',#1770,1.);
#1033=VECTOR('',#1773,1.);
#1034=VECTOR('',#1774,1.);
#1035=VECTOR('',#1777,1.);
#1036=VECTOR('',#1778,1.);
#1037=VECTOR('',#1781,1.);
#1038=VECTOR('',#1782,1.);
#1039=VECTOR('',#1785,1.);
#1040=VECTOR('',#1790,1.);
#1041=VECTOR('',#1791,1.);
#1042=VECTOR('',#1792,1.);
#1043=VECTOR('',#1795,1.);
#1044=VECTOR('',#1796,1.);
#1045=VECTOR('',#1799,1.);
#1046=VECTOR('',#1800,1.);
#1047=VECTOR('',#1803,1.);
#1048=VECTOR('',#1804,1.);
#1049=VECTOR('',#1807,1.);
#1050=VECTOR('',#1808,1.);
#1051=VECTOR('',#1811,1.);
#1052=VECTOR('',#1812,1.);
#1053=VECTOR('',#1815,1.);
#1054=VECTOR('',#1816,1.);
#1055=VECTOR('',#1819,1.);
#1056=VECTOR('',#1820,1.);
#1057=VECTOR('',#1823,1.);
#1058=VECTOR('',#1828,1.);
#1059=VECTOR('',#1829,1.);
#1060=VECTOR('',#1830,1.);
#1061=VECTOR('',#1833,1.);
#1062=VECTOR('',#1834,1.);
#1063=VECTOR('',#1837,1.);
#1064=VECTOR('',#1838,1.);
#1065=VECTOR('',#1841,1.);
#1066=VECTOR('',#1842,1.);
#1067=VECTOR('',#1845,1.);
#1068=VECTOR('',#1846,1.);
#1069=VECTOR('',#1849,1.);
#1070=VECTOR('',#1850,1.);
#1071=VECTOR('',#1853,1.);
#1072=VECTOR('',#1854,1.);
#1073=VECTOR('',#1857,1.);
#1074=VECTOR('',#1858,1.);
#1075=VECTOR('',#1861,1.);
#1076=VECTOR('',#1862,1.);
#1077=VECTOR('',#1865,1.);
#1078=VECTOR('',#1866,1.);
#1079=VECTOR('',#1869,1.);
#1080=VECTOR('',#1870,1.);
#1081=VECTOR('',#1873,1.);
#1082=EDGE_LOOP('',(#56,#57,#58,#59,#60,#61,#62));
#1083=EDGE_LOOP('',(#63,#64,#65,#66,#67,#68,#69,#70,#71,#72,#73,#74));
#1084=EDGE_LOOP('',(#75,#76,#77,#78,#79,#80,#81,#82,#83));
#1085=EDGE_LOOP('',(#84));
#1086=EDGE_LOOP('',(#85,#86,#87,#88,#89,#90,#91,#92,#93,#94,#95));
#1087=EDGE_LOOP('',(#96));
#1088=EDGE_LOOP('',(#97,#98,#99,#100,#101,#102,#103,#104,#105,#106,#107));
#1089=EDGE_LOOP('',(#108,#109,#110,#111,#112,#113,#114,#115,#116,#117,#118,
#119,#120,#121,#122,#123,#124,#125));
#1090=EDGE_LOOP('',(#126,#127,#128,#129));
#1091=EDGE_LOOP('',(#130,#131,#132,#133));
#1092=EDGE_LOOP('',(#134,#135,#136,#137));
#1093=EDGE_LOOP('',(#138,#139,#140,#141));
#1094=EDGE_LOOP('',(#142,#143,#144,#145));
#1095=EDGE_LOOP('',(#146,#147,#148,#149));
#1096=EDGE_LOOP('',(#150));
#1097=EDGE_LOOP('',(#151));
#1098=EDGE_LOOP('',(#152,#153,#154,#155,#156,#157,#158,#159,#160,#161,#162));
#1099=EDGE_LOOP('',(#163));
#1100=EDGE_LOOP('',(#164));
#1101=EDGE_LOOP('',(#165));
#1102=EDGE_LOOP('',(#166));
#1103=EDGE_LOOP('',(#167));
#1104=EDGE_LOOP('',(#168));
#1105=EDGE_LOOP('',(#169));
#1106=EDGE_LOOP('',(#170,#171,#172,#173));
#1107=EDGE_LOOP('',(#174,#175,#176,#177));
#1108=EDGE_LOOP('',(#178,#179,#180,#181));
#1109=EDGE_LOOP('',(#182,#183,#184,#185));
#1110=EDGE_LOOP('',(#186,#187,#188,#189));
#1111=EDGE_LOOP('',(#190,#191,#192,#193));
#1112=EDGE_LOOP('',(#194,#195,#196,#197));
#1113=EDGE_LOOP('',(#198,#199,#200,#201));
#1114=EDGE_LOOP('',(#202,#203,#204,#205));
#1115=EDGE_LOOP('',(#206,#207,#208,#209));
#1116=EDGE_LOOP('',(#210,#211,#212,#213));
#1117=EDGE_LOOP('',(#214,#215,#216,#217));
#1118=EDGE_LOOP('',(#218,#219,#220,#221));
#1119=EDGE_LOOP('',(#222,#223,#224,#225));
#1120=EDGE_LOOP('',(#226,#227,#228,#229));
#1121=EDGE_LOOP('',(#230,#231,#232,#233));
#1122=EDGE_LOOP('',(#234,#235,#236,#237));
#1123=EDGE_LOOP('',(#238,#239,#240,#241));
#1124=EDGE_LOOP('',(#242,#243,#244,#245));
#1125=EDGE_LOOP('',(#246));
#1126=EDGE_LOOP('',(#247));
#1127=EDGE_LOOP('',(#248));
#1128=EDGE_LOOP('',(#249));
#1129=EDGE_LOOP('',(#250));
#1130=EDGE_LOOP('',(#251));
#1131=EDGE_LOOP('',(#252,#253,#254,#255,#256,#257,#258,#259,#260,#261));
#1132=EDGE_LOOP('',(#262,#263,#264,#265));
#1133=EDGE_LOOP('',(#266,#267,#268,#269));
#1134=EDGE_LOOP('',(#270,#271,#272,#273));
#1135=EDGE_LOOP('',(#274,#275,#276,#277));
#1136=EDGE_LOOP('',(#278,#279,#280,#281));
#1137=EDGE_LOOP('',(#282,#283,#284,#285));
#1138=EDGE_LOOP('',(#286,#287,#288,#289));
#1139=EDGE_LOOP('',(#290,#291,#292,#293));
#1140=EDGE_LOOP('',(#294,#295,#296,#297));
#1141=EDGE_LOOP('',(#298,#299,#300,#301));
#1142=EDGE_LOOP('',(#302,#303,#304,#305,#306,#307,#308,#309,#310,#311));
#1143=EDGE_LOOP('',(#312));
#1144=EDGE_LOOP('',(#313,#314,#315,#316));
#1145=EDGE_LOOP('',(#317,#318,#319,#320));
#1146=EDGE_LOOP('',(#321,#322,#323,#324));
#1147=EDGE_LOOP('',(#325,#326,#327,#328));
#1148=EDGE_LOOP('',(#329,#330,#331,#332));
#1149=EDGE_LOOP('',(#333,#334,#335,#336));
#1150=EDGE_LOOP('',(#337,#338,#339,#340));
#1151=EDGE_LOOP('',(#341,#342,#343,#344));
#1152=EDGE_LOOP('',(#345,#346,#347,#348));
#1153=EDGE_LOOP('',(#349,#350,#351,#352,#353,#354,#355,#356,#357));
#1154=EDGE_LOOP('',(#358,#359,#360,#361));
#1155=EDGE_LOOP('',(#362,#363,#364,#365));
#1156=EDGE_LOOP('',(#366,#367,#368,#369));
#1157=EDGE_LOOP('',(#370,#371,#372,#373));
#1158=EDGE_LOOP('',(#374,#375,#376,#377));
#1159=EDGE_LOOP('',(#378,#379,#380,#381));
#1160=EDGE_LOOP('',(#382,#383,#384,#385));
#1161=EDGE_LOOP('',(#386,#387,#388,#389));
#1162=EDGE_LOOP('',(#390,#391,#392,#393));
#1163=EDGE_LOOP('',(#394,#395,#396,#397));
#1164=EDGE_LOOP('',(#398,#399,#400,#401));
#1165=EDGE_LOOP('',(#402,#403,#404,#405));
#1166=EDGE_LOOP('',(#406,#407,#408,#409,#410,#411,#412,#413,#414,#415,#416,
#417));
#1167=EDGE_LOOP('',(#418,#419,#420,#421));
#1168=EDGE_LOOP('',(#422,#423,#424,#425));
#1169=EDGE_LOOP('',(#426,#427,#428,#429));
#1170=EDGE_LOOP('',(#430,#431,#432,#433));
#1171=EDGE_LOOP('',(#434,#435,#436,#437));
#1172=FACE_BOUND('',#1082,.T.);
#1173=FACE_BOUND('',#1083,.T.);
#1174=FACE_BOUND('',#1084,.T.);
#1175=FACE_BOUND('',#1085,.T.);
#1176=FACE_BOUND('',#1086,.T.);
#1177=FACE_BOUND('',#1087,.T.);
#1178=FACE_BOUND('',#1088,.T.);
#1179=FACE_BOUND('',#1089,.T.);
#1180=FACE_BOUND('',#1090,.T.);
#1181=FACE_BOUND('',#1091,.T.);
#1182=FACE_BOUND('',#1092,.T.);
#1183=FACE_BOUND('',#1093,.T.);
#1184=FACE_BOUND('',#1094,.T.);
#1185=FACE_BOUND('',#1095,.T.);
#1186=FACE_BOUND('',#1096,.T.);
#1187=FACE_BOUND('',#1097,.T.);
#1188=FACE_BOUND('',#1098,.T.);
#1189=FACE_BOUND('',#1099,.T.);
#1190=FACE_BOUND('',#1100,.T.);
#1191=FACE_BOUND('',#1101,.T.);
#1192=FACE_BOUND('',#1102,.T.);
#1193=FACE_BOUND('',#1103,.T.);
#1194=FACE_BOUND('',#1104,.T.);
#1195=FACE_BOUND('',#1105,.T.);
#1196=FACE_BOUND('',#1106,.T.);
#1197=FACE_BOUND('',#1107,.T.);
#1198=FACE_BOUND('',#1108,.T.);
#1199=FACE_BOUND('',#1109,.T.);
#1200=FACE_BOUND('',#1110,.T.);
#1201=FACE_BOUND('',#1111,.T.);
#1202=FACE_BOUND('',#1112,.T.);
#1203=FACE_BOUND('',#1113,.T.);
#1204=FACE_BOUND('',#1114,.T.);
#1205=FACE_BOUND('',#1115,.T.);
#1206=FACE_BOUND('',#1116,.T.);
#1207=FACE_BOUND('',#1117,.T.);
#1208=FACE_BOUND('',#1118,.T.);
#1209=FACE_BOUND('',#1119,.T.);
#1210=FACE_BOUND('',#1120,.T.);
#1211=FACE_BOUND('',#1121,.T.);
#1212=FACE_BOUND('',#1122,.T.);
#1213=FACE_BOUND('',#1123,.T.);
#1214=FACE_BOUND('',#1124,.T.);
#1215=FACE_BOUND('',#1125,.T.);
#1216=FACE_BOUND('',#1126,.T.);
#1217=FACE_BOUND('',#1127,.T.);
#1218=FACE_BOUND('',#1128,.T.);
#1219=FACE_BOUND('',#1129,.T.);
#1220=FACE_BOUND('',#1130,.T.);
#1221=FACE_BOUND('',#1131,.T.);
#1222=FACE_BOUND('',#1132,.T.);
#1223=FACE_BOUND('',#1133,.T.);
#1224=FACE_BOUND('',#1134,.T.);
#1225=FACE_BOUND('',#1135,.T.);
#1226=FACE_BOUND('',#1136,.T.);
#1227=FACE_BOUND('',#1137,.T.);
#1228=FACE_BOUND('',#1138,.T.);
#1229=FACE_BOUND('',#1139,.T.);
#1230=FACE_BOUND('',#1140,.T.);
#1231=FACE_BOUND('',#1141,.T.);
#1232=FACE_BOUND('',#1142,.T.);
#1233=FACE_BOUND('',#1143,.T.);
#1234=FACE_BOUND('',#1144,.T.);
#1235=FACE_BOUND('',#1145,.T.);
#1236=FACE_BOUND('',#1146,.T.);
#1237=FACE_BOUND('',#1147,.T.);
#1238=FACE_BOUND('',#1148,.T.);
#1239=FACE_BOUND('',#1149,.T.);
#1240=FACE_BOUND('',#1150,.T.);
#1241=FACE_BOUND('',#1151,.T.);
#1242=FACE_BOUND('',#1152,.T.);
#1243=FACE_BOUND('',#1153,.T.);
#1244=FACE_BOUND('',#1154,.T.);
#1245=FACE_BOUND('',#1155,.T.);
#1246=FACE_BOUND('',#1156,.T.);
#1247=FACE_BOUND('',#1157,.T.);
#1248=FACE_BOUND('',#1158,.T.);
#1249=FACE_BOUND('',#1159,.T.);
#1250=FACE_BOUND('',#1160,.T.);
#1251=FACE_BOUND('',#1161,.T.);
#1252=FACE_BOUND('',#1162,.T.);
#1253=FACE_BOUND('',#1163,.T.);
#1254=FACE_BOUND('',#1164,.T.);
#1255=FACE_BOUND('',#1165,.T.);
#1256=FACE_BOUND('',#1166,.T.);
#1257=FACE_BOUND('',#1167,.T.);
#1258=FACE_BOUND('',#1168,.T.);
#1259=FACE_BOUND('',#1169,.T.);
#1260=FACE_BOUND('',#1170,.T.);
#1261=FACE_BOUND('',#1171,.T.);
#1262=PLANE('',#1410);
#1263=PLANE('',#1412);
#1264=PLANE('',#1417);
#1265=PLANE('',#1428);
#1266=PLANE('',#1429);
#1267=PLANE('',#1430);
#1268=PLANE('',#1431);
#1269=PLANE('',#1432);
#1270=PLANE('',#1433);
#1271=PLANE('',#1434);
#1272=PLANE('',#1450);
#1273=PLANE('',#1452);
#1274=PLANE('',#1453);
#1275=PLANE('',#1454);
#1276=PLANE('',#1455);
#1277=PLANE('',#1456);
#1278=PLANE('',#1457);
#1279=PLANE('',#1459);
#1280=PLANE('',#1461);
#1281=PLANE('',#1463);
#1282=PLANE('',#1464);
#1283=PLANE('',#1465);
#1284=PLANE('',#1466);
#1285=PLANE('',#1467);
#1286=PLANE('',#1473);
#1287=PLANE('',#1474);
#1288=PLANE('',#1475);
#1289=PLANE('',#1476);
#1290=PLANE('',#1477);
#1291=PLANE('',#1478);
#1292=PLANE('',#1479);
#1293=PLANE('',#1480);
#1294=PLANE('',#1481);
#1295=PLANE('',#1482);
#1296=PLANE('',#1483);
#1297=PLANE('',#1484);
#1298=PLANE('',#1485);
#1299=PLANE('',#1486);
#1300=PLANE('',#1487);
#1301=PLANE('',#1488);
#1302=PLANE('',#1489);
#1303=PLANE('',#1490);
#1304=PLANE('',#1491);
#1305=PLANE('',#1492);
#1306=PLANE('',#1493);
#1307=PLANE('',#1494);
#1308=PLANE('',#1495);
#1309=PLANE('',#1496);
#1310=PLANE('',#1497);
#1311=PLANE('',#1498);
#1312=PLANE('',#1499);
#1313=PLANE('',#1500);
#1314=PLANE('',#1501);
#1315=PLANE('',#1502);
#1316=PLANE('',#1503);
#1317=PLANE('',#1504);
#1318=PLANE('',#1505);
#1319=PLANE('',#1506);
#1320=PLANE('',#1507);
#1321=PLANE('',#1508);
#1322=ADVANCED_FACE('',(#1172,#1173),#1262,.T.);
#1323=ADVANCED_FACE('',(#1174,#1175,#1176),#1263,.T.);
#1324=ADVANCED_FACE('',(#1177,#1178,#1179),#1264,.T.);
#1325=ADVANCED_FACE('',(#1180),#1265,.F.);
#1326=ADVANCED_FACE('',(#1181),#1266,.F.);
#1327=ADVANCED_FACE('',(#1182),#1267,.F.);
#1328=ADVANCED_FACE('',(#1183),#1268,.F.);
#1329=ADVANCED_FACE('',(#1184),#1269,.F.);
#1330=ADVANCED_FACE('',(#1185),#1270,.F.);
#1331=ADVANCED_FACE('',(#1186,#1187,#1188),#1271,.F.);
#1332=ADVANCED_FACE('',(#1189,#1190),#14,.F.);
#1333=ADVANCED_FACE('',(#1191,#1192),#12,.F.);
#1334=ADVANCED_FACE('',(#1193,#1194),#15,.F.);
#1335=ADVANCED_FACE('',(#1195,#1196),#13,.F.);
#1336=ADVANCED_FACE('',(#1197),#1272,.T.);
#1337=ADVANCED_FACE('',(#1198),#16,.F.);
#1338=ADVANCED_FACE('',(#1199),#1273,.F.);
#1339=ADVANCED_FACE('',(#1200),#1274,.T.);
#1340=ADVANCED_FACE('',(#1201),#1275,.T.);
#1341=ADVANCED_FACE('',(#1202),#1276,.T.);
#1342=ADVANCED_FACE('',(#1203),#1277,.T.);
#1343=ADVANCED_FACE('',(#1204),#1278,.T.);
#1344=ADVANCED_FACE('',(#1205),#17,.T.);
#1345=ADVANCED_FACE('',(#1206),#1279,.F.);
#1346=ADVANCED_FACE('',(#1207),#18,.F.);
#1347=ADVANCED_FACE('',(#1208),#1280,.T.);
#1348=ADVANCED_FACE('',(#1209),#19,.T.);
#1349=ADVANCED_FACE('',(#1210),#1281,.F.);
#1350=ADVANCED_FACE('',(#1211),#1282,.T.);
#1351=ADVANCED_FACE('',(#1212),#1283,.T.);
#1352=ADVANCED_FACE('',(#1213),#1284,.T.);
#1353=ADVANCED_FACE('',(#1214),#1285,.T.);
#1354=ADVANCED_FACE('',(#1215,#1216),#20,.F.);
#1355=ADVANCED_FACE('',(#1217,#1218),#21,.T.);
#1356=ADVANCED_FACE('',(#1219,#1220),#1286,.T.);
#1357=ADVANCED_FACE('',(#1221),#1287,.T.);
#1358=ADVANCED_FACE('',(#1222),#1288,.T.);
#1359=ADVANCED_FACE('',(#1223),#1289,.T.);
#1360=ADVANCED_FACE('',(#1224),#1290,.T.);
#1361=ADVANCED_FACE('',(#1225),#1291,.T.);
#1362=ADVANCED_FACE('',(#1226),#1292,.T.);
#1363=ADVANCED_FACE('',(#1227),#1293,.T.);
#1364=ADVANCED_FACE('',(#1228),#1294,.T.);
#1365=ADVANCED_FACE('',(#1229),#1295,.T.);
#1366=ADVANCED_FACE('',(#1230),#1296,.T.);
#1367=ADVANCED_FACE('',(#1231),#1297,.T.);
#1368=ADVANCED_FACE('',(#1232,#1233),#1298,.T.);
#1369=ADVANCED_FACE('',(#1234),#1299,.T.);
#1370=ADVANCED_FACE('',(#1235),#1300,.T.);
#1371=ADVANCED_FACE('',(#1236),#1301,.T.);
#1372=ADVANCED_FACE('',(#1237),#1302,.T.);
#1373=ADVANCED_FACE('',(#1238),#1303,.T.);
#1374=ADVANCED_FACE('',(#1239),#1304,.T.);
#1375=ADVANCED_FACE('',(#1240),#1305,.T.);
#1376=ADVANCED_FACE('',(#1241),#1306,.T.);
#1377=ADVANCED_FACE('',(#1242),#1307,.T.);
#1378=ADVANCED_FACE('',(#1243),#1308,.T.);
#1379=ADVANCED_FACE('',(#1244),#1309,.T.);
#1380=ADVANCED_FACE('',(#1245),#1310,.T.);
#1381=ADVANCED_FACE('',(#1246),#1311,.T.);
#1382=ADVANCED_FACE('',(#1247),#1312,.T.);
#1383=ADVANCED_FACE('',(#1248),#1313,.T.);
#1384=ADVANCED_FACE('',(#1249),#1314,.T.);
#1385=ADVANCED_FACE('',(#1250),#1315,.T.);
#1386=ADVANCED_FACE('',(#1251),#1316,.T.);
#1387=ADVANCED_FACE('',(#1252),#1317,.T.);
#1388=ADVANCED_FACE('',(#1253),#1318,.T.);
#1389=ADVANCED_FACE('',(#1254),#1319,.T.);
#1390=ADVANCED_FACE('',(#1255),#1320,.T.);
#1391=ADVANCED_FACE('',(#1256),#1321,.T.);
#1392=ADVANCED_FACE('',(#1257),#22,.T.);
#1393=ADVANCED_FACE('',(#1258),#23,.T.);
#1394=ADVANCED_FACE('',(#1259),#24,.T.);
#1395=ADVANCED_FACE('',(#1260),#25,.T.);
#1396=ADVANCED_FACE('',(#1261),#26,.T.);
#1397=CLOSED_SHELL('',(#1322,#1323,#1324,#1325,#1326,#1327,#1328,#1329,
#1330,#1331,#1332,#1333,#1334,#1335,#1336,#1337,#1338,#1339,#1340,#1341,
#1342,#1343,#1344,#1345,#1346,#1347,#1348,#1349,#1350,#1351,#1352,#1353,
#1354,#1355,#1356,#1357,#1358,#1359,#1360,#1361,#1362,#1363,#1364,#1365,
#1366,#1367,#1368,#1369,#1370,#1371,#1372,#1373,#1374,#1375,#1376,#1377,
#1378,#1379,#1380,#1381,#1382,#1383,#1384,#1385,#1386,#1387,#1388,#1389,
#1390,#1391,#1392,#1393,#1394,#1395,#1396));
#1398=STYLED_ITEM('',(#1399),#1406);
#1399=PRESENTATION_STYLE_ASSIGNMENT((#1400));
#1400=SURFACE_STYLE_USAGE(.BOTH.,#1401);
#1401=SURFACE_SIDE_STYLE('',(#1402));
#1402=SURFACE_STYLE_FILL_AREA(#1403);
#1403=FILL_AREA_STYLE('',(#1404));
#1404=FILL_AREA_STYLE_COLOUR('',#1405);
#1405=COLOUR_RGB('',0.501960784313726,0.501960784313726,0.501960784313726);
#1406=MANIFOLD_SOLID_BREP('Part 1',#1397);
#1407=SHAPE_DEFINITION_REPRESENTATION(#2288,#1408);
#1408=SHAPE_REPRESENTATION('Part 1',(#1409),#2283);
#1409=AXIS2_PLACEMENT_3D('',#1886,#1514,#1515);
#1410=AXIS2_PLACEMENT_3D('',#1887,#1516,#1517);
#1411=AXIS2_PLACEMENT_3D('',#1891,#1519,#1520);
#1412=AXIS2_PLACEMENT_3D('',#1926,#1538,#1539);
#1413=AXIS2_PLACEMENT_3D('',#1945,#1549,#1550);
#1414=AXIS2_PLACEMENT_3D('',#1950,#1552,#1553);
#1415=AXIS2_PLACEMENT_3D('',#1954,#1555,#1556);
#1416=AXIS2_PLACEMENT_3D('',#1958,#1558,#1559);
#1417=AXIS2_PLACEMENT_3D('',#1969,#1565,#1566);
#1418=AXIS2_PLACEMENT_3D('',#1970,#1567,#1568);
#1419=AXIS2_PLACEMENT_3D('',#1975,#1570,#1571);
#1420=AXIS2_PLACEMENT_3D('',#1979,#1573,#1574);
#1421=AXIS2_PLACEMENT_3D('',#1983,#1576,#1577);
#1422=AXIS2_PLACEMENT_3D('',#1987,#1579,#1580);
#1423=AXIS2_PLACEMENT_3D('',#1993,#1583,#1584);
#1424=AXIS2_PLACEMENT_3D('',#1994,#1585,#1586);
#1425=AXIS2_PLACEMENT_3D('',#1999,#1588,#1589);
#1426=AXIS2_PLACEMENT_3D('',#2013,#1596,#1597);
#1427=AXIS2_PLACEMENT_3D('',#2017,#1599,#1600);
#1428=AXIS2_PLACEMENT_3D('',#2030,#1607,#1608);
#1429=AXIS2_PLACEMENT_3D('',#2036,#1612,#1613);
#1430=AXIS2_PLACEMENT_3D('',#2042,#1617,#1618);
#1431=AXIS2_PLACEMENT_3D('',#2048,#1622,#1623);
#1432=AXIS2_PLACEMENT_3D('',#2054,#1627,#1628);
#1433=AXIS2_PLACEMENT_3D('',#2058,#1631,#1632);
#1434=AXIS2_PLACEMENT_3D('',#2064,#1636,#1637);
#1435=AXIS2_PLACEMENT_3D('',#2065,#1638,#1639);
#1436=AXIS2_PLACEMENT_3D('',#2067,#1640,#1641);
#1437=AXIS2_PLACEMENT_3D('',#2069,#1642,#1643);
#1438=AXIS2_PLACEMENT_3D('',#2070,#1644,#1645);
#1439=AXIS2_PLACEMENT_3D('',#2071,#1646,#1647);
#1440=AXIS2_PLACEMENT_3D('',#2072,#1648,#1649);
#1441=AXIS2_PLACEMENT_3D('',#2073,#1650,#1651);
#1442=AXIS2_PLACEMENT_3D('',#2074,#1652,#1653);
#1443=AXIS2_PLACEMENT_3D('',#2075,#1654,#1655);
#1444=AXIS2_PLACEMENT_3D('',#2077,#1656,#1657);
#1445=AXIS2_PLACEMENT_3D('',#2078,#1658,#1659);
#1446=AXIS2_PLACEMENT_3D('',#2079,#1660,#1661);
#1447=AXIS2_PLACEMENT_3D('',#2081,#1662,#1663);
#1448=AXIS2_PLACEMENT_3D('',#2082,#1664,#1665);
#1449=AXIS2_PLACEMENT_3D('',#2083,#1666,#1667);
#1450=AXIS2_PLACEMENT_3D('',#2084,#1668,#1669);
#1451=AXIS2_PLACEMENT_3D('',#2087,#1672,#1673);
#1452=AXIS2_PLACEMENT_3D('',#2089,#1675,#1676);
#1453=AXIS2_PLACEMENT_3D('',#2091,#1678,#1679);
#1454=AXIS2_PLACEMENT_3D('',#2093,#1681,#1682);
#1455=AXIS2_PLACEMENT_3D('',#2095,#1684,#1685);
#1456=AXIS2_PLACEMENT_3D('',#2097,#1687,#1688);
#1457=AXIS2_PLACEMENT_3D('',#2098,#1689,#1690);
#1458=AXIS2_PLACEMENT_3D('',#2101,#1693,#1694);
#1459=AXIS2_PLACEMENT_3D('',#2103,#1696,#1697);
#1460=AXIS2_PLACEMENT_3D('',#2105,#1699,#1700);
#1461=AXIS2_PLACEMENT_3D('',#2107,#1702,#1703);
#1462=AXIS2_PLACEMENT_3D('',#2109,#1705,#1706);
#1463=AXIS2_PLACEMENT_3D('',#2111,#1708,#1709);
#1464=AXIS2_PLACEMENT_3D('',#2113,#1711,#1712);
#1465=AXIS2_PLACEMENT_3D('',#2115,#1714,#1715);
#1466=AXIS2_PLACEMENT_3D('',#2117,#1717,#1718);
#1467=AXIS2_PLACEMENT_3D('',#2119,#1720,#1721);
#1468=AXIS2_PLACEMENT_3D('',#2120,#1722,#1723);
#1469=AXIS2_PLACEMENT_3D('',#2121,#1724,#1725);
#1470=AXIS2_PLACEMENT_3D('',#2123,#1726,#1727);
#1471=AXIS2_PLACEMENT_3D('',#2125,#1728,#1729);
#1472=AXIS2_PLACEMENT_3D('',#2126,#1730,#1731);
#1473=AXIS2_PLACEMENT_3D('',#2128,#1732,#1733);
#1474=AXIS2_PLACEMENT_3D('',#2129,#1734,#1735);
#1475=AXIS2_PLACEMENT_3D('',#2150,#1746,#1747);
#1476=AXIS2_PLACEMENT_3D('',#2156,#1751,#1752);
#1477=AXIS2_PLACEMENT_3D('',#2160,#1755,#1756);
#1478=AXIS2_PLACEMENT_3D('',#2164,#1759,#1760);
#1479=AXIS2_PLACEMENT_3D('',#2168,#1763,#1764);
#1480=AXIS2_PLACEMENT_3D('',#2172,#1767,#1768);
#1481=AXIS2_PLACEMENT_3D('',#2176,#1771,#1772);
#1482=AXIS2_PLACEMENT_3D('',#2180,#1775,#1776);
#1483=AXIS2_PLACEMENT_3D('',#2184,#1779,#1780);
#1484=AXIS2_PLACEMENT_3D('',#2188,#1783,#1784);
#1485=AXIS2_PLACEMENT_3D('',#2190,#1786,#1787);
#1486=AXIS2_PLACEMENT_3D('',#2191,#1788,#1789);
#1487=AXIS2_PLACEMENT_3D('',#2197,#1793,#1794);
#1488=AXIS2_PLACEMENT_3D('',#2201,#1797,#1798);
#1489=AXIS2_PLACEMENT_3D('',#2205,#1801,#1802);
#1490=AXIS2_PLACEMENT_3D('',#2209,#1805,#1806);
#1491=AXIS2_PLACEMENT_3D('',#2213,#1809,#1810);
#1492=AXIS2_PLACEMENT_3D('',#2217,#1813,#1814);
#1493=AXIS2_PLACEMENT_3D('',#2221,#1817,#1818);
#1494=AXIS2_PLACEMENT_3D('',#2225,#1821,#1822);
#1495=AXIS2_PLACEMENT_3D('',#2227,#1824,#1825);
#1496=AXIS2_PLACEMENT_3D('',#2228,#1826,#1827);
#1497=AXIS2_PLACEMENT_3D('',#2234,#1831,#1832);
#1498=AXIS2_PLACEMENT_3D('',#2238,#1835,#1836);
#1499=AXIS2_PLACEMENT_3D('',#2242,#1839,#1840);
#1500=AXIS2_PLACEMENT_3D('',#2246,#1843,#1844);
#1501=AXIS2_PLACEMENT_3D('',#2250,#1847,#1848);
#1502=AXIS2_PLACEMENT_3D('',#2254,#1851,#1852);
#1503=AXIS2_PLACEMENT_3D('',#2258,#1855,#1856);
#1504=AXIS2_PLACEMENT_3D('',#2262,#1859,#1860);
#1505=AXIS2_PLACEMENT_3D('',#2266,#1863,#1864);
#1506=AXIS2_PLACEMENT_3D('',#2270,#1867,#1868);
#1507=AXIS2_PLACEMENT_3D('',#2274,#1871,#1872);
#1508=AXIS2_PLACEMENT_3D('',#2276,#1874,#1875);
#1509=AXIS2_PLACEMENT_3D('',#2277,#1876,#1877);
#1510=AXIS2_PLACEMENT_3D('',#2278,#1878,#1879);
#1511=AXIS2_PLACEMENT_3D('',#2279,#1880,#1881);
#1512=AXIS2_PLACEMENT_3D('',#2280,#1882,#1883);
#1513=AXIS2_PLACEMENT_3D('',#2281,#1884,#1885);
#1514=DIRECTION('',(0.,0.,1.));
#1515=DIRECTION('',(1.,0.,0.));
#1516=DIRECTION('',(0.,0.,1.));
#1517=DIRECTION('',(1.,0.,0.));
#1518=DIRECTION('',(1.,-1.38777878078145E-16,0.));
#1519=DIRECTION('',(0.,0.,-1.));
#1520=DIRECTION('',(-1.,0.,0.));
#1521=DIRECTION('',(1.,-6.93889390390723E-17,0.));
#1522=DIRECTION('',(0.,1.,0.));
#1523=DIRECTION('',(-0.573576436351047,-0.819152044288992,0.));
#1524=DIRECTION('',(0.573576436351046,-0.819152044288992,0.));
#1525=DIRECTION('',(0.,1.,0.));
#1526=DIRECTION('',(0.556862292863306,-0.830604831906859,0.));
#1527=DIRECTION('',(-1.,0.,0.));
#1528=DIRECTION('',(-0.523959912648448,0.851742924794465,0.));
#1529=DIRECTION('',(-0.523602186986061,-0.851962880519694,0.));
#1530=DIRECTION('',(-1.,0.,0.));
#1531=DIRECTION('',(0.541118345549277,0.840946452581859,0.));
#1532=DIRECTION('',(-0.53977671808453,0.841808229119848,0.));
#1533=DIRECTION('',(1.,0.,0.));
#1534=DIRECTION('',(0.513574414133939,-0.858045057760361,0.));
#1535=DIRECTION('',(0.506607528229734,0.862176787173582,0.));
#1536=DIRECTION('',(1.,0.,0.));
#1537=DIRECTION('',(-0.534750408380897,-0.845010059547497,0.));
#1538=DIRECTION('',(0.,0.,1.));
#1539=DIRECTION('',(1.,0.,0.));
#1540=DIRECTION('',(0.451949698519516,0.892043423835476,0.));
#1541=DIRECTION('',(1.,0.,0.));
#1542=DIRECTION('',(-0.477307238495876,-0.878736479315296,0.));
#1543=DIRECTION('',(0.,-1.,0.));
#1544=DIRECTION('',(-1.,0.,0.));
#1545=DIRECTION('',(0.,1.,0.));
#1546=DIRECTION('',(-0.473243290909274,0.880931772391801,0.));
#1547=DIRECTION('',(1.,0.,0.));
#1548=DIRECTION('',(0.449681101182262,-0.893189177744283,0.));
#1549=DIRECTION('',(0.,0.,1.));
#1550=DIRECTION('',(1.,0.,0.));
#1551=DIRECTION('',(0.,1.,0.));
#1552=DIRECTION('',(0.,0.,1.));
#1553=DIRECTION('',(1.,0.,0.));
#1554=DIRECTION('',(1.,-6.93889390390723E-17,0.));
#1555=DIRECTION('',(0.,0.,-1.));
#1556=DIRECTION('',(-1.,0.,0.));
#1557=DIRECTION('',(1.,-1.38777878078145E-16,0.));
#1558=DIRECTION('',(0.,0.,1.));
#1559=DIRECTION('',(1.,0.,0.));
#1560=DIRECTION('',(-1.38777878078145E-16,1.,0.));
#1561=DIRECTION('',(-1.,0.,0.));
#1562=DIRECTION('',(0.819152044288992,-0.573576436351047,0.));
#1563=DIRECTION('',(0.819152044288992,0.573576436351047,0.));
#1564=DIRECTION('',(-1.,0.,0.));
#1565=DIRECTION('',(0.,0.,1.));
#1566=DIRECTION('',(1.,0.,0.));
#1567=DIRECTION('',(0.,0.,-1.));
#1568=DIRECTION('',(-1.,0.,0.));
#1569=DIRECTION('',(-1.,0.,0.));
#1570=DIRECTION('',(0.,0.,1.));
#1571=DIRECTION('',(1.,0.,0.));
#1572=DIRECTION('',(0.,-1.,0.));
#1573=DIRECTION('',(0.,0.,1.));
#1574=DIRECTION('',(1.,0.,0.));
#1575=DIRECTION('',(1.,0.,0.));
#1576=DIRECTION('',(0.,0.,1.));
#1577=DIRECTION('',(1.,0.,0.));
#1578=DIRECTION('',(0.,1.,0.));
#1579=DIRECTION('',(0.,0.,1.));
#1580=DIRECTION('',(1.,0.,0.));
#1581=DIRECTION('',(-1.,0.,0.));
#1582=DIRECTION('',(0.,1.,0.));
#1583=DIRECTION('',(0.,0.,1.));
#1584=DIRECTION('',(1.,0.,0.));
#1585=DIRECTION('',(0.,0.,1.));
#1586=DIRECTION('',(1.,0.,0.));
#1587=DIRECTION('',(1.,-1.38777878078145E-16,0.));
#1588=DIRECTION('',(0.,0.,-1.));
#1589=DIRECTION('',(-1.,0.,0.));
#1590=DIRECTION('',(1.,-1.38777878078145E-16,0.));
#1591=DIRECTION('',(0.,1.,0.));
#1592=DIRECTION('',(0.573576436351046,-0.819152044288992,0.));
#1593=DIRECTION('',(-0.573576436351047,-0.819152044288992,0.));
#1594=DIRECTION('',(0.,1.,0.));
#1595=DIRECTION('',(1.,-6.93889390390723E-17,0.));
#1596=DIRECTION('',(0.,0.,-1.));
#1597=DIRECTION('',(-1.,0.,0.));
#1598=DIRECTION('',(1.,-6.93889390390723E-17,0.));
#1599=DIRECTION('',(0.,0.,1.));
#1600=DIRECTION('',(1.,0.,0.));
#1601=DIRECTION('',(0.,1.,0.));
#1602=DIRECTION('',(-1.,0.,0.));
#1603=DIRECTION('',(0.819152044288992,0.573576436351047,0.));
#1604=DIRECTION('',(0.819152044288992,-0.573576436351047,0.));
#1605=DIRECTION('',(-1.,0.,0.));
#1606=DIRECTION('',(-1.38777878078145E-16,1.,0.));
#1607=DIRECTION('',(1.,0.,0.));
#1608=DIRECTION('',(0.,0.,-1.));
#1609=DIRECTION('',(0.,0.,-1.));
#1610=DIRECTION('',(0.,-1.,0.));
#1611=DIRECTION('',(0.,0.,-1.));
#1612=DIRECTION('',(0.,1.,0.));
#1613=DIRECTION('',(0.,0.,1.));
#1614=DIRECTION('',(1.,0.,0.));
#1615=DIRECTION('',(0.,0.,-1.));
#1616=DIRECTION('',(0.,0.,-1.));
#1617=DIRECTION('',(-1.,0.,0.));
#1618=DIRECTION('',(0.,0.,1.));
#1619=DIRECTION('',(0.,1.,0.));
#1620=DIRECTION('',(0.,0.,-1.));
#1621=DIRECTION('',(0.,0.,-1.));
#1622=DIRECTION('',(0.,-1.,0.));
#1623=DIRECTION('',(0.,0.,-1.));
#1624=DIRECTION('',(0.,0.,-1.));
#1625=DIRECTION('',(-1.,0.,0.));
#1626=DIRECTION('',(0.,0.,-1.));
#1627=DIRECTION('',(-1.,0.,0.));
#1628=DIRECTION('',(0.,0.,1.));
#1629=DIRECTION('',(0.,1.,0.));
#1630=DIRECTION('',(0.,0.,-1.));
#1631=DIRECTION('',(0.,-1.,0.));
#1632=DIRECTION('',(0.,0.,-1.));
#1633=DIRECTION('',(-1.,0.,0.));
#1634=DIRECTION('',(0.,0.,-1.));
#1635=DIRECTION('',(0.,0.,-1.));
#1636=DIRECTION('',(0.,0.,1.));
#1637=DIRECTION('',(1.,0.,0.));
#1638=DIRECTION('',(0.,0.,1.));
#1639=DIRECTION('',(1.,0.,0.));
#1640=DIRECTION('',(0.,0.,1.));
#1641=DIRECTION('',(1.,0.,0.));
#1642=DIRECTION('',(0.,0.,1.));
#1643=DIRECTION('',(1.,0.,0.));
#1644=DIRECTION('',(0.,0.,1.));
#1645=DIRECTION('',(1.,0.,0.));
#1646=DIRECTION('',(0.,0.,1.));
#1647=DIRECTION('',(1.,0.,0.));
#1648=DIRECTION('',(0.,0.,1.));
#1649=DIRECTION('',(1.,0.,0.));
#1650=DIRECTION('',(0.,0.,1.));
#1651=DIRECTION('',(1.,0.,0.));
#1652=DIRECTION('',(0.,0.,-1.));
#1653=DIRECTION('',(-1.,0.,0.));
#1654=DIRECTION('',(0.,0.,-1.));
#1655=DIRECTION('',(-1.,0.,0.));
#1656=DIRECTION('',(0.,0.,1.));
#1657=DIRECTION('',(1.,0.,0.));
#1658=DIRECTION('',(0.,0.,-1.));
#1659=DIRECTION('',(-1.,0.,0.));
#1660=DIRECTION('',(0.,0.,-1.));
#1661=DIRECTION('',(-1.,0.,0.));
#1662=DIRECTION('',(0.,0.,1.));
#1663=DIRECTION('',(1.,0.,0.));
#1664=DIRECTION('',(0.,0.,-1.));
#1665=DIRECTION('',(-1.,0.,0.));
#1666=DIRECTION('',(0.,0.,-1.));
#1667=DIRECTION('',(-1.,0.,0.));
#1668=DIRECTION('',(1.38777878078145E-16,1.,0.));
#1669=DIRECTION('',(-1.,1.38777878078145E-16,0.));
#1670=DIRECTION('',(0.,0.,-1.));
#1671=DIRECTION('',(0.,0.,-1.));
#1672=DIRECTION('',(0.,0.,-1.));
#1673=DIRECTION('',(-1.,0.,0.));
#1674=DIRECTION('',(0.,0.,-1.));
#1675=DIRECTION('',(6.93889390390723E-17,1.,0.));
#1676=DIRECTION('',(-1.,6.93889390390723E-17,0.));
#1677=DIRECTION('',(0.,0.,-1.));
#1678=DIRECTION('',(-1.,0.,0.));
#1679=DIRECTION('',(0.,0.,1.));
#1680=DIRECTION('',(0.,0.,-1.));
#1681=DIRECTION('',(0.819152044288992,-0.573576436351047,0.));
#1682=DIRECTION('',(0.573576436351047,0.819152044288992,0.));
#1683=DIRECTION('',(0.,0.,-1.));
#1684=DIRECTION('',(0.819152044288992,0.573576436351046,0.));
#1685=DIRECTION('',(-0.573576436351046,0.819152044288992,0.));
#1686=DIRECTION('',(0.,0.,-1.));
#1687=DIRECTION('',(-1.,0.,0.));
#1688=DIRECTION('',(0.,0.,1.));
#1689=DIRECTION('',(-1.,0.,0.));
#1690=DIRECTION('',(0.,0.,1.));
#1691=DIRECTION('',(0.,0.,-1.));
#1692=DIRECTION('',(0.,0.,-1.));
#1693=DIRECTION('',(0.,0.,-1.));
#1694=DIRECTION('',(-1.,0.,0.));
#1695=DIRECTION('',(0.,0.,-1.));
#1696=DIRECTION('',(6.93889390390723E-17,1.,0.));
#1697=DIRECTION('',(-1.,6.93889390390723E-17,0.));
#1698=DIRECTION('',(0.,0.,-1.));
#1699=DIRECTION('',(0.,0.,-1.));
#1700=DIRECTION('',(-1.,0.,0.));
#1701=DIRECTION('',(0.,0.,-1.));
#1702=DIRECTION('',(1.38777878078145E-16,1.,0.));
#1703=DIRECTION('',(-1.,1.38777878078145E-16,0.));
#1704=DIRECTION('',(0.,0.,-1.));
#1705=DIRECTION('',(0.,0.,-1.));
#1706=DIRECTION('',(-1.,0.,0.));
#1707=DIRECTION('',(0.,0.,-1.));
#1708=DIRECTION('',(-1.,-1.38777878078145E-16,0.));
#1709=DIRECTION('',(1.38777878078145E-16,-1.,0.));
#1710=DIRECTION('',(0.,0.,-1.));
#1711=DIRECTION('',(0.,-1.,0.));
#1712=DIRECTION('',(0.,0.,-1.));
#1713=DIRECTION('',(0.,0.,-1.));
#1714=DIRECTION('',(0.573576436351047,0.819152044288992,0.));
#1715=DIRECTION('',(-0.819152044288992,0.573576436351047,0.));
#1716=DIRECTION('',(0.,0.,-1.));
#1717=DIRECTION('',(-0.573576436351047,0.819152044288992,0.));
#1718=DIRECTION('',(-0.819152044288992,-0.573576436351047,0.));
#1719=DIRECTION('',(0.,0.,-1.));
#1720=DIRECTION('',(0.,-1.,0.));
#1721=DIRECTION('',(0.,0.,-1.));
#1722=DIRECTION('',(0.,0.,-1.));
#1723=DIRECTION('',(-1.,0.,0.));
#1724=DIRECTION('',(0.,0.,1.));
#1725=DIRECTION('',(1.,0.,0.));
#1726=DIRECTION('',(0.,0.,1.));
#1727=DIRECTION('',(1.,0.,0.));
#1728=DIRECTION('',(0.,0.,-1.));
#1729=DIRECTION('',(-1.,0.,0.));
#1730=DIRECTION('',(0.,0.,1.));
#1731=DIRECTION('',(1.,0.,0.));
#1732=DIRECTION('',(0.,0.,1.));
#1733=DIRECTION('',(1.,0.,0.));
#1734=DIRECTION('',(0.,0.,1.));
#1735=DIRECTION('',(1.,0.,0.));
#1736=DIRECTION('',(-1.,0.,0.));
#1737=DIRECTION('',(0.,-1.,0.));
#1738=DIRECTION('',(1.,0.,0.));
#1739=DIRECTION('',(-0.551076462944773,-0.834454751312663,0.));
#1740=DIRECTION('',(0.,-1.,0.));
#1741=DIRECTION('',(1.,0.,0.));
#1742=DIRECTION('',(0.,1.,0.));
#1743=DIRECTION('',(-1.,0.,0.));
#1744=DIRECTION('',(0.550763103458537,0.834661610395927,0.));
#1745=DIRECTION('',(0.,1.,0.));
#1746=DIRECTION('',(0.,1.,0.));
#1747=DIRECTION('',(0.,0.,1.));
#1748=DIRECTION('',(1.,0.,0.));
#1749=DIRECTION('',(0.,0.,-1.));
#1750=DIRECTION('',(0.,0.,-1.));
#1751=DIRECTION('',(0.834454751312663,-0.551076462944773,0.));
#1752=DIRECTION('',(0.551076462944773,0.834454751312663,0.));
#1753=DIRECTION('',(-0.551076462944773,-0.834454751312663,0.));
#1754=DIRECTION('',(0.,0.,-1.));
#1755=DIRECTION('',(1.,0.,0.));
#1756=DIRECTION('',(0.,0.,-1.));
#1757=DIRECTION('',(0.,-1.,0.));
#1758=DIRECTION('',(0.,0.,-1.));
#1759=DIRECTION('',(0.,1.,0.));
#1760=DIRECTION('',(0.,0.,1.));
#1761=DIRECTION('',(1.,0.,0.));
#1762=DIRECTION('',(0.,0.,-1.));
#1763=DIRECTION('',(-1.,0.,0.));
#1764=DIRECTION('',(0.,0.,1.));
#1765=DIRECTION('',(0.,1.,0.));
#1766=DIRECTION('',(0.,0.,-1.));
#1767=DIRECTION('',(0.,-1.,0.));
#1768=DIRECTION('',(0.,0.,-1.));
#1769=DIRECTION('',(-1.,0.,0.));
#1770=DIRECTION('',(0.,0.,-1.));
#1771=DIRECTION('',(-0.834661610395927,0.550763103458537,0.));
#1772=DIRECTION('',(-0.550763103458537,-0.834661610395927,0.));
#1773=DIRECTION('',(0.550763103458537,0.834661610395927,0.));
#1774=DIRECTION('',(0.,0.,-1.));
#1775=DIRECTION('',(-1.,0.,0.));
#1776=DIRECTION('',(0.,0.,1.));
#1777=DIRECTION('',(0.,1.,0.));
#1778=DIRECTION('',(0.,0.,-1.));
#1779=DIRECTION('',(0.,-1.,0.));
#1780=DIRECTION('',(0.,0.,-1.));
#1781=DIRECTION('',(-1.,0.,0.));
#1782=DIRECTION('',(0.,0.,-1.));
#1783=DIRECTION('',(1.,0.,0.));
#1784=DIRECTION('',(0.,0.,-1.));
#1785=DIRECTION('',(0.,-1.,0.));
#1786=DIRECTION('',(0.,0.,1.));
#1787=DIRECTION('',(1.,0.,0.));
#1788=DIRECTION('',(-0.892043423835476,0.451949698519516,0.));
#1789=DIRECTION('',(-0.451949698519516,-0.892043423835476,0.));
#1790=DIRECTION('',(0.,0.,-1.));
#1791=DIRECTION('',(0.451949698519516,0.892043423835476,0.));
#1792=DIRECTION('',(0.,0.,-1.));
#1793=DIRECTION('',(0.893189177744283,0.449681101182262,0.));
#1794=DIRECTION('',(-0.449681101182262,0.893189177744283,0.));
#1795=DIRECTION('',(0.,0.,-1.));
#1796=DIRECTION('',(0.449681101182262,-0.893189177744283,0.));
#1797=DIRECTION('',(0.,1.,0.));
#1798=DIRECTION('',(0.,0.,1.));
#1799=DIRECTION('',(0.,0.,-1.));
#1800=DIRECTION('',(1.,0.,0.));
#1801=DIRECTION('',(-0.880931772391801,-0.473243290909274,0.));
#1802=DIRECTION('',(0.473243290909274,-0.880931772391801,0.));
#1803=DIRECTION('',(0.,0.,-1.));
#1804=DIRECTION('',(-0.473243290909274,0.880931772391801,0.));
#1805=DIRECTION('',(-1.,0.,0.));
#1806=DIRECTION('',(0.,0.,1.));
#1807=DIRECTION('',(0.,0.,-1.));
#1808=DIRECTION('',(0.,1.,0.));
#1809=DIRECTION('',(0.,-1.,0.));
#1810=DIRECTION('',(0.,0.,-1.));
#1811=DIRECTION('',(0.,0.,-1.));
#1812=DIRECTION('',(-1.,0.,0.));
#1813=DIRECTION('',(1.,0.,0.));
#1814=DIRECTION('',(0.,0.,-1.));
#1815=DIRECTION('',(0.,0.,-1.));
#1816=DIRECTION('',(0.,-1.,0.));
#1817=DIRECTION('',(0.878736479315296,-0.477307238495876,0.));
#1818=DIRECTION('',(0.477307238495876,0.878736479315296,0.));
#1819=DIRECTION('',(0.,0.,-1.));
#1820=DIRECTION('',(-0.477307238495876,-0.878736479315296,0.));
#1821=DIRECTION('',(0.,1.,0.));
#1822=DIRECTION('',(0.,0.,1.));
#1823=DIRECTION('',(1.,0.,0.));
#1824=DIRECTION('',(0.,0.,1.));
#1825=DIRECTION('',(1.,0.,0.));
#1826=DIRECTION('',(0.,-1.,0.));
#1827=DIRECTION('',(0.,0.,-1.));
#1828=DIRECTION('',(0.,0.,-1.));
#1829=DIRECTION('',(-1.,0.,0.));
#1830=DIRECTION('',(0.,0.,-1.));
#1831=DIRECTION('',(0.830604831906859,0.556862292863306,0.));
#1832=DIRECTION('',(-0.556862292863306,0.830604831906859,0.));
#1833=DIRECTION('',(0.,0.,-1.));
#1834=DIRECTION('',(0.556862292863306,-0.830604831906859,0.));
#1835=DIRECTION('',(0.845010059547497,-0.534750408380897,0.));
#1836=DIRECTION('',(0.534750408380897,0.845010059547497,0.));
#1837=DIRECTION('',(0.,0.,-1.));
#1838=DIRECTION('',(-0.534750408380897,-0.845010059547497,0.));
#1839=DIRECTION('',(0.,1.,0.));
#1840=DIRECTION('',(0.,0.,1.));
#1841=DIRECTION('',(0.,0.,-1.));
#1842=DIRECTION('',(1.,0.,0.));
#1843=DIRECTION('',(-0.862176787173582,0.506607528229734,0.));
#1844=DIRECTION('',(-0.506607528229734,-0.862176787173582,0.));
#1845=DIRECTION('',(0.,0.,-1.));
#1846=DIRECTION('',(0.506607528229734,0.862176787173582,0.));
#1847=DIRECTION('',(0.858045057760361,0.513574414133939,0.));
#1848=DIRECTION('',(-0.513574414133939,0.858045057760361,0.));
#1849=DIRECTION('',(0.,0.,-1.));
#1850=DIRECTION('',(0.513574414133939,-0.858045057760361,0.));
#1851=DIRECTION('',(0.,1.,0.));
#1852=DIRECTION('',(0.,0.,1.));
#1853=DIRECTION('',(0.,0.,-1.));
#1854=DIRECTION('',(1.,0.,0.));
#1855=DIRECTION('',(-0.841808229119848,-0.53977671808453,0.));
#1856=DIRECTION('',(0.53977671808453,-0.841808229119848,0.));
#1857=DIRECTION('',(0.,0.,-1.));
#1858=DIRECTION('',(-0.53977671808453,0.841808229119848,0.));
#1859=DIRECTION('',(-0.840946452581859,0.541118345549277,0.));
#1860=DIRECTION('',(-0.541118345549277,-0.840946452581859,0.));
#1861=DIRECTION('',(0.,0.,-1.));
#1862=DIRECTION('',(0.541118345549277,0.840946452581859,0.));
#1863=DIRECTION('',(0.,-1.,0.));
#1864=DIRECTION('',(0.,0.,-1.));
#1865=DIRECTION('',(0.,0.,-1.));
#1866=DIRECTION('',(-1.,0.,0.));
#1867=DIRECTION('',(0.851962880519694,-0.523602186986061,0.));
#1868=DIRECTION('',(0.523602186986061,0.851962880519694,0.));
#1869=DIRECTION('',(0.,0.,-1.));
#1870=DIRECTION('',(-0.523602186986061,-0.851962880519694,0.));
#1871=DIRECTION('',(-0.851742924794465,-0.523959912648448,0.));
#1872=DIRECTION('',(0.523959912648448,-0.851742924794465,0.));
#1873=DIRECTION('',(-0.523959912648448,0.851742924794465,0.));
#1874=DIRECTION('',(0.,0.,1.));
#1875=DIRECTION('',(1.,0.,0.));
#1876=DIRECTION('',(0.,0.,-1.));
#1877=DIRECTION('',(-1.,0.,0.));
#1878=DIRECTION('',(0.,0.,-1.));
#1879=DIRECTION('',(-1.,0.,0.));
#1880=DIRECTION('',(0.,0.,-1.));
#1881=DIRECTION('',(-1.,0.,0.));
#1882=DIRECTION('',(0.,0.,-1.));
#1883=DIRECTION('',(-1.,0.,0.));
#1884=DIRECTION('',(0.,0.,-1.));
#1885=DIRECTION('',(-1.,0.,0.));
#1886=CARTESIAN_POINT('',(0.,0.,0.));
#1887=CARTESIAN_POINT('',(0.03,0.03,0.01));
#1888=CARTESIAN_POINT('',(0.0265,0.013,0.01));
#1889=CARTESIAN_POINT('',(0.0253272210626888,0.013,0.01));
#1890=CARTESIAN_POINT('',(0.039,0.013,0.01));
#1891=CARTESIAN_POINT('',(0.022,0.01,0.01));
#1892=CARTESIAN_POINT('',(0.0253272210626888,0.007,0.01));
#1893=CARTESIAN_POINT('',(0.0265,0.007,0.01));
#1894=CARTESIAN_POINT('',(0.039,0.007,0.01));
#1895=CARTESIAN_POINT('',(0.039,0.005,0.01));
#1896=CARTESIAN_POINT('',(0.039,0.003,0.01));
#1897=CARTESIAN_POINT('',(0.041450726383734,0.0065,0.01));
#1898=CARTESIAN_POINT('',(0.043901452767468,0.01,0.01));
#1899=CARTESIAN_POINT('',(0.041450726383734,0.0135,0.01));
#1900=CARTESIAN_POINT('',(0.039,0.017,0.01));
#1901=CARTESIAN_POINT('',(0.039,0.015,0.01));
#1902=CARTESIAN_POINT('',(0.0339863364645602,0.00901579846285226,0.01));
#1903=CARTESIAN_POINT('',(0.0333270708795901,0.00999914602903501,0.01));
#1904=CARTESIAN_POINT('',(0.0346456020495303,0.00803245089666951,0.01));
#1905=CARTESIAN_POINT('',(0.0341733561058924,0.00803245089666951,0.01));
#1906=CARTESIAN_POINT('',(0.0337011101622545,0.00803245089666951,0.01));
#1907=CARTESIAN_POINT('',(0.0332472245943638,0.00877028181041844,0.01));
#1908=CARTESIAN_POINT('',(0.0327933390264731,0.00950811272416737,0.01));
#1909=CARTESIAN_POINT('',(0.0323398804440649,0.00877028181041844,0.01));
#1910=CARTESIAN_POINT('',(0.0318864218616567,0.00803245089666951,0.01));
#1911=CARTESIAN_POINT('',(0.0314432109308283,0.00803245089666951,0.01));
#1912=CARTESIAN_POINT('',(0.031,0.00803245089666951,0.01));
#1913=CARTESIAN_POINT('',(0.0316473099914603,0.00903842869342442,0.01));
#1914=CARTESIAN_POINT('',(0.0322946199829206,0.0100444064901793,0.01));
#1915=CARTESIAN_POINT('',(0.0316887275832621,0.0109893253629376,0.01));
#1916=CARTESIAN_POINT('',(0.0310828351836037,0.011934244235696,0.01));
#1917=CARTESIAN_POINT('',(0.0315392826643894,0.011934244235696,0.01));
#1918=CARTESIAN_POINT('',(0.0319957301451751,0.011934244235696,0.01));
#1919=CARTESIAN_POINT('',(0.0324158838599488,0.0112322801024765,0.01));
#1920=CARTESIAN_POINT('',(0.0328360375747224,0.010530315969257,0.01));
#1921=CARTESIAN_POINT('',(0.0332485055508112,0.0112322801024765,0.01));
#1922=CARTESIAN_POINT('',(0.0336609735269001,0.011934244235696,0.01));
#1923=CARTESIAN_POINT('',(0.0341063193851409,0.011934244235696,0.01));
#1924=CARTESIAN_POINT('',(0.0345516652433817,0.011934244235696,0.01));
#1925=CARTESIAN_POINT('',(0.0339393680614859,0.0109666951323655,0.01));
#1926=CARTESIAN_POINT('',(0.03,0.03,0.01));
#1927=CARTESIAN_POINT('',(0.0102440462689952,0.0341113631208891,0.01));
#1928=CARTESIAN_POINT('',(0.0098117486958494,0.0332581084146065,0.01));
#1929=CARTESIAN_POINT('',(0.0106763438421411,0.0349646178271717,0.01));
#1930=CARTESIAN_POINT('',(0.0111499206169199,0.0349646178271717,0.01));
#1931=CARTESIAN_POINT('',(0.0116234973916988,0.0349646178271717,0.01));
#1932=CARTESIAN_POINT('',(0.0109358131095486,0.0336985711045589,0.01));
#1933=CARTESIAN_POINT('',(0.0102481288273985,0.032432524381946,0.01));
#1934=CARTESIAN_POINT('',(0.0102481288273985,0.0316259922885008,0.01));
#1935=CARTESIAN_POINT('',(0.0102481288273985,0.0308194601950556,0.01));
#1936=CARTESIAN_POINT('',(0.0098117486958494,0.0308194601950556,0.01));
#1937=CARTESIAN_POINT('',(0.0093753685643003,0.0308194601950556,0.01));
#1938=CARTESIAN_POINT('',(0.00937536856430029,0.0316119301428896,0.01));
#1939=CARTESIAN_POINT('',(0.00937536856430029,0.0324044000907235,0.01));
#1940=CARTESIAN_POINT('',(0.00868768428215015,0.0336845089589476,0.01));
#1941=CARTESIAN_POINT('',(0.008,0.0349646178271717,0.01));
#1942=CARTESIAN_POINT('',(0.00847629848038104,0.0349646178271717,0.01));
#1943=CARTESIAN_POINT('',(0.00895259696076207,0.0349646178271717,0.01));
#1944=CARTESIAN_POINT('',(0.00938217282830574,0.0341113631208891,0.01));
#1945=CARTESIAN_POINT('',(0.01,0.01,0.01));
#1946=CARTESIAN_POINT('',(0.014125,0.01,0.01));
#1947=CARTESIAN_POINT('',(0.007,0.0265,0.01));
#1948=CARTESIAN_POINT('',(0.007,0.014,0.01));
#1949=CARTESIAN_POINT('',(0.007,0.039,0.01));
#1950=CARTESIAN_POINT('',(0.01,0.01,0.01));
#1951=CARTESIAN_POINT('',(0.014,0.007,0.01));
#1952=CARTESIAN_POINT('',(0.0265,0.007,0.01));
#1953=CARTESIAN_POINT('',(0.0186727789373112,0.007,0.01));
#1954=CARTESIAN_POINT('',(0.022,0.01,0.01));
#1955=CARTESIAN_POINT('',(0.0186727789373112,0.013,0.01));
#1956=CARTESIAN_POINT('',(0.0265,0.013,0.01));
#1957=CARTESIAN_POINT('',(0.014,0.013,0.01));
#1958=CARTESIAN_POINT('',(0.01,0.01,0.01));
#1959=CARTESIAN_POINT('',(0.013,0.014,0.01));
#1960=CARTESIAN_POINT('',(0.013,0.0265,0.01));
#1961=CARTESIAN_POINT('',(0.013,0.039,0.01));
#1962=CARTESIAN_POINT('',(0.015,0.039,0.01));
#1963=CARTESIAN_POINT('',(0.017,0.039,0.01));
#1964=CARTESIAN_POINT('',(0.0135,0.041450726383734,0.01));
#1965=CARTESIAN_POINT('',(0.01,0.043901452767468,0.01));
#1966=CARTESIAN_POINT('',(0.0065,0.041450726383734,0.01));
#1967=CARTESIAN_POINT('',(0.003,0.039,0.01));
#1968=CARTESIAN_POINT('',(0.005,0.039,0.01));
#1969=CARTESIAN_POINT('',(0.03,0.03,0.008));
#1970=CARTESIAN_POINT('',(0.052,0.01,0.008));
#1971=CARTESIAN_POINT('',(0.04752,0.01,0.008));
#1972=CARTESIAN_POINT('',(0.01,0.06,0.008));
#1973=CARTESIAN_POINT('',(0.012,0.06,0.008));
#1974=CARTESIAN_POINT('',(0.008,0.06,0.008));
#1975=CARTESIAN_POINT('',(0.008,0.052,0.008));
#1976=CARTESIAN_POINT('',(0.,0.052,0.008));
#1977=CARTESIAN_POINT('',(0.,0.03,0.008));
#1978=CARTESIAN_POINT('',(0.,0.008,0.008));
#1979=CARTESIAN_POINT('',(0.008,0.008,0.008));
#1980=CARTESIAN_POINT('',(0.008,0.,0.008));
#1981=CARTESIAN_POINT('',(0.03,0.,0.008));
#1982=CARTESIAN_POINT('',(0.052,0.,0.008));
#1983=CARTESIAN_POINT('',(0.052,0.008,0.008));
#1984=CARTESIAN_POINT('',(0.06,0.008,0.008));
#1985=CARTESIAN_POINT('',(0.06,0.01,0.008));
#1986=CARTESIAN_POINT('',(0.06,0.012,0.008));
#1987=CARTESIAN_POINT('',(0.052,0.012,0.008));
#1988=CARTESIAN_POINT('',(0.052,0.02,0.008));
#1989=CARTESIAN_POINT('',(0.04,0.02,0.008));
#1990=CARTESIAN_POINT('',(0.02,0.02,0.008));
#1991=CARTESIAN_POINT('',(0.02,0.04,0.008));
#1992=CARTESIAN_POINT('',(0.02,0.052,0.008));
#1993=CARTESIAN_POINT('',(0.012,0.052,0.008));
#1994=CARTESIAN_POINT('',(0.01,0.01,0.008));
#1995=CARTESIAN_POINT('',(0.014,0.013,0.008));
#1996=CARTESIAN_POINT('',(0.013,0.014,0.008));
#1997=CARTESIAN_POINT('',(0.0265,0.013,0.008));
#1998=CARTESIAN_POINT('',(0.0186727789373112,0.013,0.008));
#1999=CARTESIAN_POINT('',(0.022,0.01,0.008));
#2000=CARTESIAN_POINT('',(0.0253272210626888,0.013,0.008));
#2001=CARTESIAN_POINT('',(0.0265,0.013,0.008));
#2002=CARTESIAN_POINT('',(0.039,0.013,0.008));
#2003=CARTESIAN_POINT('',(0.039,0.015,0.008));
#2004=CARTESIAN_POINT('',(0.039,0.017,0.008));
#2005=CARTESIAN_POINT('',(0.041450726383734,0.0135,0.008));
#2006=CARTESIAN_POINT('',(0.043901452767468,0.01,0.008));
#2007=CARTESIAN_POINT('',(0.041450726383734,0.0065,0.008));
#2008=CARTESIAN_POINT('',(0.039,0.003,0.008));
#2009=CARTESIAN_POINT('',(0.039,0.005,0.008));
#2010=CARTESIAN_POINT('',(0.039,0.007,0.008));
#2011=CARTESIAN_POINT('',(0.0265,0.007,0.008));
#2012=CARTESIAN_POINT('',(0.0253272210626888,0.007,0.008));
#2013=CARTESIAN_POINT('',(0.022,0.01,0.008));
#2014=CARTESIAN_POINT('',(0.0186727789373112,0.007,0.008));
#2015=CARTESIAN_POINT('',(0.0265,0.007,0.008));
#2016=CARTESIAN_POINT('',(0.014,0.007,0.008));
#2017=CARTESIAN_POINT('',(0.01,0.01,0.008));
#2018=CARTESIAN_POINT('',(0.007,0.014,0.008));
#2019=CARTESIAN_POINT('',(0.007,0.0265,0.008));
#2020=CARTESIAN_POINT('',(0.007,0.039,0.008));
#2021=CARTESIAN_POINT('',(0.005,0.039,0.008));
#2022=CARTESIAN_POINT('',(0.003,0.039,0.008));
#2023=CARTESIAN_POINT('',(0.0065,0.041450726383734,0.008));
#2024=CARTESIAN_POINT('',(0.01,0.043901452767468,0.008));
#2025=CARTESIAN_POINT('',(0.0135,0.041450726383734,0.008));
#2026=CARTESIAN_POINT('',(0.017,0.039,0.008));
#2027=CARTESIAN_POINT('',(0.015,0.039,0.008));
#2028=CARTESIAN_POINT('',(0.013,0.039,0.008));
#2029=CARTESIAN_POINT('',(0.013,0.0265,0.008));
#2030=CARTESIAN_POINT('',(0.,0.03,0.008));
#2031=CARTESIAN_POINT('',(0.,0.052,0.008));
#2032=CARTESIAN_POINT('',(0.,0.052,0.));
#2033=CARTESIAN_POINT('',(0.,0.03,0.));
#2034=CARTESIAN_POINT('',(0.,0.008,0.));
#2035=CARTESIAN_POINT('',(0.,0.008,0.008));
#2036=CARTESIAN_POINT('',(0.03,0.,0.008));
#2037=CARTESIAN_POINT('',(0.03,0.,0.));
#2038=CARTESIAN_POINT('',(0.008,0.,0.));
#2039=CARTESIAN_POINT('',(0.052,0.,0.));
#2040=CARTESIAN_POINT('',(0.052,0.,0.008));
#2041=CARTESIAN_POINT('',(0.008,0.,0.008));
#2042=CARTESIAN_POINT('',(0.06,0.01,0.008));
#2043=CARTESIAN_POINT('',(0.06,0.01,0.));
#2044=CARTESIAN_POINT('',(0.06,0.008,0.));
#2045=CARTESIAN_POINT('',(0.06,0.012,0.));
#2046=CARTESIAN_POINT('',(0.06,0.012,0.008));
#2047=CARTESIAN_POINT('',(0.06,0.008,0.008));
#2048=CARTESIAN_POINT('',(0.04,0.02,0.008));
#2049=CARTESIAN_POINT('',(0.052,0.02,0.008));
#2050=CARTESIAN_POINT('',(0.052,0.02,0.));
#2051=CARTESIAN_POINT('',(0.04,0.02,0.));
#2052=CARTESIAN_POINT('',(0.02,0.02,0.));
#2053=CARTESIAN_POINT('',(0.02,0.02,0.008));
#2054=CARTESIAN_POINT('',(0.02,0.04,0.008));
#2055=CARTESIAN_POINT('',(0.02,0.04,0.));
#2056=CARTESIAN_POINT('',(0.02,0.052,0.));
#2057=CARTESIAN_POINT('',(0.02,0.052,0.008));
#2058=CARTESIAN_POINT('',(0.01,0.06,0.008));
#2059=CARTESIAN_POINT('',(0.01,0.06,0.));
#2060=CARTESIAN_POINT('',(0.012,0.06,0.));
#2061=CARTESIAN_POINT('',(0.008,0.06,0.));
#2062=CARTESIAN_POINT('',(0.008,0.06,0.008));
#2063=CARTESIAN_POINT('',(0.012,0.06,0.008));
#2064=CARTESIAN_POINT('',(0.03,0.03,0.));
#2065=CARTESIAN_POINT('',(0.022,0.01,0.));
#2066=CARTESIAN_POINT('',(0.02425,0.01,0.));
#2067=CARTESIAN_POINT('',(0.052,0.01,0.));
#2068=CARTESIAN_POINT('',(0.05425,0.01,0.));
#2069=CARTESIAN_POINT('',(0.008,0.052,0.));
#2070=CARTESIAN_POINT('',(0.012,0.052,0.));
#2071=CARTESIAN_POINT('',(0.052,0.012,0.));
#2072=CARTESIAN_POINT('',(0.052,0.008,0.));
#2073=CARTESIAN_POINT('',(0.008,0.008,0.));
#2074=CARTESIAN_POINT('',(0.052,0.01,0.008));
#2075=CARTESIAN_POINT('',(0.052,0.01,0.00577));
#2076=CARTESIAN_POINT('',(0.04975,0.01,0.00577));
#2077=CARTESIAN_POINT('',(0.052,0.01,0.008));
#2078=CARTESIAN_POINT('',(0.022,0.01,0.008));
#2079=CARTESIAN_POINT('',(0.022,0.01,0.00577));
#2080=CARTESIAN_POINT('',(0.01975,0.01,0.00577));
#2081=CARTESIAN_POINT('',(0.022,0.01,0.008));
#2082=CARTESIAN_POINT('',(0.022,0.01,0.008));
#2083=CARTESIAN_POINT('',(0.022,0.01,0.008));
#2084=CARTESIAN_POINT('',(0.0265,0.013,0.01));
#2085=CARTESIAN_POINT('',(0.0253272210626888,0.013,0.01));
#2086=CARTESIAN_POINT('',(0.039,0.013,0.01));
#2087=CARTESIAN_POINT('',(0.022,0.01,0.01));
#2088=CARTESIAN_POINT('',(0.0253272210626888,0.007,0.01));
#2089=CARTESIAN_POINT('',(0.0265,0.007,0.01));
#2090=CARTESIAN_POINT('',(0.039,0.007,0.01));
#2091=CARTESIAN_POINT('',(0.039,0.005,0.01));
#2092=CARTESIAN_POINT('',(0.039,0.003,0.01));
#2093=CARTESIAN_POINT('',(0.041450726383734,0.0065,0.01));
#2094=CARTESIAN_POINT('',(0.043901452767468,0.01,0.01));
#2095=CARTESIAN_POINT('',(0.041450726383734,0.0135,0.01));
#2096=CARTESIAN_POINT('',(0.039,0.017,0.01));
#2097=CARTESIAN_POINT('',(0.039,0.015,0.01));
#2098=CARTESIAN_POINT('',(0.007,0.0265,0.01));
#2099=CARTESIAN_POINT('',(0.007,0.014,0.01));
#2100=CARTESIAN_POINT('',(0.007,0.039,0.01));
#2101=CARTESIAN_POINT('',(0.01,0.01,0.01));
#2102=CARTESIAN_POINT('',(0.014,0.007,0.01));
#2103=CARTESIAN_POINT('',(0.0265,0.007,0.01));
#2104=CARTESIAN_POINT('',(0.0186727789373112,0.007,0.01));
#2105=CARTESIAN_POINT('',(0.022,0.01,0.01));
#2106=CARTESIAN_POINT('',(0.0186727789373112,0.013,0.01));
#2107=CARTESIAN_POINT('',(0.0265,0.013,0.01));
#2108=CARTESIAN_POINT('',(0.014,0.013,0.01));
#2109=CARTESIAN_POINT('',(0.01,0.01,0.01));
#2110=CARTESIAN_POINT('',(0.013,0.014,0.01));
#2111=CARTESIAN_POINT('',(0.013,0.0265,0.01));
#2112=CARTESIAN_POINT('',(0.013,0.039,0.01));
#2113=CARTESIAN_POINT('',(0.015,0.039,0.01));
#2114=CARTESIAN_POINT('',(0.017,0.039,0.01));
#2115=CARTESIAN_POINT('',(0.0135,0.041450726383734,0.01));
#2116=CARTESIAN_POINT('',(0.01,0.043901452767468,0.01));
#2117=CARTESIAN_POINT('',(0.0065,0.041450726383734,0.01));
#2118=CARTESIAN_POINT('',(0.003,0.039,0.01));
#2119=CARTESIAN_POINT('',(0.005,0.039,0.01));
#2120=CARTESIAN_POINT('',(0.01,0.01,0.012));
#2121=CARTESIAN_POINT('',(0.01,0.01,0.012));
#2122=CARTESIAN_POINT('',(0.0133375,0.01,0.012));
#2123=CARTESIAN_POINT('',(0.01,0.01,0.01));
#2124=CARTESIAN_POINT('',(0.0133375,0.01,0.01));
#2125=CARTESIAN_POINT('',(0.01,0.01,0.012));
#2126=CARTESIAN_POINT('',(0.01,0.01,0.012));
#2127=CARTESIAN_POINT('',(0.014125,0.01,0.012));
#2128=CARTESIAN_POINT('',(0.019,0.024450726383734,0.012));
#2129=CARTESIAN_POINT('',(0.019,0.024450726383734,0.012));
#2130=CARTESIAN_POINT('',(0.00991657922350472,0.00758237145855195,0.012));
#2131=CARTESIAN_POINT('',(0.0115645330535152,0.00758237145855195,0.012));
#2132=CARTESIAN_POINT('',(0.00826862539349423,0.00758237145855195,0.012));
#2133=CARTESIAN_POINT('',(0.0115645330535152,0.00783473242392445,0.012));
#2134=CARTESIAN_POINT('',(0.0115645330535152,0.00808709338929696,0.012));
#2135=CARTESIAN_POINT('',(0.0102560335781742,0.00808709338929696,0.012));
#2136=CARTESIAN_POINT('',(0.00894753410283316,0.00808709338929696,0.012));
#2137=CARTESIAN_POINT('',(0.0102198321091291,0.0100136411332634,0.012));
#2138=CARTESIAN_POINT('',(0.011492130115425,0.0119401888772298,0.012));
#2139=CARTESIAN_POINT('',(0.011492130115425,0.0121584470094439,0.012));
#2140=CARTESIAN_POINT('',(0.011492130115425,0.0123767051416579,0.012));
#2141=CARTESIAN_POINT('',(0.00991972717733473,0.0123767051416579,0.012));
#2142=CARTESIAN_POINT('',(0.00834732423924449,0.0123767051416579,0.012));
#2143=CARTESIAN_POINT('',(0.00834732423924449,0.0121259181532004,0.012));
#2144=CARTESIAN_POINT('',(0.00834732423924449,0.0118751311647429,0.012));
#2145=CARTESIAN_POINT('',(0.00958027282266527,0.0118751311647429,0.012));
#2146=CARTESIAN_POINT('',(0.010813221406086,0.0118751311647429,0.012));
#2147=CARTESIAN_POINT('',(0.00954092339979013,0.0099470094438615,0.012));
#2148=CARTESIAN_POINT('',(0.00826862539349423,0.00801888772298007,0.012));
#2149=CARTESIAN_POINT('',(0.00826862539349423,0.00780062959076601,0.012));
#2150=CARTESIAN_POINT('',(0.0102560335781742,0.00808709338929696,0.012));
#2151=CARTESIAN_POINT('',(0.0102560335781742,0.00808709338929696,0.01));
#2152=CARTESIAN_POINT('',(0.00894753410283316,0.00808709338929696,0.01));
#2153=CARTESIAN_POINT('',(0.0115645330535152,0.00808709338929696,0.01));
#2154=CARTESIAN_POINT('',(0.00894753410283316,0.00808709338929696,0.012));
#2155=CARTESIAN_POINT('',(0.0115645330535152,0.00808709338929696,0.012));
#2156=CARTESIAN_POINT('',(0.0102198321091291,0.0100136411332634,0.012));
#2157=CARTESIAN_POINT('',(0.0102198321091291,0.0100136411332634,0.01));
#2158=CARTESIAN_POINT('',(0.011492130115425,0.0119401888772298,0.01));
#2159=CARTESIAN_POINT('',(0.011492130115425,0.0119401888772298,0.012));
#2160=CARTESIAN_POINT('',(0.011492130115425,0.0121584470094439,0.012));
#2161=CARTESIAN_POINT('',(0.011492130115425,0.0121584470094439,0.01));
#2162=CARTESIAN_POINT('',(0.011492130115425,0.0123767051416579,0.01));
#2163=CARTESIAN_POINT('',(0.011492130115425,0.0123767051416579,0.012));
#2164=CARTESIAN_POINT('',(0.00991972717733473,0.0123767051416579,0.012));
#2165=CARTESIAN_POINT('',(0.00991972717733473,0.0123767051416579,0.01));
#2166=CARTESIAN_POINT('',(0.00834732423924449,0.0123767051416579,0.01));
#2167=CARTESIAN_POINT('',(0.00834732423924449,0.0123767051416579,0.012));
#2168=CARTESIAN_POINT('',(0.00834732423924449,0.0121259181532004,0.012));
#2169=CARTESIAN_POINT('',(0.00834732423924449,0.0121259181532004,0.01));
#2170=CARTESIAN_POINT('',(0.00834732423924449,0.0118751311647429,0.01));
#2171=CARTESIAN_POINT('',(0.00834732423924449,0.0118751311647429,0.012));
#2172=CARTESIAN_POINT('',(0.00958027282266527,0.0118751311647429,0.012));
#2173=CARTESIAN_POINT('',(0.00958027282266527,0.0118751311647429,0.01));
#2174=CARTESIAN_POINT('',(0.010813221406086,0.0118751311647429,0.01));
#2175=CARTESIAN_POINT('',(0.010813221406086,0.0118751311647429,0.012));
#2176=CARTESIAN_POINT('',(0.00954092339979013,0.0099470094438615,0.012));
#2177=CARTESIAN_POINT('',(0.00954092339979013,0.0099470094438615,0.01));
#2178=CARTESIAN_POINT('',(0.00826862539349423,0.00801888772298007,0.01));
#2179=CARTESIAN_POINT('',(0.00826862539349423,0.00801888772298007,0.012));
#2180=CARTESIAN_POINT('',(0.00826862539349423,0.00780062959076601,0.012));
#2181=CARTESIAN_POINT('',(0.00826862539349423,0.00780062959076601,0.01));
#2182=CARTESIAN_POINT('',(0.00826862539349423,0.00758237145855195,0.01));
#2183=CARTESIAN_POINT('',(0.00826862539349423,0.00758237145855195,0.012));
#2184=CARTESIAN_POINT('',(0.00991657922350472,0.00758237145855195,0.012));
#2185=CARTESIAN_POINT('',(0.00991657922350472,0.00758237145855195,0.01));
#2186=CARTESIAN_POINT('',(0.0115645330535152,0.00758237145855195,0.01));
#2187=CARTESIAN_POINT('',(0.0115645330535152,0.00758237145855195,0.012));
#2188=CARTESIAN_POINT('',(0.0115645330535152,0.00783473242392445,0.012));
#2189=CARTESIAN_POINT('',(0.0115645330535152,0.00783473242392445,0.01));
#2190=CARTESIAN_POINT('',(0.03,0.03,0.01));
#2191=CARTESIAN_POINT('',(0.0102440462689952,0.0341113631208891,0.012));
#2192=CARTESIAN_POINT('',(0.0098117486958494,0.0332581084146065,0.012));
#2193=CARTESIAN_POINT('',(0.0098117486958494,0.0332581084146065,0.012));
#2194=CARTESIAN_POINT('',(0.0102440462689952,0.0341113631208891,0.012));
#2195=CARTESIAN_POINT('',(0.0106763438421411,0.0349646178271717,0.012));
#2196=CARTESIAN_POINT('',(0.0106763438421411,0.0349646178271717,0.012));
#2197=CARTESIAN_POINT('',(0.00938217282830574,0.0341113631208891,0.012));
#2198=CARTESIAN_POINT('',(0.00895259696076208,0.0349646178271717,0.012));
#2199=CARTESIAN_POINT('',(0.00895259696076208,0.0349646178271717,0.012));
#2200=CARTESIAN_POINT('',(0.00938217282830574,0.0341113631208891,0.012));
#2201=CARTESIAN_POINT('',(0.00847629848038104,0.0349646178271717,0.012));
#2202=CARTESIAN_POINT('',(0.008,0.0349646178271717,0.012));
#2203=CARTESIAN_POINT('',(0.008,0.0349646178271717,0.012));
#2204=CARTESIAN_POINT('',(0.00847629848038104,0.0349646178271717,0.012));
#2205=CARTESIAN_POINT('',(0.00868768428215015,0.0336845089589476,0.012));
#2206=CARTESIAN_POINT('',(0.00937536856430029,0.0324044000907235,0.012));
#2207=CARTESIAN_POINT('',(0.00937536856430029,0.0324044000907235,0.012));
#2208=CARTESIAN_POINT('',(0.00868768428215015,0.0336845089589476,0.012));
#2209=CARTESIAN_POINT('',(0.00937536856430029,0.0316119301428896,0.012));
#2210=CARTESIAN_POINT('',(0.00937536856430029,0.0308194601950556,0.012));
#2211=CARTESIAN_POINT('',(0.00937536856430029,0.0308194601950556,0.012));
#2212=CARTESIAN_POINT('',(0.00937536856430029,0.0316119301428896,0.012));
#2213=CARTESIAN_POINT('',(0.0098117486958494,0.0308194601950556,0.012));
#2214=CARTESIAN_POINT('',(0.0102481288273985,0.0308194601950556,0.012));
#2215=CARTESIAN_POINT('',(0.0102481288273985,0.0308194601950556,0.012));
#2216=CARTESIAN_POINT('',(0.0098117486958494,0.0308194601950556,0.012));
#2217=CARTESIAN_POINT('',(0.0102481288273985,0.0316259922885008,0.012));
#2218=CARTESIAN_POINT('',(0.0102481288273985,0.032432524381946,0.012));
#2219=CARTESIAN_POINT('',(0.0102481288273985,0.032432524381946,0.012));
#2220=CARTESIAN_POINT('',(0.0102481288273985,0.0316259922885008,0.012));
#2221=CARTESIAN_POINT('',(0.0109358131095486,0.0336985711045589,0.012));
#2222=CARTESIAN_POINT('',(0.0116234973916988,0.0349646178271717,0.012));
#2223=CARTESIAN_POINT('',(0.0116234973916988,0.0349646178271717,0.012));
#2224=CARTESIAN_POINT('',(0.0109358131095486,0.0336985711045589,0.012));
#2225=CARTESIAN_POINT('',(0.0111499206169199,0.0349646178271717,0.012));
#2226=CARTESIAN_POINT('',(0.0111499206169199,0.0349646178271717,0.012));
#2227=CARTESIAN_POINT('',(0.019,0.024450726383734,0.012));
#2228=CARTESIAN_POINT('',(0.0341733561058924,0.00803245089666951,0.012));
#2229=CARTESIAN_POINT('',(0.0346456020495303,0.00803245089666951,0.012));
#2230=CARTESIAN_POINT('',(0.0346456020495303,0.00803245089666951,0.012));
#2231=CARTESIAN_POINT('',(0.0341733561058924,0.00803245089666951,0.012));
#2232=CARTESIAN_POINT('',(0.0337011101622545,0.00803245089666951,0.012));
#2233=CARTESIAN_POINT('',(0.0337011101622545,0.00803245089666951,0.012));
#2234=CARTESIAN_POINT('',(0.0339863364645602,0.00901579846285226,0.012));
#2235=CARTESIAN_POINT('',(0.0333270708795901,0.00999914602903501,0.012));
#2236=CARTESIAN_POINT('',(0.0333270708795901,0.00999914602903501,0.012));
#2237=CARTESIAN_POINT('',(0.0339863364645602,0.00901579846285226,0.012));
#2238=CARTESIAN_POINT('',(0.0339393680614859,0.0109666951323655,0.012));
#2239=CARTESIAN_POINT('',(0.0345516652433817,0.011934244235696,0.012));
#2240=CARTESIAN_POINT('',(0.0345516652433817,0.011934244235696,0.012));
#2241=CARTESIAN_POINT('',(0.0339393680614859,0.0109666951323655,0.012));
#2242=CARTESIAN_POINT('',(0.0341063193851409,0.011934244235696,0.012));
#2243=CARTESIAN_POINT('',(0.0336609735269001,0.011934244235696,0.012));
#2244=CARTESIAN_POINT('',(0.0336609735269001,0.011934244235696,0.012));
#2245=CARTESIAN_POINT('',(0.0341063193851409,0.011934244235696,0.012));
#2246=CARTESIAN_POINT('',(0.0332485055508112,0.0112322801024765,0.012));
#2247=CARTESIAN_POINT('',(0.0328360375747224,0.010530315969257,0.012));
#2248=CARTESIAN_POINT('',(0.0328360375747224,0.010530315969257,0.012));
#2249=CARTESIAN_POINT('',(0.0332485055508112,0.0112322801024765,0.012));
#2250=CARTESIAN_POINT('',(0.0324158838599488,0.0112322801024765,0.012));
#2251=CARTESIAN_POINT('',(0.0319957301451751,0.011934244235696,0.012));
#2252=CARTESIAN_POINT('',(0.0319957301451751,0.011934244235696,0.012));
#2253=CARTESIAN_POINT('',(0.0324158838599488,0.0112322801024765,0.012));
#2254=CARTESIAN_POINT('',(0.0315392826643894,0.011934244235696,0.012));
#2255=CARTESIAN_POINT('',(0.0310828351836037,0.011934244235696,0.012));
#2256=CARTESIAN_POINT('',(0.0310828351836037,0.011934244235696,0.012));
#2257=CARTESIAN_POINT('',(0.0315392826643894,0.011934244235696,0.012));
#2258=CARTESIAN_POINT('',(0.0316887275832621,0.0109893253629376,0.012));
#2259=CARTESIAN_POINT('',(0.0322946199829206,0.0100444064901793,0.012));
#2260=CARTESIAN_POINT('',(0.0322946199829206,0.0100444064901793,0.012));
#2261=CARTESIAN_POINT('',(0.0316887275832621,0.0109893253629376,0.012));
#2262=CARTESIAN_POINT('',(0.0316473099914603,0.00903842869342442,0.012));
#2263=CARTESIAN_POINT('',(0.031,0.00803245089666951,0.012));
#2264=CARTESIAN_POINT('',(0.031,0.00803245089666951,0.012));
#2265=CARTESIAN_POINT('',(0.0316473099914603,0.00903842869342442,0.012));
#2266=CARTESIAN_POINT('',(0.0314432109308283,0.00803245089666951,0.012));
#2267=CARTESIAN_POINT('',(0.0318864218616567,0.00803245089666951,0.012));
#2268=CARTESIAN_POINT('',(0.0318864218616567,0.00803245089666951,0.012));
#2269=CARTESIAN_POINT('',(0.0314432109308283,0.00803245089666951,0.012));
#2270=CARTESIAN_POINT('',(0.0323398804440649,0.00877028181041844,0.012));
#2271=CARTESIAN_POINT('',(0.0327933390264731,0.00950811272416737,0.012));
#2272=CARTESIAN_POINT('',(0.0327933390264731,0.00950811272416737,0.012));
#2273=CARTESIAN_POINT('',(0.0323398804440649,0.00877028181041844,0.012));
#2274=CARTESIAN_POINT('',(0.0332472245943638,0.00877028181041844,0.012));
#2275=CARTESIAN_POINT('',(0.0332472245943638,0.00877028181041844,0.012));
#2276=CARTESIAN_POINT('',(0.019,0.024450726383734,0.012));
#2277=CARTESIAN_POINT('',(0.008,0.052,0.008));
#2278=CARTESIAN_POINT('',(0.012,0.052,0.008));
#2279=CARTESIAN_POINT('',(0.052,0.012,0.008));
#2280=CARTESIAN_POINT('',(0.052,0.008,0.008));
#2281=CARTESIAN_POINT('',(0.008,0.008,0.008));
#2282=MECHANICAL_DESIGN_GEOMETRIC_PRESENTATION_REPRESENTATION('',(#1398),
#2283);
#2283=(
GEOMETRIC_REPRESENTATION_CONTEXT(3)
GLOBAL_UNCERTAINTY_ASSIGNED_CONTEXT((#2284))
GLOBAL_UNIT_ASSIGNED_CONTEXT((#2287,#2286,#2285))
REPRESENTATION_CONTEXT('Part 1','TOP_LEVEL_ASSEMBLY_PART')
);
#2284=UNCERTAINTY_MEASURE_WITH_UNIT(LENGTH_MEASURE(1.E-8),#2287,
'DISTANCE_ACCURACY_VALUE','Maximum Tolerance applied to model');
#2285=(
NAMED_UNIT(*)
SI_UNIT($,.STERADIAN.)
SOLID_ANGLE_UNIT()
);
#2286=(
NAMED_UNIT(*)
PLANE_ANGLE_UNIT()
SI_UNIT($,.RADIAN.)
);
#2287=(
LENGTH_UNIT()
NAMED_UNIT(*)
SI_UNIT($,.METRE.)
);
#2288=PRODUCT_DEFINITION_SHAPE('','',#2289);
#2289=PRODUCT_DEFINITION('','',#2291,#2290);
#2290=PRODUCT_DEFINITION_CONTEXT('',#2297,'design');
#2291=PRODUCT_DEFINITION_FORMATION_WITH_SPECIFIED_SOURCE('','',#2293,
 .NOT_KNOWN.);
#2292=PRODUCT_RELATED_PRODUCT_CATEGORY('','',(#2293));
#2293=PRODUCT('Part 1','Part 1','Part 1',(#2295));
#2294=PRODUCT_CATEGORY('','');
#2295=PRODUCT_CONTEXT('',#2297,'mechanical');
#2296=APPLICATION_PROTOCOL_DEFINITION('international standard',
'ap242_managed_model_based_3d_engineering',2011,#2297);
#2297=APPLICATION_CONTEXT('managed model based 3d engineering');
ENDSEC;
END-ISO-10303-21;
