ISO-10303-21;
HEADER;
/* Generated by software containing ST-Developer
 * from STEP Tools, Inc. (www.steptools.com) 
 */
/* OPTION: using custom renumber hook */

FILE_DESCRIPTION(
/* description */ ('STEP AP242',
'CAx-IF Rec.Pracs.---Representation and Presentation of Product Manufa
cturing Information (PMI)---4.0---2014-10-13',
'CAx-IF Rec.Pracs.---3D Tessellated Geometry---0.4---2014-09-14','2;1'),

/* implementation_level */ '2;1');

FILE_NAME(
/* name */ '68740128d1955a75fb7b32a4',
/* time_stamp */ '2025-07-13T18:55:37Z',
/* author */ (''),
/* organization */ (''),
/* preprocessor_version */ 'ST-DEVELOPER v20',
/* originating_system */ 'ONSHAPE BY PTC INC, 1.200',
/* authorisation */ '  ');

FILE_SCHEMA (('AP242_MANAGED_MODEL_BASED_3D_ENGINEERING_MIM_LF { 1 0 10303 442 1 1 4 }'));
ENDSEC;

DATA;
#10=SHAPE_REPRESENTATION_RELATIONSHIP('','',#688,#11);
#11=ADVANCED_BREP_SHAPE_REPRESENTATION('',(#686),#1186);
#12=B_SPLINE_CURVE_WITH_KNOTS('',3,(#1123,#1124,#1125,#1126,#1127),
 .UNSPECIFIED.,.F.,.F.,(4,1,4),(8.48246650197911E-19,0.00134533773140247,
0.00269067546280495),.UNSPECIFIED.);
#13=B_SPLINE_CURVE_WITH_KNOTS('',3,(#1129,#1130,#1131,#1132,#1133,#1134,
#1135),.UNSPECIFIED.,.F.,.F.,(4,1,1,1,4),(0.,0.00134483605222411,0.00268967210444822,
0.00403450815667234,0.00537934420889645),.UNSPECIFIED.);
#14=B_SPLINE_CURVE_WITH_KNOTS('',3,(#1137,#1138,#1139,#1140,#1141),
 .UNSPECIFIED.,.F.,.F.,(4,1,4),(0.,0.0013455994765507,0.0026911989531014),
 .UNSPECIFIED.);
#15=ELLIPSE('',#747,0.00318198051533947,0.00225);
#16=ELLIPSE('',#750,0.00318198051533947,0.00225);
#17=CONICAL_SURFACE('',#732,0.00225,0.785398163397448);
#18=CONICAL_SURFACE('',#736,0.00225,0.785398163397448);
#19=CONICAL_SURFACE('',#740,0.00225,0.785398163397448);
#20=CONICAL_SURFACE('',#744,0.00225,0.785398163397448);
#21=CONICAL_SURFACE('',#752,0.00925,0.785398163397448);
#22=CONICAL_SURFACE('',#755,0.00925,0.785398163397448);
#23=CONICAL_SURFACE('',#758,0.00336,0.785398163397449);
#24=CONICAL_SURFACE('',#761,0.00336,0.785398163397449);
#25=CYLINDRICAL_SURFACE('',#724,0.01125);
#26=CYLINDRICAL_SURFACE('',#727,0.01125);
#27=CYLINDRICAL_SURFACE('',#729,0.00425);
#28=CYLINDRICAL_SURFACE('',#730,0.0012);
#29=CYLINDRICAL_SURFACE('',#734,0.0012);
#30=CYLINDRICAL_SURFACE('',#738,0.0012);
#31=CYLINDRICAL_SURFACE('',#742,0.0012);
#32=CYLINDRICAL_SURFACE('',#746,0.00225);
#33=CYLINDRICAL_SURFACE('',#748,0.00225);
#34=CYLINDRICAL_SURFACE('',#749,0.00225);
#35=CYLINDRICAL_SURFACE('',#751,0.00225);
#36=CYLINDRICAL_SURFACE('',#756,0.0017);
#37=CYLINDRICAL_SURFACE('',#759,0.0017);
#38=CYLINDRICAL_SURFACE('',#768,0.001);
#39=CYLINDRICAL_SURFACE('',#769,0.001);
#40=CYLINDRICAL_SURFACE('',#770,0.001);
#41=CYLINDRICAL_SURFACE('',#771,0.001);
#42=CYLINDRICAL_SURFACE('',#772,0.001);
#43=CYLINDRICAL_SURFACE('',#773,0.001);
#44=CIRCLE('',#691,0.001);
#45=CIRCLE('',#692,0.001);
#46=CIRCLE('',#693,0.001);
#47=CIRCLE('',#694,0.00336);
#48=CIRCLE('',#695,0.00336);
#49=CIRCLE('',#696,0.00225);
#50=CIRCLE('',#697,0.00925);
#51=CIRCLE('',#698,0.00225);
#52=CIRCLE('',#699,0.00925);
#53=CIRCLE('',#700,0.00225);
#54=CIRCLE('',#701,0.00925);
#55=CIRCLE('',#702,0.00225);
#56=CIRCLE('',#703,0.00425);
#57=CIRCLE('',#704,0.001);
#58=CIRCLE('',#705,0.001);
#59=CIRCLE('',#706,0.001);
#60=CIRCLE('',#708,0.001);
#61=CIRCLE('',#709,0.001);
#62=CIRCLE('',#710,0.001);
#63=CIRCLE('',#711,0.01125);
#64=CIRCLE('',#712,0.01125);
#65=CIRCLE('',#713,0.00425);
#66=CIRCLE('',#714,0.0012);
#67=CIRCLE('',#715,0.0012);
#68=CIRCLE('',#716,0.0012);
#69=CIRCLE('',#717,0.0012);
#70=CIRCLE('',#718,0.0017);
#71=CIRCLE('',#719,0.0017);
#72=CIRCLE('',#720,0.001);
#73=CIRCLE('',#721,0.001);
#74=CIRCLE('',#722,0.001);
#75=CIRCLE('',#725,0.01125);
#76=CIRCLE('',#728,0.01125);
#77=CIRCLE('',#731,0.0012);
#78=CIRCLE('',#733,0.00225);
#79=CIRCLE('',#735,0.0012);
#80=CIRCLE('',#737,0.00225);
#81=CIRCLE('',#739,0.0012);
#82=CIRCLE('',#741,0.00225);
#83=CIRCLE('',#743,0.0012);
#84=CIRCLE('',#745,0.00225);
#85=CIRCLE('',#757,0.0017);
#86=CIRCLE('',#760,0.0017);
#87=ORIENTED_EDGE('',*,*,#259,.F.);
#88=ORIENTED_EDGE('',*,*,#260,.T.);
#89=ORIENTED_EDGE('',*,*,#261,.F.);
#90=ORIENTED_EDGE('',*,*,#262,.T.);
#91=ORIENTED_EDGE('',*,*,#263,.F.);
#92=ORIENTED_EDGE('',*,*,#264,.T.);
#93=ORIENTED_EDGE('',*,*,#265,.T.);
#94=ORIENTED_EDGE('',*,*,#266,.T.);
#95=ORIENTED_EDGE('',*,*,#267,.F.);
#96=ORIENTED_EDGE('',*,*,#268,.T.);
#97=ORIENTED_EDGE('',*,*,#269,.F.);
#98=ORIENTED_EDGE('',*,*,#270,.T.);
#99=ORIENTED_EDGE('',*,*,#271,.F.);
#100=ORIENTED_EDGE('',*,*,#272,.T.);
#101=ORIENTED_EDGE('',*,*,#273,.T.);
#102=ORIENTED_EDGE('',*,*,#274,.T.);
#103=ORIENTED_EDGE('',*,*,#275,.F.);
#104=ORIENTED_EDGE('',*,*,#276,.T.);
#105=ORIENTED_EDGE('',*,*,#277,.T.);
#106=ORIENTED_EDGE('',*,*,#278,.T.);
#107=ORIENTED_EDGE('',*,*,#279,.T.);
#108=ORIENTED_EDGE('',*,*,#280,.T.);
#109=ORIENTED_EDGE('',*,*,#281,.T.);
#110=ORIENTED_EDGE('',*,*,#282,.T.);
#111=ORIENTED_EDGE('',*,*,#283,.T.);
#112=ORIENTED_EDGE('',*,*,#284,.T.);
#113=ORIENTED_EDGE('',*,*,#285,.T.);
#114=ORIENTED_EDGE('',*,*,#286,.T.);
#115=ORIENTED_EDGE('',*,*,#287,.T.);
#116=ORIENTED_EDGE('',*,*,#288,.T.);
#117=ORIENTED_EDGE('',*,*,#289,.T.);
#118=ORIENTED_EDGE('',*,*,#290,.F.);
#119=ORIENTED_EDGE('',*,*,#291,.F.);
#120=ORIENTED_EDGE('',*,*,#292,.F.);
#121=ORIENTED_EDGE('',*,*,#293,.F.);
#122=ORIENTED_EDGE('',*,*,#294,.F.);
#123=ORIENTED_EDGE('',*,*,#295,.F.);
#124=ORIENTED_EDGE('',*,*,#296,.F.);
#125=ORIENTED_EDGE('',*,*,#297,.F.);
#126=ORIENTED_EDGE('',*,*,#298,.F.);
#127=ORIENTED_EDGE('',*,*,#299,.F.);
#128=ORIENTED_EDGE('',*,*,#300,.F.);
#129=ORIENTED_EDGE('',*,*,#301,.T.);
#130=ORIENTED_EDGE('',*,*,#302,.F.);
#131=ORIENTED_EDGE('',*,*,#303,.T.);
#132=ORIENTED_EDGE('',*,*,#304,.F.);
#133=ORIENTED_EDGE('',*,*,#305,.T.);
#134=ORIENTED_EDGE('',*,*,#306,.F.);
#135=ORIENTED_EDGE('',*,*,#307,.T.);
#136=ORIENTED_EDGE('',*,*,#308,.T.);
#137=ORIENTED_EDGE('',*,*,#289,.F.);
#138=ORIENTED_EDGE('',*,*,#309,.F.);
#139=ORIENTED_EDGE('',*,*,#310,.T.);
#140=ORIENTED_EDGE('',*,*,#306,.T.);
#141=ORIENTED_EDGE('',*,*,#292,.T.);
#142=ORIENTED_EDGE('',*,*,#311,.F.);
#143=ORIENTED_EDGE('',*,*,#312,.T.);
#144=ORIENTED_EDGE('',*,*,#309,.T.);
#145=ORIENTED_EDGE('',*,*,#291,.T.);
#146=ORIENTED_EDGE('',*,*,#308,.F.);
#147=ORIENTED_EDGE('',*,*,#313,.T.);
#148=ORIENTED_EDGE('',*,*,#311,.T.);
#149=ORIENTED_EDGE('',*,*,#290,.T.);
#150=ORIENTED_EDGE('',*,*,#276,.F.);
#151=ORIENTED_EDGE('',*,*,#293,.T.);
#152=ORIENTED_EDGE('',*,*,#314,.F.);
#153=ORIENTED_EDGE('',*,*,#296,.T.);
#154=ORIENTED_EDGE('',*,*,#314,.T.);
#155=ORIENTED_EDGE('',*,*,#315,.T.);
#156=ORIENTED_EDGE('',*,*,#316,.F.);
#157=ORIENTED_EDGE('',*,*,#295,.T.);
#158=ORIENTED_EDGE('',*,*,#316,.T.);
#159=ORIENTED_EDGE('',*,*,#317,.T.);
#160=ORIENTED_EDGE('',*,*,#318,.F.);
#161=ORIENTED_EDGE('',*,*,#294,.T.);
#162=ORIENTED_EDGE('',*,*,#318,.T.);
#163=ORIENTED_EDGE('',*,*,#319,.T.);
#164=ORIENTED_EDGE('',*,*,#320,.F.);
#165=ORIENTED_EDGE('',*,*,#297,.T.);
#166=ORIENTED_EDGE('',*,*,#320,.T.);
#167=ORIENTED_EDGE('',*,*,#321,.T.);
#168=ORIENTED_EDGE('',*,*,#321,.F.);
#169=ORIENTED_EDGE('',*,*,#322,.T.);
#170=ORIENTED_EDGE('',*,*,#323,.T.);
#171=ORIENTED_EDGE('',*,*,#267,.T.);
#172=ORIENTED_EDGE('',*,*,#319,.F.);
#173=ORIENTED_EDGE('',*,*,#269,.T.);
#174=ORIENTED_EDGE('',*,*,#324,.T.);
#175=ORIENTED_EDGE('',*,*,#317,.F.);
#176=ORIENTED_EDGE('',*,*,#325,.T.);
#177=ORIENTED_EDGE('',*,*,#326,.T.);
#178=ORIENTED_EDGE('',*,*,#271,.T.);
#179=ORIENTED_EDGE('',*,*,#315,.F.);
#180=ORIENTED_EDGE('',*,*,#275,.T.);
#181=ORIENTED_EDGE('',*,*,#327,.F.);
#182=ORIENTED_EDGE('',*,*,#310,.F.);
#183=ORIENTED_EDGE('',*,*,#328,.F.);
#184=ORIENTED_EDGE('',*,*,#325,.F.);
#185=ORIENTED_EDGE('',*,*,#270,.F.);
#186=ORIENTED_EDGE('',*,*,#324,.F.);
#187=ORIENTED_EDGE('',*,*,#268,.F.);
#188=ORIENTED_EDGE('',*,*,#323,.F.);
#189=ORIENTED_EDGE('',*,*,#328,.T.);
#190=ORIENTED_EDGE('',*,*,#312,.F.);
#191=ORIENTED_EDGE('',*,*,#329,.F.);
#192=ORIENTED_EDGE('',*,*,#272,.F.);
#193=ORIENTED_EDGE('',*,*,#326,.F.);
#194=ORIENTED_EDGE('',*,*,#322,.F.);
#195=ORIENTED_EDGE('',*,*,#274,.F.);
#196=ORIENTED_EDGE('',*,*,#330,.F.);
#197=ORIENTED_EDGE('',*,*,#307,.F.);
#198=ORIENTED_EDGE('',*,*,#327,.T.);
#199=ORIENTED_EDGE('',*,*,#329,.T.);
#200=ORIENTED_EDGE('',*,*,#313,.F.);
#201=ORIENTED_EDGE('',*,*,#330,.T.);
#202=ORIENTED_EDGE('',*,*,#273,.F.);
#203=ORIENTED_EDGE('',*,*,#331,.F.);
#204=ORIENTED_EDGE('',*,*,#298,.T.);
#205=ORIENTED_EDGE('',*,*,#331,.T.);
#206=ORIENTED_EDGE('',*,*,#266,.F.);
#207=ORIENTED_EDGE('',*,*,#332,.F.);
#208=ORIENTED_EDGE('',*,*,#299,.T.);
#209=ORIENTED_EDGE('',*,*,#332,.T.);
#210=ORIENTED_EDGE('',*,*,#265,.F.);
#211=ORIENTED_EDGE('',*,*,#281,.F.);
#212=ORIENTED_EDGE('',*,*,#333,.T.);
#213=ORIENTED_EDGE('',*,*,#300,.T.);
#214=ORIENTED_EDGE('',*,*,#334,.T.);
#215=ORIENTED_EDGE('',*,*,#302,.T.);
#216=ORIENTED_EDGE('',*,*,#335,.T.);
#217=ORIENTED_EDGE('',*,*,#279,.F.);
#218=ORIENTED_EDGE('',*,*,#336,.T.);
#219=ORIENTED_EDGE('',*,*,#277,.F.);
#220=ORIENTED_EDGE('',*,*,#337,.T.);
#221=ORIENTED_EDGE('',*,*,#304,.T.);
#222=ORIENTED_EDGE('',*,*,#338,.T.);
#223=ORIENTED_EDGE('',*,*,#287,.F.);
#224=ORIENTED_EDGE('',*,*,#339,.T.);
#225=ORIENTED_EDGE('',*,*,#259,.T.);
#226=ORIENTED_EDGE('',*,*,#340,.T.);
#227=ORIENTED_EDGE('',*,*,#283,.F.);
#228=ORIENTED_EDGE('',*,*,#341,.T.);
#229=ORIENTED_EDGE('',*,*,#263,.T.);
#230=ORIENTED_EDGE('',*,*,#342,.T.);
#231=ORIENTED_EDGE('',*,*,#261,.T.);
#232=ORIENTED_EDGE('',*,*,#343,.T.);
#233=ORIENTED_EDGE('',*,*,#285,.F.);
#234=ORIENTED_EDGE('',*,*,#344,.T.);
#235=ORIENTED_EDGE('',*,*,#301,.F.);
#236=ORIENTED_EDGE('',*,*,#333,.F.);
#237=ORIENTED_EDGE('',*,*,#280,.F.);
#238=ORIENTED_EDGE('',*,*,#335,.F.);
#239=ORIENTED_EDGE('',*,*,#305,.F.);
#240=ORIENTED_EDGE('',*,*,#337,.F.);
#241=ORIENTED_EDGE('',*,*,#282,.F.);
#242=ORIENTED_EDGE('',*,*,#334,.F.);
#243=ORIENTED_EDGE('',*,*,#303,.F.);
#244=ORIENTED_EDGE('',*,*,#336,.F.);
#245=ORIENTED_EDGE('',*,*,#278,.F.);
#246=ORIENTED_EDGE('',*,*,#338,.F.);
#247=ORIENTED_EDGE('',*,*,#286,.F.);
#248=ORIENTED_EDGE('',*,*,#343,.F.);
#249=ORIENTED_EDGE('',*,*,#260,.F.);
#250=ORIENTED_EDGE('',*,*,#339,.F.);
#251=ORIENTED_EDGE('',*,*,#288,.F.);
#252=ORIENTED_EDGE('',*,*,#340,.F.);
#253=ORIENTED_EDGE('',*,*,#264,.F.);
#254=ORIENTED_EDGE('',*,*,#341,.F.);
#255=ORIENTED_EDGE('',*,*,#284,.F.);
#256=ORIENTED_EDGE('',*,*,#342,.F.);
#257=ORIENTED_EDGE('',*,*,#262,.F.);
#258=ORIENTED_EDGE('',*,*,#344,.F.);
#259=EDGE_CURVE('',#345,#346,#408,.T.);
#260=EDGE_CURVE('',#345,#347,#44,.F.);
#261=EDGE_CURVE('',#348,#347,#409,.T.);
#262=EDGE_CURVE('',#348,#349,#45,.F.);
#263=EDGE_CURVE('',#350,#349,#410,.T.);
#264=EDGE_CURVE('',#350,#346,#46,.F.);
#265=EDGE_CURVE('',#351,#351,#47,.T.);
#266=EDGE_CURVE('',#352,#352,#48,.T.);
#267=EDGE_CURVE('',#353,#354,#49,.T.);
#268=EDGE_CURVE('',#353,#355,#50,.T.);
#269=EDGE_CURVE('',#356,#355,#51,.T.);
#270=EDGE_CURVE('',#356,#357,#52,.T.);
#271=EDGE_CURVE('',#358,#357,#53,.T.);
#272=EDGE_CURVE('',#358,#359,#411,.T.);
#273=EDGE_CURVE('',#359,#360,#54,.T.);
#274=EDGE_CURVE('',#360,#354,#412,.T.);
#275=EDGE_CURVE('',#361,#361,#55,.T.);
#276=EDGE_CURVE('',#362,#362,#56,.F.);
#277=EDGE_CURVE('',#363,#364,#413,.T.);
#278=EDGE_CURVE('',#364,#365,#57,.F.);
#279=EDGE_CURVE('',#365,#366,#414,.T.);
#280=EDGE_CURVE('',#366,#367,#58,.F.);
#281=EDGE_CURVE('',#367,#368,#415,.T.);
#282=EDGE_CURVE('',#368,#363,#59,.F.);
#283=EDGE_CURVE('',#369,#370,#416,.T.);
#284=EDGE_CURVE('',#370,#371,#60,.T.);
#285=EDGE_CURVE('',#371,#372,#417,.T.);
#286=EDGE_CURVE('',#372,#373,#61,.T.);
#287=EDGE_CURVE('',#373,#374,#418,.T.);
#288=EDGE_CURVE('',#374,#369,#62,.T.);
#289=EDGE_CURVE('',#375,#376,#419,.T.);
#290=EDGE_CURVE('',#377,#376,#63,.T.);
#291=EDGE_CURVE('',#378,#377,#420,.T.);
#292=EDGE_CURVE('',#375,#378,#64,.T.);
#293=EDGE_CURVE('',#379,#379,#65,.F.);
#294=EDGE_CURVE('',#380,#380,#66,.F.);
#295=EDGE_CURVE('',#381,#381,#67,.F.);
#296=EDGE_CURVE('',#382,#382,#68,.F.);
#297=EDGE_CURVE('',#383,#383,#69,.F.);
#298=EDGE_CURVE('',#384,#384,#70,.F.);
#299=EDGE_CURVE('',#385,#385,#71,.F.);
#300=EDGE_CURVE('',#386,#387,#421,.T.);
#301=EDGE_CURVE('',#386,#388,#72,.T.);
#302=EDGE_CURVE('',#389,#388,#422,.T.);
#303=EDGE_CURVE('',#389,#390,#73,.T.);
#304=EDGE_CURVE('',#391,#390,#423,.T.);
#305=EDGE_CURVE('',#391,#387,#74,.T.);
#306=EDGE_CURVE('',#392,#375,#424,.T.);
#307=EDGE_CURVE('',#392,#393,#425,.T.);
#308=EDGE_CURVE('',#393,#376,#426,.T.);
#309=EDGE_CURVE('',#394,#378,#427,.T.);
#310=EDGE_CURVE('',#394,#392,#75,.F.);
#311=EDGE_CURVE('',#395,#377,#428,.T.);
#312=EDGE_CURVE('',#395,#394,#429,.T.);
#313=EDGE_CURVE('',#393,#395,#76,.F.);
#314=EDGE_CURVE('',#396,#396,#77,.T.);
#315=EDGE_CURVE('',#397,#397,#78,.T.);
#316=EDGE_CURVE('',#398,#398,#79,.T.);
#317=EDGE_CURVE('',#399,#399,#80,.T.);
#318=EDGE_CURVE('',#400,#400,#81,.T.);
#319=EDGE_CURVE('',#401,#401,#82,.T.);
#320=EDGE_CURVE('',#402,#402,#83,.T.);
#321=EDGE_CURVE('',#403,#403,#84,.T.);
#322=EDGE_CURVE('',#354,#404,#15,.F.);
#323=EDGE_CURVE('',#404,#353,#12,.T.);
#324=EDGE_CURVE('',#355,#356,#13,.T.);
#325=EDGE_CURVE('',#357,#405,#14,.T.);
#326=EDGE_CURVE('',#405,#358,#16,.T.);
#327=EDGE_CURVE('',#392,#404,#430,.F.);
#328=EDGE_CURVE('',#405,#394,#431,.T.);
#329=EDGE_CURVE('',#359,#395,#432,.T.);
#330=EDGE_CURVE('',#393,#360,#433,.T.);
#331=EDGE_CURVE('',#406,#406,#85,.T.);
#332=EDGE_CURVE('',#407,#407,#86,.T.);
#333=EDGE_CURVE('',#367,#386,#434,.F.);
#334=EDGE_CURVE('',#387,#368,#435,.T.);
#335=EDGE_CURVE('',#388,#366,#436,.T.);
#336=EDGE_CURVE('',#365,#389,#437,.F.);
#337=EDGE_CURVE('',#363,#391,#438,.F.);
#338=EDGE_CURVE('',#390,#364,#439,.T.);
#339=EDGE_CURVE('',#373,#345,#440,.T.);
#340=EDGE_CURVE('',#346,#374,#441,.F.);
#341=EDGE_CURVE('',#369,#350,#442,.T.);
#342=EDGE_CURVE('',#349,#370,#443,.F.);
#343=EDGE_CURVE('',#347,#372,#444,.F.);
#344=EDGE_CURVE('',#371,#348,#445,.T.);
#345=VERTEX_POINT('',#985);
#346=VERTEX_POINT('',#986);
#347=VERTEX_POINT('',#988);
#348=VERTEX_POINT('',#990);
#349=VERTEX_POINT('',#992);
#350=VERTEX_POINT('',#994);
#351=VERTEX_POINT('',#997);
#352=VERTEX_POINT('',#999);
#353=VERTEX_POINT('',#1001);
#354=VERTEX_POINT('',#1002);
#355=VERTEX_POINT('',#1004);
#356=VERTEX_POINT('',#1006);
#357=VERTEX_POINT('',#1008);
#358=VERTEX_POINT('',#1010);
#359=VERTEX_POINT('',#1012);
#360=VERTEX_POINT('',#1014);
#361=VERTEX_POINT('',#1017);
#362=VERTEX_POINT('',#1019);
#363=VERTEX_POINT('',#1021);
#364=VERTEX_POINT('',#1022);
#365=VERTEX_POINT('',#1024);
#366=VERTEX_POINT('',#1026);
#367=VERTEX_POINT('',#1028);
#368=VERTEX_POINT('',#1030);
#369=VERTEX_POINT('',#1034);
#370=VERTEX_POINT('',#1035);
#371=VERTEX_POINT('',#1037);
#372=VERTEX_POINT('',#1039);
#373=VERTEX_POINT('',#1041);
#374=VERTEX_POINT('',#1043);
#375=VERTEX_POINT('',#1046);
#376=VERTEX_POINT('',#1047);
#377=VERTEX_POINT('',#1049);
#378=VERTEX_POINT('',#1051);
#379=VERTEX_POINT('',#1054);
#380=VERTEX_POINT('',#1056);
#381=VERTEX_POINT('',#1058);
#382=VERTEX_POINT('',#1060);
#383=VERTEX_POINT('',#1062);
#384=VERTEX_POINT('',#1064);
#385=VERTEX_POINT('',#1066);
#386=VERTEX_POINT('',#1068);
#387=VERTEX_POINT('',#1069);
#388=VERTEX_POINT('',#1071);
#389=VERTEX_POINT('',#1073);
#390=VERTEX_POINT('',#1075);
#391=VERTEX_POINT('',#1077);
#392=VERTEX_POINT('',#1081);
#393=VERTEX_POINT('',#1083);
#394=VERTEX_POINT('',#1087);
#395=VERTEX_POINT('',#1091);
#396=VERTEX_POINT('',#1098);
#397=VERTEX_POINT('',#1101);
#398=VERTEX_POINT('',#1104);
#399=VERTEX_POINT('',#1107);
#400=VERTEX_POINT('',#1110);
#401=VERTEX_POINT('',#1113);
#402=VERTEX_POINT('',#1116);
#403=VERTEX_POINT('',#1119);
#404=VERTEX_POINT('',#1122);
#405=VERTEX_POINT('',#1142);
#406=VERTEX_POINT('',#1155);
#407=VERTEX_POINT('',#1159);
#408=LINE('',#984,#446);
#409=LINE('',#989,#447);
#410=LINE('',#993,#448);
#411=LINE('',#1011,#449);
#412=LINE('',#1015,#450);
#413=LINE('',#1020,#451);
#414=LINE('',#1025,#452);
#415=LINE('',#1029,#453);
#416=LINE('',#1033,#454);
#417=LINE('',#1038,#455);
#418=LINE('',#1042,#456);
#419=LINE('',#1045,#457);
#420=LINE('',#1050,#458);
#421=LINE('',#1067,#459);
#422=LINE('',#1072,#460);
#423=LINE('',#1076,#461);
#424=LINE('',#1080,#462);
#425=LINE('',#1082,#463);
#426=LINE('',#1084,#464);
#427=LINE('',#1086,#465);
#428=LINE('',#1090,#466);
#429=LINE('',#1092,#467);
#430=LINE('',#1146,#468);
#431=LINE('',#1147,#469);
#432=LINE('',#1149,#470);
#433=LINE('',#1151,#471);
#434=LINE('',#1162,#472);
#435=LINE('',#1163,#473);
#436=LINE('',#1165,#474);
#437=LINE('',#1166,#475);
#438=LINE('',#1168,#476);
#439=LINE('',#1169,#477);
#440=LINE('',#1171,#478);
#441=LINE('',#1172,#479);
#442=LINE('',#1174,#480);
#443=LINE('',#1175,#481);
#444=LINE('',#1177,#482);
#445=LINE('',#1178,#483);
#446=VECTOR('',#778,1.);
#447=VECTOR('',#781,1.);
#448=VECTOR('',#784,1.);
#449=VECTOR('',#801,1.);
#450=VECTOR('',#804,1.);
#451=VECTOR('',#809,1.);
#452=VECTOR('',#812,1.);
#453=VECTOR('',#815,1.);
#454=VECTOR('',#820,1.);
#455=VECTOR('',#823,1.);
#456=VECTOR('',#826,1.);
#457=VECTOR('',#829,1.);
#458=VECTOR('',#832,1.);
#459=VECTOR('',#849,1.);
#460=VECTOR('',#852,1.);
#461=VECTOR('',#855,1.);
#462=VECTOR('',#860,1.);
#463=VECTOR('',#861,1.);
#464=VECTOR('',#862,1.);
#465=VECTOR('',#865,1.);
#466=VECTOR('',#870,1.);
#467=VECTOR('',#871,1.);
#468=VECTOR('',#924,1.);
#469=VECTOR('',#925,1.);
#470=VECTOR('',#928,1.);
#471=VECTOR('',#931,1.);
#472=VECTOR('',#948,1.);
#473=VECTOR('',#949,1.);
#474=VECTOR('',#952,1.);
#475=VECTOR('',#953,1.);
#476=VECTOR('',#956,1.);
#477=VECTOR('',#957,1.);
#478=VECTOR('',#960,1.);
#479=VECTOR('',#961,1.);
#480=VECTOR('',#964,1.);
#481=VECTOR('',#965,1.);
#482=VECTOR('',#968,1.);
#483=VECTOR('',#969,1.);
#484=EDGE_LOOP('',(#87,#88,#89,#90,#91,#92));
#485=EDGE_LOOP('',(#93));
#486=EDGE_LOOP('',(#94));
#487=EDGE_LOOP('',(#95,#96,#97,#98,#99,#100,#101,#102));
#488=EDGE_LOOP('',(#103));
#489=EDGE_LOOP('',(#104));
#490=EDGE_LOOP('',(#105,#106,#107,#108,#109,#110));
#491=EDGE_LOOP('',(#111,#112,#113,#114,#115,#116));
#492=EDGE_LOOP('',(#117,#118,#119,#120));
#493=EDGE_LOOP('',(#121));
#494=EDGE_LOOP('',(#122));
#495=EDGE_LOOP('',(#123));
#496=EDGE_LOOP('',(#124));
#497=EDGE_LOOP('',(#125));
#498=EDGE_LOOP('',(#126));
#499=EDGE_LOOP('',(#127));
#500=EDGE_LOOP('',(#128,#129,#130,#131,#132,#133));
#501=EDGE_LOOP('',(#134,#135,#136,#137));
#502=EDGE_LOOP('',(#138,#139,#140,#141));
#503=EDGE_LOOP('',(#142,#143,#144,#145));
#504=EDGE_LOOP('',(#146,#147,#148,#149));
#505=EDGE_LOOP('',(#150));
#506=EDGE_LOOP('',(#151));
#507=EDGE_LOOP('',(#152));
#508=EDGE_LOOP('',(#153));
#509=EDGE_LOOP('',(#154));
#510=EDGE_LOOP('',(#155));
#511=EDGE_LOOP('',(#156));
#512=EDGE_LOOP('',(#157));
#513=EDGE_LOOP('',(#158));
#514=EDGE_LOOP('',(#159));
#515=EDGE_LOOP('',(#160));
#516=EDGE_LOOP('',(#161));
#517=EDGE_LOOP('',(#162));
#518=EDGE_LOOP('',(#163));
#519=EDGE_LOOP('',(#164));
#520=EDGE_LOOP('',(#165));
#521=EDGE_LOOP('',(#166));
#522=EDGE_LOOP('',(#167));
#523=EDGE_LOOP('',(#168));
#524=EDGE_LOOP('',(#169,#170,#171));
#525=EDGE_LOOP('',(#172));
#526=EDGE_LOOP('',(#173,#174));
#527=EDGE_LOOP('',(#175));
#528=EDGE_LOOP('',(#176,#177,#178));
#529=EDGE_LOOP('',(#179));
#530=EDGE_LOOP('',(#180));
#531=EDGE_LOOP('',(#181,#182,#183,#184,#185,#186,#187,#188));
#532=EDGE_LOOP('',(#189,#190,#191,#192,#193));
#533=EDGE_LOOP('',(#194,#195,#196,#197,#198));
#534=EDGE_LOOP('',(#199,#200,#201,#202));
#535=EDGE_LOOP('',(#203));
#536=EDGE_LOOP('',(#204));
#537=EDGE_LOOP('',(#205));
#538=EDGE_LOOP('',(#206));
#539=EDGE_LOOP('',(#207));
#540=EDGE_LOOP('',(#208));
#541=EDGE_LOOP('',(#209));
#542=EDGE_LOOP('',(#210));
#543=EDGE_LOOP('',(#211,#212,#213,#214));
#544=EDGE_LOOP('',(#215,#216,#217,#218));
#545=EDGE_LOOP('',(#219,#220,#221,#222));
#546=EDGE_LOOP('',(#223,#224,#225,#226));
#547=EDGE_LOOP('',(#227,#228,#229,#230));
#548=EDGE_LOOP('',(#231,#232,#233,#234));
#549=EDGE_LOOP('',(#235,#236,#237,#238));
#550=EDGE_LOOP('',(#239,#240,#241,#242));
#551=EDGE_LOOP('',(#243,#244,#245,#246));
#552=EDGE_LOOP('',(#247,#248,#249,#250));
#553=EDGE_LOOP('',(#251,#252,#253,#254));
#554=EDGE_LOOP('',(#255,#256,#257,#258));
#555=FACE_BOUND('',#484,.T.);
#556=FACE_BOUND('',#485,.T.);
#557=FACE_BOUND('',#486,.T.);
#558=FACE_BOUND('',#487,.T.);
#559=FACE_BOUND('',#488,.T.);
#560=FACE_BOUND('',#489,.T.);
#561=FACE_BOUND('',#490,.T.);
#562=FACE_BOUND('',#491,.T.);
#563=FACE_BOUND('',#492,.T.);
#564=FACE_BOUND('',#493,.T.);
#565=FACE_BOUND('',#494,.T.);
#566=FACE_BOUND('',#495,.T.);
#567=FACE_BOUND('',#496,.T.);
#568=FACE_BOUND('',#497,.T.);
#569=FACE_BOUND('',#498,.T.);
#570=FACE_BOUND('',#499,.T.);
#571=FACE_BOUND('',#500,.T.);
#572=FACE_BOUND('',#501,.T.);
#573=FACE_BOUND('',#502,.T.);
#574=FACE_BOUND('',#503,.T.);
#575=FACE_BOUND('',#504,.T.);
#576=FACE_BOUND('',#505,.T.);
#577=FACE_BOUND('',#506,.T.);
#578=FACE_BOUND('',#507,.T.);
#579=FACE_BOUND('',#508,.T.);
#580=FACE_BOUND('',#509,.T.);
#581=FACE_BOUND('',#510,.T.);
#582=FACE_BOUND('',#511,.T.);
#583=FACE_BOUND('',#512,.T.);
#584=FACE_BOUND('',#513,.T.);
#585=FACE_BOUND('',#514,.T.);
#586=FACE_BOUND('',#515,.T.);
#587=FACE_BOUND('',#516,.T.);
#588=FACE_BOUND('',#517,.T.);
#589=FACE_BOUND('',#518,.T.);
#590=FACE_BOUND('',#519,.T.);
#591=FACE_BOUND('',#520,.T.);
#592=FACE_BOUND('',#521,.T.);
#593=FACE_BOUND('',#522,.T.);
#594=FACE_BOUND('',#523,.T.);
#595=FACE_BOUND('',#524,.T.);
#596=FACE_BOUND('',#525,.T.);
#597=FACE_BOUND('',#526,.T.);
#598=FACE_BOUND('',#527,.T.);
#599=FACE_BOUND('',#528,.T.);
#600=FACE_BOUND('',#529,.T.);
#601=FACE_BOUND('',#530,.T.);
#602=FACE_BOUND('',#531,.T.);
#603=FACE_BOUND('',#532,.T.);
#604=FACE_BOUND('',#533,.T.);
#605=FACE_BOUND('',#534,.T.);
#606=FACE_BOUND('',#535,.T.);
#607=FACE_BOUND('',#536,.T.);
#608=FACE_BOUND('',#537,.T.);
#609=FACE_BOUND('',#538,.T.);
#610=FACE_BOUND('',#539,.T.);
#611=FACE_BOUND('',#540,.T.);
#612=FACE_BOUND('',#541,.T.);
#613=FACE_BOUND('',#542,.T.);
#614=FACE_BOUND('',#543,.T.);
#615=FACE_BOUND('',#544,.T.);
#616=FACE_BOUND('',#545,.T.);
#617=FACE_BOUND('',#546,.T.);
#618=FACE_BOUND('',#547,.T.);
#619=FACE_BOUND('',#548,.T.);
#620=FACE_BOUND('',#549,.T.);
#621=FACE_BOUND('',#550,.T.);
#622=FACE_BOUND('',#551,.T.);
#623=FACE_BOUND('',#552,.T.);
#624=FACE_BOUND('',#553,.T.);
#625=FACE_BOUND('',#554,.T.);
#626=PLANE('',#690);
#627=PLANE('',#707);
#628=PLANE('',#723);
#629=PLANE('',#726);
#630=PLANE('',#753);
#631=PLANE('',#754);
#632=PLANE('',#762);
#633=PLANE('',#763);
#634=PLANE('',#764);
#635=PLANE('',#765);
#636=PLANE('',#766);
#637=PLANE('',#767);
#638=ADVANCED_FACE('',(#555,#556,#557,#558,#559,#560,#561),#626,.T.);
#639=ADVANCED_FACE('',(#562,#563,#564,#565,#566,#567,#568,#569,#570,#571),
#627,.F.);
#640=ADVANCED_FACE('',(#572),#628,.T.);
#641=ADVANCED_FACE('',(#573),#25,.T.);
#642=ADVANCED_FACE('',(#574),#629,.F.);
#643=ADVANCED_FACE('',(#575),#26,.T.);
#644=ADVANCED_FACE('',(#576,#577),#27,.F.);
#645=ADVANCED_FACE('',(#578,#579),#28,.F.);
#646=ADVANCED_FACE('',(#580,#581),#17,.F.);
#647=ADVANCED_FACE('',(#582,#583),#29,.F.);
#648=ADVANCED_FACE('',(#584,#585),#18,.F.);
#649=ADVANCED_FACE('',(#586,#587),#30,.F.);
#650=ADVANCED_FACE('',(#588,#589),#19,.F.);
#651=ADVANCED_FACE('',(#590,#591),#31,.F.);
#652=ADVANCED_FACE('',(#592,#593),#20,.F.);
#653=ADVANCED_FACE('',(#594,#595),#32,.F.);
#654=ADVANCED_FACE('',(#596,#597),#33,.F.);
#655=ADVANCED_FACE('',(#598,#599),#34,.F.);
#656=ADVANCED_FACE('',(#600,#601),#35,.F.);
#657=ADVANCED_FACE('',(#602),#21,.T.);
#658=ADVANCED_FACE('',(#603),#630,.T.);
#659=ADVANCED_FACE('',(#604),#631,.F.);
#660=ADVANCED_FACE('',(#605),#22,.T.);
#661=ADVANCED_FACE('',(#606,#607),#36,.F.);
#662=ADVANCED_FACE('',(#608,#609),#23,.F.);
#663=ADVANCED_FACE('',(#610,#611),#37,.F.);
#664=ADVANCED_FACE('',(#612,#613),#24,.F.);
#665=ADVANCED_FACE('',(#614),#632,.T.);
#666=ADVANCED_FACE('',(#615),#633,.T.);
#667=ADVANCED_FACE('',(#616),#634,.T.);
#668=ADVANCED_FACE('',(#617),#635,.F.);
#669=ADVANCED_FACE('',(#618),#636,.F.);
#670=ADVANCED_FACE('',(#619),#637,.F.);
#671=ADVANCED_FACE('',(#620),#38,.F.);
#672=ADVANCED_FACE('',(#621),#39,.F.);
#673=ADVANCED_FACE('',(#622),#40,.F.);
#674=ADVANCED_FACE('',(#623),#41,.F.);
#675=ADVANCED_FACE('',(#624),#42,.F.);
#676=ADVANCED_FACE('',(#625),#43,.F.);
#677=CLOSED_SHELL('',(#638,#639,#640,#641,#642,#643,#644,#645,#646,#647,
#648,#649,#650,#651,#652,#653,#654,#655,#656,#657,#658,#659,#660,#661,#662,
#663,#664,#665,#666,#667,#668,#669,#670,#671,#672,#673,#674,#675,#676));
#678=STYLED_ITEM('',(#679),#686);
#679=PRESENTATION_STYLE_ASSIGNMENT((#680));
#680=SURFACE_STYLE_USAGE(.BOTH.,#681);
#681=SURFACE_SIDE_STYLE('',(#682));
#682=SURFACE_STYLE_FILL_AREA(#683);
#683=FILL_AREA_STYLE('',(#684));
#684=FILL_AREA_STYLE_COLOUR('',#685);
#685=COLOUR_RGB('',0.168627450980392,0.168627450980392,0.168627450980392);
#686=MANIFOLD_SOLID_BREP('Part 1',#677);
#687=SHAPE_DEFINITION_REPRESENTATION(#1191,#688);
#688=SHAPE_REPRESENTATION('Part 1',(#689),#1186);
#689=AXIS2_PLACEMENT_3D('',#982,#774,#775);
#690=AXIS2_PLACEMENT_3D('',#983,#776,#777);
#691=AXIS2_PLACEMENT_3D('',#987,#779,#780);
#692=AXIS2_PLACEMENT_3D('',#991,#782,#783);
#693=AXIS2_PLACEMENT_3D('',#995,#785,#786);
#694=AXIS2_PLACEMENT_3D('',#996,#787,#788);
#695=AXIS2_PLACEMENT_3D('',#998,#789,#790);
#696=AXIS2_PLACEMENT_3D('',#1000,#791,#792);
#697=AXIS2_PLACEMENT_3D('',#1003,#793,#794);
#698=AXIS2_PLACEMENT_3D('',#1005,#795,#796);
#699=AXIS2_PLACEMENT_3D('',#1007,#797,#798);
#700=AXIS2_PLACEMENT_3D('',#1009,#799,#800);
#701=AXIS2_PLACEMENT_3D('',#1013,#802,#803);
#702=AXIS2_PLACEMENT_3D('',#1016,#805,#806);
#703=AXIS2_PLACEMENT_3D('',#1018,#807,#808);
#704=AXIS2_PLACEMENT_3D('',#1023,#810,#811);
#705=AXIS2_PLACEMENT_3D('',#1027,#813,#814);
#706=AXIS2_PLACEMENT_3D('',#1031,#816,#817);
#707=AXIS2_PLACEMENT_3D('',#1032,#818,#819);
#708=AXIS2_PLACEMENT_3D('',#1036,#821,#822);
#709=AXIS2_PLACEMENT_3D('',#1040,#824,#825);
#710=AXIS2_PLACEMENT_3D('',#1044,#827,#828);
#711=AXIS2_PLACEMENT_3D('',#1048,#830,#831);
#712=AXIS2_PLACEMENT_3D('',#1052,#833,#834);
#713=AXIS2_PLACEMENT_3D('',#1053,#835,#836);
#714=AXIS2_PLACEMENT_3D('',#1055,#837,#838);
#715=AXIS2_PLACEMENT_3D('',#1057,#839,#840);
#716=AXIS2_PLACEMENT_3D('',#1059,#841,#842);
#717=AXIS2_PLACEMENT_3D('',#1061,#843,#844);
#718=AXIS2_PLACEMENT_3D('',#1063,#845,#846);
#719=AXIS2_PLACEMENT_3D('',#1065,#847,#848);
#720=AXIS2_PLACEMENT_3D('',#1070,#850,#851);
#721=AXIS2_PLACEMENT_3D('',#1074,#853,#854);
#722=AXIS2_PLACEMENT_3D('',#1078,#856,#857);
#723=AXIS2_PLACEMENT_3D('',#1079,#858,#859);
#724=AXIS2_PLACEMENT_3D('',#1085,#863,#864);
#725=AXIS2_PLACEMENT_3D('',#1088,#866,#867);
#726=AXIS2_PLACEMENT_3D('',#1089,#868,#869);
#727=AXIS2_PLACEMENT_3D('',#1093,#872,#873);
#728=AXIS2_PLACEMENT_3D('',#1094,#874,#875);
#729=AXIS2_PLACEMENT_3D('',#1095,#876,#877);
#730=AXIS2_PLACEMENT_3D('',#1096,#878,#879);
#731=AXIS2_PLACEMENT_3D('',#1097,#880,#881);
#732=AXIS2_PLACEMENT_3D('',#1099,#882,#883);
#733=AXIS2_PLACEMENT_3D('',#1100,#884,#885);
#734=AXIS2_PLACEMENT_3D('',#1102,#886,#887);
#735=AXIS2_PLACEMENT_3D('',#1103,#888,#889);
#736=AXIS2_PLACEMENT_3D('',#1105,#890,#891);
#737=AXIS2_PLACEMENT_3D('',#1106,#892,#893);
#738=AXIS2_PLACEMENT_3D('',#1108,#894,#895);
#739=AXIS2_PLACEMENT_3D('',#1109,#896,#897);
#740=AXIS2_PLACEMENT_3D('',#1111,#898,#899);
#741=AXIS2_PLACEMENT_3D('',#1112,#900,#901);
#742=AXIS2_PLACEMENT_3D('',#1114,#902,#903);
#743=AXIS2_PLACEMENT_3D('',#1115,#904,#905);
#744=AXIS2_PLACEMENT_3D('',#1117,#906,#907);
#745=AXIS2_PLACEMENT_3D('',#1118,#908,#909);
#746=AXIS2_PLACEMENT_3D('',#1120,#910,#911);
#747=AXIS2_PLACEMENT_3D('',#1121,#912,#913);
#748=AXIS2_PLACEMENT_3D('',#1128,#914,#915);
#749=AXIS2_PLACEMENT_3D('',#1136,#916,#917);
#750=AXIS2_PLACEMENT_3D('',#1143,#918,#919);
#751=AXIS2_PLACEMENT_3D('',#1144,#920,#921);
#752=AXIS2_PLACEMENT_3D('',#1145,#922,#923);
#753=AXIS2_PLACEMENT_3D('',#1148,#926,#927);
#754=AXIS2_PLACEMENT_3D('',#1150,#929,#930);
#755=AXIS2_PLACEMENT_3D('',#1152,#932,#933);
#756=AXIS2_PLACEMENT_3D('',#1153,#934,#935);
#757=AXIS2_PLACEMENT_3D('',#1154,#936,#937);
#758=AXIS2_PLACEMENT_3D('',#1156,#938,#939);
#759=AXIS2_PLACEMENT_3D('',#1157,#940,#941);
#760=AXIS2_PLACEMENT_3D('',#1158,#942,#943);
#761=AXIS2_PLACEMENT_3D('',#1160,#944,#945);
#762=AXIS2_PLACEMENT_3D('',#1161,#946,#947);
#763=AXIS2_PLACEMENT_3D('',#1164,#950,#951);
#764=AXIS2_PLACEMENT_3D('',#1167,#954,#955);
#765=AXIS2_PLACEMENT_3D('',#1170,#958,#959);
#766=AXIS2_PLACEMENT_3D('',#1173,#962,#963);
#767=AXIS2_PLACEMENT_3D('',#1176,#966,#967);
#768=AXIS2_PLACEMENT_3D('',#1179,#970,#971);
#769=AXIS2_PLACEMENT_3D('',#1180,#972,#973);
#770=AXIS2_PLACEMENT_3D('',#1181,#974,#975);
#771=AXIS2_PLACEMENT_3D('',#1182,#976,#977);
#772=AXIS2_PLACEMENT_3D('',#1183,#978,#979);
#773=AXIS2_PLACEMENT_3D('',#1184,#980,#981);
#774=DIRECTION('',(0.,0.,1.));
#775=DIRECTION('',(1.,0.,0.));
#776=DIRECTION('',(0.,-1.,0.));
#777=DIRECTION('',(1.,0.,0.));
#778=DIRECTION('',(0.,0.,1.));
#779=DIRECTION('',(0.,-1.,0.));
#780=DIRECTION('',(0.,0.,-1.));
#781=DIRECTION('',(0.926466577122309,0.,-0.376377046955938));
#782=DIRECTION('',(0.,-1.,0.));
#783=DIRECTION('',(0.,0.,-1.));
#784=DIRECTION('',(-1.,0.,-2.16840434497101E-16));
#785=DIRECTION('',(0.,-1.,0.));
#786=DIRECTION('',(0.,0.,-1.));
#787=DIRECTION('',(0.,1.,0.));
#788=DIRECTION('',(0.,0.,1.));
#789=DIRECTION('',(0.,1.,0.));
#790=DIRECTION('',(0.,0.,1.));
#791=DIRECTION('',(0.,-1.,0.));
#792=DIRECTION('',(0.,0.,-1.));
#793=DIRECTION('',(0.,-1.,0.));
#794=DIRECTION('',(0.,0.,-1.));
#795=DIRECTION('',(0.,-1.,0.));
#796=DIRECTION('',(0.,0.,-1.));
#797=DIRECTION('',(0.,-1.,0.));
#798=DIRECTION('',(0.,0.,-1.));
#799=DIRECTION('',(0.,-1.,0.));
#800=DIRECTION('',(0.,0.,-1.));
#801=DIRECTION('',(1.,0.,6.93889390390723E-17));
#802=DIRECTION('',(0.,-1.,0.));
#803=DIRECTION('',(0.,0.,-1.));
#804=DIRECTION('',(-1.,0.,0.));
#805=DIRECTION('',(0.,-1.,0.));
#806=DIRECTION('',(0.,0.,-1.));
#807=DIRECTION('',(0.,-1.,0.));
#808=DIRECTION('',(0.,0.,-1.));
#809=DIRECTION('',(0.926466577122309,0.,0.376377046955938));
#810=DIRECTION('',(0.,-1.,0.));
#811=DIRECTION('',(0.,0.,-1.));
#812=DIRECTION('',(0.,0.,-1.));
#813=DIRECTION('',(0.,-1.,0.));
#814=DIRECTION('',(0.,0.,-1.));
#815=DIRECTION('',(-1.,0.,-2.16840434497101E-16));
#816=DIRECTION('',(0.,-1.,0.));
#817=DIRECTION('',(0.,0.,-1.));
#818=DIRECTION('',(0.,-1.,0.));
#819=DIRECTION('',(1.,0.,0.));
#820=DIRECTION('',(-1.,0.,-2.16840434497101E-16));
#821=DIRECTION('',(0.,-1.,0.));
#822=DIRECTION('',(0.,0.,-1.));
#823=DIRECTION('',(0.926466577122309,0.,-0.376377046955938));
#824=DIRECTION('',(0.,-1.,0.));
#825=DIRECTION('',(0.,0.,-1.));
#826=DIRECTION('',(0.,0.,1.));
#827=DIRECTION('',(0.,-1.,0.));
#828=DIRECTION('',(0.,0.,-1.));
#829=DIRECTION('',(1.,0.,0.));
#830=DIRECTION('',(0.,-1.,0.));
#831=DIRECTION('',(0.,0.,-1.));
#832=DIRECTION('',(1.,0.,6.93889390390723E-17));
#833=DIRECTION('',(0.,-1.,0.));
#834=DIRECTION('',(0.,0.,-1.));
#835=DIRECTION('',(0.,-1.,0.));
#836=DIRECTION('',(0.,0.,-1.));
#837=DIRECTION('',(0.,-1.,0.));
#838=DIRECTION('',(0.,0.,-1.));
#839=DIRECTION('',(0.,-1.,0.));
#840=DIRECTION('',(0.,0.,-1.));
#841=DIRECTION('',(0.,-1.,0.));
#842=DIRECTION('',(0.,0.,-1.));
#843=DIRECTION('',(0.,-1.,0.));
#844=DIRECTION('',(0.,0.,-1.));
#845=DIRECTION('',(0.,-1.,0.));
#846=DIRECTION('',(0.,0.,-1.));
#847=DIRECTION('',(0.,-1.,0.));
#848=DIRECTION('',(0.,0.,-1.));
#849=DIRECTION('',(-1.,0.,-2.16840434497101E-16));
#850=DIRECTION('',(0.,-1.,0.));
#851=DIRECTION('',(0.,0.,-1.));
#852=DIRECTION('',(0.,0.,-1.));
#853=DIRECTION('',(0.,-1.,0.));
#854=DIRECTION('',(0.,0.,-1.));
#855=DIRECTION('',(0.926466577122309,0.,0.376377046955938));
#856=DIRECTION('',(0.,-1.,0.));
#857=DIRECTION('',(0.,0.,-1.));
#858=DIRECTION('',(0.,0.,1.));
#859=DIRECTION('',(1.,0.,0.));
#860=DIRECTION('',(0.,1.,0.));
#861=DIRECTION('',(1.,0.,0.));
#862=DIRECTION('',(0.,1.,0.));
#863=DIRECTION('',(0.,1.,0.));
#864=DIRECTION('',(0.,0.,1.));
#865=DIRECTION('',(0.,1.,0.));
#866=DIRECTION('',(0.,-1.,0.));
#867=DIRECTION('',(0.,0.,-1.));
#868=DIRECTION('',(-6.93889390390723E-17,0.,1.));
#869=DIRECTION('',(1.,0.,6.93889390390723E-17));
#870=DIRECTION('',(0.,1.,0.));
#871=DIRECTION('',(-1.,0.,-6.93889390390723E-17));
#872=DIRECTION('',(0.,1.,0.));
#873=DIRECTION('',(0.,0.,1.));
#874=DIRECTION('',(0.,-1.,0.));
#875=DIRECTION('',(0.,0.,-1.));
#876=DIRECTION('',(0.,-1.,0.));
#877=DIRECTION('',(0.,0.,-1.));
#878=DIRECTION('',(0.,1.,0.));
#879=DIRECTION('',(0.,0.,1.));
#880=DIRECTION('',(0.,1.,0.));
#881=DIRECTION('',(0.,0.,1.));
#882=DIRECTION('',(0.,-1.,0.));
#883=DIRECTION('',(0.,0.,-1.));
#884=DIRECTION('',(0.,-1.,0.));
#885=DIRECTION('',(0.,0.,-1.));
#886=DIRECTION('',(0.,1.,0.));
#887=DIRECTION('',(0.,0.,1.));
#888=DIRECTION('',(0.,1.,0.));
#889=DIRECTION('',(0.,0.,1.));
#890=DIRECTION('',(0.,-1.,0.));
#891=DIRECTION('',(0.,0.,-1.));
#892=DIRECTION('',(0.,-1.,0.));
#893=DIRECTION('',(0.,0.,-1.));
#894=DIRECTION('',(0.,1.,0.));
#895=DIRECTION('',(0.,0.,1.));
#896=DIRECTION('',(0.,1.,0.));
#897=DIRECTION('',(0.,0.,1.));
#898=DIRECTION('',(0.,-1.,0.));
#899=DIRECTION('',(0.,0.,-1.));
#900=DIRECTION('',(0.,-1.,0.));
#901=DIRECTION('',(0.,0.,-1.));
#902=DIRECTION('',(0.,1.,0.));
#903=DIRECTION('',(0.,0.,1.));
#904=DIRECTION('',(0.,1.,0.));
#905=DIRECTION('',(0.,0.,1.));
#906=DIRECTION('',(0.,-1.,0.));
#907=DIRECTION('',(0.,0.,-1.));
#908=DIRECTION('',(0.,-1.,0.));
#909=DIRECTION('',(0.,0.,-1.));
#910=DIRECTION('',(0.,1.,0.));
#911=DIRECTION('',(0.,0.,1.));
#912=DIRECTION('',(0.,0.707106781186548,-0.707106781186548));
#913=DIRECTION('',(0.,0.707106781186548,0.707106781186548));
#914=DIRECTION('',(0.,1.,0.));
#915=DIRECTION('',(0.,0.,1.));
#916=DIRECTION('',(0.,1.,0.));
#917=DIRECTION('',(0.,0.,1.));
#918=DIRECTION('',(4.9065389333868E-17,-0.707106781186548,-0.707106781186547));
#919=DIRECTION('',(4.9065389333868E-17,0.707106781186547,-0.707106781186548));
#920=DIRECTION('',(0.,1.,0.));
#921=DIRECTION('',(0.,0.,1.));
#922=DIRECTION('',(0.,1.,0.));
#923=DIRECTION('',(0.,0.,1.));
#924=DIRECTION('',(0.,0.707106781186548,0.707106781186548));
#925=DIRECTION('',(4.9065389333868E-17,0.707106781186547,-0.707106781186548));
#926=DIRECTION('',(4.9065389333868E-17,-0.707106781186548,-0.707106781186547));
#927=DIRECTION('',(-1.,0.,-6.93889390390723E-17));
#928=DIRECTION('',(0.,0.707106781186547,-0.707106781186548));
#929=DIRECTION('',(0.,0.707106781186548,-0.707106781186548));
#930=DIRECTION('',(1.,0.,0.));
#931=DIRECTION('',(0.,-0.707106781186548,-0.707106781186548));
#932=DIRECTION('',(0.,1.,0.));
#933=DIRECTION('',(0.,0.,1.));
#934=DIRECTION('',(0.,1.,0.));
#935=DIRECTION('',(0.,0.,1.));
#936=DIRECTION('',(0.,1.,0.));
#937=DIRECTION('',(0.,0.,1.));
#938=DIRECTION('',(0.,-1.,0.));
#939=DIRECTION('',(0.,0.,-1.));
#940=DIRECTION('',(0.,1.,0.));
#941=DIRECTION('',(0.,0.,1.));
#942=DIRECTION('',(0.,1.,0.));
#943=DIRECTION('',(0.,0.,1.));
#944=DIRECTION('',(0.,-1.,0.));
#945=DIRECTION('',(0.,0.,-1.));
#946=DIRECTION('',(-2.16840434497101E-16,0.,1.));
#947=DIRECTION('',(1.,0.,2.16840434497101E-16));
#948=DIRECTION('',(0.,-1.,0.));
#949=DIRECTION('',(0.,-1.,0.));
#950=DIRECTION('',(-1.,0.,0.));
#951=DIRECTION('',(0.,0.,1.));
#952=DIRECTION('',(0.,-1.,0.));
#953=DIRECTION('',(0.,-1.,0.));
#954=DIRECTION('',(0.376377046955938,0.,-0.926466577122309));
#955=DIRECTION('',(-0.926466577122309,0.,-0.376377046955938));
#956=DIRECTION('',(0.,-1.,0.));
#957=DIRECTION('',(0.,-1.,0.));
#958=DIRECTION('',(1.,0.,0.));
#959=DIRECTION('',(0.,0.,-1.));
#960=DIRECTION('',(0.,-1.,0.));
#961=DIRECTION('',(0.,-1.,0.));
#962=DIRECTION('',(-2.16840434497101E-16,0.,1.));
#963=DIRECTION('',(1.,0.,2.16840434497101E-16));
#964=DIRECTION('',(0.,-1.,0.));
#965=DIRECTION('',(0.,-1.,0.));
#966=DIRECTION('',(-0.376377046955938,0.,-0.926466577122309));
#967=DIRECTION('',(-0.926466577122309,0.,0.376377046955938));
#968=DIRECTION('',(0.,-1.,0.));
#969=DIRECTION('',(0.,-1.,0.));
#970=DIRECTION('',(0.,1.,0.));
#971=DIRECTION('',(0.,0.,1.));
#972=DIRECTION('',(0.,1.,0.));
#973=DIRECTION('',(0.,0.,1.));
#974=DIRECTION('',(0.,1.,0.));
#975=DIRECTION('',(0.,0.,1.));
#976=DIRECTION('',(0.,1.,0.));
#977=DIRECTION('',(0.,0.,1.));
#978=DIRECTION('',(0.,1.,0.));
#979=DIRECTION('',(0.,0.,1.));
#980=DIRECTION('',(0.,1.,0.));
#981=DIRECTION('',(0.,0.,1.));
#982=CARTESIAN_POINT('',(0.,0.,0.));
#983=CARTESIAN_POINT('',(0.0125,-0.01,0.));
#984=CARTESIAN_POINT('',(0.02,-0.01,0.00475));
#985=CARTESIAN_POINT('',(0.02,-0.01,0.00298561975244816));
#986=CARTESIAN_POINT('',(0.02,-0.01,0.007));
#987=CARTESIAN_POINT('',(0.019,-0.01,0.00298561975244816));
#988=CARTESIAN_POINT('',(0.0186236229530441,-0.01,0.00205915317532584));
#989=CARTESIAN_POINT('',(0.012,-0.01,0.00475));
#990=CARTESIAN_POINT('',(0.00874207157445492,-0.01,0.00607353342287769));
#991=CARTESIAN_POINT('',(0.00911844862141085,-0.01,0.007));
#992=CARTESIAN_POINT('',(0.00911844862141085,-0.01,0.008));
#993=CARTESIAN_POINT('',(0.012,-0.01,0.008));
#994=CARTESIAN_POINT('',(0.019,-0.01,0.008));
#995=CARTESIAN_POINT('',(0.019,-0.01,0.007));
#996=CARTESIAN_POINT('',(0.025,-0.01,0.005));
#997=CARTESIAN_POINT('',(0.025,-0.01,0.00836));
#998=CARTESIAN_POINT('',(0.025,-0.01,-0.005));
#999=CARTESIAN_POINT('',(0.025,-0.01,-0.00164));
#1000=CARTESIAN_POINT('',(4.33680868994202E-19,-0.01,0.008));
#1001=CARTESIAN_POINT('',(-0.00199975584447202,-0.01,0.00903125));
#1002=CARTESIAN_POINT('',(0.00187082869338697,-0.01,0.00925));
#1003=CARTESIAN_POINT('',(-6.88863824520386E-19,-0.01,0.));
#1004=CARTESIAN_POINT('',(-0.00903125,-0.01,0.00199975584447202));
#1005=CARTESIAN_POINT('',(-0.008,-0.01,1.05625786426459E-18));
#1006=CARTESIAN_POINT('',(-0.00903125,-0.01,-0.00199975584447202));
#1007=CARTESIAN_POINT('',(-6.88863824520386E-19,-0.01,0.));
#1008=CARTESIAN_POINT('',(-0.00199975584447202,-0.01,-0.00903125));
#1009=CARTESIAN_POINT('',(-1.3010426069826E-18,-0.01,-0.008));
#1010=CARTESIAN_POINT('',(0.00187082869338697,-0.01,-0.00925));
#1011=CARTESIAN_POINT('',(0.025,-0.01,-0.00925));
#1012=CARTESIAN_POINT('',(0.025,-0.01,-0.00925));
#1013=CARTESIAN_POINT('',(0.025,-0.01,0.));
#1014=CARTESIAN_POINT('',(0.025,-0.01,0.00925));
#1015=CARTESIAN_POINT('',(0.0125,-0.01,0.00925));
#1016=CARTESIAN_POINT('',(0.008,-0.01,1.99005104861445E-19));
#1017=CARTESIAN_POINT('',(0.008,-0.01,-0.00225));
#1018=CARTESIAN_POINT('',(0.,-0.01,2.60237444818812E-19));
#1019=CARTESIAN_POINT('',(0.,-0.01,-0.00425));
#1020=CARTESIAN_POINT('',(0.012,-0.01,-0.00475));
#1021=CARTESIAN_POINT('',(0.00874207157445492,-0.01,-0.00607353342287769));
#1022=CARTESIAN_POINT('',(0.0186236229530441,-0.01,-0.00205915317532584));
#1023=CARTESIAN_POINT('',(0.019,-0.01,-0.00298561975244816));
#1024=CARTESIAN_POINT('',(0.02,-0.01,-0.00298561975244816));
#1025=CARTESIAN_POINT('',(0.02,-0.01,-0.00475));
#1026=CARTESIAN_POINT('',(0.02,-0.01,-0.007));
#1027=CARTESIAN_POINT('',(0.019,-0.01,-0.007));
#1028=CARTESIAN_POINT('',(0.019,-0.01,-0.008));
#1029=CARTESIAN_POINT('',(0.012,-0.01,-0.008));
#1030=CARTESIAN_POINT('',(0.00911844862141085,-0.01,-0.008));
#1031=CARTESIAN_POINT('',(0.00911844862141085,-0.01,-0.007));
#1032=CARTESIAN_POINT('',(0.0125,0.,0.));
#1033=CARTESIAN_POINT('',(0.0125,0.,0.008));
#1034=CARTESIAN_POINT('',(0.019,0.,0.008));
#1035=CARTESIAN_POINT('',(0.00911844862141085,0.,0.008));
#1036=CARTESIAN_POINT('',(0.00911844862141085,0.,0.007));
#1037=CARTESIAN_POINT('',(0.00874207157445492,0.,0.00607353342287769));
#1038=CARTESIAN_POINT('',(0.0140854987426655,0.,0.00390276613579212));
#1039=CARTESIAN_POINT('',(0.0186236229530441,0.,0.00205915317532584));
#1040=CARTESIAN_POINT('',(0.019,0.,0.00298561975244816));
#1041=CARTESIAN_POINT('',(0.02,0.,0.00298561975244816));
#1042=CARTESIAN_POINT('',(0.02,0.,0.));
#1043=CARTESIAN_POINT('',(0.02,0.,0.007));
#1044=CARTESIAN_POINT('',(0.019,0.,0.007));
#1045=CARTESIAN_POINT('',(0.0125,0.,0.01125));
#1046=CARTESIAN_POINT('',(0.,0.,0.01125));
#1047=CARTESIAN_POINT('',(0.025,0.,0.01125));
#1048=CARTESIAN_POINT('',(0.025,0.,0.));
#1049=CARTESIAN_POINT('',(0.025,0.,-0.01125));
#1050=CARTESIAN_POINT('',(0.0125,0.,-0.01125));
#1051=CARTESIAN_POINT('',(0.,0.,-0.01125));
#1052=CARTESIAN_POINT('',(-6.88863824520386E-19,0.,0.));
#1053=CARTESIAN_POINT('',(0.,0.,2.60237444818812E-19));
#1054=CARTESIAN_POINT('',(0.,0.,-0.00425));
#1055=CARTESIAN_POINT('',(-0.008,0.,1.7347234759768E-18));
#1056=CARTESIAN_POINT('',(-0.008,0.,-0.0012));
#1057=CARTESIAN_POINT('',(-1.46957615897682E-18,0.,-0.008));
#1058=CARTESIAN_POINT('',(-1.46957615897682E-18,0.,-0.0092));
#1059=CARTESIAN_POINT('',(0.008,0.,0.));
#1060=CARTESIAN_POINT('',(0.008,0.,-0.0012));
#1061=CARTESIAN_POINT('',(4.89858719658941E-19,0.,0.008));
#1062=CARTESIAN_POINT('',(4.89858719658941E-19,0.,0.0068));
#1063=CARTESIAN_POINT('',(0.025,0.,-0.005));
#1064=CARTESIAN_POINT('',(0.025,0.,-0.0067));
#1065=CARTESIAN_POINT('',(0.025,0.,0.005));
#1066=CARTESIAN_POINT('',(0.025,0.,0.0033));
#1067=CARTESIAN_POINT('',(0.0125,0.,-0.008));
#1068=CARTESIAN_POINT('',(0.019,0.,-0.008));
#1069=CARTESIAN_POINT('',(0.00911844862141085,0.,-0.008));
#1070=CARTESIAN_POINT('',(0.019,0.,-0.007));
#1071=CARTESIAN_POINT('',(0.02,0.,-0.007));
#1072=CARTESIAN_POINT('',(0.02,0.,0.));
#1073=CARTESIAN_POINT('',(0.02,0.,-0.00298561975244816));
#1074=CARTESIAN_POINT('',(0.019,0.,-0.00298561975244816));
#1075=CARTESIAN_POINT('',(0.0186236229530441,0.,-0.00205915317532584));
#1076=CARTESIAN_POINT('',(0.0140854987426655,0.,-0.00390276613579212));
#1077=CARTESIAN_POINT('',(0.00874207157445491,0.,-0.00607353342287769));
#1078=CARTESIAN_POINT('',(0.00911844862141085,0.,-0.007));
#1079=CARTESIAN_POINT('',(0.0125,-0.01,0.01125));
#1080=CARTESIAN_POINT('',(0.,-0.01,0.01125));
#1081=CARTESIAN_POINT('',(0.,-0.008,0.01125));
#1082=CARTESIAN_POINT('',(0.0125,-0.008,0.01125));
#1083=CARTESIAN_POINT('',(0.025,-0.008,0.01125));
#1084=CARTESIAN_POINT('',(0.025,-0.01,0.01125));
#1085=CARTESIAN_POINT('',(-6.88863824520386E-19,-0.01,0.));
#1086=CARTESIAN_POINT('',(0.,-0.01,-0.01125));
#1087=CARTESIAN_POINT('',(0.,-0.008,-0.01125));
#1088=CARTESIAN_POINT('',(-6.88863824520386E-19,-0.008,0.));
#1089=CARTESIAN_POINT('',(0.0125,-0.01,-0.01125));
#1090=CARTESIAN_POINT('',(0.025,-0.01,-0.01125));
#1091=CARTESIAN_POINT('',(0.025,-0.008,-0.01125));
#1092=CARTESIAN_POINT('',(3.61111864572607E-35,-0.008,-0.01125));
#1093=CARTESIAN_POINT('',(0.025,-0.01,0.));
#1094=CARTESIAN_POINT('',(0.025,-0.008,0.));
#1095=CARTESIAN_POINT('',(0.,2.00000000000027E-6,2.60237444818812E-19));
#1096=CARTESIAN_POINT('',(0.008,-0.0075,0.));
#1097=CARTESIAN_POINT('',(0.008,-0.00645,0.));
#1098=CARTESIAN_POINT('',(0.008,-0.00645,0.0012));
#1099=CARTESIAN_POINT('',(0.008,-0.0075,0.));
#1100=CARTESIAN_POINT('',(0.008,-0.0075,1.99005104861445E-19));
#1101=CARTESIAN_POINT('',(0.008,-0.0075,-0.00225));
#1102=CARTESIAN_POINT('',(-1.46957615897682E-18,-0.0075,-0.008));
#1103=CARTESIAN_POINT('',(-1.46957615897682E-18,-0.00645,-0.008));
#1104=CARTESIAN_POINT('',(-1.46957615897682E-18,-0.00645,-0.0068));
#1105=CARTESIAN_POINT('',(-1.46957615897682E-18,-0.0075,-0.008));
#1106=CARTESIAN_POINT('',(-1.3010426069826E-18,-0.0075,-0.008));
#1107=CARTESIAN_POINT('',(-1.3010426069826E-18,-0.0075,-0.01025));
#1108=CARTESIAN_POINT('',(-0.008,-0.0075,1.7347234759768E-18));
#1109=CARTESIAN_POINT('',(-0.008,-0.00645,1.7347234759768E-18));
#1110=CARTESIAN_POINT('',(-0.008,-0.00645,0.0012));
#1111=CARTESIAN_POINT('',(-0.008,-0.0075,1.7347234759768E-18));
#1112=CARTESIAN_POINT('',(-0.008,-0.0075,1.05625786426459E-18));
#1113=CARTESIAN_POINT('',(-0.008,-0.0075,-0.00225));
#1114=CARTESIAN_POINT('',(4.89858719658941E-19,-0.0075,0.008));
#1115=CARTESIAN_POINT('',(4.89858719658941E-19,-0.00645,0.008));
#1116=CARTESIAN_POINT('',(4.89858719658941E-19,-0.00645,0.0092));
#1117=CARTESIAN_POINT('',(4.89858719658941E-19,-0.0075,0.008));
#1118=CARTESIAN_POINT('',(4.33680868994202E-19,-0.0075,0.008));
#1119=CARTESIAN_POINT('',(4.33680868994202E-19,-0.0075,0.00575));
#1120=CARTESIAN_POINT('',(4.33680868994202E-19,-0.010002,0.008));
#1121=CARTESIAN_POINT('',(4.33680868994202E-19,-0.01125,0.008));
#1122=CARTESIAN_POINT('',(-1.56472057533108E-18,-0.009,0.01025));
#1123=CARTESIAN_POINT('',(-6.88863824520386E-19,-0.009,0.01025));
#1124=CARTESIAN_POINT('',(-0.000455685838543657,-0.009,0.01025));
#1125=CARTESIAN_POINT('',(-0.00133108514951516,-0.00922632643398587,0.00995685806081383));
#1126=CARTESIAN_POINT('',(-0.0018348854801039,-0.00972349444216315,0.00935095955124886));
#1127=CARTESIAN_POINT('',(-0.00199975584447202,-0.01,0.00903125));
#1128=CARTESIAN_POINT('',(-0.008,-0.010002,1.05625786426459E-18));
#1129=CARTESIAN_POINT('',(-0.00903125,-0.01,0.00199975584447202));
#1130=CARTESIAN_POINT('',(-0.00935103384151713,-0.00972343019112033,0.00183484716950745));
#1131=CARTESIAN_POINT('',(-0.00995432506487627,-0.00922836517122969,0.00133836178829343));
#1132=CARTESIAN_POINT('',(-0.0103971068705015,-0.00888640154399613,5.02962899581258E-6));
#1133=CARTESIAN_POINT('',(-0.00995722979606177,-0.00922604243390414,-0.00133664592318238));
#1134=CARTESIAN_POINT('',(-0.00935146834596243,-0.00972305440349195,-0.00183462310079907));
#1135=CARTESIAN_POINT('',(-0.00903125,-0.01,-0.00199975584447205));
#1136=CARTESIAN_POINT('',(-1.3010426069826E-18,-0.010002,-0.008));
#1137=CARTESIAN_POINT('',(-0.00199975584447202,-0.01,-0.00903125));
#1138=CARTESIAN_POINT('',(-0.00183475355564729,-0.00972327319048092,-0.00935121537350644));
#1139=CARTESIAN_POINT('',(-0.00133355353775699,-0.0092280187595032,-0.00995476180989953));
#1140=CARTESIAN_POINT('',(-0.000456848855634721,-0.009,-0.01025));
#1141=CARTESIAN_POINT('',(-6.08480676038908E-18,-0.009,-0.01025));
#1142=CARTESIAN_POINT('',(-6.08480676038908E-18,-0.009,-0.01025));
#1143=CARTESIAN_POINT('',(-1.3010426069826E-18,-0.01125,-0.008));
#1144=CARTESIAN_POINT('',(0.008,-0.010002,1.99005104861445E-19));
#1145=CARTESIAN_POINT('',(-6.88863824520386E-19,-0.01,0.));
#1146=CARTESIAN_POINT('',(-6.88863824520386E-19,-0.014625,0.004625));
#1147=CARTESIAN_POINT('',(-3.67939981464677E-19,-0.014625,-0.004625));
#1148=CARTESIAN_POINT('',(0.0125,-0.01,-0.00925));
#1149=CARTESIAN_POINT('',(0.025,-0.01,-0.00925));
#1150=CARTESIAN_POINT('',(0.0125,-0.008,0.01125));
#1151=CARTESIAN_POINT('',(0.025,-0.008,0.01125));
#1152=CARTESIAN_POINT('',(0.025,-0.01,0.));
#1153=CARTESIAN_POINT('',(0.025,-0.01,-0.005));
#1154=CARTESIAN_POINT('',(0.025,-0.00834,-0.005));
#1155=CARTESIAN_POINT('',(0.025,-0.00834,-0.0033));
#1156=CARTESIAN_POINT('',(0.025,-0.01,-0.005));
#1157=CARTESIAN_POINT('',(0.025,-0.01,0.005));
#1158=CARTESIAN_POINT('',(0.025,-0.00834,0.005));
#1159=CARTESIAN_POINT('',(0.025,-0.00834,0.0067));
#1160=CARTESIAN_POINT('',(0.025,-0.01,0.005));
#1161=CARTESIAN_POINT('',(0.012,0.0435424494794124,-0.008));
#1162=CARTESIAN_POINT('',(0.019,1.38777878078145E-17,-0.008));
#1163=CARTESIAN_POINT('',(0.00911844862141085,-0.01,-0.008));
#1164=CARTESIAN_POINT('',(0.02,0.0435424494794124,-0.00475));
#1165=CARTESIAN_POINT('',(0.02,-0.01,-0.007));
#1166=CARTESIAN_POINT('',(0.02,1.38777878078145E-17,-0.00298561975244816));
#1167=CARTESIAN_POINT('',(0.012,0.0435424494794124,-0.00475));
#1168=CARTESIAN_POINT('',(0.00874207157445492,0.,-0.00607353342287769));
#1169=CARTESIAN_POINT('',(0.0186236229530441,-0.01,-0.00205915317532584));
#1170=CARTESIAN_POINT('',(0.02,0.0435424494794124,0.00475));
#1171=CARTESIAN_POINT('',(0.02,-0.01,0.00298561975244816));
#1172=CARTESIAN_POINT('',(0.02,1.38777878078145E-17,0.007));
#1173=CARTESIAN_POINT('',(0.012,0.0435424494794124,0.008));
#1174=CARTESIAN_POINT('',(0.019,-0.01,0.008));
#1175=CARTESIAN_POINT('',(0.00911844862141085,1.38777878078145E-17,0.008));
#1176=CARTESIAN_POINT('',(0.012,0.0435424494794124,0.00475));
#1177=CARTESIAN_POINT('',(0.0186236229530441,0.,0.00205915317532584));
#1178=CARTESIAN_POINT('',(0.00874207157445492,-0.01,0.00607353342287769));
#1179=CARTESIAN_POINT('',(0.019,0.0435424494794124,-0.007));
#1180=CARTESIAN_POINT('',(0.00911844862141085,0.0435424494794124,-0.007));
#1181=CARTESIAN_POINT('',(0.019,0.0435424494794124,-0.00298561975244816));
#1182=CARTESIAN_POINT('',(0.019,0.0435424494794124,0.00298561975244816));
#1183=CARTESIAN_POINT('',(0.019,0.0435424494794124,0.007));
#1184=CARTESIAN_POINT('',(0.00911844862141085,0.0435424494794124,0.007));
#1185=MECHANICAL_DESIGN_GEOMETRIC_PRESENTATION_REPRESENTATION('',(#678),
#1186);
#1186=(
GEOMETRIC_REPRESENTATION_CONTEXT(3)
GLOBAL_UNCERTAINTY_ASSIGNED_CONTEXT((#1187))
GLOBAL_UNIT_ASSIGNED_CONTEXT((#1190,#1189,#1188))
REPRESENTATION_CONTEXT('Part 1','TOP_LEVEL_ASSEMBLY_PART')
);
#1187=UNCERTAINTY_MEASURE_WITH_UNIT(LENGTH_MEASURE(2.E-5),#1190,
'DISTANCE_ACCURACY_VALUE','Maximum Tolerance applied to model');
#1188=(
NAMED_UNIT(*)
SI_UNIT($,.STERADIAN.)
SOLID_ANGLE_UNIT()
);
#1189=(
NAMED_UNIT(*)
PLANE_ANGLE_UNIT()
SI_UNIT($,.RADIAN.)
);
#1190=(
LENGTH_UNIT()
NAMED_UNIT(*)
SI_UNIT($,.METRE.)
);
#1191=PRODUCT_DEFINITION_SHAPE('','',#1192);
#1192=PRODUCT_DEFINITION('','',#1194,#1193);
#1193=PRODUCT_DEFINITION_CONTEXT('',#1200,'design');
#1194=PRODUCT_DEFINITION_FORMATION_WITH_SPECIFIED_SOURCE('','',#1196,
 .NOT_KNOWN.);
#1195=PRODUCT_RELATED_PRODUCT_CATEGORY('','',(#1196));
#1196=PRODUCT('Part 1','Part 1','Part 1',(#1198));
#1197=PRODUCT_CATEGORY('','');
#1198=PRODUCT_CONTEXT('',#1200,'mechanical');
#1199=APPLICATION_PROTOCOL_DEFINITION('international standard',
'ap242_managed_model_based_3d_engineering',2011,#1200);
#1200=APPLICATION_CONTEXT('managed model based 3d engineering');
ENDSEC;
END-ISO-10303-21;
