ISO-10303-21;
HEADER;
/* Generated by software containing ST-Developer
 * from STEP Tools, Inc. (www.steptools.com) 
 */
/* OPTION: using custom renumber hook */

FILE_DESCRIPTION(
/* description */ ('STEP AP242',
'CAx-IF Rec.Pracs.---Representation and Presentation of Product Manufa
cturing Information (PMI)---4.0---2014-10-13',
'CAx-IF Rec.Pracs.---3D Tessellated Geometry---0.4---2014-09-14','2;1'),

/* implementation_level */ '2;1');

FILE_NAME(
/* name */ '68740141d1955a75fb7b32de',
/* time_stamp */ '2025-07-13T18:56:01Z',
/* author */ (''),
/* organization */ (''),
/* preprocessor_version */ 'ST-DEVELOPER v20',
/* originating_system */ 'ONSHAPE BY PTC INC, 1.200',
/* authorisation */ '  ');

FILE_SCHEMA (('AP242_MANAGED_MODEL_BASED_3D_ENGINEERING_MIM_LF { 1 0 10303 442 1 1 4 }'));
ENDSEC;

DATA;
#10=SHAPE_REPRESENTATION_RELATIONSHIP('','',#447,#11);
#11=ADVANCED_BREP_SHAPE_REPRESENTATION('',(#445),#773);
#12=CYLINDRICAL_SURFACE('',#474,0.00275);
#13=CYLINDRICAL_SURFACE('',#478,0.00275);
#14=CYLINDRICAL_SURFACE('',#481,0.00235);
#15=CYLINDRICAL_SURFACE('',#484,0.00235);
#16=CYLINDRICAL_SURFACE('',#485,0.00275);
#17=CYLINDRICAL_SURFACE('',#489,0.00275);
#18=CYLINDRICAL_SURFACE('',#495,0.00235);
#19=CYLINDRICAL_SURFACE('',#498,0.00235);
#20=CYLINDRICAL_SURFACE('',#501,0.01125);
#21=CYLINDRICAL_SURFACE('',#502,0.0025);
#22=CYLINDRICAL_SURFACE('',#503,0.0025);
#23=CYLINDRICAL_SURFACE('',#504,0.0025);
#24=CYLINDRICAL_SURFACE('',#505,0.0025);
#25=CYLINDRICAL_SURFACE('',#506,0.0025);
#26=LINE('',#655,#50);
#27=LINE('',#660,#51);
#28=LINE('',#664,#52);
#29=LINE('',#668,#53);
#30=LINE('',#672,#54);
#31=LINE('',#676,#55);
#32=LINE('',#680,#56);
#33=LINE('',#683,#57);
#34=LINE('',#684,#58);
#35=LINE('',#690,#59);
#36=LINE('',#695,#60);
#37=LINE('',#699,#61);
#38=LINE('',#704,#62);
#39=LINE('',#708,#63);
#40=LINE('',#712,#64);
#41=LINE('',#713,#65);
#42=LINE('',#715,#66);
#43=LINE('',#716,#67);
#44=LINE('',#718,#68);
#45=LINE('',#719,#69);
#46=LINE('',#761,#70);
#47=LINE('',#762,#71);
#48=LINE('',#764,#72);
#49=LINE('',#765,#73);
#50=VECTOR('',#515,1.);
#51=VECTOR('',#518,1.);
#52=VECTOR('',#521,1.);
#53=VECTOR('',#524,1.);
#54=VECTOR('',#527,1.);
#55=VECTOR('',#530,1.);
#56=VECTOR('',#535,1.);
#57=VECTOR('',#536,1.);
#58=VECTOR('',#537,1.);
#59=VECTOR('',#544,1.);
#60=VECTOR('',#547,1.);
#61=VECTOR('',#550,1.);
#62=VECTOR('',#555,1.);
#63=VECTOR('',#558,1.);
#64=VECTOR('',#563,1.);
#65=VECTOR('',#564,1.);
#66=VECTOR('',#567,1.);
#67=VECTOR('',#568,1.);
#68=VECTOR('',#571,1.);
#69=VECTOR('',#572,1.);
#70=VECTOR('',#631,1.);
#71=VECTOR('',#632,1.);
#72=VECTOR('',#635,1.);
#73=VECTOR('',#636,1.);
#74=ORIENTED_EDGE('',*,*,#178,.F.);
#75=ORIENTED_EDGE('',*,*,#179,.F.);
#76=ORIENTED_EDGE('',*,*,#180,.T.);
#77=ORIENTED_EDGE('',*,*,#181,.T.);
#78=ORIENTED_EDGE('',*,*,#182,.F.);
#79=ORIENTED_EDGE('',*,*,#183,.T.);
#80=ORIENTED_EDGE('',*,*,#184,.T.);
#81=ORIENTED_EDGE('',*,*,#185,.T.);
#82=ORIENTED_EDGE('',*,*,#186,.F.);
#83=ORIENTED_EDGE('',*,*,#187,.T.);
#84=ORIENTED_EDGE('',*,*,#188,.F.);
#85=ORIENTED_EDGE('',*,*,#189,.T.);
#86=ORIENTED_EDGE('',*,*,#190,.F.);
#87=ORIENTED_EDGE('',*,*,#191,.T.);
#88=ORIENTED_EDGE('',*,*,#192,.F.);
#89=ORIENTED_EDGE('',*,*,#193,.T.);
#90=ORIENTED_EDGE('',*,*,#188,.T.);
#91=ORIENTED_EDGE('',*,*,#194,.T.);
#92=ORIENTED_EDGE('',*,*,#195,.T.);
#93=ORIENTED_EDGE('',*,*,#196,.T.);
#94=ORIENTED_EDGE('',*,*,#197,.T.);
#95=ORIENTED_EDGE('',*,*,#198,.T.);
#96=ORIENTED_EDGE('',*,*,#199,.F.);
#97=ORIENTED_EDGE('',*,*,#200,.T.);
#98=ORIENTED_EDGE('',*,*,#201,.T.);
#99=ORIENTED_EDGE('',*,*,#202,.T.);
#100=ORIENTED_EDGE('',*,*,#192,.T.);
#101=ORIENTED_EDGE('',*,*,#203,.T.);
#102=ORIENTED_EDGE('',*,*,#204,.T.);
#103=ORIENTED_EDGE('',*,*,#205,.T.);
#104=ORIENTED_EDGE('',*,*,#206,.F.);
#105=ORIENTED_EDGE('',*,*,#207,.T.);
#106=ORIENTED_EDGE('',*,*,#182,.T.);
#107=ORIENTED_EDGE('',*,*,#208,.T.);
#108=ORIENTED_EDGE('',*,*,#197,.F.);
#109=ORIENTED_EDGE('',*,*,#209,.T.);
#110=ORIENTED_EDGE('',*,*,#184,.F.);
#111=ORIENTED_EDGE('',*,*,#210,.T.);
#112=ORIENTED_EDGE('',*,*,#206,.T.);
#113=ORIENTED_EDGE('',*,*,#211,.T.);
#114=ORIENTED_EDGE('',*,*,#204,.F.);
#115=ORIENTED_EDGE('',*,*,#212,.T.);
#116=ORIENTED_EDGE('',*,*,#186,.T.);
#117=ORIENTED_EDGE('',*,*,#213,.F.);
#118=ORIENTED_EDGE('',*,*,#214,.T.);
#119=ORIENTED_EDGE('',*,*,#215,.T.);
#120=ORIENTED_EDGE('',*,*,#214,.F.);
#121=ORIENTED_EDGE('',*,*,#178,.T.);
#122=ORIENTED_EDGE('',*,*,#216,.T.);
#123=ORIENTED_EDGE('',*,*,#217,.T.);
#124=ORIENTED_EDGE('',*,*,#216,.F.);
#125=ORIENTED_EDGE('',*,*,#179,.T.);
#126=ORIENTED_EDGE('',*,*,#218,.T.);
#127=ORIENTED_EDGE('',*,*,#218,.F.);
#128=ORIENTED_EDGE('',*,*,#215,.F.);
#129=ORIENTED_EDGE('',*,*,#219,.T.);
#130=ORIENTED_EDGE('',*,*,#219,.F.);
#131=ORIENTED_EDGE('',*,*,#217,.F.);
#132=ORIENTED_EDGE('',*,*,#220,.T.);
#133=ORIENTED_EDGE('',*,*,#196,.F.);
#134=ORIENTED_EDGE('',*,*,#221,.F.);
#135=ORIENTED_EDGE('',*,*,#220,.F.);
#136=ORIENTED_EDGE('',*,*,#222,.T.);
#137=ORIENTED_EDGE('',*,*,#195,.F.);
#138=ORIENTED_EDGE('',*,*,#223,.F.);
#139=ORIENTED_EDGE('',*,*,#222,.F.);
#140=ORIENTED_EDGE('',*,*,#224,.F.);
#141=ORIENTED_EDGE('',*,*,#224,.T.);
#142=ORIENTED_EDGE('',*,*,#221,.T.);
#143=ORIENTED_EDGE('',*,*,#225,.F.);
#144=ORIENTED_EDGE('',*,*,#225,.T.);
#145=ORIENTED_EDGE('',*,*,#223,.T.);
#146=ORIENTED_EDGE('',*,*,#199,.T.);
#147=ORIENTED_EDGE('',*,*,#226,.T.);
#148=ORIENTED_EDGE('',*,*,#180,.F.);
#149=ORIENTED_EDGE('',*,*,#227,.T.);
#150=ORIENTED_EDGE('',*,*,#201,.F.);
#151=ORIENTED_EDGE('',*,*,#228,.T.);
#152=ORIENTED_EDGE('',*,*,#190,.T.);
#153=ORIENTED_EDGE('',*,*,#229,.T.);
#154=ORIENTED_EDGE('',*,*,#205,.F.);
#155=ORIENTED_EDGE('',*,*,#213,.T.);
#156=ORIENTED_EDGE('',*,*,#185,.F.);
#157=ORIENTED_EDGE('',*,*,#211,.F.);
#158=ORIENTED_EDGE('',*,*,#198,.F.);
#159=ORIENTED_EDGE('',*,*,#208,.F.);
#160=ORIENTED_EDGE('',*,*,#181,.F.);
#161=ORIENTED_EDGE('',*,*,#226,.F.);
#162=ORIENTED_EDGE('',*,*,#200,.F.);
#163=ORIENTED_EDGE('',*,*,#227,.F.);
#164=ORIENTED_EDGE('',*,*,#191,.F.);
#165=ORIENTED_EDGE('',*,*,#228,.F.);
#166=ORIENTED_EDGE('',*,*,#202,.F.);
#167=ORIENTED_EDGE('',*,*,#229,.F.);
#168=ORIENTED_EDGE('',*,*,#189,.F.);
#169=ORIENTED_EDGE('',*,*,#193,.F.);
#170=ORIENTED_EDGE('',*,*,#187,.F.);
#171=ORIENTED_EDGE('',*,*,#212,.F.);
#172=ORIENTED_EDGE('',*,*,#203,.F.);
#173=ORIENTED_EDGE('',*,*,#194,.F.);
#174=ORIENTED_EDGE('',*,*,#183,.F.);
#175=ORIENTED_EDGE('',*,*,#209,.F.);
#176=ORIENTED_EDGE('',*,*,#207,.F.);
#177=ORIENTED_EDGE('',*,*,#210,.F.);
#178=EDGE_CURVE('',#230,#230,#270,.T.);
#179=EDGE_CURVE('',#231,#231,#271,.T.);
#180=EDGE_CURVE('',#232,#233,#26,.T.);
#181=EDGE_CURVE('',#233,#234,#272,.T.);
#182=EDGE_CURVE('',#235,#234,#27,.T.);
#183=EDGE_CURVE('',#235,#236,#273,.T.);
#184=EDGE_CURVE('',#236,#237,#28,.T.);
#185=EDGE_CURVE('',#237,#238,#274,.T.);
#186=EDGE_CURVE('',#239,#238,#29,.T.);
#187=EDGE_CURVE('',#239,#240,#275,.T.);
#188=EDGE_CURVE('',#241,#240,#30,.T.);
#189=EDGE_CURVE('',#241,#242,#276,.T.);
#190=EDGE_CURVE('',#243,#242,#31,.T.);
#191=EDGE_CURVE('',#243,#232,#277,.F.);
#192=EDGE_CURVE('',#244,#245,#32,.T.);
#193=EDGE_CURVE('',#244,#241,#33,.T.);
#194=EDGE_CURVE('',#240,#245,#34,.T.);
#195=EDGE_CURVE('',#246,#246,#278,.T.);
#196=EDGE_CURVE('',#247,#247,#279,.T.);
#197=EDGE_CURVE('',#248,#249,#35,.T.);
#198=EDGE_CURVE('',#249,#250,#280,.F.);
#199=EDGE_CURVE('',#251,#250,#36,.T.);
#200=EDGE_CURVE('',#251,#252,#281,.T.);
#201=EDGE_CURVE('',#252,#253,#37,.T.);
#202=EDGE_CURVE('',#253,#244,#282,.F.);
#203=EDGE_CURVE('',#245,#254,#283,.F.);
#204=EDGE_CURVE('',#254,#255,#38,.T.);
#205=EDGE_CURVE('',#255,#256,#284,.F.);
#206=EDGE_CURVE('',#257,#256,#39,.T.);
#207=EDGE_CURVE('',#257,#248,#285,.F.);
#208=EDGE_CURVE('',#234,#249,#40,.F.);
#209=EDGE_CURVE('',#248,#235,#41,.F.);
#210=EDGE_CURVE('',#236,#257,#42,.T.);
#211=EDGE_CURVE('',#256,#237,#43,.T.);
#212=EDGE_CURVE('',#254,#239,#44,.F.);
#213=EDGE_CURVE('',#255,#238,#45,.T.);
#214=EDGE_CURVE('',#258,#258,#286,.T.);
#215=EDGE_CURVE('',#259,#259,#287,.F.);
#216=EDGE_CURVE('',#260,#260,#288,.T.);
#217=EDGE_CURVE('',#261,#261,#289,.F.);
#218=EDGE_CURVE('',#262,#262,#290,.T.);
#219=EDGE_CURVE('',#263,#263,#291,.T.);
#220=EDGE_CURVE('',#264,#264,#292,.T.);
#221=EDGE_CURVE('',#265,#265,#293,.T.);
#222=EDGE_CURVE('',#266,#266,#294,.T.);
#223=EDGE_CURVE('',#267,#267,#295,.T.);
#224=EDGE_CURVE('',#268,#268,#296,.T.);
#225=EDGE_CURVE('',#269,#269,#297,.T.);
#226=EDGE_CURVE('',#250,#233,#46,.T.);
#227=EDGE_CURVE('',#232,#251,#47,.F.);
#228=EDGE_CURVE('',#252,#243,#48,.T.);
#229=EDGE_CURVE('',#242,#253,#49,.F.);
#230=VERTEX_POINT('',#652);
#231=VERTEX_POINT('',#654);
#232=VERTEX_POINT('',#656);
#233=VERTEX_POINT('',#657);
#234=VERTEX_POINT('',#659);
#235=VERTEX_POINT('',#661);
#236=VERTEX_POINT('',#663);
#237=VERTEX_POINT('',#665);
#238=VERTEX_POINT('',#667);
#239=VERTEX_POINT('',#669);
#240=VERTEX_POINT('',#671);
#241=VERTEX_POINT('',#673);
#242=VERTEX_POINT('',#675);
#243=VERTEX_POINT('',#677);
#244=VERTEX_POINT('',#681);
#245=VERTEX_POINT('',#682);
#246=VERTEX_POINT('',#687);
#247=VERTEX_POINT('',#689);
#248=VERTEX_POINT('',#691);
#249=VERTEX_POINT('',#692);
#250=VERTEX_POINT('',#694);
#251=VERTEX_POINT('',#696);
#252=VERTEX_POINT('',#698);
#253=VERTEX_POINT('',#700);
#254=VERTEX_POINT('',#703);
#255=VERTEX_POINT('',#705);
#256=VERTEX_POINT('',#707);
#257=VERTEX_POINT('',#709);
#258=VERTEX_POINT('',#722);
#259=VERTEX_POINT('',#724);
#260=VERTEX_POINT('',#728);
#261=VERTEX_POINT('',#730);
#262=VERTEX_POINT('',#734);
#263=VERTEX_POINT('',#738);
#264=VERTEX_POINT('',#742);
#265=VERTEX_POINT('',#745);
#266=VERTEX_POINT('',#748);
#267=VERTEX_POINT('',#751);
#268=VERTEX_POINT('',#754);
#269=VERTEX_POINT('',#758);
#270=CIRCLE('',#450,0.00275);
#271=CIRCLE('',#451,0.00275);
#272=CIRCLE('',#452,0.0025);
#273=CIRCLE('',#453,0.0025);
#274=CIRCLE('',#454,0.01125);
#275=CIRCLE('',#455,0.0025);
#276=CIRCLE('',#456,0.0025);
#277=CIRCLE('',#457,0.0025);
#278=CIRCLE('',#460,0.00275);
#279=CIRCLE('',#461,0.00275);
#280=CIRCLE('',#462,0.0025);
#281=CIRCLE('',#463,0.0025);
#282=CIRCLE('',#464,0.0025);
#283=CIRCLE('',#465,0.0025);
#284=CIRCLE('',#466,0.01125);
#285=CIRCLE('',#467,0.0025);
#286=CIRCLE('',#472,0.00275);
#287=CIRCLE('',#473,0.00235);
#288=CIRCLE('',#476,0.00275);
#289=CIRCLE('',#477,0.00235);
#290=CIRCLE('',#480,0.00235);
#291=CIRCLE('',#483,0.00235);
#292=CIRCLE('',#486,0.00275);
#293=CIRCLE('',#488,0.00235);
#294=CIRCLE('',#490,0.00275);
#295=CIRCLE('',#492,0.00235);
#296=CIRCLE('',#494,0.00235);
#297=CIRCLE('',#497,0.00235);
#298=EDGE_LOOP('',(#74));
#299=EDGE_LOOP('',(#75));
#300=EDGE_LOOP('',(#76,#77,#78,#79,#80,#81,#82,#83,#84,#85,#86,#87));
#301=EDGE_LOOP('',(#88,#89,#90,#91));
#302=EDGE_LOOP('',(#92));
#303=EDGE_LOOP('',(#93));
#304=EDGE_LOOP('',(#94,#95,#96,#97,#98,#99,#100,#101,#102,#103,#104,#105));
#305=EDGE_LOOP('',(#106,#107,#108,#109));
#306=EDGE_LOOP('',(#110,#111,#112,#113));
#307=EDGE_LOOP('',(#114,#115,#116,#117));
#308=EDGE_LOOP('',(#118));
#309=EDGE_LOOP('',(#119));
#310=EDGE_LOOP('',(#120));
#311=EDGE_LOOP('',(#121));
#312=EDGE_LOOP('',(#122));
#313=EDGE_LOOP('',(#123));
#314=EDGE_LOOP('',(#124));
#315=EDGE_LOOP('',(#125));
#316=EDGE_LOOP('',(#126));
#317=EDGE_LOOP('',(#127));
#318=EDGE_LOOP('',(#128));
#319=EDGE_LOOP('',(#129));
#320=EDGE_LOOP('',(#130));
#321=EDGE_LOOP('',(#131));
#322=EDGE_LOOP('',(#132));
#323=EDGE_LOOP('',(#133));
#324=EDGE_LOOP('',(#134));
#325=EDGE_LOOP('',(#135));
#326=EDGE_LOOP('',(#136));
#327=EDGE_LOOP('',(#137));
#328=EDGE_LOOP('',(#138));
#329=EDGE_LOOP('',(#139));
#330=EDGE_LOOP('',(#140));
#331=EDGE_LOOP('',(#141));
#332=EDGE_LOOP('',(#142));
#333=EDGE_LOOP('',(#143));
#334=EDGE_LOOP('',(#144));
#335=EDGE_LOOP('',(#145));
#336=EDGE_LOOP('',(#146,#147,#148,#149));
#337=EDGE_LOOP('',(#150,#151,#152,#153));
#338=EDGE_LOOP('',(#154,#155,#156,#157));
#339=EDGE_LOOP('',(#158,#159,#160,#161));
#340=EDGE_LOOP('',(#162,#163,#164,#165));
#341=EDGE_LOOP('',(#166,#167,#168,#169));
#342=EDGE_LOOP('',(#170,#171,#172,#173));
#343=EDGE_LOOP('',(#174,#175,#176,#177));
#344=FACE_BOUND('',#298,.T.);
#345=FACE_BOUND('',#299,.T.);
#346=FACE_BOUND('',#300,.T.);
#347=FACE_BOUND('',#301,.T.);
#348=FACE_BOUND('',#302,.T.);
#349=FACE_BOUND('',#303,.T.);
#350=FACE_BOUND('',#304,.T.);
#351=FACE_BOUND('',#305,.T.);
#352=FACE_BOUND('',#306,.T.);
#353=FACE_BOUND('',#307,.T.);
#354=FACE_BOUND('',#308,.T.);
#355=FACE_BOUND('',#309,.T.);
#356=FACE_BOUND('',#310,.T.);
#357=FACE_BOUND('',#311,.T.);
#358=FACE_BOUND('',#312,.T.);
#359=FACE_BOUND('',#313,.T.);
#360=FACE_BOUND('',#314,.T.);
#361=FACE_BOUND('',#315,.T.);
#362=FACE_BOUND('',#316,.T.);
#363=FACE_BOUND('',#317,.T.);
#364=FACE_BOUND('',#318,.T.);
#365=FACE_BOUND('',#319,.T.);
#366=FACE_BOUND('',#320,.T.);
#367=FACE_BOUND('',#321,.T.);
#368=FACE_BOUND('',#322,.T.);
#369=FACE_BOUND('',#323,.T.);
#370=FACE_BOUND('',#324,.T.);
#371=FACE_BOUND('',#325,.T.);
#372=FACE_BOUND('',#326,.T.);
#373=FACE_BOUND('',#327,.T.);
#374=FACE_BOUND('',#328,.T.);
#375=FACE_BOUND('',#329,.T.);
#376=FACE_BOUND('',#330,.T.);
#377=FACE_BOUND('',#331,.T.);
#378=FACE_BOUND('',#332,.T.);
#379=FACE_BOUND('',#333,.T.);
#380=FACE_BOUND('',#334,.T.);
#381=FACE_BOUND('',#335,.T.);
#382=FACE_BOUND('',#336,.T.);
#383=FACE_BOUND('',#337,.T.);
#384=FACE_BOUND('',#338,.T.);
#385=FACE_BOUND('',#339,.T.);
#386=FACE_BOUND('',#340,.T.);
#387=FACE_BOUND('',#341,.T.);
#388=FACE_BOUND('',#342,.T.);
#389=FACE_BOUND('',#343,.T.);
#390=PLANE('',#449);
#391=PLANE('',#458);
#392=PLANE('',#459);
#393=PLANE('',#468);
#394=PLANE('',#469);
#395=PLANE('',#470);
#396=PLANE('',#471);
#397=PLANE('',#475);
#398=PLANE('',#479);
#399=PLANE('',#482);
#400=PLANE('',#487);
#401=PLANE('',#491);
#402=PLANE('',#493);
#403=PLANE('',#496);
#404=PLANE('',#499);
#405=PLANE('',#500);
#406=ADVANCED_FACE('',(#344,#345,#346),#390,.T.);
#407=ADVANCED_FACE('',(#347),#391,.T.);
#408=ADVANCED_FACE('',(#348,#349,#350),#392,.F.);
#409=ADVANCED_FACE('',(#351),#393,.T.);
#410=ADVANCED_FACE('',(#352),#394,.F.);
#411=ADVANCED_FACE('',(#353),#395,.T.);
#412=ADVANCED_FACE('',(#354,#355),#396,.T.);
#413=ADVANCED_FACE('',(#356,#357),#12,.F.);
#414=ADVANCED_FACE('',(#358,#359),#397,.T.);
#415=ADVANCED_FACE('',(#360,#361),#13,.F.);
#416=ADVANCED_FACE('',(#362),#398,.T.);
#417=ADVANCED_FACE('',(#363,#364),#14,.F.);
#418=ADVANCED_FACE('',(#365),#399,.T.);
#419=ADVANCED_FACE('',(#366,#367),#15,.F.);
#420=ADVANCED_FACE('',(#368,#369),#16,.F.);
#421=ADVANCED_FACE('',(#370,#371),#400,.T.);
#422=ADVANCED_FACE('',(#372,#373),#17,.F.);
#423=ADVANCED_FACE('',(#374,#375),#401,.T.);
#424=ADVANCED_FACE('',(#376),#402,.T.);
#425=ADVANCED_FACE('',(#377,#378),#18,.F.);
#426=ADVANCED_FACE('',(#379),#403,.T.);
#427=ADVANCED_FACE('',(#380,#381),#19,.F.);
#428=ADVANCED_FACE('',(#382),#404,.T.);
#429=ADVANCED_FACE('',(#383),#405,.F.);
#430=ADVANCED_FACE('',(#384),#20,.T.);
#431=ADVANCED_FACE('',(#385),#21,.T.);
#432=ADVANCED_FACE('',(#386),#22,.F.);
#433=ADVANCED_FACE('',(#387),#23,.T.);
#434=ADVANCED_FACE('',(#388),#24,.T.);
#435=ADVANCED_FACE('',(#389),#25,.T.);
#436=CLOSED_SHELL('',(#406,#407,#408,#409,#410,#411,#412,#413,#414,#415,
#416,#417,#418,#419,#420,#421,#422,#423,#424,#425,#426,#427,#428,#429,#430,
#431,#432,#433,#434,#435));
#437=STYLED_ITEM('',(#438),#445);
#438=PRESENTATION_STYLE_ASSIGNMENT((#439));
#439=SURFACE_STYLE_USAGE(.BOTH.,#440);
#440=SURFACE_SIDE_STYLE('',(#441));
#441=SURFACE_STYLE_FILL_AREA(#442);
#442=FILL_AREA_STYLE('',(#443));
#443=FILL_AREA_STYLE_COLOUR('',#444);
#444=COLOUR_RGB('',0.180392156862745,0.184313725490196,0.188235294117647);
#445=MANIFOLD_SOLID_BREP('Part 1',#436);
#446=SHAPE_DEFINITION_REPRESENTATION(#778,#447);
#447=SHAPE_REPRESENTATION('Part 1',(#448),#773);
#448=AXIS2_PLACEMENT_3D('',#649,#507,#508);
#449=AXIS2_PLACEMENT_3D('',#650,#509,#510);
#450=AXIS2_PLACEMENT_3D('',#651,#511,#512);
#451=AXIS2_PLACEMENT_3D('',#653,#513,#514);
#452=AXIS2_PLACEMENT_3D('',#658,#516,#517);
#453=AXIS2_PLACEMENT_3D('',#662,#519,#520);
#454=AXIS2_PLACEMENT_3D('',#666,#522,#523);
#455=AXIS2_PLACEMENT_3D('',#670,#525,#526);
#456=AXIS2_PLACEMENT_3D('',#674,#528,#529);
#457=AXIS2_PLACEMENT_3D('',#678,#531,#532);
#458=AXIS2_PLACEMENT_3D('',#679,#533,#534);
#459=AXIS2_PLACEMENT_3D('',#685,#538,#539);
#460=AXIS2_PLACEMENT_3D('',#686,#540,#541);
#461=AXIS2_PLACEMENT_3D('',#688,#542,#543);
#462=AXIS2_PLACEMENT_3D('',#693,#545,#546);
#463=AXIS2_PLACEMENT_3D('',#697,#548,#549);
#464=AXIS2_PLACEMENT_3D('',#701,#551,#552);
#465=AXIS2_PLACEMENT_3D('',#702,#553,#554);
#466=AXIS2_PLACEMENT_3D('',#706,#556,#557);
#467=AXIS2_PLACEMENT_3D('',#710,#559,#560);
#468=AXIS2_PLACEMENT_3D('',#711,#561,#562);
#469=AXIS2_PLACEMENT_3D('',#714,#565,#566);
#470=AXIS2_PLACEMENT_3D('',#717,#569,#570);
#471=AXIS2_PLACEMENT_3D('',#720,#573,#574);
#472=AXIS2_PLACEMENT_3D('',#721,#575,#576);
#473=AXIS2_PLACEMENT_3D('',#723,#577,#578);
#474=AXIS2_PLACEMENT_3D('',#725,#579,#580);
#475=AXIS2_PLACEMENT_3D('',#726,#581,#582);
#476=AXIS2_PLACEMENT_3D('',#727,#583,#584);
#477=AXIS2_PLACEMENT_3D('',#729,#585,#586);
#478=AXIS2_PLACEMENT_3D('',#731,#587,#588);
#479=AXIS2_PLACEMENT_3D('',#732,#589,#590);
#480=AXIS2_PLACEMENT_3D('',#733,#591,#592);
#481=AXIS2_PLACEMENT_3D('',#735,#593,#594);
#482=AXIS2_PLACEMENT_3D('',#736,#595,#596);
#483=AXIS2_PLACEMENT_3D('',#737,#597,#598);
#484=AXIS2_PLACEMENT_3D('',#739,#599,#600);
#485=AXIS2_PLACEMENT_3D('',#740,#601,#602);
#486=AXIS2_PLACEMENT_3D('',#741,#603,#604);
#487=AXIS2_PLACEMENT_3D('',#743,#605,#606);
#488=AXIS2_PLACEMENT_3D('',#744,#607,#608);
#489=AXIS2_PLACEMENT_3D('',#746,#609,#610);
#490=AXIS2_PLACEMENT_3D('',#747,#611,#612);
#491=AXIS2_PLACEMENT_3D('',#749,#613,#614);
#492=AXIS2_PLACEMENT_3D('',#750,#615,#616);
#493=AXIS2_PLACEMENT_3D('',#752,#617,#618);
#494=AXIS2_PLACEMENT_3D('',#753,#619,#620);
#495=AXIS2_PLACEMENT_3D('',#755,#621,#622);
#496=AXIS2_PLACEMENT_3D('',#756,#623,#624);
#497=AXIS2_PLACEMENT_3D('',#757,#625,#626);
#498=AXIS2_PLACEMENT_3D('',#759,#627,#628);
#499=AXIS2_PLACEMENT_3D('',#760,#629,#630);
#500=AXIS2_PLACEMENT_3D('',#763,#633,#634);
#501=AXIS2_PLACEMENT_3D('',#766,#637,#638);
#502=AXIS2_PLACEMENT_3D('',#767,#639,#640);
#503=AXIS2_PLACEMENT_3D('',#768,#641,#642);
#504=AXIS2_PLACEMENT_3D('',#769,#643,#644);
#505=AXIS2_PLACEMENT_3D('',#770,#645,#646);
#506=AXIS2_PLACEMENT_3D('',#771,#647,#648);
#507=DIRECTION('',(0.,0.,1.));
#508=DIRECTION('',(1.,0.,0.));
#509=DIRECTION('',(0.,0.,1.));
#510=DIRECTION('',(1.,0.,0.));
#511=DIRECTION('',(0.,0.,1.));
#512=DIRECTION('',(1.,0.,0.));
#513=DIRECTION('',(0.,0.,1.));
#514=DIRECTION('',(1.,0.,0.));
#515=DIRECTION('',(-0.707106781186548,-0.707106781186548,0.));
#516=DIRECTION('',(0.,0.,1.));
#517=DIRECTION('',(1.,0.,0.));
#518=DIRECTION('',(-1.92747052886312E-16,1.,0.));
#519=DIRECTION('',(0.,0.,1.));
#520=DIRECTION('',(1.,0.,0.));
#521=DIRECTION('',(1.,0.,0.));
#522=DIRECTION('',(0.,0.,1.));
#523=DIRECTION('',(1.,0.,0.));
#524=DIRECTION('',(1.,0.,0.));
#525=DIRECTION('',(0.,0.,1.));
#526=DIRECTION('',(1.,0.,0.));
#527=DIRECTION('',(-1.92747052886312E-16,1.,0.));
#528=DIRECTION('',(0.,0.,1.));
#529=DIRECTION('',(1.,0.,0.));
#530=DIRECTION('',(-0.707106781186548,0.707106781186548,0.));
#531=DIRECTION('',(0.,0.,1.));
#532=DIRECTION('',(1.,0.,0.));
#533=DIRECTION('',(-1.,-1.92747052886312E-16,0.));
#534=DIRECTION('',(1.92747052886312E-16,-1.,0.));
#535=DIRECTION('',(-1.92747052886312E-16,1.,0.));
#536=DIRECTION('',(0.,0.,1.));
#537=DIRECTION('',(0.,0.,-1.));
#538=DIRECTION('',(0.,0.,1.));
#539=DIRECTION('',(1.,0.,0.));
#540=DIRECTION('',(0.,0.,1.));
#541=DIRECTION('',(1.,0.,0.));
#542=DIRECTION('',(0.,0.,1.));
#543=DIRECTION('',(1.,0.,0.));
#544=DIRECTION('',(-1.92747052886312E-16,1.,0.));
#545=DIRECTION('',(0.,0.,1.));
#546=DIRECTION('',(1.,0.,0.));
#547=DIRECTION('',(-0.707106781186548,-0.707106781186548,0.));
#548=DIRECTION('',(0.,0.,1.));
#549=DIRECTION('',(1.,0.,0.));
#550=DIRECTION('',(-0.707106781186548,0.707106781186548,0.));
#551=DIRECTION('',(0.,0.,1.));
#552=DIRECTION('',(1.,0.,0.));
#553=DIRECTION('',(0.,0.,1.));
#554=DIRECTION('',(1.,0.,0.));
#555=DIRECTION('',(1.,0.,0.));
#556=DIRECTION('',(0.,0.,1.));
#557=DIRECTION('',(1.,0.,0.));
#558=DIRECTION('',(1.,0.,0.));
#559=DIRECTION('',(0.,0.,1.));
#560=DIRECTION('',(1.,0.,0.));
#561=DIRECTION('',(-1.,-1.92747052886312E-16,0.));
#562=DIRECTION('',(1.92747052886312E-16,-1.,0.));
#563=DIRECTION('',(0.,0.,1.));
#564=DIRECTION('',(0.,0.,-1.));
#565=DIRECTION('',(0.,1.,0.));
#566=DIRECTION('',(0.,0.,1.));
#567=DIRECTION('',(0.,0.,-1.));
#568=DIRECTION('',(0.,0.,1.));
#569=DIRECTION('',(0.,1.,0.));
#570=DIRECTION('',(0.,0.,1.));
#571=DIRECTION('',(0.,0.,-1.));
#572=DIRECTION('',(0.,0.,1.));
#573=DIRECTION('',(0.,0.,1.));
#574=DIRECTION('',(1.,0.,0.));
#575=DIRECTION('',(0.,0.,1.));
#576=DIRECTION('',(1.,0.,0.));
#577=DIRECTION('',(0.,0.,1.));
#578=DIRECTION('',(1.,0.,0.));
#579=DIRECTION('',(0.,0.,1.));
#580=DIRECTION('',(1.,0.,0.));
#581=DIRECTION('',(0.,0.,1.));
#582=DIRECTION('',(1.,0.,0.));
#583=DIRECTION('',(0.,0.,1.));
#584=DIRECTION('',(1.,0.,0.));
#585=DIRECTION('',(0.,0.,1.));
#586=DIRECTION('',(1.,0.,0.));
#587=DIRECTION('',(0.,0.,1.));
#588=DIRECTION('',(1.,0.,0.));
#589=DIRECTION('',(0.,0.,1.));
#590=DIRECTION('',(1.,0.,0.));
#591=DIRECTION('',(0.,0.,1.));
#592=DIRECTION('',(1.,0.,0.));
#593=DIRECTION('',(0.,0.,1.));
#594=DIRECTION('',(1.,0.,0.));
#595=DIRECTION('',(0.,0.,1.));
#596=DIRECTION('',(1.,0.,0.));
#597=DIRECTION('',(0.,0.,1.));
#598=DIRECTION('',(1.,0.,0.));
#599=DIRECTION('',(0.,0.,1.));
#600=DIRECTION('',(1.,0.,0.));
#601=DIRECTION('',(0.,0.,-1.));
#602=DIRECTION('',(-1.,0.,0.));
#603=DIRECTION('',(0.,0.,1.));
#604=DIRECTION('',(1.,0.,0.));
#605=DIRECTION('',(0.,0.,-1.));
#606=DIRECTION('',(1.,0.,0.));
#607=DIRECTION('',(0.,0.,-1.));
#608=DIRECTION('',(-1.,0.,0.));
#609=DIRECTION('',(0.,0.,-1.));
#610=DIRECTION('',(-1.,0.,0.));
#611=DIRECTION('',(0.,0.,1.));
#612=DIRECTION('',(1.,0.,0.));
#613=DIRECTION('',(0.,0.,-1.));
#614=DIRECTION('',(1.,0.,0.));
#615=DIRECTION('',(0.,0.,-1.));
#616=DIRECTION('',(-1.,0.,0.));
#617=DIRECTION('',(0.,0.,-1.));
#618=DIRECTION('',(1.,0.,0.));
#619=DIRECTION('',(0.,0.,1.));
#620=DIRECTION('',(1.,0.,0.));
#621=DIRECTION('',(0.,0.,-1.));
#622=DIRECTION('',(-1.,0.,0.));
#623=DIRECTION('',(0.,0.,-1.));
#624=DIRECTION('',(1.,0.,0.));
#625=DIRECTION('',(0.,0.,1.));
#626=DIRECTION('',(1.,0.,0.));
#627=DIRECTION('',(0.,0.,-1.));
#628=DIRECTION('',(-1.,0.,0.));
#629=DIRECTION('',(-0.707106781186548,0.707106781186547,0.));
#630=DIRECTION('',(-0.707106781186548,-0.707106781186548,0.));
#631=DIRECTION('',(0.,0.,1.));
#632=DIRECTION('',(0.,0.,1.));
#633=DIRECTION('',(0.707106781186548,0.707106781186548,0.));
#634=DIRECTION('',(-0.707106781186548,0.707106781186548,0.));
#635=DIRECTION('',(0.,0.,1.));
#636=DIRECTION('',(0.,0.,1.));
#637=DIRECTION('',(0.,0.,1.));
#638=DIRECTION('',(1.,0.,0.));
#639=DIRECTION('',(0.,0.,1.));
#640=DIRECTION('',(1.,0.,0.));
#641=DIRECTION('',(0.,0.,1.));
#642=DIRECTION('',(1.,0.,0.));
#643=DIRECTION('',(0.,0.,-1.));
#644=DIRECTION('',(-1.,0.,0.));
#645=DIRECTION('',(0.,0.,-1.));
#646=DIRECTION('',(-1.,0.,0.));
#647=DIRECTION('',(0.,0.,1.));
#648=DIRECTION('',(1.,0.,0.));
#649=CARTESIAN_POINT('',(0.,0.,0.));
#650=CARTESIAN_POINT('',(0.,0.,0.041));
#651=CARTESIAN_POINT('',(8.67361737988404E-19,0.005,0.041));
#652=CARTESIAN_POINT('',(0.00275,0.005,0.041));
#653=CARTESIAN_POINT('',(0.,-0.005,0.041));
#654=CARTESIAN_POINT('',(0.00275,-0.005,0.041));
#655=CARTESIAN_POINT('',(-0.00175,-0.00175,0.041));
#656=CARTESIAN_POINT('',(-0.00176776695296637,-0.00176776695296637,0.041));
#657=CARTESIAN_POINT('',(-0.00276776695296637,-0.00276776695296637,0.041));
#658=CARTESIAN_POINT('',(-0.001,-0.00453553390593274,0.041));
#659=CARTESIAN_POINT('',(-0.0035,-0.00453553390593274,0.041));
#660=CARTESIAN_POINT('',(-0.0035,0.,0.041));
#661=CARTESIAN_POINT('',(-0.0035,-0.00875,0.041));
#662=CARTESIAN_POINT('',(-0.001,-0.00875,0.041));
#663=CARTESIAN_POINT('',(-0.001,-0.01125,0.041));
#664=CARTESIAN_POINT('',(1.7347234759768E-18,-0.01125,0.041));
#665=CARTESIAN_POINT('',(1.91322138944483E-18,-0.01125,0.041));
#666=CARTESIAN_POINT('',(1.91322138944483E-18,3.46944695195361E-18,0.041));
#667=CARTESIAN_POINT('',(1.91322138944483E-18,0.01125,0.041));
#668=CARTESIAN_POINT('',(-2.16840434497101E-18,0.01125,0.041));
#669=CARTESIAN_POINT('',(-0.001,0.01125,0.041));
#670=CARTESIAN_POINT('',(-0.001,0.00875,0.041));
#671=CARTESIAN_POINT('',(-0.0035,0.00875,0.041));
#672=CARTESIAN_POINT('',(-0.0035,0.,0.041));
#673=CARTESIAN_POINT('',(-0.0035,0.00453553390593274,0.041));
#674=CARTESIAN_POINT('',(-0.001,0.00453553390593274,0.041));
#675=CARTESIAN_POINT('',(-0.00276776695296637,0.00276776695296637,0.041));
#676=CARTESIAN_POINT('',(-0.00175,0.00175,0.041));
#677=CARTESIAN_POINT('',(-0.00176776695296637,0.00176776695296637,0.041));
#678=CARTESIAN_POINT('',(-0.00353553390593274,-4.37069000783219E-19,0.041));
#679=CARTESIAN_POINT('',(-0.0035,0.,0.041));
#680=CARTESIAN_POINT('',(-0.0035,0.,0.));
#681=CARTESIAN_POINT('',(-0.0035,0.00453553390593274,0.));
#682=CARTESIAN_POINT('',(-0.0035,0.00875,0.));
#683=CARTESIAN_POINT('',(-0.0035,0.00453553390593274,0.041));
#684=CARTESIAN_POINT('',(-0.0035,0.00875,0.041));
#685=CARTESIAN_POINT('',(0.,0.,0.));
#686=CARTESIAN_POINT('',(0.,-0.005,0.));
#687=CARTESIAN_POINT('',(0.00275,-0.005,0.));
#688=CARTESIAN_POINT('',(8.67361737988404E-19,0.005,0.));
#689=CARTESIAN_POINT('',(0.00275,0.005,0.));
#690=CARTESIAN_POINT('',(-0.0035,0.,0.));
#691=CARTESIAN_POINT('',(-0.0035,-0.00875,0.));
#692=CARTESIAN_POINT('',(-0.0035,-0.00453553390593274,0.));
#693=CARTESIAN_POINT('',(-0.001,-0.00453553390593274,0.));
#694=CARTESIAN_POINT('',(-0.00276776695296637,-0.00276776695296637,0.));
#695=CARTESIAN_POINT('',(3.06658683336675E-19,-3.06658683336675E-19,0.));
#696=CARTESIAN_POINT('',(-0.00176776695296637,-0.00176776695296637,0.));
#697=CARTESIAN_POINT('',(-0.00353553390593274,-4.37069000783219E-19,0.));
#698=CARTESIAN_POINT('',(-0.00176776695296637,0.00176776695296637,0.));
#699=CARTESIAN_POINT('',(-1.53329341668338E-19,-1.53329341668338E-19,0.));
#700=CARTESIAN_POINT('',(-0.00276776695296637,0.00276776695296637,0.));
#701=CARTESIAN_POINT('',(-0.001,0.00453553390593274,0.));
#702=CARTESIAN_POINT('',(-0.001,0.00875,0.));
#703=CARTESIAN_POINT('',(-0.001,0.01125,0.));
#704=CARTESIAN_POINT('',(-2.16840434497101E-18,0.01125,0.));
#705=CARTESIAN_POINT('',(1.91322138944483E-18,0.01125,0.));
#706=CARTESIAN_POINT('',(1.91322138944483E-18,3.46944695195361E-18,0.));
#707=CARTESIAN_POINT('',(1.91322138944483E-18,-0.01125,0.));
#708=CARTESIAN_POINT('',(1.7347234759768E-18,-0.01125,0.));
#709=CARTESIAN_POINT('',(-0.001,-0.01125,0.));
#710=CARTESIAN_POINT('',(-0.001,-0.00875,0.));
#711=CARTESIAN_POINT('',(-0.0035,0.,0.041));
#712=CARTESIAN_POINT('',(-0.0035,-0.00453553390593274,0.041));
#713=CARTESIAN_POINT('',(-0.0035,-0.00875,0.041));
#714=CARTESIAN_POINT('',(1.7347234759768E-18,-0.01125,0.041));
#715=CARTESIAN_POINT('',(-0.001,-0.01125,0.));
#716=CARTESIAN_POINT('',(1.91322138944483E-18,-0.01125,-2.000000000002E-6));
#717=CARTESIAN_POINT('',(-2.16840434497101E-18,0.01125,0.041));
#718=CARTESIAN_POINT('',(-0.001,0.01125,0.041));
#719=CARTESIAN_POINT('',(1.91322138944483E-18,0.01125,-2.000000000002E-6));
#720=CARTESIAN_POINT('',(0.,0.,0.0405));
#721=CARTESIAN_POINT('',(8.67361737988404E-19,0.005,0.0405));
#722=CARTESIAN_POINT('',(0.00275,0.005,0.0405));
#723=CARTESIAN_POINT('',(8.67361737988404E-19,0.005,0.0405));
#724=CARTESIAN_POINT('',(0.00235,0.005,0.0405));
#725=CARTESIAN_POINT('',(8.67361737988404E-19,0.005,0.0405));
#726=CARTESIAN_POINT('',(0.,0.,0.0405));
#727=CARTESIAN_POINT('',(0.,-0.005,0.0405));
#728=CARTESIAN_POINT('',(0.00275,-0.005,0.0405));
#729=CARTESIAN_POINT('',(0.,-0.005,0.0405));
#730=CARTESIAN_POINT('',(0.00235,-0.005,0.0405));
#731=CARTESIAN_POINT('',(0.,-0.005,0.0405));
#732=CARTESIAN_POINT('',(0.,0.,0.0348));
#733=CARTESIAN_POINT('',(8.67361737988404E-19,0.005,0.0348));
#734=CARTESIAN_POINT('',(0.00235,0.005,0.0348));
#735=CARTESIAN_POINT('',(8.67361737988404E-19,0.005,0.0348));
#736=CARTESIAN_POINT('',(0.,0.,0.0348));
#737=CARTESIAN_POINT('',(0.,-0.005,0.0348));
#738=CARTESIAN_POINT('',(0.00235,-0.005,0.0348));
#739=CARTESIAN_POINT('',(0.,-0.005,0.0348));
#740=CARTESIAN_POINT('',(8.67361737988404E-19,0.005,0.0005));
#741=CARTESIAN_POINT('',(8.67361737988404E-19,0.005,0.0005));
#742=CARTESIAN_POINT('',(0.00275,0.005,0.0005));
#743=CARTESIAN_POINT('',(0.,0.,0.0005));
#744=CARTESIAN_POINT('',(8.67361737988404E-19,0.005,0.0005));
#745=CARTESIAN_POINT('',(-0.00235,0.005,0.0005));
#746=CARTESIAN_POINT('',(0.,-0.005,0.0005));
#747=CARTESIAN_POINT('',(0.,-0.005,0.0005));
#748=CARTESIAN_POINT('',(0.00275,-0.005,0.0005));
#749=CARTESIAN_POINT('',(0.,0.,0.0005));
#750=CARTESIAN_POINT('',(0.,-0.005,0.0005));
#751=CARTESIAN_POINT('',(-0.00235,-0.005,0.0005));
#752=CARTESIAN_POINT('',(0.,0.,0.0062));
#753=CARTESIAN_POINT('',(8.67361737988404E-19,0.005,0.0062));
#754=CARTESIAN_POINT('',(0.00235,0.005,0.0062));
#755=CARTESIAN_POINT('',(8.67361737988404E-19,0.005,0.0062));
#756=CARTESIAN_POINT('',(0.,0.,0.0062));
#757=CARTESIAN_POINT('',(0.,-0.005,0.0062));
#758=CARTESIAN_POINT('',(0.00235,-0.005,0.0062));
#759=CARTESIAN_POINT('',(0.,-0.005,0.0062));
#760=CARTESIAN_POINT('',(-0.00175,-0.00175,-0.00629900506460249));
#761=CARTESIAN_POINT('',(-0.00276776695296637,-0.00276776695296637,-0.00629900506460249));
#762=CARTESIAN_POINT('',(-0.00176776695296637,-0.00176776695296637,-0.00629900506460249));
#763=CARTESIAN_POINT('',(-0.00175,0.00175,-0.00629900506460249));
#764=CARTESIAN_POINT('',(-0.00176776695296637,0.00176776695296637,-0.00629900506460249));
#765=CARTESIAN_POINT('',(-0.00276776695296637,0.00276776695296637,0.));
#766=CARTESIAN_POINT('',(1.91322138944483E-18,3.46944695195361E-18,-2.000000000002E-6));
#767=CARTESIAN_POINT('',(-0.001,-0.00453553390593274,-0.00629900506460249));
#768=CARTESIAN_POINT('',(-0.00353553390593274,-4.37069000783219E-19,-0.00629900506460249));
#769=CARTESIAN_POINT('',(-0.001,0.00453553390593274,0.041));
#770=CARTESIAN_POINT('',(-0.001,0.00875,0.041));
#771=CARTESIAN_POINT('',(-0.001,-0.00875,0.041));
#772=MECHANICAL_DESIGN_GEOMETRIC_PRESENTATION_REPRESENTATION('',(#437),
#773);
#773=(
GEOMETRIC_REPRESENTATION_CONTEXT(3)
GLOBAL_UNCERTAINTY_ASSIGNED_CONTEXT((#774))
GLOBAL_UNIT_ASSIGNED_CONTEXT((#777,#776,#775))
REPRESENTATION_CONTEXT('Part 1','TOP_LEVEL_ASSEMBLY_PART')
);
#774=UNCERTAINTY_MEASURE_WITH_UNIT(LENGTH_MEASURE(1.E-8),#777,
'DISTANCE_ACCURACY_VALUE','Maximum Tolerance applied to model');
#775=(
NAMED_UNIT(*)
SI_UNIT($,.STERADIAN.)
SOLID_ANGLE_UNIT()
);
#776=(
NAMED_UNIT(*)
PLANE_ANGLE_UNIT()
SI_UNIT($,.RADIAN.)
);
#777=(
LENGTH_UNIT()
NAMED_UNIT(*)
SI_UNIT($,.METRE.)
);
#778=PRODUCT_DEFINITION_SHAPE('','',#779);
#779=PRODUCT_DEFINITION('','',#781,#780);
#780=PRODUCT_DEFINITION_CONTEXT('',#787,'design');
#781=PRODUCT_DEFINITION_FORMATION_WITH_SPECIFIED_SOURCE('','',#783,
 .NOT_KNOWN.);
#782=PRODUCT_RELATED_PRODUCT_CATEGORY('','',(#783));
#783=PRODUCT('Part 1','Part 1','Part 1',(#785));
#784=PRODUCT_CATEGORY('','');
#785=PRODUCT_CONTEXT('',#787,'mechanical');
#786=APPLICATION_PROTOCOL_DEFINITION('international standard',
'ap242_managed_model_based_3d_engineering',2011,#787);
#787=APPLICATION_CONTEXT('managed model based 3d engineering');
ENDSEC;
END-ISO-10303-21;
