ISO-10303-21;
HEADER;
/* Generated by software containing ST-Developer
 * from STEP Tools, Inc. (www.steptools.com) 
 */
/* OPTION: using custom renumber hook */

FILE_DESCRIPTION(
/* description */ ('STEP AP242',
'CAx-IF Rec.Pracs.---Representation and Presentation of Product Manufa
cturing Information (PMI)---4.0---2014-10-13',
'CAx-IF Rec.Pracs.---3D Tessellated Geometry---0.4---2014-09-14','2;1'),

/* implementation_level */ '2;1');

FILE_NAME(
/* name */ '68740135d1955a75fb7b32c4',
/* time_stamp */ '2025-07-13T18:55:49Z',
/* author */ (''),
/* organization */ (''),
/* preprocessor_version */ 'ST-DEVELOPER v20',
/* originating_system */ 'ONSHAPE BY PTC INC, 1.200',
/* authorisation */ '  ');

FILE_SCHEMA (('AP242_MANAGED_MODEL_BASED_3D_ENGINEERING_MIM_LF { 1 0 10303 442 1 1 4 }'));
ENDSEC;

DATA;
#10=SHAPE_REPRESENTATION_RELATIONSHIP('','',#728,#11);
#11=ADVANCED_BREP_SHAPE_REPRESENTATION('',(#726),#1237);
#12=ELLIPSE('',#791,0.00282842712474619,0.002);
#13=ELLIPSE('',#793,0.00282842712474619,0.002);
#14=ELLIPSE('',#795,0.00282842712474619,0.002);
#15=ELLIPSE('',#797,0.00282842712474619,0.002);
#16=LINE('',#1031,#80);
#17=LINE('',#1034,#81);
#18=LINE('',#1036,#82);
#19=LINE('',#1045,#83);
#20=LINE('',#1048,#84);
#21=LINE('',#1050,#85);
#22=LINE('',#1052,#86);
#23=LINE('',#1056,#87);
#24=LINE('',#1058,#88);
#25=LINE('',#1063,#89);
#26=LINE('',#1067,#90);
#27=LINE('',#1072,#91);
#28=LINE('',#1076,#92);
#29=LINE('',#1079,#93);
#30=LINE('',#1081,#94);
#31=LINE('',#1083,#95);
#32=LINE('',#1084,#96);
#33=LINE('',#1086,#97);
#34=LINE('',#1091,#98);
#35=LINE('',#1095,#99);
#36=LINE('',#1100,#100);
#37=LINE('',#1104,#101);
#38=LINE('',#1107,#102);
#39=LINE('',#1110,#103);
#40=LINE('',#1112,#104);
#41=LINE('',#1114,#105);
#42=LINE('',#1116,#106);
#43=LINE('',#1118,#107);
#44=LINE('',#1119,#108);
#45=LINE('',#1121,#109);
#46=LINE('',#1123,#110);
#47=LINE('',#1125,#111);
#48=LINE('',#1127,#112);
#49=LINE('',#1129,#113);
#50=LINE('',#1130,#114);
#51=LINE('',#1132,#115);
#52=LINE('',#1134,#116);
#53=LINE('',#1138,#117);
#54=LINE('',#1141,#118);
#55=LINE('',#1142,#119);
#56=LINE('',#1144,#120);
#57=LINE('',#1147,#121);
#58=LINE('',#1148,#122);
#59=LINE('',#1150,#123);
#60=LINE('',#1152,#124);
#61=LINE('',#1153,#125);
#62=LINE('',#1160,#126);
#63=LINE('',#1161,#127);
#64=LINE('',#1165,#128);
#65=LINE('',#1167,#129);
#66=LINE('',#1168,#130);
#67=LINE('',#1169,#131);
#68=LINE('',#1198,#132);
#69=LINE('',#1200,#133);
#70=LINE('',#1202,#134);
#71=LINE('',#1204,#135);
#72=LINE('',#1206,#136);
#73=LINE('',#1208,#137);
#74=LINE('',#1210,#138);
#75=LINE('',#1212,#139);
#76=LINE('',#1214,#140);
#77=LINE('',#1216,#141);
#78=LINE('',#1218,#142);
#79=LINE('',#1220,#143);
#80=VECTOR('',#812,1.);
#81=VECTOR('',#813,1.);
#82=VECTOR('',#814,1.);
#83=VECTOR('',#825,1.);
#84=VECTOR('',#826,1.);
#85=VECTOR('',#827,1.);
#86=VECTOR('',#828,1.);
#87=VECTOR('',#831,1.);
#88=VECTOR('',#834,1.);
#89=VECTOR('',#837,1.);
#90=VECTOR('',#840,1.);
#91=VECTOR('',#845,1.);
#92=VECTOR('',#850,1.);
#93=VECTOR('',#851,1.);
#94=VECTOR('',#852,1.);
#95=VECTOR('',#853,1.);
#96=VECTOR('',#854,1.);
#97=VECTOR('',#857,1.);
#98=VECTOR('',#860,1.);
#99=VECTOR('',#863,1.);
#100=VECTOR('',#868,1.);
#101=VECTOR('',#873,1.);
#102=VECTOR('',#878,1.);
#103=VECTOR('',#879,1.);
#104=VECTOR('',#880,1.);
#105=VECTOR('',#881,1.);
#106=VECTOR('',#882,1.);
#107=VECTOR('',#883,1.);
#108=VECTOR('',#884,1.);
#109=VECTOR('',#885,1.);
#110=VECTOR('',#886,1.);
#111=VECTOR('',#889,1.);
#112=VECTOR('',#890,1.);
#113=VECTOR('',#891,1.);
#114=VECTOR('',#892,1.);
#115=VECTOR('',#893,1.);
#116=VECTOR('',#894,1.);
#117=VECTOR('',#899,1.);
#118=VECTOR('',#900,1.);
#119=VECTOR('',#901,1.);
#120=VECTOR('',#904,1.);
#121=VECTOR('',#905,1.);
#122=VECTOR('',#906,1.);
#123=VECTOR('',#907,1.);
#124=VECTOR('',#908,1.);
#125=VECTOR('',#909,1.);
#126=VECTOR('',#922,1.);
#127=VECTOR('',#923,1.);
#128=VECTOR('',#926,1.);
#129=VECTOR('',#929,1.);
#130=VECTOR('',#930,1.);
#131=VECTOR('',#931,1.);
#132=VECTOR('',#954,1.);
#133=VECTOR('',#955,1.);
#134=VECTOR('',#956,1.);
#135=VECTOR('',#959,1.);
#136=VECTOR('',#960,1.);
#137=VECTOR('',#963,1.);
#138=VECTOR('',#964,1.);
#139=VECTOR('',#967,1.);
#140=VECTOR('',#968,1.);
#141=VECTOR('',#971,1.);
#142=VECTOR('',#972,1.);
#143=VECTOR('',#975,1.);
#144=PLANE('',#734);
#145=PLANE('',#739);
#146=PLANE('',#741);
#147=PLANE('',#747);
#148=PLANE('',#748);
#149=PLANE('',#754);
#150=PLANE('',#756);
#151=PLANE('',#757);
#152=PLANE('',#758);
#153=PLANE('',#760);
#154=PLANE('',#761);
#155=PLANE('',#766);
#156=PLANE('',#768);
#157=PLANE('',#771);
#158=PLANE('',#777);
#159=PLANE('',#779);
#160=PLANE('',#780);
#161=PLANE('',#781);
#162=PLANE('',#782);
#163=PLANE('',#783);
#164=PLANE('',#784);
#165=PLANE('',#785);
#166=PLANE('',#798);
#167=PLANE('',#799);
#168=CIRCLE('',#731,0.00225);
#169=CIRCLE('',#732,0.00225);
#170=CIRCLE('',#733,0.00225);
#171=CIRCLE('',#735,0.0031);
#172=CIRCLE('',#737,0.0021);
#173=CIRCLE('',#738,0.0021);
#174=CIRCLE('',#740,0.00225);
#175=CIRCLE('',#742,0.002);
#176=CIRCLE('',#743,0.002);
#177=CIRCLE('',#744,0.0031);
#178=CIRCLE('',#745,0.002);
#179=CIRCLE('',#746,0.002);
#180=CIRCLE('',#749,0.002);
#181=CIRCLE('',#750,0.002);
#182=CIRCLE('',#751,0.002);
#183=CIRCLE('',#752,0.0031);
#184=CIRCLE('',#753,0.002);
#185=CIRCLE('',#755,0.0031);
#186=CIRCLE('',#759,0.003);
#187=CIRCLE('',#762,0.002);
#188=CIRCLE('',#763,0.002);
#189=CIRCLE('',#764,0.002);
#190=CIRCLE('',#765,0.002);
#191=CIRCLE('',#767,0.00225);
#192=CIRCLE('',#770,0.00225);
#193=CIRCLE('',#772,0.003);
#194=CIRCLE('',#776,0.0031);
#195=ORIENTED_EDGE('',*,*,#393,.F.);
#196=ORIENTED_EDGE('',*,*,#394,.T.);
#197=ORIENTED_EDGE('',*,*,#395,.F.);
#198=ORIENTED_EDGE('',*,*,#396,.T.);
#199=ORIENTED_EDGE('',*,*,#397,.F.);
#200=ORIENTED_EDGE('',*,*,#398,.T.);
#201=ORIENTED_EDGE('',*,*,#399,.T.);
#202=ORIENTED_EDGE('',*,*,#400,.F.);
#203=ORIENTED_EDGE('',*,*,#401,.F.);
#204=ORIENTED_EDGE('',*,*,#402,.F.);
#205=ORIENTED_EDGE('',*,*,#403,.T.);
#206=ORIENTED_EDGE('',*,*,#404,.F.);
#207=ORIENTED_EDGE('',*,*,#405,.T.);
#208=ORIENTED_EDGE('',*,*,#406,.T.);
#209=ORIENTED_EDGE('',*,*,#407,.F.);
#210=ORIENTED_EDGE('',*,*,#408,.T.);
#211=ORIENTED_EDGE('',*,*,#409,.F.);
#212=ORIENTED_EDGE('',*,*,#410,.T.);
#213=ORIENTED_EDGE('',*,*,#411,.T.);
#214=ORIENTED_EDGE('',*,*,#412,.F.);
#215=ORIENTED_EDGE('',*,*,#413,.T.);
#216=ORIENTED_EDGE('',*,*,#414,.F.);
#217=ORIENTED_EDGE('',*,*,#415,.T.);
#218=ORIENTED_EDGE('',*,*,#406,.F.);
#219=ORIENTED_EDGE('',*,*,#416,.T.);
#220=ORIENTED_EDGE('',*,*,#417,.T.);
#221=ORIENTED_EDGE('',*,*,#418,.T.);
#222=ORIENTED_EDGE('',*,*,#419,.F.);
#223=ORIENTED_EDGE('',*,*,#420,.T.);
#224=ORIENTED_EDGE('',*,*,#421,.T.);
#225=ORIENTED_EDGE('',*,*,#422,.T.);
#226=ORIENTED_EDGE('',*,*,#394,.F.);
#227=ORIENTED_EDGE('',*,*,#423,.T.);
#228=ORIENTED_EDGE('',*,*,#424,.F.);
#229=ORIENTED_EDGE('',*,*,#425,.T.);
#230=ORIENTED_EDGE('',*,*,#426,.F.);
#231=ORIENTED_EDGE('',*,*,#427,.T.);
#232=ORIENTED_EDGE('',*,*,#428,.T.);
#233=ORIENTED_EDGE('',*,*,#429,.T.);
#234=ORIENTED_EDGE('',*,*,#419,.T.);
#235=ORIENTED_EDGE('',*,*,#430,.T.);
#236=ORIENTED_EDGE('',*,*,#431,.T.);
#237=ORIENTED_EDGE('',*,*,#432,.T.);
#238=ORIENTED_EDGE('',*,*,#421,.F.);
#239=ORIENTED_EDGE('',*,*,#433,.T.);
#240=ORIENTED_EDGE('',*,*,#404,.T.);
#241=ORIENTED_EDGE('',*,*,#434,.F.);
#242=ORIENTED_EDGE('',*,*,#435,.F.);
#243=ORIENTED_EDGE('',*,*,#436,.F.);
#244=ORIENTED_EDGE('',*,*,#437,.F.);
#245=ORIENTED_EDGE('',*,*,#438,.F.);
#246=ORIENTED_EDGE('',*,*,#439,.F.);
#247=ORIENTED_EDGE('',*,*,#440,.F.);
#248=ORIENTED_EDGE('',*,*,#426,.T.);
#249=ORIENTED_EDGE('',*,*,#441,.T.);
#250=ORIENTED_EDGE('',*,*,#442,.F.);
#251=ORIENTED_EDGE('',*,*,#443,.T.);
#252=ORIENTED_EDGE('',*,*,#444,.T.);
#253=ORIENTED_EDGE('',*,*,#445,.T.);
#254=ORIENTED_EDGE('',*,*,#446,.T.);
#255=ORIENTED_EDGE('',*,*,#428,.F.);
#256=ORIENTED_EDGE('',*,*,#447,.T.);
#257=ORIENTED_EDGE('',*,*,#448,.T.);
#258=ORIENTED_EDGE('',*,*,#449,.T.);
#259=ORIENTED_EDGE('',*,*,#417,.F.);
#260=ORIENTED_EDGE('',*,*,#450,.T.);
#261=ORIENTED_EDGE('',*,*,#451,.T.);
#262=ORIENTED_EDGE('',*,*,#452,.T.);
#263=ORIENTED_EDGE('',*,*,#410,.F.);
#264=ORIENTED_EDGE('',*,*,#453,.T.);
#265=ORIENTED_EDGE('',*,*,#454,.T.);
#266=ORIENTED_EDGE('',*,*,#455,.T.);
#267=ORIENTED_EDGE('',*,*,#412,.T.);
#268=ORIENTED_EDGE('',*,*,#456,.T.);
#269=ORIENTED_EDGE('',*,*,#457,.F.);
#270=ORIENTED_EDGE('',*,*,#458,.T.);
#271=ORIENTED_EDGE('',*,*,#424,.T.);
#272=ORIENTED_EDGE('',*,*,#459,.T.);
#273=ORIENTED_EDGE('',*,*,#442,.T.);
#274=ORIENTED_EDGE('',*,*,#460,.T.);
#275=ORIENTED_EDGE('',*,*,#457,.T.);
#276=ORIENTED_EDGE('',*,*,#461,.T.);
#277=ORIENTED_EDGE('',*,*,#451,.F.);
#278=ORIENTED_EDGE('',*,*,#462,.T.);
#279=ORIENTED_EDGE('',*,*,#448,.F.);
#280=ORIENTED_EDGE('',*,*,#463,.T.);
#281=ORIENTED_EDGE('',*,*,#402,.T.);
#282=ORIENTED_EDGE('',*,*,#414,.T.);
#283=ORIENTED_EDGE('',*,*,#464,.T.);
#284=ORIENTED_EDGE('',*,*,#398,.F.);
#285=ORIENTED_EDGE('',*,*,#465,.F.);
#286=ORIENTED_EDGE('',*,*,#466,.T.);
#287=ORIENTED_EDGE('',*,*,#467,.F.);
#288=ORIENTED_EDGE('',*,*,#400,.T.);
#289=ORIENTED_EDGE('',*,*,#468,.T.);
#290=ORIENTED_EDGE('',*,*,#431,.F.);
#291=ORIENTED_EDGE('',*,*,#469,.T.);
#292=ORIENTED_EDGE('',*,*,#396,.F.);
#293=ORIENTED_EDGE('',*,*,#470,.T.);
#294=ORIENTED_EDGE('',*,*,#471,.F.);
#295=ORIENTED_EDGE('',*,*,#408,.F.);
#296=ORIENTED_EDGE('',*,*,#472,.F.);
#297=ORIENTED_EDGE('',*,*,#466,.F.);
#298=ORIENTED_EDGE('',*,*,#473,.F.);
#299=ORIENTED_EDGE('',*,*,#473,.T.);
#300=ORIENTED_EDGE('',*,*,#474,.F.);
#301=ORIENTED_EDGE('',*,*,#474,.T.);
#302=ORIENTED_EDGE('',*,*,#450,.F.);
#303=ORIENTED_EDGE('',*,*,#407,.T.);
#304=ORIENTED_EDGE('',*,*,#415,.F.);
#305=ORIENTED_EDGE('',*,*,#467,.T.);
#306=ORIENTED_EDGE('',*,*,#472,.T.);
#307=ORIENTED_EDGE('',*,*,#395,.T.);
#308=ORIENTED_EDGE('',*,*,#422,.F.);
#309=ORIENTED_EDGE('',*,*,#434,.T.);
#310=ORIENTED_EDGE('',*,*,#409,.T.);
#311=ORIENTED_EDGE('',*,*,#471,.T.);
#312=ORIENTED_EDGE('',*,*,#465,.T.);
#313=ORIENTED_EDGE('',*,*,#401,.T.);
#314=ORIENTED_EDGE('',*,*,#470,.F.);
#315=ORIENTED_EDGE('',*,*,#475,.F.);
#316=ORIENTED_EDGE('',*,*,#403,.F.);
#317=ORIENTED_EDGE('',*,*,#475,.T.);
#318=ORIENTED_EDGE('',*,*,#393,.T.);
#319=ORIENTED_EDGE('',*,*,#469,.F.);
#320=ORIENTED_EDGE('',*,*,#430,.F.);
#321=ORIENTED_EDGE('',*,*,#423,.F.);
#322=ORIENTED_EDGE('',*,*,#435,.T.);
#323=ORIENTED_EDGE('',*,*,#476,.F.);
#324=ORIENTED_EDGE('',*,*,#477,.F.);
#325=ORIENTED_EDGE('',*,*,#478,.T.);
#326=ORIENTED_EDGE('',*,*,#440,.T.);
#327=ORIENTED_EDGE('',*,*,#479,.F.);
#328=ORIENTED_EDGE('',*,*,#480,.F.);
#329=ORIENTED_EDGE('',*,*,#476,.T.);
#330=ORIENTED_EDGE('',*,*,#439,.T.);
#331=ORIENTED_EDGE('',*,*,#481,.F.);
#332=ORIENTED_EDGE('',*,*,#482,.F.);
#333=ORIENTED_EDGE('',*,*,#479,.T.);
#334=ORIENTED_EDGE('',*,*,#438,.T.);
#335=ORIENTED_EDGE('',*,*,#483,.F.);
#336=ORIENTED_EDGE('',*,*,#484,.F.);
#337=ORIENTED_EDGE('',*,*,#481,.T.);
#338=ORIENTED_EDGE('',*,*,#437,.T.);
#339=ORIENTED_EDGE('',*,*,#485,.F.);
#340=ORIENTED_EDGE('',*,*,#486,.F.);
#341=ORIENTED_EDGE('',*,*,#483,.T.);
#342=ORIENTED_EDGE('',*,*,#436,.T.);
#343=ORIENTED_EDGE('',*,*,#478,.F.);
#344=ORIENTED_EDGE('',*,*,#487,.F.);
#345=ORIENTED_EDGE('',*,*,#485,.T.);
#346=ORIENTED_EDGE('',*,*,#397,.T.);
#347=ORIENTED_EDGE('',*,*,#477,.T.);
#348=ORIENTED_EDGE('',*,*,#480,.T.);
#349=ORIENTED_EDGE('',*,*,#482,.T.);
#350=ORIENTED_EDGE('',*,*,#484,.T.);
#351=ORIENTED_EDGE('',*,*,#486,.T.);
#352=ORIENTED_EDGE('',*,*,#487,.T.);
#353=ORIENTED_EDGE('',*,*,#425,.F.);
#354=ORIENTED_EDGE('',*,*,#458,.F.);
#355=ORIENTED_EDGE('',*,*,#460,.F.);
#356=ORIENTED_EDGE('',*,*,#441,.F.);
#357=ORIENTED_EDGE('',*,*,#427,.F.);
#358=ORIENTED_EDGE('',*,*,#443,.F.);
#359=ORIENTED_EDGE('',*,*,#463,.F.);
#360=ORIENTED_EDGE('',*,*,#447,.F.);
#361=ORIENTED_EDGE('',*,*,#411,.F.);
#362=ORIENTED_EDGE('',*,*,#452,.F.);
#363=ORIENTED_EDGE('',*,*,#461,.F.);
#364=ORIENTED_EDGE('',*,*,#456,.F.);
#365=ORIENTED_EDGE('',*,*,#418,.F.);
#366=ORIENTED_EDGE('',*,*,#449,.F.);
#367=ORIENTED_EDGE('',*,*,#462,.F.);
#368=ORIENTED_EDGE('',*,*,#453,.F.);
#369=ORIENTED_EDGE('',*,*,#416,.F.);
#370=ORIENTED_EDGE('',*,*,#405,.F.);
#371=ORIENTED_EDGE('',*,*,#488,.T.);
#372=ORIENTED_EDGE('',*,*,#444,.F.);
#373=ORIENTED_EDGE('',*,*,#429,.F.);
#374=ORIENTED_EDGE('',*,*,#446,.F.);
#375=ORIENTED_EDGE('',*,*,#489,.T.);
#376=ORIENTED_EDGE('',*,*,#420,.F.);
#377=ORIENTED_EDGE('',*,*,#432,.F.);
#378=ORIENTED_EDGE('',*,*,#468,.F.);
#379=ORIENTED_EDGE('',*,*,#490,.T.);
#380=ORIENTED_EDGE('',*,*,#459,.F.);
#381=ORIENTED_EDGE('',*,*,#413,.F.);
#382=ORIENTED_EDGE('',*,*,#455,.F.);
#383=ORIENTED_EDGE('',*,*,#491,.T.);
#384=ORIENTED_EDGE('',*,*,#464,.F.);
#385=ORIENTED_EDGE('',*,*,#490,.F.);
#386=ORIENTED_EDGE('',*,*,#399,.F.);
#387=ORIENTED_EDGE('',*,*,#491,.F.);
#388=ORIENTED_EDGE('',*,*,#454,.F.);
#389=ORIENTED_EDGE('',*,*,#489,.F.);
#390=ORIENTED_EDGE('',*,*,#445,.F.);
#391=ORIENTED_EDGE('',*,*,#488,.F.);
#392=ORIENTED_EDGE('',*,*,#433,.F.);
#393=EDGE_CURVE('',#492,#493,#559,.T.);
#394=EDGE_CURVE('',#492,#494,#168,.F.);
#395=EDGE_CURVE('',#495,#494,#560,.T.);
#396=EDGE_CURVE('',#495,#493,#169,.F.);
#397=EDGE_CURVE('',#496,#496,#170,.F.);
#398=EDGE_CURVE('',#497,#498,#16,.T.);
#399=EDGE_CURVE('',#498,#499,#17,.T.);
#400=EDGE_CURVE('',#500,#499,#18,.T.);
#401=EDGE_CURVE('',#497,#500,#171,.T.);
#402=EDGE_CURVE('',#501,#501,#172,.T.);
#403=EDGE_CURVE('',#502,#502,#173,.T.);
#404=EDGE_CURVE('',#503,#504,#19,.T.);
#405=EDGE_CURVE('',#503,#505,#20,.F.);
#406=EDGE_CURVE('',#505,#506,#21,.T.);
#407=EDGE_CURVE('',#507,#506,#22,.T.);
#408=EDGE_CURVE('',#507,#508,#174,.F.);
#409=EDGE_CURVE('',#504,#508,#23,.T.);
#410=EDGE_CURVE('',#509,#510,#24,.T.);
#411=EDGE_CURVE('',#510,#511,#175,.T.);
#412=EDGE_CURVE('',#512,#511,#25,.T.);
#413=EDGE_CURVE('',#512,#513,#176,.T.);
#414=EDGE_CURVE('',#514,#513,#26,.T.);
#415=EDGE_CURVE('',#514,#506,#177,.F.);
#416=EDGE_CURVE('',#505,#515,#178,.T.);
#417=EDGE_CURVE('',#515,#516,#27,.T.);
#418=EDGE_CURVE('',#516,#509,#179,.T.);
#419=EDGE_CURVE('',#517,#518,#28,.T.);
#420=EDGE_CURVE('',#517,#519,#29,.T.);
#421=EDGE_CURVE('',#519,#520,#30,.T.);
#422=EDGE_CURVE('',#520,#494,#31,.T.);
#423=EDGE_CURVE('',#492,#518,#32,.T.);
#424=EDGE_CURVE('',#521,#522,#33,.T.);
#425=EDGE_CURVE('',#521,#523,#180,.T.);
#426=EDGE_CURVE('',#524,#523,#34,.T.);
#427=EDGE_CURVE('',#524,#525,#181,.T.);
#428=EDGE_CURVE('',#525,#526,#35,.T.);
#429=EDGE_CURVE('',#526,#517,#182,.T.);
#430=EDGE_CURVE('',#518,#527,#183,.F.);
#431=EDGE_CURVE('',#527,#528,#36,.T.);
#432=EDGE_CURVE('',#528,#522,#184,.T.);
#433=EDGE_CURVE('',#519,#503,#37,.T.);
#434=EDGE_CURVE('',#520,#504,#185,.T.);
#435=EDGE_CURVE('',#529,#530,#38,.T.);
#436=EDGE_CURVE('',#531,#529,#39,.T.);
#437=EDGE_CURVE('',#532,#531,#40,.T.);
#438=EDGE_CURVE('',#533,#532,#41,.T.);
#439=EDGE_CURVE('',#534,#533,#42,.T.);
#440=EDGE_CURVE('',#530,#534,#43,.T.);
#441=EDGE_CURVE('',#523,#535,#44,.T.);
#442=EDGE_CURVE('',#536,#535,#45,.T.);
#443=EDGE_CURVE('',#536,#524,#46,.F.);
#444=EDGE_CURVE('',#515,#537,#47,.T.);
#445=EDGE_CURVE('',#537,#538,#48,.T.);
#446=EDGE_CURVE('',#538,#526,#49,.F.);
#447=EDGE_CURVE('',#525,#539,#50,.T.);
#448=EDGE_CURVE('',#539,#540,#51,.T.);
#449=EDGE_CURVE('',#540,#516,#52,.F.);
#450=EDGE_CURVE('',#541,#541,#186,.T.);
#451=EDGE_CURVE('',#542,#543,#53,.T.);
#452=EDGE_CURVE('',#543,#510,#54,.F.);
#453=EDGE_CURVE('',#509,#542,#55,.T.);
#454=EDGE_CURVE('',#544,#545,#56,.T.);
#455=EDGE_CURVE('',#545,#512,#57,.F.);
#456=EDGE_CURVE('',#511,#546,#58,.T.);
#457=EDGE_CURVE('',#547,#546,#59,.T.);
#458=EDGE_CURVE('',#547,#521,#60,.F.);
#459=EDGE_CURVE('',#522,#544,#61,.T.);
#460=EDGE_CURVE('',#535,#547,#187,.F.);
#461=EDGE_CURVE('',#546,#543,#188,.F.);
#462=EDGE_CURVE('',#542,#540,#189,.F.);
#463=EDGE_CURVE('',#539,#536,#190,.F.);
#464=EDGE_CURVE('',#513,#498,#62,.T.);
#465=EDGE_CURVE('',#548,#497,#63,.F.);
#466=EDGE_CURVE('',#548,#549,#191,.F.);
#467=EDGE_CURVE('',#514,#549,#64,.F.);
#468=EDGE_CURVE('',#499,#528,#65,.F.);
#469=EDGE_CURVE('',#527,#493,#66,.F.);
#470=EDGE_CURVE('',#495,#500,#67,.F.);
#471=EDGE_CURVE('',#508,#548,#561,.T.);
#472=EDGE_CURVE('',#549,#507,#562,.T.);
#473=EDGE_CURVE('',#550,#550,#192,.T.);
#474=EDGE_CURVE('',#551,#551,#193,.T.);
#475=EDGE_CURVE('',#552,#552,#194,.T.);
#476=EDGE_CURVE('',#553,#530,#68,.T.);
#477=EDGE_CURVE('',#554,#553,#69,.T.);
#478=EDGE_CURVE('',#554,#529,#70,.T.);
#479=EDGE_CURVE('',#555,#534,#71,.T.);
#480=EDGE_CURVE('',#553,#555,#72,.T.);
#481=EDGE_CURVE('',#556,#533,#73,.T.);
#482=EDGE_CURVE('',#555,#556,#74,.T.);
#483=EDGE_CURVE('',#557,#532,#75,.T.);
#484=EDGE_CURVE('',#556,#557,#76,.T.);
#485=EDGE_CURVE('',#558,#531,#77,.T.);
#486=EDGE_CURVE('',#557,#558,#78,.T.);
#487=EDGE_CURVE('',#558,#554,#79,.T.);
#488=EDGE_CURVE('',#503,#537,#12,.T.);
#489=EDGE_CURVE('',#538,#519,#13,.T.);
#490=EDGE_CURVE('',#499,#544,#14,.F.);
#491=EDGE_CURVE('',#545,#498,#15,.F.);
#492=VERTEX_POINT('',#1015);
#493=VERTEX_POINT('',#1016);
#494=VERTEX_POINT('',#1018);
#495=VERTEX_POINT('',#1026);
#496=VERTEX_POINT('',#1029);
#497=VERTEX_POINT('',#1032);
#498=VERTEX_POINT('',#1033);
#499=VERTEX_POINT('',#1035);
#500=VERTEX_POINT('',#1037);
#501=VERTEX_POINT('',#1041);
#502=VERTEX_POINT('',#1043);
#503=VERTEX_POINT('',#1046);
#504=VERTEX_POINT('',#1047);
#505=VERTEX_POINT('',#1049);
#506=VERTEX_POINT('',#1051);
#507=VERTEX_POINT('',#1053);
#508=VERTEX_POINT('',#1055);
#509=VERTEX_POINT('',#1059);
#510=VERTEX_POINT('',#1060);
#511=VERTEX_POINT('',#1062);
#512=VERTEX_POINT('',#1064);
#513=VERTEX_POINT('',#1066);
#514=VERTEX_POINT('',#1068);
#515=VERTEX_POINT('',#1071);
#516=VERTEX_POINT('',#1073);
#517=VERTEX_POINT('',#1077);
#518=VERTEX_POINT('',#1078);
#519=VERTEX_POINT('',#1080);
#520=VERTEX_POINT('',#1082);
#521=VERTEX_POINT('',#1087);
#522=VERTEX_POINT('',#1088);
#523=VERTEX_POINT('',#1090);
#524=VERTEX_POINT('',#1092);
#525=VERTEX_POINT('',#1094);
#526=VERTEX_POINT('',#1096);
#527=VERTEX_POINT('',#1099);
#528=VERTEX_POINT('',#1101);
#529=VERTEX_POINT('',#1108);
#530=VERTEX_POINT('',#1109);
#531=VERTEX_POINT('',#1111);
#532=VERTEX_POINT('',#1113);
#533=VERTEX_POINT('',#1115);
#534=VERTEX_POINT('',#1117);
#535=VERTEX_POINT('',#1120);
#536=VERTEX_POINT('',#1122);
#537=VERTEX_POINT('',#1126);
#538=VERTEX_POINT('',#1128);
#539=VERTEX_POINT('',#1131);
#540=VERTEX_POINT('',#1133);
#541=VERTEX_POINT('',#1137);
#542=VERTEX_POINT('',#1139);
#543=VERTEX_POINT('',#1140);
#544=VERTEX_POINT('',#1145);
#545=VERTEX_POINT('',#1146);
#546=VERTEX_POINT('',#1149);
#547=VERTEX_POINT('',#1151);
#548=VERTEX_POINT('',#1162);
#549=VERTEX_POINT('',#1164);
#550=VERTEX_POINT('',#1186);
#551=VERTEX_POINT('',#1189);
#552=VERTEX_POINT('',#1194);
#553=VERTEX_POINT('',#1199);
#554=VERTEX_POINT('',#1201);
#555=VERTEX_POINT('',#1205);
#556=VERTEX_POINT('',#1209);
#557=VERTEX_POINT('',#1213);
#558=VERTEX_POINT('',#1217);
#559=B_SPLINE_CURVE_WITH_KNOTS('',3,(#1008,#1009,#1010,#1011,#1012,#1013,
#1014),.UNSPECIFIED.,.F.,.F.,(4,1,1,1,4),(0.,0.00111484100229526,0.00222968200459051,
0.00334452300688577,0.00445936400918103),.UNSPECIFIED.);
#560=B_SPLINE_CURVE_WITH_KNOTS('',3,(#1019,#1020,#1021,#1022,#1023,#1024,
#1025),.UNSPECIFIED.,.F.,.F.,(4,1,1,1,4),(0.,0.00111484100229526,0.00222968200459053,
0.00334452300688579,0.00445936400918105),.UNSPECIFIED.);
#561=B_SPLINE_CURVE_WITH_KNOTS('',3,(#1171,#1172,#1173,#1174,#1175,#1176,
#1177),.UNSPECIFIED.,.F.,.F.,(4,1,1,1,4),(0.,0.00111484100229526,0.00222968200459052,
0.00334452300688578,0.00445936400918104),.UNSPECIFIED.);
#562=B_SPLINE_CURVE_WITH_KNOTS('',3,(#1178,#1179,#1180,#1181,#1182,#1183,
#1184),.UNSPECIFIED.,.F.,.F.,(4,1,1,1,4),(0.,0.00111484100229526,0.00222968200459051,
0.00334452300688577,0.00445936400918102),.UNSPECIFIED.);
#563=EDGE_LOOP('',(#195,#196,#197,#198));
#564=EDGE_LOOP('',(#199));
#565=EDGE_LOOP('',(#200,#201,#202,#203));
#566=EDGE_LOOP('',(#204));
#567=EDGE_LOOP('',(#205));
#568=EDGE_LOOP('',(#206,#207,#208,#209,#210,#211));
#569=EDGE_LOOP('',(#212,#213,#214,#215,#216,#217,#218,#219,#220,#221));
#570=EDGE_LOOP('',(#222,#223,#224,#225,#226,#227));
#571=EDGE_LOOP('',(#228,#229,#230,#231,#232,#233,#234,#235,#236,#237));
#572=EDGE_LOOP('',(#238,#239,#240,#241));
#573=EDGE_LOOP('',(#242,#243,#244,#245,#246,#247));
#574=EDGE_LOOP('',(#248,#249,#250,#251));
#575=EDGE_LOOP('',(#252,#253,#254,#255,#256,#257,#258,#259));
#576=EDGE_LOOP('',(#260));
#577=EDGE_LOOP('',(#261,#262,#263,#264));
#578=EDGE_LOOP('',(#265,#266,#267,#268,#269,#270,#271,#272));
#579=EDGE_LOOP('',(#273,#274,#275,#276,#277,#278,#279,#280));
#580=EDGE_LOOP('',(#281));
#581=EDGE_LOOP('',(#282,#283,#284,#285,#286,#287));
#582=EDGE_LOOP('',(#288,#289,#290,#291,#292,#293));
#583=EDGE_LOOP('',(#294,#295,#296,#297));
#584=EDGE_LOOP('',(#298));
#585=EDGE_LOOP('',(#299));
#586=EDGE_LOOP('',(#300));
#587=EDGE_LOOP('',(#301));
#588=EDGE_LOOP('',(#302));
#589=EDGE_LOOP('',(#303,#304,#305,#306));
#590=EDGE_LOOP('',(#307,#308,#309,#310,#311,#312,#313,#314));
#591=EDGE_LOOP('',(#315));
#592=EDGE_LOOP('',(#316));
#593=EDGE_LOOP('',(#317));
#594=EDGE_LOOP('',(#318,#319,#320,#321));
#595=EDGE_LOOP('',(#322,#323,#324,#325));
#596=EDGE_LOOP('',(#326,#327,#328,#329));
#597=EDGE_LOOP('',(#330,#331,#332,#333));
#598=EDGE_LOOP('',(#334,#335,#336,#337));
#599=EDGE_LOOP('',(#338,#339,#340,#341));
#600=EDGE_LOOP('',(#342,#343,#344,#345));
#601=EDGE_LOOP('',(#346));
#602=EDGE_LOOP('',(#347,#348,#349,#350,#351,#352));
#603=EDGE_LOOP('',(#353,#354,#355,#356));
#604=EDGE_LOOP('',(#357,#358,#359,#360));
#605=EDGE_LOOP('',(#361,#362,#363,#364));
#606=EDGE_LOOP('',(#365,#366,#367,#368));
#607=EDGE_LOOP('',(#369,#370,#371,#372));
#608=EDGE_LOOP('',(#373,#374,#375,#376));
#609=EDGE_LOOP('',(#377,#378,#379,#380));
#610=EDGE_LOOP('',(#381,#382,#383,#384));
#611=EDGE_LOOP('',(#385,#386,#387,#388));
#612=EDGE_LOOP('',(#389,#390,#391,#392));
#613=FACE_BOUND('',#563,.T.);
#614=FACE_BOUND('',#564,.T.);
#615=FACE_BOUND('',#565,.T.);
#616=FACE_BOUND('',#566,.T.);
#617=FACE_BOUND('',#567,.T.);
#618=FACE_BOUND('',#568,.T.);
#619=FACE_BOUND('',#569,.T.);
#620=FACE_BOUND('',#570,.T.);
#621=FACE_BOUND('',#571,.T.);
#622=FACE_BOUND('',#572,.T.);
#623=FACE_BOUND('',#573,.T.);
#624=FACE_BOUND('',#574,.T.);
#625=FACE_BOUND('',#575,.T.);
#626=FACE_BOUND('',#576,.T.);
#627=FACE_BOUND('',#577,.T.);
#628=FACE_BOUND('',#578,.T.);
#629=FACE_BOUND('',#579,.T.);
#630=FACE_BOUND('',#580,.T.);
#631=FACE_BOUND('',#581,.T.);
#632=FACE_BOUND('',#582,.T.);
#633=FACE_BOUND('',#583,.T.);
#634=FACE_BOUND('',#584,.T.);
#635=FACE_BOUND('',#585,.T.);
#636=FACE_BOUND('',#586,.T.);
#637=FACE_BOUND('',#587,.T.);
#638=FACE_BOUND('',#588,.T.);
#639=FACE_BOUND('',#589,.T.);
#640=FACE_BOUND('',#590,.T.);
#641=FACE_BOUND('',#591,.T.);
#642=FACE_BOUND('',#592,.T.);
#643=FACE_BOUND('',#593,.T.);
#644=FACE_BOUND('',#594,.T.);
#645=FACE_BOUND('',#595,.T.);
#646=FACE_BOUND('',#596,.T.);
#647=FACE_BOUND('',#597,.T.);
#648=FACE_BOUND('',#598,.T.);
#649=FACE_BOUND('',#599,.T.);
#650=FACE_BOUND('',#600,.T.);
#651=FACE_BOUND('',#601,.T.);
#652=FACE_BOUND('',#602,.T.);
#653=FACE_BOUND('',#603,.T.);
#654=FACE_BOUND('',#604,.T.);
#655=FACE_BOUND('',#605,.T.);
#656=FACE_BOUND('',#606,.T.);
#657=FACE_BOUND('',#607,.T.);
#658=FACE_BOUND('',#608,.T.);
#659=FACE_BOUND('',#609,.T.);
#660=FACE_BOUND('',#610,.T.);
#661=FACE_BOUND('',#611,.T.);
#662=FACE_BOUND('',#612,.T.);
#663=CYLINDRICAL_SURFACE('',#730,0.00225);
#664=CYLINDRICAL_SURFACE('',#736,0.0021);
#665=CYLINDRICAL_SURFACE('',#769,0.00225);
#666=CYLINDRICAL_SURFACE('',#773,0.003);
#667=CYLINDRICAL_SURFACE('',#774,0.0031);
#668=CYLINDRICAL_SURFACE('',#775,0.0031);
#669=CYLINDRICAL_SURFACE('',#778,0.0031);
#670=CYLINDRICAL_SURFACE('',#786,0.002);
#671=CYLINDRICAL_SURFACE('',#787,0.002);
#672=CYLINDRICAL_SURFACE('',#788,0.002);
#673=CYLINDRICAL_SURFACE('',#789,0.002);
#674=CYLINDRICAL_SURFACE('',#790,0.002);
#675=CYLINDRICAL_SURFACE('',#792,0.002);
#676=CYLINDRICAL_SURFACE('',#794,0.002);
#677=CYLINDRICAL_SURFACE('',#796,0.002);
#678=ADVANCED_FACE('',(#613,#614),#663,.F.);
#679=ADVANCED_FACE('',(#615),#144,.T.);
#680=ADVANCED_FACE('',(#616,#617),#664,.F.);
#681=ADVANCED_FACE('',(#618),#145,.T.);
#682=ADVANCED_FACE('',(#619),#146,.T.);
#683=ADVANCED_FACE('',(#620),#147,.F.);
#684=ADVANCED_FACE('',(#621),#148,.T.);
#685=ADVANCED_FACE('',(#622),#149,.T.);
#686=ADVANCED_FACE('',(#623,#624),#150,.T.);
#687=ADVANCED_FACE('',(#625),#151,.F.);
#688=ADVANCED_FACE('',(#626,#627),#152,.F.);
#689=ADVANCED_FACE('',(#628),#153,.T.);
#690=ADVANCED_FACE('',(#629,#630),#154,.F.);
#691=ADVANCED_FACE('',(#631),#155,.T.);
#692=ADVANCED_FACE('',(#632),#156,.F.);
#693=ADVANCED_FACE('',(#633,#634),#665,.F.);
#694=ADVANCED_FACE('',(#635,#636),#157,.T.);
#695=ADVANCED_FACE('',(#637,#638),#666,.F.);
#696=ADVANCED_FACE('',(#639),#667,.F.);
#697=ADVANCED_FACE('',(#640,#641),#668,.F.);
#698=ADVANCED_FACE('',(#642,#643),#158,.T.);
#699=ADVANCED_FACE('',(#644),#669,.F.);
#700=ADVANCED_FACE('',(#645),#159,.F.);
#701=ADVANCED_FACE('',(#646),#160,.F.);
#702=ADVANCED_FACE('',(#647),#161,.F.);
#703=ADVANCED_FACE('',(#648),#162,.F.);
#704=ADVANCED_FACE('',(#649),#163,.F.);
#705=ADVANCED_FACE('',(#650),#164,.F.);
#706=ADVANCED_FACE('',(#651,#652),#165,.T.);
#707=ADVANCED_FACE('',(#653),#670,.T.);
#708=ADVANCED_FACE('',(#654),#671,.T.);
#709=ADVANCED_FACE('',(#655),#672,.T.);
#710=ADVANCED_FACE('',(#656),#673,.T.);
#711=ADVANCED_FACE('',(#657),#674,.T.);
#712=ADVANCED_FACE('',(#658),#675,.T.);
#713=ADVANCED_FACE('',(#659),#676,.T.);
#714=ADVANCED_FACE('',(#660),#677,.T.);
#715=ADVANCED_FACE('',(#661),#166,.F.);
#716=ADVANCED_FACE('',(#662),#167,.T.);
#717=CLOSED_SHELL('',(#678,#679,#680,#681,#682,#683,#684,#685,#686,#687,
#688,#689,#690,#691,#692,#693,#694,#695,#696,#697,#698,#699,#700,#701,#702,
#703,#704,#705,#706,#707,#708,#709,#710,#711,#712,#713,#714,#715,#716));
#718=STYLED_ITEM('',(#719),#726);
#719=PRESENTATION_STYLE_ASSIGNMENT((#720));
#720=SURFACE_STYLE_USAGE(.BOTH.,#721);
#721=SURFACE_SIDE_STYLE('',(#722));
#722=SURFACE_STYLE_FILL_AREA(#723);
#723=FILL_AREA_STYLE('',(#724));
#724=FILL_AREA_STYLE_COLOUR('',#725);
#725=COLOUR_RGB('',0.301960784313725,0.301960784313725,0.301960784313725);
#726=MANIFOLD_SOLID_BREP('Part 1',#717);
#727=SHAPE_DEFINITION_REPRESENTATION(#1242,#728);
#728=SHAPE_REPRESENTATION('Part 1',(#729),#1237);
#729=AXIS2_PLACEMENT_3D('',#1006,#800,#801);
#730=AXIS2_PLACEMENT_3D('',#1007,#802,#803);
#731=AXIS2_PLACEMENT_3D('',#1017,#804,#805);
#732=AXIS2_PLACEMENT_3D('',#1027,#806,#807);
#733=AXIS2_PLACEMENT_3D('',#1028,#808,#809);
#734=AXIS2_PLACEMENT_3D('',#1030,#810,#811);
#735=AXIS2_PLACEMENT_3D('',#1038,#815,#816);
#736=AXIS2_PLACEMENT_3D('',#1039,#817,#818);
#737=AXIS2_PLACEMENT_3D('',#1040,#819,#820);
#738=AXIS2_PLACEMENT_3D('',#1042,#821,#822);
#739=AXIS2_PLACEMENT_3D('',#1044,#823,#824);
#740=AXIS2_PLACEMENT_3D('',#1054,#829,#830);
#741=AXIS2_PLACEMENT_3D('',#1057,#832,#833);
#742=AXIS2_PLACEMENT_3D('',#1061,#835,#836);
#743=AXIS2_PLACEMENT_3D('',#1065,#838,#839);
#744=AXIS2_PLACEMENT_3D('',#1069,#841,#842);
#745=AXIS2_PLACEMENT_3D('',#1070,#843,#844);
#746=AXIS2_PLACEMENT_3D('',#1074,#846,#847);
#747=AXIS2_PLACEMENT_3D('',#1075,#848,#849);
#748=AXIS2_PLACEMENT_3D('',#1085,#855,#856);
#749=AXIS2_PLACEMENT_3D('',#1089,#858,#859);
#750=AXIS2_PLACEMENT_3D('',#1093,#861,#862);
#751=AXIS2_PLACEMENT_3D('',#1097,#864,#865);
#752=AXIS2_PLACEMENT_3D('',#1098,#866,#867);
#753=AXIS2_PLACEMENT_3D('',#1102,#869,#870);
#754=AXIS2_PLACEMENT_3D('',#1103,#871,#872);
#755=AXIS2_PLACEMENT_3D('',#1105,#874,#875);
#756=AXIS2_PLACEMENT_3D('',#1106,#876,#877);
#757=AXIS2_PLACEMENT_3D('',#1124,#887,#888);
#758=AXIS2_PLACEMENT_3D('',#1135,#895,#896);
#759=AXIS2_PLACEMENT_3D('',#1136,#897,#898);
#760=AXIS2_PLACEMENT_3D('',#1143,#902,#903);
#761=AXIS2_PLACEMENT_3D('',#1154,#910,#911);
#762=AXIS2_PLACEMENT_3D('',#1155,#912,#913);
#763=AXIS2_PLACEMENT_3D('',#1156,#914,#915);
#764=AXIS2_PLACEMENT_3D('',#1157,#916,#917);
#765=AXIS2_PLACEMENT_3D('',#1158,#918,#919);
#766=AXIS2_PLACEMENT_3D('',#1159,#920,#921);
#767=AXIS2_PLACEMENT_3D('',#1163,#924,#925);
#768=AXIS2_PLACEMENT_3D('',#1166,#927,#928);
#769=AXIS2_PLACEMENT_3D('',#1170,#932,#933);
#770=AXIS2_PLACEMENT_3D('',#1185,#934,#935);
#771=AXIS2_PLACEMENT_3D('',#1187,#936,#937);
#772=AXIS2_PLACEMENT_3D('',#1188,#938,#939);
#773=AXIS2_PLACEMENT_3D('',#1190,#940,#941);
#774=AXIS2_PLACEMENT_3D('',#1191,#942,#943);
#775=AXIS2_PLACEMENT_3D('',#1192,#944,#945);
#776=AXIS2_PLACEMENT_3D('',#1193,#946,#947);
#777=AXIS2_PLACEMENT_3D('',#1195,#948,#949);
#778=AXIS2_PLACEMENT_3D('',#1196,#950,#951);
#779=AXIS2_PLACEMENT_3D('',#1197,#952,#953);
#780=AXIS2_PLACEMENT_3D('',#1203,#957,#958);
#781=AXIS2_PLACEMENT_3D('',#1207,#961,#962);
#782=AXIS2_PLACEMENT_3D('',#1211,#965,#966);
#783=AXIS2_PLACEMENT_3D('',#1215,#969,#970);
#784=AXIS2_PLACEMENT_3D('',#1219,#973,#974);
#785=AXIS2_PLACEMENT_3D('',#1221,#976,#977);
#786=AXIS2_PLACEMENT_3D('',#1222,#978,#979);
#787=AXIS2_PLACEMENT_3D('',#1223,#980,#981);
#788=AXIS2_PLACEMENT_3D('',#1224,#982,#983);
#789=AXIS2_PLACEMENT_3D('',#1225,#984,#985);
#790=AXIS2_PLACEMENT_3D('',#1226,#986,#987);
#791=AXIS2_PLACEMENT_3D('',#1227,#988,#989);
#792=AXIS2_PLACEMENT_3D('',#1228,#990,#991);
#793=AXIS2_PLACEMENT_3D('',#1229,#992,#993);
#794=AXIS2_PLACEMENT_3D('',#1230,#994,#995);
#795=AXIS2_PLACEMENT_3D('',#1231,#996,#997);
#796=AXIS2_PLACEMENT_3D('',#1232,#998,#999);
#797=AXIS2_PLACEMENT_3D('',#1233,#1000,#1001);
#798=AXIS2_PLACEMENT_3D('',#1234,#1002,#1003);
#799=AXIS2_PLACEMENT_3D('',#1235,#1004,#1005);
#800=DIRECTION('',(0.,0.,1.));
#801=DIRECTION('',(1.,0.,0.));
#802=DIRECTION('',(-1.,-2.89120579329468E-16,0.));
#803=DIRECTION('',(2.89120579329468E-16,-1.,0.));
#804=DIRECTION('',(-1.,0.,0.));
#805=DIRECTION('',(0.,0.,1.));
#806=DIRECTION('',(-1.,0.,0.));
#807=DIRECTION('',(0.,0.,1.));
#808=DIRECTION('',(-1.,-2.89120579329468E-16,0.));
#809=DIRECTION('',(2.89120579329468E-16,-1.,0.));
#810=DIRECTION('',(0.,0.,1.));
#811=DIRECTION('',(1.,0.,0.));
#812=DIRECTION('',(0.,1.,0.));
#813=DIRECTION('',(-1.,0.,0.));
#814=DIRECTION('',(0.,1.,0.));
#815=DIRECTION('',(0.,0.,1.));
#816=DIRECTION('',(1.,0.,0.));
#817=DIRECTION('',(0.,0.,-1.));
#818=DIRECTION('',(-1.,0.,0.));
#819=DIRECTION('',(0.,0.,1.));
#820=DIRECTION('',(1.,0.,0.));
#821=DIRECTION('',(0.,0.,1.));
#822=DIRECTION('',(1.,0.,0.));
#823=DIRECTION('',(-1.,0.,0.));
#824=DIRECTION('',(0.,0.,1.));
#825=DIRECTION('',(0.,1.,0.));
#826=DIRECTION('',(0.,0.,-1.));
#827=DIRECTION('',(0.,1.,0.));
#828=DIRECTION('',(0.,0.,1.));
#829=DIRECTION('',(-1.,0.,0.));
#830=DIRECTION('',(0.,0.,1.));
#831=DIRECTION('',(0.,0.,1.));
#832=DIRECTION('',(0.,0.,1.));
#833=DIRECTION('',(1.,0.,0.));
#834=DIRECTION('',(-2.89120579329468E-16,1.,0.));
#835=DIRECTION('',(0.,0.,1.));
#836=DIRECTION('',(1.,0.,0.));
#837=DIRECTION('',(1.,0.,0.));
#838=DIRECTION('',(0.,0.,1.));
#839=DIRECTION('',(1.,0.,0.));
#840=DIRECTION('',(0.,1.,0.));
#841=DIRECTION('',(0.,0.,1.));
#842=DIRECTION('',(1.,0.,0.));
#843=DIRECTION('',(0.,0.,1.));
#844=DIRECTION('',(1.,0.,0.));
#845=DIRECTION('',(1.,0.,0.));
#846=DIRECTION('',(0.,0.,1.));
#847=DIRECTION('',(1.,0.,0.));
#848=DIRECTION('',(-1.,0.,0.));
#849=DIRECTION('',(0.,0.,1.));
#850=DIRECTION('',(0.,1.,0.));
#851=DIRECTION('',(0.,0.,-1.));
#852=DIRECTION('',(0.,1.,0.));
#853=DIRECTION('',(0.,0.,1.));
#854=DIRECTION('',(0.,0.,1.));
#855=DIRECTION('',(0.,0.,1.));
#856=DIRECTION('',(1.,0.,0.));
#857=DIRECTION('',(1.,0.,0.));
#858=DIRECTION('',(0.,0.,1.));
#859=DIRECTION('',(1.,0.,0.));
#860=DIRECTION('',(-2.89120579329468E-16,1.,0.));
#861=DIRECTION('',(0.,0.,1.));
#862=DIRECTION('',(1.,0.,0.));
#863=DIRECTION('',(1.,0.,0.));
#864=DIRECTION('',(0.,0.,1.));
#865=DIRECTION('',(1.,0.,0.));
#866=DIRECTION('',(0.,0.,1.));
#867=DIRECTION('',(1.,0.,0.));
#868=DIRECTION('',(0.,1.,0.));
#869=DIRECTION('',(0.,0.,1.));
#870=DIRECTION('',(1.,0.,0.));
#871=DIRECTION('',(0.,0.,1.));
#872=DIRECTION('',(1.,0.,0.));
#873=DIRECTION('',(1.,0.,0.));
#874=DIRECTION('',(0.,0.,1.));
#875=DIRECTION('',(1.,0.,0.));
#876=DIRECTION('',(-1.,-2.89120579329468E-16,0.));
#877=DIRECTION('',(2.89120579329468E-16,-1.,0.));
#878=DIRECTION('',(1.44560289664734E-16,-0.5,-0.866025403784439));
#879=DIRECTION('',(-1.44560289664734E-16,0.5,-0.866025403784438));
#880=DIRECTION('',(-2.89120579329468E-16,1.,2.18518487089041E-15));
#881=DIRECTION('',(-1.44560289664734E-16,0.5,0.866025403784439));
#882=DIRECTION('',(1.44560289664734E-16,-0.5,0.866025403784438));
#883=DIRECTION('',(2.89120579329468E-16,-1.,-1.09259243544521E-15));
#884=DIRECTION('',(0.,0.,-1.));
#885=DIRECTION('',(-2.89120579329468E-16,1.,0.));
#886=DIRECTION('',(0.,0.,-1.));
#887=DIRECTION('',(0.,1.,0.));
#888=DIRECTION('',(0.,0.,1.));
#889=DIRECTION('',(0.,0.,-1.));
#890=DIRECTION('',(-1.,0.,0.));
#891=DIRECTION('',(0.,0.,-1.));
#892=DIRECTION('',(0.,0.,-1.));
#893=DIRECTION('',(1.,0.,0.));
#894=DIRECTION('',(0.,0.,-1.));
#895=DIRECTION('',(-1.,-2.89120579329468E-16,0.));
#896=DIRECTION('',(2.89120579329468E-16,-1.,0.));
#897=DIRECTION('',(-1.,-2.89120579329468E-16,0.));
#898=DIRECTION('',(2.89120579329468E-16,-1.,0.));
#899=DIRECTION('',(-2.89120579329468E-16,1.,0.));
#900=DIRECTION('',(0.,0.,-1.));
#901=DIRECTION('',(0.,0.,-1.));
#902=DIRECTION('',(0.,1.,0.));
#903=DIRECTION('',(0.,0.,1.));
#904=DIRECTION('',(1.,0.,0.));
#905=DIRECTION('',(0.,0.,-1.));
#906=DIRECTION('',(0.,0.,-1.));
#907=DIRECTION('',(1.,0.,0.));
#908=DIRECTION('',(0.,0.,-1.));
#909=DIRECTION('',(0.,0.,-1.));
#910=DIRECTION('',(0.,0.,1.));
#911=DIRECTION('',(1.,0.,0.));
#912=DIRECTION('',(0.,0.,1.));
#913=DIRECTION('',(1.,0.,0.));
#914=DIRECTION('',(0.,0.,1.));
#915=DIRECTION('',(1.,0.,0.));
#916=DIRECTION('',(0.,0.,1.));
#917=DIRECTION('',(1.,0.,0.));
#918=DIRECTION('',(0.,0.,1.));
#919=DIRECTION('',(1.,0.,0.));
#920=DIRECTION('',(-1.,0.,0.));
#921=DIRECTION('',(0.,0.,1.));
#922=DIRECTION('',(0.,0.,-1.));
#923=DIRECTION('',(0.,0.,1.));
#924=DIRECTION('',(-1.,0.,0.));
#925=DIRECTION('',(0.,0.,1.));
#926=DIRECTION('',(0.,0.,1.));
#927=DIRECTION('',(-1.,0.,0.));
#928=DIRECTION('',(0.,0.,1.));
#929=DIRECTION('',(0.,0.,-1.));
#930=DIRECTION('',(0.,0.,1.));
#931=DIRECTION('',(0.,0.,1.));
#932=DIRECTION('',(-1.,-2.89120579329468E-16,0.));
#933=DIRECTION('',(2.89120579329468E-16,-1.,0.));
#934=DIRECTION('',(-1.,-2.89120579329468E-16,0.));
#935=DIRECTION('',(2.89120579329468E-16,-1.,0.));
#936=DIRECTION('',(1.,2.89120579329468E-16,0.));
#937=DIRECTION('',(-2.89120579329468E-16,1.,0.));
#938=DIRECTION('',(-1.,-2.89120579329468E-16,0.));
#939=DIRECTION('',(2.89120579329468E-16,-1.,0.));
#940=DIRECTION('',(-1.,-2.89120579329468E-16,0.));
#941=DIRECTION('',(2.89120579329468E-16,-1.,0.));
#942=DIRECTION('',(0.,0.,1.));
#943=DIRECTION('',(1.,0.,0.));
#944=DIRECTION('',(0.,0.,1.));
#945=DIRECTION('',(1.,0.,0.));
#946=DIRECTION('',(0.,0.,1.));
#947=DIRECTION('',(1.,0.,0.));
#948=DIRECTION('',(0.,0.,1.));
#949=DIRECTION('',(1.,0.,0.));
#950=DIRECTION('',(0.,0.,1.));
#951=DIRECTION('',(1.,0.,0.));
#952=DIRECTION('',(-2.50385766456193E-16,0.866025403784439,-0.5));
#953=DIRECTION('',(0.,0.5,0.866025403784439));
#954=DIRECTION('',(-1.,-2.89120579329468E-16,0.));
#955=DIRECTION('',(1.44560289664734E-16,-0.5,-0.866025403784439));
#956=DIRECTION('',(-1.,-2.89120579329468E-16,0.));
#957=DIRECTION('',(-3.15890957906913E-31,1.09259243544521E-15,-1.));
#958=DIRECTION('',(0.,1.,1.09259243544521E-15));
#959=DIRECTION('',(-1.,-2.89120579329468E-16,0.));
#960=DIRECTION('',(2.89120579329468E-16,-1.,-1.09259243544521E-15));
#961=DIRECTION('',(2.50385766456193E-16,-0.866025403784438,-0.5));
#962=DIRECTION('',(0.,0.5,-0.866025403784438));
#963=DIRECTION('',(-1.,-2.89120579329468E-16,0.));
#964=DIRECTION('',(1.44560289664734E-16,-0.5,0.866025403784438));
#965=DIRECTION('',(2.50385766456193E-16,-0.866025403784439,0.5));
#966=DIRECTION('',(0.,-0.5,-0.866025403784439));
#967=DIRECTION('',(-1.,-2.89120579329468E-16,0.));
#968=DIRECTION('',(-1.44560289664734E-16,0.5,0.866025403784439));
#969=DIRECTION('',(6.31781915813825E-31,-2.18518487089041E-15,1.));
#970=DIRECTION('',(0.,-1.,-2.18518487089041E-15));
#971=DIRECTION('',(-1.,-2.89120579329468E-16,0.));
#972=DIRECTION('',(-2.89120579329468E-16,1.,2.18518487089041E-15));
#973=DIRECTION('',(-2.50385766456193E-16,0.866025403784438,0.5));
#974=DIRECTION('',(0.,-0.5,0.866025403784438));
#975=DIRECTION('',(-1.44560289664734E-16,0.5,-0.866025403784438));
#976=DIRECTION('',(-1.,-2.89120579329468E-16,0.));
#977=DIRECTION('',(2.89120579329468E-16,-1.,0.));
#978=DIRECTION('',(0.,0.,-1.));
#979=DIRECTION('',(-1.,0.,0.));
#980=DIRECTION('',(0.,0.,1.));
#981=DIRECTION('',(1.,0.,0.));
#982=DIRECTION('',(0.,0.,1.));
#983=DIRECTION('',(1.,0.,0.));
#984=DIRECTION('',(0.,0.,-1.));
#985=DIRECTION('',(-1.,0.,0.));
#986=DIRECTION('',(0.,0.,1.));
#987=DIRECTION('',(1.,0.,0.));
#988=DIRECTION('',(0.,-0.707106781186548,0.707106781186548));
#989=DIRECTION('',(0.,0.707106781186548,0.707106781186548));
#990=DIRECTION('',(0.,0.,-1.));
#991=DIRECTION('',(-1.,0.,0.));
#992=DIRECTION('',(0.,-0.707106781186548,0.707106781186548));
#993=DIRECTION('',(0.,-0.707106781186548,-0.707106781186548));
#994=DIRECTION('',(0.,0.,1.));
#995=DIRECTION('',(1.,0.,0.));
#996=DIRECTION('',(0.,-0.707106781186548,-0.707106781186548));
#997=DIRECTION('',(0.,-0.707106781186548,0.707106781186548));
#998=DIRECTION('',(0.,0.,-1.));
#999=DIRECTION('',(-1.,0.,0.));
#1000=DIRECTION('',(0.,-0.707106781186548,-0.707106781186548));
#1001=DIRECTION('',(0.,0.707106781186548,-0.707106781186548));
#1002=DIRECTION('',(0.,-0.707106781186548,-0.707106781186548));
#1003=DIRECTION('',(1.,0.,0.));
#1004=DIRECTION('',(0.,-0.707106781186548,0.707106781186548));
#1005=DIRECTION('',(-1.,0.,0.));
#1006=CARTESIAN_POINT('',(0.,0.,0.));
#1007=CARTESIAN_POINT('',(0.009,-8.67361737988404E-19,0.0145));
#1008=CARTESIAN_POINT('',(-0.0025,-0.00183303027798234,0.01580479883507));
#1009=CARTESIAN_POINT('',(-0.00264730866042981,-0.00163212162115432,0.016087042841714));
#1010=CARTESIAN_POINT('',(-0.00295379693792134,-0.00111279568243903,0.016552517833429));
#1011=CARTESIAN_POINT('',(-0.00317263916730631,-8.68377660660367E-6,0.0168480759790355));
#1012=CARTESIAN_POINT('',(-0.00295561358113565,0.00111259377660099,0.0165551330431376));
#1013=CARTESIAN_POINT('',(-0.00264756953301616,0.00163176582699549,0.0160875426746754));
#1014=CARTESIAN_POINT('',(-0.0025,0.00183303027798234,0.01580479883507));
#1015=CARTESIAN_POINT('',(-0.0025,-0.00183303027798234,0.01580479883507));
#1016=CARTESIAN_POINT('',(-0.0025,0.00183303027798234,0.01580479883507));
#1017=CARTESIAN_POINT('',(-0.0025,-4.19224840027729E-18,0.0145));
#1018=CARTESIAN_POINT('',(-0.0025,-0.00183303027798234,0.01319520116493));
#1019=CARTESIAN_POINT('',(-0.0025,0.00183303027798234,0.01319520116493));
#1020=CARTESIAN_POINT('',(-0.00264730866042981,0.00163212162115432,0.0129129571582861));
#1021=CARTESIAN_POINT('',(-0.00295379693792133,0.00111279568243904,0.0124474821665711));
#1022=CARTESIAN_POINT('',(-0.00317263916730631,8.68377660660678E-6,0.0121519240209645));
#1023=CARTESIAN_POINT('',(-0.00295561358113565,-0.00111259377660099,0.0124448669568624));
#1024=CARTESIAN_POINT('',(-0.00264756953301616,-0.00163176582699549,0.0129124573253246));
#1025=CARTESIAN_POINT('',(-0.0025,-0.00183303027798234,0.01319520116493));
#1026=CARTESIAN_POINT('',(-0.0025,0.00183303027798234,0.01319520116493));
#1027=CARTESIAN_POINT('',(-0.0025,-4.19224840027729E-18,0.0145));
#1028=CARTESIAN_POINT('',(-0.005,-4.91504984860095E-18,0.0145));
#1029=CARTESIAN_POINT('',(-0.005,-0.00225,0.0145));
#1030=CARTESIAN_POINT('',(0.,0.,0.0055));
#1031=CARTESIAN_POINT('',(0.0025,-8.67361737988404E-19,0.0055));
#1032=CARTESIAN_POINT('',(0.0025,0.00183303027798234,0.0055));
#1033=CARTESIAN_POINT('',(0.0025,0.004,0.0055));
#1034=CARTESIAN_POINT('',(0.,0.004,0.0055));
#1035=CARTESIAN_POINT('',(-0.0025,0.004,0.0055));
#1036=CARTESIAN_POINT('',(-0.0025,-8.67361737988404E-19,0.0055));
#1037=CARTESIAN_POINT('',(-0.0025,0.00183303027798234,0.0055));
#1038=CARTESIAN_POINT('',(0.,1.8982025386784E-19,0.0055));
#1039=CARTESIAN_POINT('',(0.,1.28587913910472E-19,0.0055));
#1040=CARTESIAN_POINT('',(0.,1.28587913910472E-19,0.));
#1041=CARTESIAN_POINT('',(0.0021,1.28587913910472E-19,0.));
#1042=CARTESIAN_POINT('',(0.,1.28587913910472E-19,0.0035));
#1043=CARTESIAN_POINT('',(0.0021,1.28587913910472E-19,0.0035));
#1044=CARTESIAN_POINT('',(0.0025,-8.67361737988404E-19,0.0205));
#1045=CARTESIAN_POINT('',(0.0025,-8.67361737988404E-19,0.0055));
#1046=CARTESIAN_POINT('',(0.0025,-0.004,0.0055));
#1047=CARTESIAN_POINT('',(0.0025,-0.00183303027798234,0.0055));
#1048=CARTESIAN_POINT('',(0.0025,-0.004,0.0205));
#1049=CARTESIAN_POINT('',(0.0025,-0.004,0.0205));
#1050=CARTESIAN_POINT('',(0.0025,-8.67361737988404E-19,0.0205));
#1051=CARTESIAN_POINT('',(0.0025,-0.00183303027798234,0.0205));
#1052=CARTESIAN_POINT('',(0.0025,-0.00183303027798234,0.0035));
#1053=CARTESIAN_POINT('',(0.0025,-0.00183303027798234,0.01580479883507));
#1054=CARTESIAN_POINT('',(0.0025,-2.74664550362994E-18,0.0145));
#1055=CARTESIAN_POINT('',(0.0025,-0.00183303027798234,0.01319520116493));
#1056=CARTESIAN_POINT('',(0.0025,-0.00183303027798234,0.0035));
#1057=CARTESIAN_POINT('',(1.7347234759768E-18,0.,0.0205));
#1058=CARTESIAN_POINT('',(0.009,-8.67361737988404E-19,0.0205));
#1059=CARTESIAN_POINT('',(0.009,-0.004,0.0205));
#1060=CARTESIAN_POINT('',(0.009,0.004,0.0205));
#1061=CARTESIAN_POINT('',(0.007,0.004,0.0205));
#1062=CARTESIAN_POINT('',(0.007,0.006,0.0205));
#1063=CARTESIAN_POINT('',(-1.7347234759768E-18,0.006,0.0205));
#1064=CARTESIAN_POINT('',(0.0045,0.006,0.0205));
#1065=CARTESIAN_POINT('',(0.0045,0.004,0.0205));
#1066=CARTESIAN_POINT('',(0.0025,0.004,0.0205));
#1067=CARTESIAN_POINT('',(0.0025,-8.67361737988404E-19,0.0205));
#1068=CARTESIAN_POINT('',(0.0025,0.00183303027798234,0.0205));
#1069=CARTESIAN_POINT('',(0.,1.8982025386784E-19,0.0205));
#1070=CARTESIAN_POINT('',(0.0045,-0.004,0.0205));
#1071=CARTESIAN_POINT('',(0.0045,-0.006,0.0205));
#1072=CARTESIAN_POINT('',(1.7347234759768E-18,-0.006,0.0205));
#1073=CARTESIAN_POINT('',(0.007,-0.006,0.0205));
#1074=CARTESIAN_POINT('',(0.007,-0.004,0.0205));
#1075=CARTESIAN_POINT('',(-0.0025,-8.67361737988404E-19,0.0205));
#1076=CARTESIAN_POINT('',(-0.0025,-8.67361737988404E-19,0.0205));
#1077=CARTESIAN_POINT('',(-0.0025,-0.004,0.0205));
#1078=CARTESIAN_POINT('',(-0.0025,-0.00183303027798234,0.0205));
#1079=CARTESIAN_POINT('',(-0.0025,-0.004,0.0205));
#1080=CARTESIAN_POINT('',(-0.0025,-0.004,0.0055));
#1081=CARTESIAN_POINT('',(-0.0025,-8.67361737988404E-19,0.0055));
#1082=CARTESIAN_POINT('',(-0.0025,-0.00183303027798234,0.0055));
#1083=CARTESIAN_POINT('',(-0.0025,-0.00183303027798234,0.0035));
#1084=CARTESIAN_POINT('',(-0.0025,-0.00183303027798234,0.0035));
#1085=CARTESIAN_POINT('',(1.7347234759768E-18,0.,0.0205));
#1086=CARTESIAN_POINT('',(-1.7347234759768E-18,0.006,0.0205));
#1087=CARTESIAN_POINT('',(-0.007,0.006,0.0205));
#1088=CARTESIAN_POINT('',(-0.0045,0.006,0.0205));
#1089=CARTESIAN_POINT('',(-0.007,0.004,0.0205));
#1090=CARTESIAN_POINT('',(-0.009,0.004,0.0205));
#1091=CARTESIAN_POINT('',(-0.009,-8.67361737988404E-19,0.0205));
#1092=CARTESIAN_POINT('',(-0.009,-0.004,0.0205));
#1093=CARTESIAN_POINT('',(-0.007,-0.004,0.0205));
#1094=CARTESIAN_POINT('',(-0.007,-0.006,0.0205));
#1095=CARTESIAN_POINT('',(1.7347234759768E-18,-0.006,0.0205));
#1096=CARTESIAN_POINT('',(-0.0045,-0.006,0.0205));
#1097=CARTESIAN_POINT('',(-0.0045,-0.004,0.0205));
#1098=CARTESIAN_POINT('',(0.,1.8982025386784E-19,0.0205));
#1099=CARTESIAN_POINT('',(-0.0025,0.00183303027798234,0.0205));
#1100=CARTESIAN_POINT('',(-0.0025,-8.67361737988404E-19,0.0205));
#1101=CARTESIAN_POINT('',(-0.0025,0.004,0.0205));
#1102=CARTESIAN_POINT('',(-0.0045,0.004,0.0205));
#1103=CARTESIAN_POINT('',(0.,0.,0.0055));
#1104=CARTESIAN_POINT('',(0.0045,-0.004,0.0055));
#1105=CARTESIAN_POINT('',(0.,1.8982025386784E-19,0.0055));
#1106=CARTESIAN_POINT('',(-0.009,-8.67361737988404E-19,0.0055));
#1107=CARTESIAN_POINT('',(-0.009,0.0023815698604072,0.013125));
#1108=CARTESIAN_POINT('',(-0.009,0.00317542648054293,0.0145));
#1109=CARTESIAN_POINT('',(-0.009,0.00158771324027146,0.01175));
#1110=CARTESIAN_POINT('',(-0.009,0.0023815698604072,0.015875));
#1111=CARTESIAN_POINT('',(-0.009,0.00158771324027146,0.01725));
#1112=CARTESIAN_POINT('',(-0.009,-9.75781955236954E-18,0.01725));
#1113=CARTESIAN_POINT('',(-0.009,-0.00158771324027148,0.01725));
#1114=CARTESIAN_POINT('',(-0.009,-0.00238156986040721,0.015875));
#1115=CARTESIAN_POINT('',(-0.009,-0.00317542648054295,0.0145));
#1116=CARTESIAN_POINT('',(-0.009,-0.00238156986040721,0.013125));
#1117=CARTESIAN_POINT('',(-0.009,-0.00158771324027147,0.01175));
#1118=CARTESIAN_POINT('',(-0.009,-2.60208521396521E-18,0.01175));
#1119=CARTESIAN_POINT('',(-0.009,0.004,0.0055));
#1120=CARTESIAN_POINT('',(-0.009,0.004,0.));
#1121=CARTESIAN_POINT('',(-0.009,-8.67361737988404E-19,0.));
#1122=CARTESIAN_POINT('',(-0.009,-0.004,0.));
#1123=CARTESIAN_POINT('',(-0.009,-0.004,0.0205));
#1124=CARTESIAN_POINT('',(1.7347234759768E-18,-0.006,0.0055));
#1125=CARTESIAN_POINT('',(0.0045,-0.006,0.0055));
#1126=CARTESIAN_POINT('',(0.0045,-0.006,0.0035));
#1127=CARTESIAN_POINT('',(-0.0045,-0.006,0.0035));
#1128=CARTESIAN_POINT('',(-0.0045,-0.006,0.0035));
#1129=CARTESIAN_POINT('',(-0.0045,-0.006,0.0055));
#1130=CARTESIAN_POINT('',(-0.007,-0.006,0.));
#1131=CARTESIAN_POINT('',(-0.007,-0.006,0.));
#1132=CARTESIAN_POINT('',(1.7347234759768E-18,-0.006,0.));
#1133=CARTESIAN_POINT('',(0.007,-0.006,0.));
#1134=CARTESIAN_POINT('',(0.007,-0.006,0.0055));
#1135=CARTESIAN_POINT('',(0.009,-8.67361737988404E-19,0.0055));
#1136=CARTESIAN_POINT('',(0.009,-8.67361737988404E-19,0.0145));
#1137=CARTESIAN_POINT('',(0.009,-0.003,0.0145));
#1138=CARTESIAN_POINT('',(0.009,-8.67361737988404E-19,0.));
#1139=CARTESIAN_POINT('',(0.009,-0.004,0.));
#1140=CARTESIAN_POINT('',(0.009,0.004,0.));
#1141=CARTESIAN_POINT('',(0.009,0.004,0.0205));
#1142=CARTESIAN_POINT('',(0.009,-0.004,0.0055));
#1143=CARTESIAN_POINT('',(-1.7347234759768E-18,0.006,0.0055));
#1144=CARTESIAN_POINT('',(-1.7347234759768E-18,0.006,0.0035));
#1145=CARTESIAN_POINT('',(-0.0045,0.006,0.0035));
#1146=CARTESIAN_POINT('',(0.0045,0.006,0.0035));
#1147=CARTESIAN_POINT('',(0.0045,0.006,0.0055));
#1148=CARTESIAN_POINT('',(0.007,0.006,0.));
#1149=CARTESIAN_POINT('',(0.007,0.006,0.));
#1150=CARTESIAN_POINT('',(-1.7347234759768E-18,0.006,0.));
#1151=CARTESIAN_POINT('',(-0.007,0.006,0.));
#1152=CARTESIAN_POINT('',(-0.007,0.006,0.0055));
#1153=CARTESIAN_POINT('',(-0.0045,0.006,0.0055));
#1154=CARTESIAN_POINT('',(0.,0.,0.));
#1155=CARTESIAN_POINT('',(-0.007,0.004,0.));
#1156=CARTESIAN_POINT('',(0.007,0.004,0.));
#1157=CARTESIAN_POINT('',(0.007,-0.004,0.));
#1158=CARTESIAN_POINT('',(-0.007,-0.004,0.));
#1159=CARTESIAN_POINT('',(0.0025,-8.67361737988404E-19,0.0205));
#1160=CARTESIAN_POINT('',(0.0025,0.004,0.0205));
#1161=CARTESIAN_POINT('',(0.0025,0.00183303027798234,0.0035));
#1162=CARTESIAN_POINT('',(0.0025,0.00183303027798234,0.01319520116493));
#1163=CARTESIAN_POINT('',(0.0025,-2.74664550362994E-18,0.0145));
#1164=CARTESIAN_POINT('',(0.0025,0.00183303027798234,0.01580479883507));
#1165=CARTESIAN_POINT('',(0.0025,0.00183303027798234,0.0035));
#1166=CARTESIAN_POINT('',(-0.0025,-8.67361737988404E-19,0.0205));
#1167=CARTESIAN_POINT('',(-0.0025,0.004,0.0205));
#1168=CARTESIAN_POINT('',(-0.0025,0.00183303027798234,0.0035));
#1169=CARTESIAN_POINT('',(-0.0025,0.00183303027798234,0.0035));
#1170=CARTESIAN_POINT('',(0.009,-8.67361737988404E-19,0.0145));
#1171=CARTESIAN_POINT('',(0.0025,-0.00183303027798234,0.01319520116493));
#1172=CARTESIAN_POINT('',(0.00264730866042981,-0.00163212162115431,0.012912957158286));
#1173=CARTESIAN_POINT('',(0.00295379693792134,-0.00111279568243903,0.0124474821665711));
#1174=CARTESIAN_POINT('',(0.00317263916730631,-8.68377660660035E-6,0.0121519240209645));
#1175=CARTESIAN_POINT('',(0.00295561358113565,0.00111259377660099,0.0124448669568624));
#1176=CARTESIAN_POINT('',(0.00264756953301616,0.00163176582699548,0.0129124573253246));
#1177=CARTESIAN_POINT('',(0.0025,0.00183303027798234,0.01319520116493));
#1178=CARTESIAN_POINT('',(0.0025,0.00183303027798234,0.01580479883507));
#1179=CARTESIAN_POINT('',(0.00264730866042981,0.00163212162115431,0.016087042841714));
#1180=CARTESIAN_POINT('',(0.00295379693792134,0.00111279568243902,0.0165525178334289));
#1181=CARTESIAN_POINT('',(0.00317263916730631,8.68377660660289E-6,0.0168480759790355));
#1182=CARTESIAN_POINT('',(0.00295561358113565,-0.00111259377660099,0.0165551330431376));
#1183=CARTESIAN_POINT('',(0.00264756953301616,-0.00163176582699548,0.0160875426746754));
#1184=CARTESIAN_POINT('',(0.0025,-0.00183303027798234,0.01580479883507));
#1185=CARTESIAN_POINT('',(0.007,-1.44560289664734E-18,0.0145));
#1186=CARTESIAN_POINT('',(0.007,-0.00225,0.0145));
#1187=CARTESIAN_POINT('',(0.007,0.003,0.0145));
#1188=CARTESIAN_POINT('',(0.007,-1.44560289664734E-18,0.0145));
#1189=CARTESIAN_POINT('',(0.007,-0.003,0.0145));
#1190=CARTESIAN_POINT('',(0.009,-8.67361737988404E-19,0.0145));
#1191=CARTESIAN_POINT('',(0.,1.8982025386784E-19,0.0035));
#1192=CARTESIAN_POINT('',(0.,1.8982025386784E-19,0.0035));
#1193=CARTESIAN_POINT('',(0.,1.8982025386784E-19,0.0035));
#1194=CARTESIAN_POINT('',(0.0031,1.8982025386784E-19,0.0035));
#1195=CARTESIAN_POINT('',(0.,0.,0.0035));
#1196=CARTESIAN_POINT('',(0.,1.8982025386784E-19,0.0035));
#1197=CARTESIAN_POINT('',(-0.005,0.0023815698604072,0.013125));
#1198=CARTESIAN_POINT('',(-0.005,0.00158771324027146,0.01175));
#1199=CARTESIAN_POINT('',(-0.005,0.00158771324027146,0.01175));
#1200=CARTESIAN_POINT('',(-0.005,0.0023815698604072,0.013125));
#1201=CARTESIAN_POINT('',(-0.005,0.00317542648054293,0.0145));
#1202=CARTESIAN_POINT('',(-0.005,0.00317542648054293,0.0145));
#1203=CARTESIAN_POINT('',(-0.005,-1.44560289664734E-18,0.01175));
#1204=CARTESIAN_POINT('',(-0.005,-0.00158771324027147,0.01175));
#1205=CARTESIAN_POINT('',(-0.005,-0.00158771324027147,0.01175));
#1206=CARTESIAN_POINT('',(-0.005,-1.44560289664734E-18,0.01175));
#1207=CARTESIAN_POINT('',(-0.005,-0.00238156986040721,0.013125));
#1208=CARTESIAN_POINT('',(-0.005,-0.00317542648054295,0.0145));
#1209=CARTESIAN_POINT('',(-0.005,-0.00317542648054295,0.0145));
#1210=CARTESIAN_POINT('',(-0.005,-0.00238156986040721,0.013125));
#1211=CARTESIAN_POINT('',(-0.005,-0.00238156986040721,0.015875));
#1212=CARTESIAN_POINT('',(-0.005,-0.00158771324027148,0.01725));
#1213=CARTESIAN_POINT('',(-0.005,-0.00158771324027148,0.01725));
#1214=CARTESIAN_POINT('',(-0.005,-0.00238156986040721,0.015875));
#1215=CARTESIAN_POINT('',(-0.005,-8.60133723505167E-18,0.01725));
#1216=CARTESIAN_POINT('',(-0.005,0.00158771324027146,0.01725));
#1217=CARTESIAN_POINT('',(-0.005,0.00158771324027146,0.01725));
#1218=CARTESIAN_POINT('',(-0.005,-8.60133723505167E-18,0.01725));
#1219=CARTESIAN_POINT('',(-0.005,0.0023815698604072,0.015875));
#1220=CARTESIAN_POINT('',(-0.005,0.0023815698604072,0.015875));
#1221=CARTESIAN_POINT('',(-0.005,2.89120579329469E-19,0.01025));
#1222=CARTESIAN_POINT('',(-0.007,0.004,0.0055));
#1223=CARTESIAN_POINT('',(-0.007,-0.004,0.0055));
#1224=CARTESIAN_POINT('',(0.007,0.004,0.0055));
#1225=CARTESIAN_POINT('',(0.007,-0.004,0.0055));
#1226=CARTESIAN_POINT('',(0.0045,-0.004,0.0055));
#1227=CARTESIAN_POINT('',(0.0045,-0.004,0.0055));
#1228=CARTESIAN_POINT('',(-0.0045,-0.004,0.0205));
#1229=CARTESIAN_POINT('',(-0.0045,-0.004,0.0055));
#1230=CARTESIAN_POINT('',(-0.0045,0.004,0.0055));
#1231=CARTESIAN_POINT('',(-0.0045,0.004,0.0055));
#1232=CARTESIAN_POINT('',(0.0045,0.004,0.0205));
#1233=CARTESIAN_POINT('',(0.0045,0.004,0.0055));
#1234=CARTESIAN_POINT('',(-1.7347234759768E-18,0.006,0.0035));
#1235=CARTESIAN_POINT('',(0.,-0.004,0.0055));
#1236=MECHANICAL_DESIGN_GEOMETRIC_PRESENTATION_REPRESENTATION('',(#718),
#1237);
#1237=(
GEOMETRIC_REPRESENTATION_CONTEXT(3)
GLOBAL_UNCERTAINTY_ASSIGNED_CONTEXT((#1238))
GLOBAL_UNIT_ASSIGNED_CONTEXT((#1241,#1240,#1239))
REPRESENTATION_CONTEXT('Part 1','TOP_LEVEL_ASSEMBLY_PART')
);
#1238=UNCERTAINTY_MEASURE_WITH_UNIT(LENGTH_MEASURE(2.E-5),#1241,
'DISTANCE_ACCURACY_VALUE','Maximum Tolerance applied to model');
#1239=(
NAMED_UNIT(*)
SI_UNIT($,.STERADIAN.)
SOLID_ANGLE_UNIT()
);
#1240=(
NAMED_UNIT(*)
PLANE_ANGLE_UNIT()
SI_UNIT($,.RADIAN.)
);
#1241=(
LENGTH_UNIT()
NAMED_UNIT(*)
SI_UNIT($,.METRE.)
);
#1242=PRODUCT_DEFINITION_SHAPE('','',#1243);
#1243=PRODUCT_DEFINITION('','',#1245,#1244);
#1244=PRODUCT_DEFINITION_CONTEXT('',#1251,'design');
#1245=PRODUCT_DEFINITION_FORMATION_WITH_SPECIFIED_SOURCE('','',#1247,
 .NOT_KNOWN.);
#1246=PRODUCT_RELATED_PRODUCT_CATEGORY('','',(#1247));
#1247=PRODUCT('Part 1','Part 1','Part 1',(#1249));
#1248=PRODUCT_CATEGORY('','');
#1249=PRODUCT_CONTEXT('',#1251,'mechanical');
#1250=APPLICATION_PROTOCOL_DEFINITION('international standard',
'ap242_managed_model_based_3d_engineering',2011,#1251);
#1251=APPLICATION_CONTEXT('managed model based 3d engineering');
ENDSEC;
END-ISO-10303-21;
