ISO-10303-21;
HEADER;
/* Generated by software containing ST-Developer
 * from STEP Tools, Inc. (www.steptools.com) 
 */
/* OPTION: using custom renumber hook */

FILE_DESCRIPTION(
/* description */ ('STEP AP242',
'CAx-IF Rec.Pracs.---Representation and Presentation of Product Manufa
cturing Information (PMI)---4.0---2014-10-13',
'CAx-IF Rec.Pracs.---3D Tessellated Geometry---0.4---2014-09-14','2;1'),

/* implementation_level */ '2;1');

FILE_NAME(
/* name */ '6874012fd1955a75fb7b32b3',
/* time_stamp */ '2025-07-13T18:55:44Z',
/* author */ (''),
/* organization */ (''),
/* preprocessor_version */ 'ST-DEVELOPER v20',
/* originating_system */ 'ONSHAPE BY PTC INC, 1.200',
/* authorisation */ '  ');

FILE_SCHEMA (('AP242_MANAGED_MODEL_BASED_3D_ENGINEERING_MIM_LF { 1 0 10303 442 1 1 4 }'));
ENDSEC;

DATA;
#10=SHAPE_REPRESENTATION_RELATIONSHIP('','',#885,#11);
#11=ADVANCED_BREP_SHAPE_REPRESENTATION('',(#883),#1469);
#12=LINE('',#1234,#100);
#13=LINE('',#1239,#101);
#14=LINE('',#1243,#102);
#15=LINE('',#1245,#103);
#16=LINE('',#1247,#104);
#17=LINE('',#1249,#105);
#18=LINE('',#1253,#106);
#19=LINE('',#1257,#107);
#20=LINE('',#1262,#108);
#21=LINE('',#1266,#109);
#22=LINE('',#1270,#110);
#23=LINE('',#1272,#111);
#24=LINE('',#1274,#112);
#25=LINE('',#1276,#113);
#26=LINE('',#1280,#114);
#27=LINE('',#1283,#115);
#28=LINE('',#1285,#116);
#29=LINE('',#1287,#117);
#30=LINE('',#1289,#118);
#31=LINE('',#1291,#119);
#32=LINE('',#1298,#120);
#33=LINE('',#1299,#121);
#34=LINE('',#1303,#122);
#35=LINE('',#1305,#123);
#36=LINE('',#1306,#124);
#37=LINE('',#1307,#125);
#38=LINE('',#1309,#126);
#39=LINE('',#1312,#127);
#40=LINE('',#1314,#128);
#41=LINE('',#1316,#129);
#42=LINE('',#1318,#130);
#43=LINE('',#1320,#131);
#44=LINE('',#1322,#132);
#45=LINE('',#1325,#133);
#46=LINE('',#1327,#134);
#47=LINE('',#1329,#135);
#48=LINE('',#1331,#136);
#49=LINE('',#1333,#137);
#50=LINE('',#1334,#138);
#51=LINE('',#1336,#139);
#52=LINE('',#1338,#140);
#53=LINE('',#1340,#141);
#54=LINE('',#1342,#142);
#55=LINE('',#1344,#143);
#56=LINE('',#1345,#144);
#57=LINE('',#1347,#145);
#58=LINE('',#1349,#146);
#59=LINE('',#1353,#147);
#60=LINE('',#1356,#148);
#61=LINE('',#1357,#149);
#62=LINE('',#1359,#150);
#63=LINE('',#1362,#151);
#64=LINE('',#1363,#152);
#65=LINE('',#1365,#153);
#66=LINE('',#1367,#154);
#67=LINE('',#1368,#155);
#68=LINE('',#1375,#156);
#69=LINE('',#1376,#157);
#70=LINE('',#1380,#158);
#71=LINE('',#1382,#159);
#72=LINE('',#1383,#160);
#73=LINE('',#1384,#161);
#74=LINE('',#1399,#162);
#75=LINE('',#1402,#163);
#76=LINE('',#1404,#164);
#77=LINE('',#1406,#165);
#78=LINE('',#1408,#166);
#79=LINE('',#1410,#167);
#80=LINE('',#1412,#168);
#81=LINE('',#1414,#169);
#82=LINE('',#1416,#170);
#83=LINE('',#1418,#171);
#84=LINE('',#1420,#172);
#85=LINE('',#1422,#173);
#86=LINE('',#1423,#174);
#87=LINE('',#1427,#175);
#88=LINE('',#1430,#176);
#89=LINE('',#1432,#177);
#90=LINE('',#1434,#178);
#91=LINE('',#1436,#179);
#92=LINE('',#1438,#180);
#93=LINE('',#1440,#181);
#94=LINE('',#1442,#182);
#95=LINE('',#1444,#183);
#96=LINE('',#1446,#184);
#97=LINE('',#1448,#185);
#98=LINE('',#1450,#186);
#99=LINE('',#1452,#187);
#100=VECTOR('',#987,1.);
#101=VECTOR('',#990,1.);
#102=VECTOR('',#993,1.);
#103=VECTOR('',#994,1.);
#104=VECTOR('',#995,1.);
#105=VECTOR('',#996,1.);
#106=VECTOR('',#999,1.);
#107=VECTOR('',#1004,1.);
#108=VECTOR('',#1007,1.);
#109=VECTOR('',#1010,1.);
#110=VECTOR('',#1013,1.);
#111=VECTOR('',#1014,1.);
#112=VECTOR('',#1015,1.);
#113=VECTOR('',#1016,1.);
#114=VECTOR('',#1021,1.);
#115=VECTOR('',#1022,1.);
#116=VECTOR('',#1023,1.);
#117=VECTOR('',#1024,1.);
#118=VECTOR('',#1025,1.);
#119=VECTOR('',#1026,1.);
#120=VECTOR('',#1035,1.);
#121=VECTOR('',#1036,1.);
#122=VECTOR('',#1039,1.);
#123=VECTOR('',#1042,1.);
#124=VECTOR('',#1043,1.);
#125=VECTOR('',#1044,1.);
#126=VECTOR('',#1047,1.);
#127=VECTOR('',#1048,1.);
#128=VECTOR('',#1049,1.);
#129=VECTOR('',#1050,1.);
#130=VECTOR('',#1051,1.);
#131=VECTOR('',#1052,1.);
#132=VECTOR('',#1055,1.);
#133=VECTOR('',#1056,1.);
#134=VECTOR('',#1057,1.);
#135=VECTOR('',#1058,1.);
#136=VECTOR('',#1059,1.);
#137=VECTOR('',#1060,1.);
#138=VECTOR('',#1061,1.);
#139=VECTOR('',#1062,1.);
#140=VECTOR('',#1063,1.);
#141=VECTOR('',#1066,1.);
#142=VECTOR('',#1067,1.);
#143=VECTOR('',#1068,1.);
#144=VECTOR('',#1069,1.);
#145=VECTOR('',#1070,1.);
#146=VECTOR('',#1071,1.);
#147=VECTOR('',#1076,1.);
#148=VECTOR('',#1077,1.);
#149=VECTOR('',#1078,1.);
#150=VECTOR('',#1081,1.);
#151=VECTOR('',#1082,1.);
#152=VECTOR('',#1083,1.);
#153=VECTOR('',#1084,1.);
#154=VECTOR('',#1085,1.);
#155=VECTOR('',#1086,1.);
#156=VECTOR('',#1099,1.);
#157=VECTOR('',#1100,1.);
#158=VECTOR('',#1103,1.);
#159=VECTOR('',#1106,1.);
#160=VECTOR('',#1107,1.);
#161=VECTOR('',#1108,1.);
#162=VECTOR('',#1129,1.);
#163=VECTOR('',#1134,1.);
#164=VECTOR('',#1135,1.);
#165=VECTOR('',#1136,1.);
#166=VECTOR('',#1139,1.);
#167=VECTOR('',#1140,1.);
#168=VECTOR('',#1143,1.);
#169=VECTOR('',#1144,1.);
#170=VECTOR('',#1145,1.);
#171=VECTOR('',#1148,1.);
#172=VECTOR('',#1149,1.);
#173=VECTOR('',#1152,1.);
#174=VECTOR('',#1153,1.);
#175=VECTOR('',#1160,1.);
#176=VECTOR('',#1165,1.);
#177=VECTOR('',#1166,1.);
#178=VECTOR('',#1167,1.);
#179=VECTOR('',#1170,1.);
#180=VECTOR('',#1171,1.);
#181=VECTOR('',#1174,1.);
#182=VECTOR('',#1175,1.);
#183=VECTOR('',#1178,1.);
#184=VECTOR('',#1179,1.);
#185=VECTOR('',#1182,1.);
#186=VECTOR('',#1183,1.);
#187=VECTOR('',#1186,1.);
#188=PLANE('',#895);
#189=PLANE('',#900);
#190=PLANE('',#905);
#191=PLANE('',#909);
#192=PLANE('',#911);
#193=PLANE('',#912);
#194=PLANE('',#913);
#195=PLANE('',#914);
#196=PLANE('',#915);
#197=PLANE('',#917);
#198=PLANE('',#918);
#199=PLANE('',#923);
#200=PLANE('',#925);
#201=PLANE('',#932);
#202=PLANE('',#935);
#203=PLANE('',#936);
#204=PLANE('',#937);
#205=PLANE('',#938);
#206=PLANE('',#939);
#207=PLANE('',#940);
#208=PLANE('',#941);
#209=PLANE('',#942);
#210=PLANE('',#943);
#211=PLANE('',#944);
#212=PLANE('',#945);
#213=PLANE('',#946);
#214=PLANE('',#947);
#215=PLANE('',#948);
#216=PLANE('',#949);
#217=PLANE('',#950);
#218=PLANE('',#951);
#219=PLANE('',#952);
#220=PLANE('',#965);
#221=PLANE('',#966);
#222=CIRCLE('',#889,0.00225);
#223=CIRCLE('',#892,0.00225);
#224=CIRCLE('',#894,0.00225);
#225=CIRCLE('',#896,0.002);
#226=CIRCLE('',#897,0.002);
#227=CIRCLE('',#898,0.002);
#228=CIRCLE('',#899,0.002);
#229=CIRCLE('',#901,0.002);
#230=CIRCLE('',#902,0.002);
#231=CIRCLE('',#903,0.002);
#232=CIRCLE('',#904,0.002);
#233=CIRCLE('',#907,0.0021);
#234=CIRCLE('',#908,0.0021);
#235=CIRCLE('',#910,0.00225);
#236=CIRCLE('',#916,0.003);
#237=CIRCLE('',#919,0.002);
#238=CIRCLE('',#920,0.002);
#239=CIRCLE('',#921,0.002);
#240=CIRCLE('',#922,0.002);
#241=CIRCLE('',#924,0.00225);
#242=CIRCLE('',#931,0.00225);
#243=CIRCLE('',#933,0.003);
#244=ORIENTED_EDGE('',*,*,#488,.F.);
#245=ORIENTED_EDGE('',*,*,#489,.T.);
#246=ORIENTED_EDGE('',*,*,#490,.F.);
#247=ORIENTED_EDGE('',*,*,#491,.F.);
#248=ORIENTED_EDGE('',*,*,#492,.T.);
#249=ORIENTED_EDGE('',*,*,#493,.F.);
#250=ORIENTED_EDGE('',*,*,#494,.F.);
#251=ORIENTED_EDGE('',*,*,#495,.T.);
#252=ORIENTED_EDGE('',*,*,#496,.T.);
#253=ORIENTED_EDGE('',*,*,#497,.F.);
#254=ORIENTED_EDGE('',*,*,#498,.T.);
#255=ORIENTED_EDGE('',*,*,#499,.F.);
#256=ORIENTED_EDGE('',*,*,#500,.T.);
#257=ORIENTED_EDGE('',*,*,#501,.T.);
#258=ORIENTED_EDGE('',*,*,#502,.F.);
#259=ORIENTED_EDGE('',*,*,#503,.T.);
#260=ORIENTED_EDGE('',*,*,#504,.T.);
#261=ORIENTED_EDGE('',*,*,#505,.T.);
#262=ORIENTED_EDGE('',*,*,#506,.F.);
#263=ORIENTED_EDGE('',*,*,#507,.T.);
#264=ORIENTED_EDGE('',*,*,#508,.F.);
#265=ORIENTED_EDGE('',*,*,#509,.T.);
#266=ORIENTED_EDGE('',*,*,#510,.T.);
#267=ORIENTED_EDGE('',*,*,#511,.T.);
#268=ORIENTED_EDGE('',*,*,#512,.T.);
#269=ORIENTED_EDGE('',*,*,#513,.T.);
#270=ORIENTED_EDGE('',*,*,#514,.T.);
#271=ORIENTED_EDGE('',*,*,#515,.T.);
#272=ORIENTED_EDGE('',*,*,#516,.T.);
#273=ORIENTED_EDGE('',*,*,#517,.F.);
#274=ORIENTED_EDGE('',*,*,#518,.T.);
#275=ORIENTED_EDGE('',*,*,#519,.T.);
#276=ORIENTED_EDGE('',*,*,#520,.F.);
#277=ORIENTED_EDGE('',*,*,#521,.F.);
#278=ORIENTED_EDGE('',*,*,#522,.F.);
#279=ORIENTED_EDGE('',*,*,#523,.F.);
#280=ORIENTED_EDGE('',*,*,#524,.T.);
#281=ORIENTED_EDGE('',*,*,#519,.F.);
#282=ORIENTED_EDGE('',*,*,#525,.T.);
#283=ORIENTED_EDGE('',*,*,#502,.T.);
#284=ORIENTED_EDGE('',*,*,#526,.F.);
#285=ORIENTED_EDGE('',*,*,#527,.T.);
#286=ORIENTED_EDGE('',*,*,#528,.F.);
#287=ORIENTED_EDGE('',*,*,#512,.F.);
#288=ORIENTED_EDGE('',*,*,#529,.T.);
#289=ORIENTED_EDGE('',*,*,#517,.T.);
#290=ORIENTED_EDGE('',*,*,#530,.T.);
#291=ORIENTED_EDGE('',*,*,#489,.F.);
#292=ORIENTED_EDGE('',*,*,#531,.T.);
#293=ORIENTED_EDGE('',*,*,#532,.T.);
#294=ORIENTED_EDGE('',*,*,#533,.T.);
#295=ORIENTED_EDGE('',*,*,#534,.F.);
#296=ORIENTED_EDGE('',*,*,#535,.F.);
#297=ORIENTED_EDGE('',*,*,#536,.F.);
#298=ORIENTED_EDGE('',*,*,#537,.F.);
#299=ORIENTED_EDGE('',*,*,#538,.F.);
#300=ORIENTED_EDGE('',*,*,#539,.F.);
#301=ORIENTED_EDGE('',*,*,#540,.F.);
#302=ORIENTED_EDGE('',*,*,#541,.F.);
#303=ORIENTED_EDGE('',*,*,#542,.F.);
#304=ORIENTED_EDGE('',*,*,#543,.F.);
#305=ORIENTED_EDGE('',*,*,#508,.T.);
#306=ORIENTED_EDGE('',*,*,#544,.T.);
#307=ORIENTED_EDGE('',*,*,#545,.F.);
#308=ORIENTED_EDGE('',*,*,#546,.T.);
#309=ORIENTED_EDGE('',*,*,#547,.T.);
#310=ORIENTED_EDGE('',*,*,#548,.T.);
#311=ORIENTED_EDGE('',*,*,#549,.T.);
#312=ORIENTED_EDGE('',*,*,#510,.F.);
#313=ORIENTED_EDGE('',*,*,#550,.T.);
#314=ORIENTED_EDGE('',*,*,#551,.T.);
#315=ORIENTED_EDGE('',*,*,#552,.T.);
#316=ORIENTED_EDGE('',*,*,#504,.F.);
#317=ORIENTED_EDGE('',*,*,#553,.T.);
#318=ORIENTED_EDGE('',*,*,#554,.T.);
#319=ORIENTED_EDGE('',*,*,#555,.T.);
#320=ORIENTED_EDGE('',*,*,#495,.F.);
#321=ORIENTED_EDGE('',*,*,#556,.T.);
#322=ORIENTED_EDGE('',*,*,#557,.T.);
#323=ORIENTED_EDGE('',*,*,#558,.T.);
#324=ORIENTED_EDGE('',*,*,#497,.T.);
#325=ORIENTED_EDGE('',*,*,#559,.T.);
#326=ORIENTED_EDGE('',*,*,#560,.F.);
#327=ORIENTED_EDGE('',*,*,#561,.T.);
#328=ORIENTED_EDGE('',*,*,#506,.T.);
#329=ORIENTED_EDGE('',*,*,#562,.T.);
#330=ORIENTED_EDGE('',*,*,#545,.T.);
#331=ORIENTED_EDGE('',*,*,#563,.T.);
#332=ORIENTED_EDGE('',*,*,#560,.T.);
#333=ORIENTED_EDGE('',*,*,#564,.T.);
#334=ORIENTED_EDGE('',*,*,#554,.F.);
#335=ORIENTED_EDGE('',*,*,#565,.T.);
#336=ORIENTED_EDGE('',*,*,#551,.F.);
#337=ORIENTED_EDGE('',*,*,#566,.T.);
#338=ORIENTED_EDGE('',*,*,#523,.T.);
#339=ORIENTED_EDGE('',*,*,#499,.T.);
#340=ORIENTED_EDGE('',*,*,#567,.T.);
#341=ORIENTED_EDGE('',*,*,#532,.F.);
#342=ORIENTED_EDGE('',*,*,#568,.F.);
#343=ORIENTED_EDGE('',*,*,#569,.T.);
#344=ORIENTED_EDGE('',*,*,#570,.F.);
#345=ORIENTED_EDGE('',*,*,#534,.T.);
#346=ORIENTED_EDGE('',*,*,#571,.T.);
#347=ORIENTED_EDGE('',*,*,#515,.F.);
#348=ORIENTED_EDGE('',*,*,#572,.T.);
#349=ORIENTED_EDGE('',*,*,#492,.F.);
#350=ORIENTED_EDGE('',*,*,#573,.T.);
#351=ORIENTED_EDGE('',*,*,#574,.F.);
#352=ORIENTED_EDGE('',*,*,#527,.F.);
#353=ORIENTED_EDGE('',*,*,#575,.F.);
#354=ORIENTED_EDGE('',*,*,#576,.F.);
#355=ORIENTED_EDGE('',*,*,#569,.F.);
#356=ORIENTED_EDGE('',*,*,#577,.F.);
#357=ORIENTED_EDGE('',*,*,#578,.F.);
#358=ORIENTED_EDGE('',*,*,#578,.T.);
#359=ORIENTED_EDGE('',*,*,#579,.F.);
#360=ORIENTED_EDGE('',*,*,#579,.T.);
#361=ORIENTED_EDGE('',*,*,#553,.F.);
#362=ORIENTED_EDGE('',*,*,#570,.T.);
#363=ORIENTED_EDGE('',*,*,#576,.T.);
#364=ORIENTED_EDGE('',*,*,#580,.T.);
#365=ORIENTED_EDGE('',*,*,#500,.F.);
#366=ORIENTED_EDGE('',*,*,#526,.T.);
#367=ORIENTED_EDGE('',*,*,#501,.F.);
#368=ORIENTED_EDGE('',*,*,#580,.F.);
#369=ORIENTED_EDGE('',*,*,#575,.T.);
#370=ORIENTED_EDGE('',*,*,#537,.T.);
#371=ORIENTED_EDGE('',*,*,#581,.F.);
#372=ORIENTED_EDGE('',*,*,#582,.F.);
#373=ORIENTED_EDGE('',*,*,#583,.T.);
#374=ORIENTED_EDGE('',*,*,#577,.T.);
#375=ORIENTED_EDGE('',*,*,#568,.T.);
#376=ORIENTED_EDGE('',*,*,#520,.T.);
#377=ORIENTED_EDGE('',*,*,#528,.T.);
#378=ORIENTED_EDGE('',*,*,#574,.T.);
#379=ORIENTED_EDGE('',*,*,#583,.F.);
#380=ORIENTED_EDGE('',*,*,#584,.F.);
#381=ORIENTED_EDGE('',*,*,#585,.T.);
#382=ORIENTED_EDGE('',*,*,#535,.T.);
#383=ORIENTED_EDGE('',*,*,#573,.F.);
#384=ORIENTED_EDGE('',*,*,#491,.T.);
#385=ORIENTED_EDGE('',*,*,#586,.F.);
#386=ORIENTED_EDGE('',*,*,#587,.F.);
#387=ORIENTED_EDGE('',*,*,#588,.T.);
#388=ORIENTED_EDGE('',*,*,#522,.T.);
#389=ORIENTED_EDGE('',*,*,#589,.F.);
#390=ORIENTED_EDGE('',*,*,#590,.F.);
#391=ORIENTED_EDGE('',*,*,#586,.T.);
#392=ORIENTED_EDGE('',*,*,#490,.T.);
#393=ORIENTED_EDGE('',*,*,#530,.F.);
#394=ORIENTED_EDGE('',*,*,#590,.T.);
#395=ORIENTED_EDGE('',*,*,#591,.T.);
#396=ORIENTED_EDGE('',*,*,#584,.T.);
#397=ORIENTED_EDGE('',*,*,#582,.T.);
#398=ORIENTED_EDGE('',*,*,#592,.T.);
#399=ORIENTED_EDGE('',*,*,#587,.T.);
#400=ORIENTED_EDGE('',*,*,#524,.F.);
#401=ORIENTED_EDGE('',*,*,#536,.T.);
#402=ORIENTED_EDGE('',*,*,#588,.F.);
#403=ORIENTED_EDGE('',*,*,#592,.F.);
#404=ORIENTED_EDGE('',*,*,#581,.T.);
#405=ORIENTED_EDGE('',*,*,#521,.T.);
#406=ORIENTED_EDGE('',*,*,#585,.F.);
#407=ORIENTED_EDGE('',*,*,#591,.F.);
#408=ORIENTED_EDGE('',*,*,#589,.T.);
#409=ORIENTED_EDGE('',*,*,#488,.T.);
#410=ORIENTED_EDGE('',*,*,#593,.T.);
#411=ORIENTED_EDGE('',*,*,#513,.F.);
#412=ORIENTED_EDGE('',*,*,#531,.F.);
#413=ORIENTED_EDGE('',*,*,#514,.F.);
#414=ORIENTED_EDGE('',*,*,#593,.F.);
#415=ORIENTED_EDGE('',*,*,#493,.T.);
#416=ORIENTED_EDGE('',*,*,#572,.F.);
#417=ORIENTED_EDGE('',*,*,#538,.T.);
#418=ORIENTED_EDGE('',*,*,#594,.F.);
#419=ORIENTED_EDGE('',*,*,#595,.F.);
#420=ORIENTED_EDGE('',*,*,#596,.T.);
#421=ORIENTED_EDGE('',*,*,#543,.T.);
#422=ORIENTED_EDGE('',*,*,#597,.F.);
#423=ORIENTED_EDGE('',*,*,#598,.F.);
#424=ORIENTED_EDGE('',*,*,#594,.T.);
#425=ORIENTED_EDGE('',*,*,#542,.T.);
#426=ORIENTED_EDGE('',*,*,#599,.F.);
#427=ORIENTED_EDGE('',*,*,#600,.F.);
#428=ORIENTED_EDGE('',*,*,#597,.T.);
#429=ORIENTED_EDGE('',*,*,#541,.T.);
#430=ORIENTED_EDGE('',*,*,#601,.F.);
#431=ORIENTED_EDGE('',*,*,#602,.F.);
#432=ORIENTED_EDGE('',*,*,#599,.T.);
#433=ORIENTED_EDGE('',*,*,#540,.T.);
#434=ORIENTED_EDGE('',*,*,#603,.F.);
#435=ORIENTED_EDGE('',*,*,#604,.F.);
#436=ORIENTED_EDGE('',*,*,#601,.T.);
#437=ORIENTED_EDGE('',*,*,#539,.T.);
#438=ORIENTED_EDGE('',*,*,#596,.F.);
#439=ORIENTED_EDGE('',*,*,#605,.F.);
#440=ORIENTED_EDGE('',*,*,#603,.T.);
#441=ORIENTED_EDGE('',*,*,#494,.T.);
#442=ORIENTED_EDGE('',*,*,#595,.T.);
#443=ORIENTED_EDGE('',*,*,#598,.T.);
#444=ORIENTED_EDGE('',*,*,#600,.T.);
#445=ORIENTED_EDGE('',*,*,#602,.T.);
#446=ORIENTED_EDGE('',*,*,#604,.T.);
#447=ORIENTED_EDGE('',*,*,#605,.T.);
#448=ORIENTED_EDGE('',*,*,#507,.F.);
#449=ORIENTED_EDGE('',*,*,#561,.F.);
#450=ORIENTED_EDGE('',*,*,#563,.F.);
#451=ORIENTED_EDGE('',*,*,#544,.F.);
#452=ORIENTED_EDGE('',*,*,#509,.F.);
#453=ORIENTED_EDGE('',*,*,#546,.F.);
#454=ORIENTED_EDGE('',*,*,#566,.F.);
#455=ORIENTED_EDGE('',*,*,#550,.F.);
#456=ORIENTED_EDGE('',*,*,#496,.F.);
#457=ORIENTED_EDGE('',*,*,#555,.F.);
#458=ORIENTED_EDGE('',*,*,#564,.F.);
#459=ORIENTED_EDGE('',*,*,#559,.F.);
#460=ORIENTED_EDGE('',*,*,#505,.F.);
#461=ORIENTED_EDGE('',*,*,#552,.F.);
#462=ORIENTED_EDGE('',*,*,#565,.F.);
#463=ORIENTED_EDGE('',*,*,#556,.F.);
#464=ORIENTED_EDGE('',*,*,#503,.F.);
#465=ORIENTED_EDGE('',*,*,#525,.F.);
#466=ORIENTED_EDGE('',*,*,#606,.T.);
#467=ORIENTED_EDGE('',*,*,#547,.F.);
#468=ORIENTED_EDGE('',*,*,#511,.F.);
#469=ORIENTED_EDGE('',*,*,#549,.F.);
#470=ORIENTED_EDGE('',*,*,#607,.T.);
#471=ORIENTED_EDGE('',*,*,#529,.F.);
#472=ORIENTED_EDGE('',*,*,#516,.F.);
#473=ORIENTED_EDGE('',*,*,#571,.F.);
#474=ORIENTED_EDGE('',*,*,#608,.T.);
#475=ORIENTED_EDGE('',*,*,#562,.F.);
#476=ORIENTED_EDGE('',*,*,#498,.F.);
#477=ORIENTED_EDGE('',*,*,#558,.F.);
#478=ORIENTED_EDGE('',*,*,#609,.T.);
#479=ORIENTED_EDGE('',*,*,#567,.F.);
#480=ORIENTED_EDGE('',*,*,#608,.F.);
#481=ORIENTED_EDGE('',*,*,#533,.F.);
#482=ORIENTED_EDGE('',*,*,#609,.F.);
#483=ORIENTED_EDGE('',*,*,#557,.F.);
#484=ORIENTED_EDGE('',*,*,#607,.F.);
#485=ORIENTED_EDGE('',*,*,#548,.F.);
#486=ORIENTED_EDGE('',*,*,#606,.F.);
#487=ORIENTED_EDGE('',*,*,#518,.F.);
#488=EDGE_CURVE('',#610,#611,#692,.T.);
#489=EDGE_CURVE('',#610,#612,#222,.F.);
#490=EDGE_CURVE('',#613,#612,#693,.T.);
#491=EDGE_CURVE('',#614,#613,#694,.T.);
#492=EDGE_CURVE('',#614,#615,#223,.F.);
#493=EDGE_CURVE('',#611,#615,#695,.T.);
#494=EDGE_CURVE('',#616,#616,#224,.F.);
#495=EDGE_CURVE('',#617,#618,#12,.T.);
#496=EDGE_CURVE('',#618,#619,#225,.T.);
#497=EDGE_CURVE('',#620,#619,#13,.T.);
#498=EDGE_CURVE('',#620,#621,#226,.T.);
#499=EDGE_CURVE('',#622,#621,#14,.T.);
#500=EDGE_CURVE('',#622,#623,#15,.T.);
#501=EDGE_CURVE('',#623,#624,#16,.T.);
#502=EDGE_CURVE('',#625,#624,#17,.T.);
#503=EDGE_CURVE('',#625,#626,#227,.T.);
#504=EDGE_CURVE('',#626,#627,#18,.T.);
#505=EDGE_CURVE('',#627,#617,#228,.T.);
#506=EDGE_CURVE('',#628,#629,#19,.T.);
#507=EDGE_CURVE('',#628,#630,#229,.T.);
#508=EDGE_CURVE('',#631,#630,#20,.T.);
#509=EDGE_CURVE('',#631,#632,#230,.T.);
#510=EDGE_CURVE('',#632,#633,#21,.T.);
#511=EDGE_CURVE('',#633,#634,#231,.T.);
#512=EDGE_CURVE('',#634,#635,#22,.T.);
#513=EDGE_CURVE('',#635,#636,#23,.T.);
#514=EDGE_CURVE('',#636,#637,#24,.T.);
#515=EDGE_CURVE('',#637,#638,#25,.T.);
#516=EDGE_CURVE('',#638,#629,#232,.T.);
#517=EDGE_CURVE('',#639,#640,#26,.T.);
#518=EDGE_CURVE('',#639,#641,#27,.T.);
#519=EDGE_CURVE('',#641,#642,#28,.T.);
#520=EDGE_CURVE('',#643,#642,#29,.T.);
#521=EDGE_CURVE('',#644,#643,#30,.T.);
#522=EDGE_CURVE('',#640,#644,#31,.T.);
#523=EDGE_CURVE('',#645,#645,#233,.T.);
#524=EDGE_CURVE('',#646,#646,#234,.T.);
#525=EDGE_CURVE('',#641,#625,#32,.F.);
#526=EDGE_CURVE('',#647,#624,#33,.T.);
#527=EDGE_CURVE('',#647,#648,#235,.F.);
#528=EDGE_CURVE('',#642,#648,#34,.T.);
#529=EDGE_CURVE('',#634,#639,#35,.T.);
#530=EDGE_CURVE('',#640,#612,#36,.T.);
#531=EDGE_CURVE('',#610,#635,#37,.T.);
#532=EDGE_CURVE('',#649,#650,#38,.T.);
#533=EDGE_CURVE('',#650,#651,#39,.T.);
#534=EDGE_CURVE('',#652,#651,#40,.T.);
#535=EDGE_CURVE('',#653,#652,#41,.T.);
#536=EDGE_CURVE('',#654,#653,#42,.T.);
#537=EDGE_CURVE('',#649,#654,#43,.T.);
#538=EDGE_CURVE('',#655,#656,#44,.T.);
#539=EDGE_CURVE('',#657,#655,#45,.T.);
#540=EDGE_CURVE('',#658,#657,#46,.T.);
#541=EDGE_CURVE('',#659,#658,#47,.T.);
#542=EDGE_CURVE('',#660,#659,#48,.T.);
#543=EDGE_CURVE('',#656,#660,#49,.T.);
#544=EDGE_CURVE('',#630,#661,#50,.T.);
#545=EDGE_CURVE('',#662,#661,#51,.T.);
#546=EDGE_CURVE('',#662,#631,#52,.F.);
#547=EDGE_CURVE('',#626,#663,#53,.T.);
#548=EDGE_CURVE('',#663,#664,#54,.T.);
#549=EDGE_CURVE('',#664,#633,#55,.F.);
#550=EDGE_CURVE('',#632,#665,#56,.T.);
#551=EDGE_CURVE('',#665,#666,#57,.T.);
#552=EDGE_CURVE('',#666,#627,#58,.F.);
#553=EDGE_CURVE('',#667,#667,#236,.T.);
#554=EDGE_CURVE('',#668,#669,#59,.T.);
#555=EDGE_CURVE('',#669,#618,#60,.F.);
#556=EDGE_CURVE('',#617,#668,#61,.T.);
#557=EDGE_CURVE('',#670,#671,#62,.T.);
#558=EDGE_CURVE('',#671,#620,#63,.F.);
#559=EDGE_CURVE('',#619,#672,#64,.T.);
#560=EDGE_CURVE('',#673,#672,#65,.T.);
#561=EDGE_CURVE('',#673,#628,#66,.F.);
#562=EDGE_CURVE('',#629,#670,#67,.T.);
#563=EDGE_CURVE('',#661,#673,#237,.F.);
#564=EDGE_CURVE('',#672,#669,#238,.F.);
#565=EDGE_CURVE('',#668,#666,#239,.F.);
#566=EDGE_CURVE('',#665,#662,#240,.F.);
#567=EDGE_CURVE('',#621,#650,#68,.T.);
#568=EDGE_CURVE('',#674,#649,#69,.T.);
#569=EDGE_CURVE('',#674,#675,#241,.F.);
#570=EDGE_CURVE('',#622,#675,#70,.T.);
#571=EDGE_CURVE('',#651,#638,#71,.F.);
#572=EDGE_CURVE('',#637,#615,#72,.T.);
#573=EDGE_CURVE('',#614,#652,#73,.T.);
#574=EDGE_CURVE('',#648,#676,#696,.T.);
#575=EDGE_CURVE('',#677,#647,#697,.T.);
#576=EDGE_CURVE('',#675,#677,#698,.T.);
#577=EDGE_CURVE('',#676,#674,#699,.T.);
#578=EDGE_CURVE('',#678,#678,#242,.T.);
#579=EDGE_CURVE('',#679,#679,#243,.T.);
#580=EDGE_CURVE('',#677,#623,#74,.T.);
#581=EDGE_CURVE('',#680,#654,#75,.T.);
#582=EDGE_CURVE('',#681,#680,#76,.T.);
#583=EDGE_CURVE('',#681,#676,#77,.T.);
#584=EDGE_CURVE('',#682,#681,#78,.T.);
#585=EDGE_CURVE('',#682,#643,#79,.T.);
#586=EDGE_CURVE('',#683,#613,#80,.T.);
#587=EDGE_CURVE('',#684,#683,#81,.T.);
#588=EDGE_CURVE('',#684,#653,#82,.T.);
#589=EDGE_CURVE('',#685,#644,#83,.T.);
#590=EDGE_CURVE('',#683,#685,#84,.T.);
#591=EDGE_CURVE('',#685,#682,#85,.T.);
#592=EDGE_CURVE('',#680,#684,#86,.T.);
#593=EDGE_CURVE('',#611,#636,#87,.T.);
#594=EDGE_CURVE('',#686,#656,#88,.T.);
#595=EDGE_CURVE('',#687,#686,#89,.T.);
#596=EDGE_CURVE('',#687,#655,#90,.T.);
#597=EDGE_CURVE('',#688,#660,#91,.T.);
#598=EDGE_CURVE('',#686,#688,#92,.T.);
#599=EDGE_CURVE('',#689,#659,#93,.T.);
#600=EDGE_CURVE('',#688,#689,#94,.T.);
#601=EDGE_CURVE('',#690,#658,#95,.T.);
#602=EDGE_CURVE('',#689,#690,#96,.T.);
#603=EDGE_CURVE('',#691,#657,#97,.T.);
#604=EDGE_CURVE('',#690,#691,#98,.T.);
#605=EDGE_CURVE('',#691,#687,#99,.T.);
#606=EDGE_CURVE('',#641,#663,#700,.T.);
#607=EDGE_CURVE('',#664,#639,#701,.T.);
#608=EDGE_CURVE('',#651,#670,#702,.F.);
#609=EDGE_CURVE('',#671,#650,#703,.F.);
#610=VERTEX_POINT('',#1220);
#611=VERTEX_POINT('',#1221);
#612=VERTEX_POINT('',#1223);
#613=VERTEX_POINT('',#1225);
#614=VERTEX_POINT('',#1227);
#615=VERTEX_POINT('',#1229);
#616=VERTEX_POINT('',#1232);
#617=VERTEX_POINT('',#1235);
#618=VERTEX_POINT('',#1236);
#619=VERTEX_POINT('',#1238);
#620=VERTEX_POINT('',#1240);
#621=VERTEX_POINT('',#1242);
#622=VERTEX_POINT('',#1244);
#623=VERTEX_POINT('',#1246);
#624=VERTEX_POINT('',#1248);
#625=VERTEX_POINT('',#1250);
#626=VERTEX_POINT('',#1252);
#627=VERTEX_POINT('',#1254);
#628=VERTEX_POINT('',#1258);
#629=VERTEX_POINT('',#1259);
#630=VERTEX_POINT('',#1261);
#631=VERTEX_POINT('',#1263);
#632=VERTEX_POINT('',#1265);
#633=VERTEX_POINT('',#1267);
#634=VERTEX_POINT('',#1269);
#635=VERTEX_POINT('',#1271);
#636=VERTEX_POINT('',#1273);
#637=VERTEX_POINT('',#1275);
#638=VERTEX_POINT('',#1277);
#639=VERTEX_POINT('',#1281);
#640=VERTEX_POINT('',#1282);
#641=VERTEX_POINT('',#1284);
#642=VERTEX_POINT('',#1286);
#643=VERTEX_POINT('',#1288);
#644=VERTEX_POINT('',#1290);
#645=VERTEX_POINT('',#1294);
#646=VERTEX_POINT('',#1296);
#647=VERTEX_POINT('',#1300);
#648=VERTEX_POINT('',#1302);
#649=VERTEX_POINT('',#1310);
#650=VERTEX_POINT('',#1311);
#651=VERTEX_POINT('',#1313);
#652=VERTEX_POINT('',#1315);
#653=VERTEX_POINT('',#1317);
#654=VERTEX_POINT('',#1319);
#655=VERTEX_POINT('',#1323);
#656=VERTEX_POINT('',#1324);
#657=VERTEX_POINT('',#1326);
#658=VERTEX_POINT('',#1328);
#659=VERTEX_POINT('',#1330);
#660=VERTEX_POINT('',#1332);
#661=VERTEX_POINT('',#1335);
#662=VERTEX_POINT('',#1337);
#663=VERTEX_POINT('',#1341);
#664=VERTEX_POINT('',#1343);
#665=VERTEX_POINT('',#1346);
#666=VERTEX_POINT('',#1348);
#667=VERTEX_POINT('',#1352);
#668=VERTEX_POINT('',#1354);
#669=VERTEX_POINT('',#1355);
#670=VERTEX_POINT('',#1360);
#671=VERTEX_POINT('',#1361);
#672=VERTEX_POINT('',#1364);
#673=VERTEX_POINT('',#1366);
#674=VERTEX_POINT('',#1377);
#675=VERTEX_POINT('',#1379);
#676=VERTEX_POINT('',#1387);
#677=VERTEX_POINT('',#1389);
#678=VERTEX_POINT('',#1393);
#679=VERTEX_POINT('',#1396);
#680=VERTEX_POINT('',#1403);
#681=VERTEX_POINT('',#1405);
#682=VERTEX_POINT('',#1409);
#683=VERTEX_POINT('',#1413);
#684=VERTEX_POINT('',#1415);
#685=VERTEX_POINT('',#1419);
#686=VERTEX_POINT('',#1431);
#687=VERTEX_POINT('',#1433);
#688=VERTEX_POINT('',#1437);
#689=VERTEX_POINT('',#1441);
#690=VERTEX_POINT('',#1445);
#691=VERTEX_POINT('',#1449);
#692=ELLIPSE('',#888,0.00259807621135332,0.00225);
#693=ELLIPSE('',#890,0.00259807621135332,0.00225);
#694=ELLIPSE('',#891,0.00259807621135332,0.00225);
#695=ELLIPSE('',#893,0.00259807621135332,0.00225);
#696=ELLIPSE('',#927,0.00259807621135332,0.00225);
#697=ELLIPSE('',#928,0.00259807621135332,0.00225);
#698=ELLIPSE('',#929,0.00259807621135332,0.00225);
#699=ELLIPSE('',#930,0.00259807621135332,0.00225);
#700=ELLIPSE('',#958,0.00282842712474619,0.002);
#701=ELLIPSE('',#960,0.00282842712474619,0.002);
#702=ELLIPSE('',#962,0.00282842712474619,0.002);
#703=ELLIPSE('',#964,0.00282842712474619,0.002);
#704=EDGE_LOOP('',(#244,#245,#246,#247,#248,#249));
#705=EDGE_LOOP('',(#250));
#706=EDGE_LOOP('',(#251,#252,#253,#254,#255,#256,#257,#258,#259,#260,#261));
#707=EDGE_LOOP('',(#262,#263,#264,#265,#266,#267,#268,#269,#270,#271,#272));
#708=EDGE_LOOP('',(#273,#274,#275,#276,#277,#278));
#709=EDGE_LOOP('',(#279));
#710=EDGE_LOOP('',(#280));
#711=EDGE_LOOP('',(#281,#282,#283,#284,#285,#286));
#712=EDGE_LOOP('',(#287,#288,#289,#290,#291,#292));
#713=EDGE_LOOP('',(#293,#294,#295,#296,#297,#298));
#714=EDGE_LOOP('',(#299,#300,#301,#302,#303,#304));
#715=EDGE_LOOP('',(#305,#306,#307,#308));
#716=EDGE_LOOP('',(#309,#310,#311,#312,#313,#314,#315,#316));
#717=EDGE_LOOP('',(#317));
#718=EDGE_LOOP('',(#318,#319,#320,#321));
#719=EDGE_LOOP('',(#322,#323,#324,#325,#326,#327,#328,#329));
#720=EDGE_LOOP('',(#330,#331,#332,#333,#334,#335,#336,#337));
#721=EDGE_LOOP('',(#338));
#722=EDGE_LOOP('',(#339,#340,#341,#342,#343,#344));
#723=EDGE_LOOP('',(#345,#346,#347,#348,#349,#350));
#724=EDGE_LOOP('',(#351,#352,#353,#354,#355,#356));
#725=EDGE_LOOP('',(#357));
#726=EDGE_LOOP('',(#358));
#727=EDGE_LOOP('',(#359));
#728=EDGE_LOOP('',(#360));
#729=EDGE_LOOP('',(#361));
#730=EDGE_LOOP('',(#362,#363,#364,#365));
#731=EDGE_LOOP('',(#366,#367,#368,#369));
#732=EDGE_LOOP('',(#370,#371,#372,#373,#374,#375));
#733=EDGE_LOOP('',(#376,#377,#378,#379,#380,#381));
#734=EDGE_LOOP('',(#382,#383,#384,#385,#386,#387));
#735=EDGE_LOOP('',(#388,#389,#390,#391,#392,#393));
#736=EDGE_LOOP('',(#394,#395,#396,#397,#398,#399));
#737=EDGE_LOOP('',(#400));
#738=EDGE_LOOP('',(#401,#402,#403,#404));
#739=EDGE_LOOP('',(#405,#406,#407,#408));
#740=EDGE_LOOP('',(#409,#410,#411,#412));
#741=EDGE_LOOP('',(#413,#414,#415,#416));
#742=EDGE_LOOP('',(#417,#418,#419,#420));
#743=EDGE_LOOP('',(#421,#422,#423,#424));
#744=EDGE_LOOP('',(#425,#426,#427,#428));
#745=EDGE_LOOP('',(#429,#430,#431,#432));
#746=EDGE_LOOP('',(#433,#434,#435,#436));
#747=EDGE_LOOP('',(#437,#438,#439,#440));
#748=EDGE_LOOP('',(#441));
#749=EDGE_LOOP('',(#442,#443,#444,#445,#446,#447));
#750=EDGE_LOOP('',(#448,#449,#450,#451));
#751=EDGE_LOOP('',(#452,#453,#454,#455));
#752=EDGE_LOOP('',(#456,#457,#458,#459));
#753=EDGE_LOOP('',(#460,#461,#462,#463));
#754=EDGE_LOOP('',(#464,#465,#466,#467));
#755=EDGE_LOOP('',(#468,#469,#470,#471));
#756=EDGE_LOOP('',(#472,#473,#474,#475));
#757=EDGE_LOOP('',(#476,#477,#478,#479));
#758=EDGE_LOOP('',(#480,#481,#482,#483));
#759=EDGE_LOOP('',(#484,#485,#486,#487));
#760=FACE_BOUND('',#704,.T.);
#761=FACE_BOUND('',#705,.T.);
#762=FACE_BOUND('',#706,.T.);
#763=FACE_BOUND('',#707,.T.);
#764=FACE_BOUND('',#708,.T.);
#765=FACE_BOUND('',#709,.T.);
#766=FACE_BOUND('',#710,.T.);
#767=FACE_BOUND('',#711,.T.);
#768=FACE_BOUND('',#712,.T.);
#769=FACE_BOUND('',#713,.T.);
#770=FACE_BOUND('',#714,.T.);
#771=FACE_BOUND('',#715,.T.);
#772=FACE_BOUND('',#716,.T.);
#773=FACE_BOUND('',#717,.T.);
#774=FACE_BOUND('',#718,.T.);
#775=FACE_BOUND('',#719,.T.);
#776=FACE_BOUND('',#720,.T.);
#777=FACE_BOUND('',#721,.T.);
#778=FACE_BOUND('',#722,.T.);
#779=FACE_BOUND('',#723,.T.);
#780=FACE_BOUND('',#724,.T.);
#781=FACE_BOUND('',#725,.T.);
#782=FACE_BOUND('',#726,.T.);
#783=FACE_BOUND('',#727,.T.);
#784=FACE_BOUND('',#728,.T.);
#785=FACE_BOUND('',#729,.T.);
#786=FACE_BOUND('',#730,.T.);
#787=FACE_BOUND('',#731,.T.);
#788=FACE_BOUND('',#732,.T.);
#789=FACE_BOUND('',#733,.T.);
#790=FACE_BOUND('',#734,.T.);
#791=FACE_BOUND('',#735,.T.);
#792=FACE_BOUND('',#736,.T.);
#793=FACE_BOUND('',#737,.T.);
#794=FACE_BOUND('',#738,.T.);
#795=FACE_BOUND('',#739,.T.);
#796=FACE_BOUND('',#740,.T.);
#797=FACE_BOUND('',#741,.T.);
#798=FACE_BOUND('',#742,.T.);
#799=FACE_BOUND('',#743,.T.);
#800=FACE_BOUND('',#744,.T.);
#801=FACE_BOUND('',#745,.T.);
#802=FACE_BOUND('',#746,.T.);
#803=FACE_BOUND('',#747,.T.);
#804=FACE_BOUND('',#748,.T.);
#805=FACE_BOUND('',#749,.T.);
#806=FACE_BOUND('',#750,.T.);
#807=FACE_BOUND('',#751,.T.);
#808=FACE_BOUND('',#752,.T.);
#809=FACE_BOUND('',#753,.T.);
#810=FACE_BOUND('',#754,.T.);
#811=FACE_BOUND('',#755,.T.);
#812=FACE_BOUND('',#756,.T.);
#813=FACE_BOUND('',#757,.T.);
#814=FACE_BOUND('',#758,.T.);
#815=FACE_BOUND('',#759,.T.);
#816=CYLINDRICAL_SURFACE('',#887,0.00225);
#817=CYLINDRICAL_SURFACE('',#906,0.0021);
#818=CYLINDRICAL_SURFACE('',#926,0.00225);
#819=CYLINDRICAL_SURFACE('',#934,0.003);
#820=CYLINDRICAL_SURFACE('',#953,0.002);
#821=CYLINDRICAL_SURFACE('',#954,0.002);
#822=CYLINDRICAL_SURFACE('',#955,0.002);
#823=CYLINDRICAL_SURFACE('',#956,0.002);
#824=CYLINDRICAL_SURFACE('',#957,0.002);
#825=CYLINDRICAL_SURFACE('',#959,0.002);
#826=CYLINDRICAL_SURFACE('',#961,0.002);
#827=CYLINDRICAL_SURFACE('',#963,0.002);
#828=ADVANCED_FACE('',(#760,#761),#816,.F.);
#829=ADVANCED_FACE('',(#762),#188,.T.);
#830=ADVANCED_FACE('',(#763),#189,.T.);
#831=ADVANCED_FACE('',(#764),#190,.T.);
#832=ADVANCED_FACE('',(#765,#766),#817,.F.);
#833=ADVANCED_FACE('',(#767),#191,.T.);
#834=ADVANCED_FACE('',(#768),#192,.F.);
#835=ADVANCED_FACE('',(#769),#193,.T.);
#836=ADVANCED_FACE('',(#770,#771),#194,.T.);
#837=ADVANCED_FACE('',(#772),#195,.F.);
#838=ADVANCED_FACE('',(#773,#774),#196,.F.);
#839=ADVANCED_FACE('',(#775),#197,.T.);
#840=ADVANCED_FACE('',(#776,#777),#198,.F.);
#841=ADVANCED_FACE('',(#778),#199,.T.);
#842=ADVANCED_FACE('',(#779),#200,.F.);
#843=ADVANCED_FACE('',(#780,#781),#818,.F.);
#844=ADVANCED_FACE('',(#782,#783),#201,.T.);
#845=ADVANCED_FACE('',(#784,#785),#819,.F.);
#846=ADVANCED_FACE('',(#786),#202,.F.);
#847=ADVANCED_FACE('',(#787),#203,.F.);
#848=ADVANCED_FACE('',(#788),#204,.F.);
#849=ADVANCED_FACE('',(#789),#205,.F.);
#850=ADVANCED_FACE('',(#790),#206,.F.);
#851=ADVANCED_FACE('',(#791),#207,.F.);
#852=ADVANCED_FACE('',(#792,#793),#208,.T.);
#853=ADVANCED_FACE('',(#794),#209,.F.);
#854=ADVANCED_FACE('',(#795),#210,.F.);
#855=ADVANCED_FACE('',(#796),#211,.F.);
#856=ADVANCED_FACE('',(#797),#212,.F.);
#857=ADVANCED_FACE('',(#798),#213,.F.);
#858=ADVANCED_FACE('',(#799),#214,.F.);
#859=ADVANCED_FACE('',(#800),#215,.F.);
#860=ADVANCED_FACE('',(#801),#216,.F.);
#861=ADVANCED_FACE('',(#802),#217,.F.);
#862=ADVANCED_FACE('',(#803),#218,.F.);
#863=ADVANCED_FACE('',(#804,#805),#219,.T.);
#864=ADVANCED_FACE('',(#806),#820,.T.);
#865=ADVANCED_FACE('',(#807),#821,.T.);
#866=ADVANCED_FACE('',(#808),#822,.T.);
#867=ADVANCED_FACE('',(#809),#823,.T.);
#868=ADVANCED_FACE('',(#810),#824,.T.);
#869=ADVANCED_FACE('',(#811),#825,.T.);
#870=ADVANCED_FACE('',(#812),#826,.T.);
#871=ADVANCED_FACE('',(#813),#827,.T.);
#872=ADVANCED_FACE('',(#814),#220,.F.);
#873=ADVANCED_FACE('',(#815),#221,.T.);
#874=CLOSED_SHELL('',(#828,#829,#830,#831,#832,#833,#834,#835,#836,#837,
#838,#839,#840,#841,#842,#843,#844,#845,#846,#847,#848,#849,#850,#851,#852,
#853,#854,#855,#856,#857,#858,#859,#860,#861,#862,#863,#864,#865,#866,#867,
#868,#869,#870,#871,#872,#873));
#875=STYLED_ITEM('',(#876),#883);
#876=PRESENTATION_STYLE_ASSIGNMENT((#877));
#877=SURFACE_STYLE_USAGE(.BOTH.,#878);
#878=SURFACE_SIDE_STYLE('',(#879));
#879=SURFACE_STYLE_FILL_AREA(#880);
#880=FILL_AREA_STYLE('',(#881));
#881=FILL_AREA_STYLE_COLOUR('',#882);
#882=COLOUR_RGB('',0.301960784313725,0.301960784313725,0.301960784313725);
#883=MANIFOLD_SOLID_BREP('Part 1',#874);
#884=SHAPE_DEFINITION_REPRESENTATION(#1474,#885);
#885=SHAPE_REPRESENTATION('Part 1',(#886),#1469);
#886=AXIS2_PLACEMENT_3D('',#1217,#967,#968);
#887=AXIS2_PLACEMENT_3D('',#1218,#969,#970);
#888=AXIS2_PLACEMENT_3D('',#1219,#971,#972);
#889=AXIS2_PLACEMENT_3D('',#1222,#973,#974);
#890=AXIS2_PLACEMENT_3D('',#1224,#975,#976);
#891=AXIS2_PLACEMENT_3D('',#1226,#977,#978);
#892=AXIS2_PLACEMENT_3D('',#1228,#979,#980);
#893=AXIS2_PLACEMENT_3D('',#1230,#981,#982);
#894=AXIS2_PLACEMENT_3D('',#1231,#983,#984);
#895=AXIS2_PLACEMENT_3D('',#1233,#985,#986);
#896=AXIS2_PLACEMENT_3D('',#1237,#988,#989);
#897=AXIS2_PLACEMENT_3D('',#1241,#991,#992);
#898=AXIS2_PLACEMENT_3D('',#1251,#997,#998);
#899=AXIS2_PLACEMENT_3D('',#1255,#1000,#1001);
#900=AXIS2_PLACEMENT_3D('',#1256,#1002,#1003);
#901=AXIS2_PLACEMENT_3D('',#1260,#1005,#1006);
#902=AXIS2_PLACEMENT_3D('',#1264,#1008,#1009);
#903=AXIS2_PLACEMENT_3D('',#1268,#1011,#1012);
#904=AXIS2_PLACEMENT_3D('',#1278,#1017,#1018);
#905=AXIS2_PLACEMENT_3D('',#1279,#1019,#1020);
#906=AXIS2_PLACEMENT_3D('',#1292,#1027,#1028);
#907=AXIS2_PLACEMENT_3D('',#1293,#1029,#1030);
#908=AXIS2_PLACEMENT_3D('',#1295,#1031,#1032);
#909=AXIS2_PLACEMENT_3D('',#1297,#1033,#1034);
#910=AXIS2_PLACEMENT_3D('',#1301,#1037,#1038);
#911=AXIS2_PLACEMENT_3D('',#1304,#1040,#1041);
#912=AXIS2_PLACEMENT_3D('',#1308,#1045,#1046);
#913=AXIS2_PLACEMENT_3D('',#1321,#1053,#1054);
#914=AXIS2_PLACEMENT_3D('',#1339,#1064,#1065);
#915=AXIS2_PLACEMENT_3D('',#1350,#1072,#1073);
#916=AXIS2_PLACEMENT_3D('',#1351,#1074,#1075);
#917=AXIS2_PLACEMENT_3D('',#1358,#1079,#1080);
#918=AXIS2_PLACEMENT_3D('',#1369,#1087,#1088);
#919=AXIS2_PLACEMENT_3D('',#1370,#1089,#1090);
#920=AXIS2_PLACEMENT_3D('',#1371,#1091,#1092);
#921=AXIS2_PLACEMENT_3D('',#1372,#1093,#1094);
#922=AXIS2_PLACEMENT_3D('',#1373,#1095,#1096);
#923=AXIS2_PLACEMENT_3D('',#1374,#1097,#1098);
#924=AXIS2_PLACEMENT_3D('',#1378,#1101,#1102);
#925=AXIS2_PLACEMENT_3D('',#1381,#1104,#1105);
#926=AXIS2_PLACEMENT_3D('',#1385,#1109,#1110);
#927=AXIS2_PLACEMENT_3D('',#1386,#1111,#1112);
#928=AXIS2_PLACEMENT_3D('',#1388,#1113,#1114);
#929=AXIS2_PLACEMENT_3D('',#1390,#1115,#1116);
#930=AXIS2_PLACEMENT_3D('',#1391,#1117,#1118);
#931=AXIS2_PLACEMENT_3D('',#1392,#1119,#1120);
#932=AXIS2_PLACEMENT_3D('',#1394,#1121,#1122);
#933=AXIS2_PLACEMENT_3D('',#1395,#1123,#1124);
#934=AXIS2_PLACEMENT_3D('',#1397,#1125,#1126);
#935=AXIS2_PLACEMENT_3D('',#1398,#1127,#1128);
#936=AXIS2_PLACEMENT_3D('',#1400,#1130,#1131);
#937=AXIS2_PLACEMENT_3D('',#1401,#1132,#1133);
#938=AXIS2_PLACEMENT_3D('',#1407,#1137,#1138);
#939=AXIS2_PLACEMENT_3D('',#1411,#1141,#1142);
#940=AXIS2_PLACEMENT_3D('',#1417,#1146,#1147);
#941=AXIS2_PLACEMENT_3D('',#1421,#1150,#1151);
#942=AXIS2_PLACEMENT_3D('',#1424,#1154,#1155);
#943=AXIS2_PLACEMENT_3D('',#1425,#1156,#1157);
#944=AXIS2_PLACEMENT_3D('',#1426,#1158,#1159);
#945=AXIS2_PLACEMENT_3D('',#1428,#1161,#1162);
#946=AXIS2_PLACEMENT_3D('',#1429,#1163,#1164);
#947=AXIS2_PLACEMENT_3D('',#1435,#1168,#1169);
#948=AXIS2_PLACEMENT_3D('',#1439,#1172,#1173);
#949=AXIS2_PLACEMENT_3D('',#1443,#1176,#1177);
#950=AXIS2_PLACEMENT_3D('',#1447,#1180,#1181);
#951=AXIS2_PLACEMENT_3D('',#1451,#1184,#1185);
#952=AXIS2_PLACEMENT_3D('',#1453,#1187,#1188);
#953=AXIS2_PLACEMENT_3D('',#1454,#1189,#1190);
#954=AXIS2_PLACEMENT_3D('',#1455,#1191,#1192);
#955=AXIS2_PLACEMENT_3D('',#1456,#1193,#1194);
#956=AXIS2_PLACEMENT_3D('',#1457,#1195,#1196);
#957=AXIS2_PLACEMENT_3D('',#1458,#1197,#1198);
#958=AXIS2_PLACEMENT_3D('',#1459,#1199,#1200);
#959=AXIS2_PLACEMENT_3D('',#1460,#1201,#1202);
#960=AXIS2_PLACEMENT_3D('',#1461,#1203,#1204);
#961=AXIS2_PLACEMENT_3D('',#1462,#1205,#1206);
#962=AXIS2_PLACEMENT_3D('',#1463,#1207,#1208);
#963=AXIS2_PLACEMENT_3D('',#1464,#1209,#1210);
#964=AXIS2_PLACEMENT_3D('',#1465,#1211,#1212);
#965=AXIS2_PLACEMENT_3D('',#1466,#1213,#1214);
#966=AXIS2_PLACEMENT_3D('',#1467,#1215,#1216);
#967=DIRECTION('',(0.,0.,1.));
#968=DIRECTION('',(1.,0.,0.));
#969=DIRECTION('',(-1.,-2.89120579329468E-16,0.));
#970=DIRECTION('',(2.89120579329468E-16,-1.,0.));
#971=DIRECTION('',(-0.866025403784439,-0.5,0.));
#972=DIRECTION('',(-0.5,0.866025403784439,0.));
#973=DIRECTION('',(-1.,0.,0.));
#974=DIRECTION('',(0.,0.,1.));
#975=DIRECTION('',(-0.866025403784439,-0.5,0.));
#976=DIRECTION('',(-0.5,0.866025403784439,0.));
#977=DIRECTION('',(-0.866025403784439,0.5,0.));
#978=DIRECTION('',(-0.5,-0.866025403784439,0.));
#979=DIRECTION('',(-1.,0.,0.));
#980=DIRECTION('',(0.,0.,1.));
#981=DIRECTION('',(-0.866025403784439,0.5,0.));
#982=DIRECTION('',(-0.5,-0.866025403784439,0.));
#983=DIRECTION('',(-1.,-2.89120579329468E-16,0.));
#984=DIRECTION('',(2.89120579329468E-16,-1.,0.));
#985=DIRECTION('',(0.,0.,1.));
#986=DIRECTION('',(1.,0.,0.));
#987=DIRECTION('',(-2.89120579329468E-16,1.,0.));
#988=DIRECTION('',(0.,0.,1.));
#989=DIRECTION('',(1.,0.,0.));
#990=DIRECTION('',(1.,0.,0.));
#991=DIRECTION('',(0.,0.,1.));
#992=DIRECTION('',(1.,0.,0.));
#993=DIRECTION('',(0.,1.,0.));
#994=DIRECTION('',(0.5,-0.866025403784439,0.));
#995=DIRECTION('',(-0.5,-0.866025403784439,0.));
#996=DIRECTION('',(0.,1.,0.));
#997=DIRECTION('',(0.,0.,1.));
#998=DIRECTION('',(1.,0.,0.));
#999=DIRECTION('',(1.,0.,0.));
#1000=DIRECTION('',(0.,0.,1.));
#1001=DIRECTION('',(1.,0.,0.));
#1002=DIRECTION('',(0.,0.,1.));
#1003=DIRECTION('',(1.,0.,0.));
#1004=DIRECTION('',(1.,0.,0.));
#1005=DIRECTION('',(0.,0.,1.));
#1006=DIRECTION('',(1.,0.,0.));
#1007=DIRECTION('',(-2.89120579329468E-16,1.,0.));
#1008=DIRECTION('',(0.,0.,1.));
#1009=DIRECTION('',(1.,0.,0.));
#1010=DIRECTION('',(1.,0.,0.));
#1011=DIRECTION('',(0.,0.,1.));
#1012=DIRECTION('',(1.,0.,0.));
#1013=DIRECTION('',(0.,1.,0.));
#1014=DIRECTION('',(-0.5,0.866025403784439,0.));
#1015=DIRECTION('',(0.5,0.866025403784439,0.));
#1016=DIRECTION('',(0.,1.,0.));
#1017=DIRECTION('',(0.,0.,1.));
#1018=DIRECTION('',(1.,0.,0.));
#1019=DIRECTION('',(0.,0.,1.));
#1020=DIRECTION('',(1.,0.,0.));
#1021=DIRECTION('',(0.,1.,0.));
#1022=DIRECTION('',(1.,0.,0.));
#1023=DIRECTION('',(0.,1.,0.));
#1024=DIRECTION('',(0.5,0.866025403784439,0.));
#1025=DIRECTION('',(1.,0.,0.));
#1026=DIRECTION('',(0.5,-0.866025403784439,0.));
#1027=DIRECTION('',(0.,0.,-1.));
#1028=DIRECTION('',(-1.,0.,0.));
#1029=DIRECTION('',(0.,0.,1.));
#1030=DIRECTION('',(1.,0.,0.));
#1031=DIRECTION('',(0.,0.,1.));
#1032=DIRECTION('',(1.,0.,0.));
#1033=DIRECTION('',(-1.,0.,0.));
#1034=DIRECTION('',(0.,0.,1.));
#1035=DIRECTION('',(0.,0.,-1.));
#1036=DIRECTION('',(0.,0.,1.));
#1037=DIRECTION('',(-1.,0.,0.));
#1038=DIRECTION('',(0.,0.,1.));
#1039=DIRECTION('',(0.,0.,1.));
#1040=DIRECTION('',(-1.,0.,0.));
#1041=DIRECTION('',(0.,0.,1.));
#1042=DIRECTION('',(0.,0.,-1.));
#1043=DIRECTION('',(0.,0.,1.));
#1044=DIRECTION('',(0.,0.,1.));
#1045=DIRECTION('',(0.,0.,1.));
#1046=DIRECTION('',(1.,0.,0.));
#1047=DIRECTION('',(0.,1.,0.));
#1048=DIRECTION('',(-1.,0.,0.));
#1049=DIRECTION('',(0.,1.,0.));
#1050=DIRECTION('',(-0.5,-0.866025403784439,0.));
#1051=DIRECTION('',(-1.,0.,0.));
#1052=DIRECTION('',(-0.5,0.866025403784439,0.));
#1053=DIRECTION('',(-1.,-2.89120579329468E-16,0.));
#1054=DIRECTION('',(2.89120579329468E-16,-1.,0.));
#1055=DIRECTION('',(1.44560289664734E-16,-0.5,-0.866025403784439));
#1056=DIRECTION('',(-1.44560289664734E-16,0.5,-0.866025403784438));
#1057=DIRECTION('',(-2.89120579329468E-16,1.,2.18518487089041E-15));
#1058=DIRECTION('',(-1.44560289664734E-16,0.5,0.866025403784439));
#1059=DIRECTION('',(1.44560289664734E-16,-0.5,0.866025403784438));
#1060=DIRECTION('',(2.89120579329468E-16,-1.,-1.09259243544521E-15));
#1061=DIRECTION('',(0.,0.,-1.));
#1062=DIRECTION('',(-2.89120579329468E-16,1.,0.));
#1063=DIRECTION('',(0.,0.,-1.));
#1064=DIRECTION('',(0.,1.,0.));
#1065=DIRECTION('',(0.,0.,1.));
#1066=DIRECTION('',(0.,0.,-1.));
#1067=DIRECTION('',(-1.,0.,0.));
#1068=DIRECTION('',(0.,0.,-1.));
#1069=DIRECTION('',(0.,0.,-1.));
#1070=DIRECTION('',(1.,0.,0.));
#1071=DIRECTION('',(0.,0.,-1.));
#1072=DIRECTION('',(-1.,-2.89120579329468E-16,0.));
#1073=DIRECTION('',(2.89120579329468E-16,-1.,0.));
#1074=DIRECTION('',(-1.,-2.89120579329468E-16,0.));
#1075=DIRECTION('',(2.89120579329468E-16,-1.,0.));
#1076=DIRECTION('',(-2.89120579329468E-16,1.,0.));
#1077=DIRECTION('',(0.,0.,-1.));
#1078=DIRECTION('',(0.,0.,-1.));
#1079=DIRECTION('',(0.,1.,0.));
#1080=DIRECTION('',(0.,0.,1.));
#1081=DIRECTION('',(1.,0.,0.));
#1082=DIRECTION('',(0.,0.,-1.));
#1083=DIRECTION('',(0.,0.,-1.));
#1084=DIRECTION('',(1.,0.,0.));
#1085=DIRECTION('',(0.,0.,-1.));
#1086=DIRECTION('',(0.,0.,-1.));
#1087=DIRECTION('',(0.,0.,1.));
#1088=DIRECTION('',(1.,0.,0.));
#1089=DIRECTION('',(0.,0.,1.));
#1090=DIRECTION('',(1.,0.,0.));
#1091=DIRECTION('',(0.,0.,1.));
#1092=DIRECTION('',(1.,0.,0.));
#1093=DIRECTION('',(0.,0.,1.));
#1094=DIRECTION('',(1.,0.,0.));
#1095=DIRECTION('',(0.,0.,1.));
#1096=DIRECTION('',(1.,0.,0.));
#1097=DIRECTION('',(-1.,0.,0.));
#1098=DIRECTION('',(0.,0.,1.));
#1099=DIRECTION('',(0.,0.,-1.));
#1100=DIRECTION('',(0.,0.,-1.));
#1101=DIRECTION('',(-1.,0.,0.));
#1102=DIRECTION('',(0.,0.,1.));
#1103=DIRECTION('',(0.,0.,-1.));
#1104=DIRECTION('',(-1.,0.,0.));
#1105=DIRECTION('',(0.,0.,1.));
#1106=DIRECTION('',(0.,0.,-1.));
#1107=DIRECTION('',(0.,0.,-1.));
#1108=DIRECTION('',(0.,0.,-1.));
#1109=DIRECTION('',(-1.,-2.89120579329468E-16,0.));
#1110=DIRECTION('',(2.89120579329468E-16,-1.,0.));
#1111=DIRECTION('',(0.866025403784439,-0.5,0.));
#1112=DIRECTION('',(-0.5,-0.866025403784439,0.));
#1113=DIRECTION('',(0.866025403784439,-0.5,0.));
#1114=DIRECTION('',(-0.5,-0.866025403784439,0.));
#1115=DIRECTION('',(0.866025403784439,0.5,0.));
#1116=DIRECTION('',(-0.5,0.866025403784439,0.));
#1117=DIRECTION('',(0.866025403784439,0.5,0.));
#1118=DIRECTION('',(-0.5,0.866025403784439,0.));
#1119=DIRECTION('',(-1.,-2.89120579329468E-16,0.));
#1120=DIRECTION('',(2.89120579329468E-16,-1.,0.));
#1121=DIRECTION('',(1.,2.89120579329468E-16,0.));
#1122=DIRECTION('',(-2.89120579329468E-16,1.,0.));
#1123=DIRECTION('',(-1.,-2.89120579329468E-16,0.));
#1124=DIRECTION('',(2.89120579329468E-16,-1.,0.));
#1125=DIRECTION('',(-1.,-2.89120579329468E-16,0.));
#1126=DIRECTION('',(2.89120579329468E-16,-1.,0.));
#1127=DIRECTION('',(0.866025403784439,0.5,0.));
#1128=DIRECTION('',(-0.5,0.866025403784439,0.));
#1129=DIRECTION('',(0.,0.,1.));
#1130=DIRECTION('',(0.866025403784439,-0.5,0.));
#1131=DIRECTION('',(0.5,0.866025403784439,0.));
#1132=DIRECTION('',(0.866025403784439,0.5,0.));
#1133=DIRECTION('',(-0.5,0.866025403784439,0.));
#1134=DIRECTION('',(0.,0.,1.));
#1135=DIRECTION('',(-0.5,0.866025403784439,0.));
#1136=DIRECTION('',(0.,0.,1.));
#1137=DIRECTION('',(0.866025403784439,-0.5,0.));
#1138=DIRECTION('',(0.5,0.866025403784439,0.));
#1139=DIRECTION('',(0.5,0.866025403784438,0.));
#1140=DIRECTION('',(0.,0.,1.));
#1141=DIRECTION('',(-0.866025403784439,0.5,0.));
#1142=DIRECTION('',(-0.5,-0.866025403784439,0.));
#1143=DIRECTION('',(0.,0.,1.));
#1144=DIRECTION('',(-0.5,-0.866025403784439,0.));
#1145=DIRECTION('',(0.,0.,1.));
#1146=DIRECTION('',(-0.866025403784439,-0.5,0.));
#1147=DIRECTION('',(0.5,-0.866025403784439,0.));
#1148=DIRECTION('',(0.,0.,1.));
#1149=DIRECTION('',(0.5,-0.866025403784439,0.));
#1150=DIRECTION('',(0.,0.,1.));
#1151=DIRECTION('',(1.,0.,0.));
#1152=DIRECTION('',(1.,0.,0.));
#1153=DIRECTION('',(-1.,0.,0.));
#1154=DIRECTION('',(0.,1.,0.));
#1155=DIRECTION('',(0.,0.,1.));
#1156=DIRECTION('',(0.,-1.,0.));
#1157=DIRECTION('',(0.,0.,-1.));
#1158=DIRECTION('',(-0.866025403784439,-0.5,0.));
#1159=DIRECTION('',(0.5,-0.866025403784439,0.));
#1160=DIRECTION('',(0.,0.,1.));
#1161=DIRECTION('',(-0.866025403784439,0.5,0.));
#1162=DIRECTION('',(-0.5,-0.866025403784439,0.));
#1163=DIRECTION('',(-2.50385766456193E-16,0.866025403784439,-0.5));
#1164=DIRECTION('',(0.,0.5,0.866025403784439));
#1165=DIRECTION('',(-1.,-2.89120579329468E-16,0.));
#1166=DIRECTION('',(1.44560289664734E-16,-0.5,-0.866025403784439));
#1167=DIRECTION('',(-1.,-2.89120579329468E-16,0.));
#1168=DIRECTION('',(-3.15890957906913E-31,1.09259243544521E-15,-1.));
#1169=DIRECTION('',(0.,1.,1.09259243544521E-15));
#1170=DIRECTION('',(-1.,-2.89120579329468E-16,0.));
#1171=DIRECTION('',(2.89120579329468E-16,-1.,-1.09259243544521E-15));
#1172=DIRECTION('',(2.50385766456193E-16,-0.866025403784438,-0.5));
#1173=DIRECTION('',(0.,0.5,-0.866025403784438));
#1174=DIRECTION('',(-1.,-2.89120579329468E-16,0.));
#1175=DIRECTION('',(1.44560289664734E-16,-0.5,0.866025403784438));
#1176=DIRECTION('',(2.50385766456193E-16,-0.86602540378444,0.5));
#1177=DIRECTION('',(0.,-0.5,-0.866025403784439));
#1178=DIRECTION('',(-1.,-2.89120579329468E-16,0.));
#1179=DIRECTION('',(-1.44560289664734E-16,0.5,0.866025403784439));
#1180=DIRECTION('',(6.31781915813825E-31,-2.18518487089041E-15,1.));
#1181=DIRECTION('',(0.,-1.,-2.18518487089041E-15));
#1182=DIRECTION('',(-1.,-2.89120579329468E-16,0.));
#1183=DIRECTION('',(-2.89120579329468E-16,1.,2.18518487089041E-15));
#1184=DIRECTION('',(-2.50385766456193E-16,0.866025403784438,0.5));
#1185=DIRECTION('',(0.,-0.5,0.866025403784438));
#1186=DIRECTION('',(-1.44560289664734E-16,0.5,-0.866025403784438));
#1187=DIRECTION('',(-1.,-2.89120579329468E-16,0.));
#1188=DIRECTION('',(2.89120579329468E-16,-1.,0.));
#1189=DIRECTION('',(0.,0.,-1.));
#1190=DIRECTION('',(-1.,0.,0.));
#1191=DIRECTION('',(0.,0.,1.));
#1192=DIRECTION('',(1.,0.,0.));
#1193=DIRECTION('',(0.,0.,1.));
#1194=DIRECTION('',(1.,0.,0.));
#1195=DIRECTION('',(0.,0.,-1.));
#1196=DIRECTION('',(-1.,0.,0.));
#1197=DIRECTION('',(0.,0.,1.));
#1198=DIRECTION('',(1.,0.,0.));
#1199=DIRECTION('',(0.,-0.707106781186548,0.707106781186548));
#1200=DIRECTION('',(0.,0.707106781186548,0.707106781186548));
#1201=DIRECTION('',(0.,0.,-1.));
#1202=DIRECTION('',(-1.,0.,0.));
#1203=DIRECTION('',(0.,-0.707106781186548,0.707106781186548));
#1204=DIRECTION('',(0.,-0.707106781186548,-0.707106781186548));
#1205=DIRECTION('',(0.,0.,1.));
#1206=DIRECTION('',(1.,0.,0.));
#1207=DIRECTION('',(0.,-0.707106781186548,-0.707106781186548));
#1208=DIRECTION('',(0.,-0.707106781186548,0.707106781186548));
#1209=DIRECTION('',(0.,0.,-1.));
#1210=DIRECTION('',(-1.,0.,0.));
#1211=DIRECTION('',(0.,-0.707106781186548,-0.707106781186548));
#1212=DIRECTION('',(0.,0.707106781186548,-0.707106781186548));
#1213=DIRECTION('',(0.,-0.707106781186548,-0.707106781186548));
#1214=DIRECTION('',(1.,0.,0.));
#1215=DIRECTION('',(0.,-0.707106781186548,0.707106781186548));
#1216=DIRECTION('',(-1.,0.,0.));
#1217=CARTESIAN_POINT('',(0.,0.,0.));
#1218=CARTESIAN_POINT('',(0.009,-8.67361737988404E-19,0.0145));
#1219=CARTESIAN_POINT('',(-0.0032331615074619,-4.40422048005673E-18,0.0145));
#1220=CARTESIAN_POINT('',(-0.0025,-0.00126987298107781,0.0163573967298153));
#1221=CARTESIAN_POINT('',(-0.0032331615074619,2.60208521396521E-18,0.01675));
#1222=CARTESIAN_POINT('',(-0.0025,-4.19224840027729E-18,0.0145));
#1223=CARTESIAN_POINT('',(-0.0025,-0.00126987298107781,0.0126426032701847));
#1224=CARTESIAN_POINT('',(-0.0032331615074619,-4.40422048005673E-18,0.0145));
#1225=CARTESIAN_POINT('',(-0.0032331615074619,2.60208521396521E-18,0.01225));
#1226=CARTESIAN_POINT('',(-0.00323316150746191,-4.40422048005673E-18,0.0145));
#1227=CARTESIAN_POINT('',(-0.0025,0.00126987298107781,0.0126426032701847));
#1228=CARTESIAN_POINT('',(-0.0025,-4.19224840027729E-18,0.0145));
#1229=CARTESIAN_POINT('',(-0.0025,0.00126987298107781,0.0163573967298153));
#1230=CARTESIAN_POINT('',(-0.00323316150746191,-4.40422048005673E-18,0.0145));
#1231=CARTESIAN_POINT('',(-0.005,-4.91504984860095E-18,0.0145));
#1232=CARTESIAN_POINT('',(-0.005,-0.00225,0.0145));
#1233=CARTESIAN_POINT('',(1.7347234759768E-18,0.,0.0205));
#1234=CARTESIAN_POINT('',(0.009,-8.67361737988404E-19,0.0205));
#1235=CARTESIAN_POINT('',(0.009,-0.004,0.0205));
#1236=CARTESIAN_POINT('',(0.009,0.004,0.0205));
#1237=CARTESIAN_POINT('',(0.007,0.004,0.0205));
#1238=CARTESIAN_POINT('',(0.007,0.006,0.0205));
#1239=CARTESIAN_POINT('',(-1.7347234759768E-18,0.006,0.0205));
#1240=CARTESIAN_POINT('',(0.0045,0.006,0.0205));
#1241=CARTESIAN_POINT('',(0.0045,0.004,0.0205));
#1242=CARTESIAN_POINT('',(0.0025,0.004,0.0205));
#1243=CARTESIAN_POINT('',(0.0025,-8.67361737988404E-19,0.0205));
#1244=CARTESIAN_POINT('',(0.0025,0.0012698729810778,0.0205));
#1245=CARTESIAN_POINT('',(0.00242487113059643,0.0014,0.0205));
#1246=CARTESIAN_POINT('',(0.0032331615074619,3.25260651745652E-19,0.0205));
#1247=CARTESIAN_POINT('',(0.00242487113059642,-0.0014,0.0205));
#1248=CARTESIAN_POINT('',(0.0025,-0.0012698729810778,0.0205));
#1249=CARTESIAN_POINT('',(0.0025,-8.67361737988404E-19,0.0205));
#1250=CARTESIAN_POINT('',(0.0025,-0.004,0.0205));
#1251=CARTESIAN_POINT('',(0.0045,-0.004,0.0205));
#1252=CARTESIAN_POINT('',(0.0045,-0.006,0.0205));
#1253=CARTESIAN_POINT('',(1.7347234759768E-18,-0.006,0.0205));
#1254=CARTESIAN_POINT('',(0.007,-0.006,0.0205));
#1255=CARTESIAN_POINT('',(0.007,-0.004,0.0205));
#1256=CARTESIAN_POINT('',(1.7347234759768E-18,0.,0.0205));
#1257=CARTESIAN_POINT('',(-1.7347234759768E-18,0.006,0.0205));
#1258=CARTESIAN_POINT('',(-0.007,0.006,0.0205));
#1259=CARTESIAN_POINT('',(-0.0045,0.006,0.0205));
#1260=CARTESIAN_POINT('',(-0.007,0.004,0.0205));
#1261=CARTESIAN_POINT('',(-0.009,0.004,0.0205));
#1262=CARTESIAN_POINT('',(-0.009,-8.67361737988404E-19,0.0205));
#1263=CARTESIAN_POINT('',(-0.009,-0.004,0.0205));
#1264=CARTESIAN_POINT('',(-0.007,-0.004,0.0205));
#1265=CARTESIAN_POINT('',(-0.007,-0.006,0.0205));
#1266=CARTESIAN_POINT('',(1.7347234759768E-18,-0.006,0.0205));
#1267=CARTESIAN_POINT('',(-0.0045,-0.006,0.0205));
#1268=CARTESIAN_POINT('',(-0.0045,-0.004,0.0205));
#1269=CARTESIAN_POINT('',(-0.0025,-0.004,0.0205));
#1270=CARTESIAN_POINT('',(-0.0025,-8.67361737988404E-19,0.0205));
#1271=CARTESIAN_POINT('',(-0.0025,-0.00126987298107781,0.0205));
#1272=CARTESIAN_POINT('',(-0.00242487113059643,-0.0014,0.0205));
#1273=CARTESIAN_POINT('',(-0.0032331615074619,2.60208521396521E-18,0.0205));
#1274=CARTESIAN_POINT('',(-0.00242487113059643,0.0014,0.0205));
#1275=CARTESIAN_POINT('',(-0.0025,0.00126987298107781,0.0205));
#1276=CARTESIAN_POINT('',(-0.0025,-8.67361737988404E-19,0.0205));
#1277=CARTESIAN_POINT('',(-0.0025,0.004,0.0205));
#1278=CARTESIAN_POINT('',(-0.0045,0.004,0.0205));
#1279=CARTESIAN_POINT('',(0.,0.,0.0055));
#1280=CARTESIAN_POINT('',(-0.0025,-8.67361737988404E-19,0.0055));
#1281=CARTESIAN_POINT('',(-0.0025,-0.004,0.0055));
#1282=CARTESIAN_POINT('',(-0.0025,-0.00126987298107781,0.0055));
#1283=CARTESIAN_POINT('',(0.0045,-0.004,0.0055));
#1284=CARTESIAN_POINT('',(0.0025,-0.004,0.0055));
#1285=CARTESIAN_POINT('',(0.0025,-8.67361737988404E-19,0.0055));
#1286=CARTESIAN_POINT('',(0.0025,-0.0012698729810778,0.0055));
#1287=CARTESIAN_POINT('',(0.00242487113059643,-0.0014,0.0055));
#1288=CARTESIAN_POINT('',(0.00161658075373095,-0.0028,0.0055));
#1289=CARTESIAN_POINT('',(0.,-0.0028,0.0055));
#1290=CARTESIAN_POINT('',(-0.00161658075373096,-0.0028,0.0055));
#1291=CARTESIAN_POINT('',(-0.00242487113059643,-0.0014,0.0055));
#1292=CARTESIAN_POINT('',(0.,1.28587913910472E-19,0.0055));
#1293=CARTESIAN_POINT('',(0.,1.28587913910472E-19,0.));
#1294=CARTESIAN_POINT('',(0.0021,1.28587913910472E-19,0.));
#1295=CARTESIAN_POINT('',(0.,1.28587913910472E-19,0.0015));
#1296=CARTESIAN_POINT('',(0.0021,1.28587913910472E-19,0.0015));
#1297=CARTESIAN_POINT('',(0.0025,-8.67361737988404E-19,0.0205));
#1298=CARTESIAN_POINT('',(0.0025,-0.004,0.0205));
#1299=CARTESIAN_POINT('',(0.0025,-0.0012698729810778,0.0205));
#1300=CARTESIAN_POINT('',(0.0025,-0.0012698729810778,0.0163573967298153));
#1301=CARTESIAN_POINT('',(0.0025,-2.74664550362994E-18,0.0145));
#1302=CARTESIAN_POINT('',(0.0025,-0.0012698729810778,0.0126426032701847));
#1303=CARTESIAN_POINT('',(0.0025,-0.0012698729810778,0.0205));
#1304=CARTESIAN_POINT('',(-0.0025,-8.67361737988404E-19,0.0205));
#1305=CARTESIAN_POINT('',(-0.0025,-0.004,0.0205));
#1306=CARTESIAN_POINT('',(-0.0025,-0.00126987298107781,0.0205));
#1307=CARTESIAN_POINT('',(-0.0025,-0.00126987298107781,0.0205));
#1308=CARTESIAN_POINT('',(0.,0.,0.0055));
#1309=CARTESIAN_POINT('',(0.0025,-8.67361737988404E-19,0.0055));
#1310=CARTESIAN_POINT('',(0.0025,0.0012698729810778,0.0055));
#1311=CARTESIAN_POINT('',(0.0025,0.004,0.0055));
#1312=CARTESIAN_POINT('',(0.,0.004,0.0055));
#1313=CARTESIAN_POINT('',(-0.0025,0.004,0.0055));
#1314=CARTESIAN_POINT('',(-0.0025,-8.67361737988404E-19,0.0055));
#1315=CARTESIAN_POINT('',(-0.0025,0.00126987298107781,0.0055));
#1316=CARTESIAN_POINT('',(-0.00242487113059643,0.0014,0.0055));
#1317=CARTESIAN_POINT('',(-0.00161658075373095,0.0028,0.0055));
#1318=CARTESIAN_POINT('',(0.,0.0028,0.0055));
#1319=CARTESIAN_POINT('',(0.00161658075373095,0.0028,0.0055));
#1320=CARTESIAN_POINT('',(0.00242487113059643,0.0014,0.0055));
#1321=CARTESIAN_POINT('',(-0.009,-8.67361737988404E-19,0.0055));
#1322=CARTESIAN_POINT('',(-0.009,0.0023815698604072,0.013125));
#1323=CARTESIAN_POINT('',(-0.009,0.00317542648054293,0.0145));
#1324=CARTESIAN_POINT('',(-0.009,0.00158771324027146,0.01175));
#1325=CARTESIAN_POINT('',(-0.009,0.0023815698604072,0.015875));
#1326=CARTESIAN_POINT('',(-0.009,0.00158771324027146,0.01725));
#1327=CARTESIAN_POINT('',(-0.009,-9.75781955236954E-18,0.01725));
#1328=CARTESIAN_POINT('',(-0.009,-0.00158771324027148,0.01725));
#1329=CARTESIAN_POINT('',(-0.009,-0.00238156986040721,0.015875));
#1330=CARTESIAN_POINT('',(-0.009,-0.00317542648054295,0.0145));
#1331=CARTESIAN_POINT('',(-0.009,-0.00238156986040721,0.013125));
#1332=CARTESIAN_POINT('',(-0.009,-0.00158771324027147,0.01175));
#1333=CARTESIAN_POINT('',(-0.009,-2.60208521396521E-18,0.01175));
#1334=CARTESIAN_POINT('',(-0.009,0.004,0.0055));
#1335=CARTESIAN_POINT('',(-0.009,0.004,0.));
#1336=CARTESIAN_POINT('',(-0.009,-8.67361737988404E-19,0.));
#1337=CARTESIAN_POINT('',(-0.009,-0.004,0.));
#1338=CARTESIAN_POINT('',(-0.009,-0.004,0.0205));
#1339=CARTESIAN_POINT('',(1.7347234759768E-18,-0.006,0.0055));
#1340=CARTESIAN_POINT('',(0.0045,-0.006,0.0055));
#1341=CARTESIAN_POINT('',(0.0045,-0.006,0.0035));
#1342=CARTESIAN_POINT('',(-0.0045,-0.006,0.0035));
#1343=CARTESIAN_POINT('',(-0.0045,-0.006,0.0035));
#1344=CARTESIAN_POINT('',(-0.0045,-0.006,0.0055));
#1345=CARTESIAN_POINT('',(-0.007,-0.006,0.));
#1346=CARTESIAN_POINT('',(-0.007,-0.006,0.));
#1347=CARTESIAN_POINT('',(1.7347234759768E-18,-0.006,0.));
#1348=CARTESIAN_POINT('',(0.007,-0.006,0.));
#1349=CARTESIAN_POINT('',(0.007,-0.006,0.0055));
#1350=CARTESIAN_POINT('',(0.009,-8.67361737988404E-19,0.0055));
#1351=CARTESIAN_POINT('',(0.009,-8.67361737988404E-19,0.0145));
#1352=CARTESIAN_POINT('',(0.009,-0.003,0.0145));
#1353=CARTESIAN_POINT('',(0.009,-8.67361737988404E-19,0.));
#1354=CARTESIAN_POINT('',(0.009,-0.004,0.));
#1355=CARTESIAN_POINT('',(0.009,0.004,0.));
#1356=CARTESIAN_POINT('',(0.009,0.004,0.0205));
#1357=CARTESIAN_POINT('',(0.009,-0.004,0.0055));
#1358=CARTESIAN_POINT('',(-1.7347234759768E-18,0.006,0.0055));
#1359=CARTESIAN_POINT('',(-1.7347234759768E-18,0.006,0.0035));
#1360=CARTESIAN_POINT('',(-0.0045,0.006,0.0035));
#1361=CARTESIAN_POINT('',(0.0045,0.006,0.0035));
#1362=CARTESIAN_POINT('',(0.0045,0.006,0.0055));
#1363=CARTESIAN_POINT('',(0.007,0.006,0.));
#1364=CARTESIAN_POINT('',(0.007,0.006,0.));
#1365=CARTESIAN_POINT('',(-1.7347234759768E-18,0.006,0.));
#1366=CARTESIAN_POINT('',(-0.007,0.006,0.));
#1367=CARTESIAN_POINT('',(-0.007,0.006,0.0055));
#1368=CARTESIAN_POINT('',(-0.0045,0.006,0.0055));
#1369=CARTESIAN_POINT('',(0.,0.,0.));
#1370=CARTESIAN_POINT('',(-0.007,0.004,0.));
#1371=CARTESIAN_POINT('',(0.007,0.004,0.));
#1372=CARTESIAN_POINT('',(0.007,-0.004,0.));
#1373=CARTESIAN_POINT('',(-0.007,-0.004,0.));
#1374=CARTESIAN_POINT('',(0.0025,-8.67361737988404E-19,0.0205));
#1375=CARTESIAN_POINT('',(0.0025,0.004,0.0205));
#1376=CARTESIAN_POINT('',(0.0025,0.0012698729810778,0.0205));
#1377=CARTESIAN_POINT('',(0.0025,0.0012698729810778,0.0126426032701847));
#1378=CARTESIAN_POINT('',(0.0025,-2.74664550362994E-18,0.0145));
#1379=CARTESIAN_POINT('',(0.0025,0.0012698729810778,0.0163573967298153));
#1380=CARTESIAN_POINT('',(0.0025,0.0012698729810778,0.0205));
#1381=CARTESIAN_POINT('',(-0.0025,-8.67361737988404E-19,0.0205));
#1382=CARTESIAN_POINT('',(-0.0025,0.004,0.0205));
#1383=CARTESIAN_POINT('',(-0.0025,0.00126987298107781,0.0205));
#1384=CARTESIAN_POINT('',(-0.0025,0.00126987298107781,0.0205));
#1385=CARTESIAN_POINT('',(0.009,-8.67361737988404E-19,0.0145));
#1386=CARTESIAN_POINT('',(0.0032331615074619,-2.5346734238505E-18,0.0145));
#1387=CARTESIAN_POINT('',(0.0032331615074619,3.25260651745652E-19,0.01225));
#1388=CARTESIAN_POINT('',(0.0032331615074619,-2.5346734238505E-18,0.0145));
#1389=CARTESIAN_POINT('',(0.0032331615074619,3.25260651745652E-19,0.01675));
#1390=CARTESIAN_POINT('',(0.0032331615074619,-2.5346734238505E-18,0.0145));
#1391=CARTESIAN_POINT('',(0.0032331615074619,-2.5346734238505E-18,0.0145));
#1392=CARTESIAN_POINT('',(0.007,-1.44560289664734E-18,0.0145));
#1393=CARTESIAN_POINT('',(0.007,-0.00225,0.0145));
#1394=CARTESIAN_POINT('',(0.007,0.003,0.0145));
#1395=CARTESIAN_POINT('',(0.007,-1.44560289664734E-18,0.0145));
#1396=CARTESIAN_POINT('',(0.007,-0.003,0.0145));
#1397=CARTESIAN_POINT('',(0.009,-8.67361737988404E-19,0.0145));
#1398=CARTESIAN_POINT('',(0.00242487113059643,0.0014,0.0015));
#1399=CARTESIAN_POINT('',(0.0032331615074619,3.25260651745652E-19,0.0015));
#1400=CARTESIAN_POINT('',(0.00242487113059642,-0.0014,0.0015));
#1401=CARTESIAN_POINT('',(0.00242487113059643,0.0014,0.0015));
#1402=CARTESIAN_POINT('',(0.00161658075373095,0.0028,0.0015));
#1403=CARTESIAN_POINT('',(0.00161658075373095,0.0028,0.0015));
#1404=CARTESIAN_POINT('',(0.00242487113059643,0.0014,0.0015));
#1405=CARTESIAN_POINT('',(0.0032331615074619,3.25260651745652E-19,0.0015));
#1406=CARTESIAN_POINT('',(0.0032331615074619,3.25260651745652E-19,0.0015));
#1407=CARTESIAN_POINT('',(0.00242487113059642,-0.0014,0.0015));
#1408=CARTESIAN_POINT('',(0.00242487113059642,-0.0014,0.0015));
#1409=CARTESIAN_POINT('',(0.00161658075373095,-0.0028,0.0015));
#1410=CARTESIAN_POINT('',(0.00161658075373095,-0.0028,0.0015));
#1411=CARTESIAN_POINT('',(-0.00242487113059643,0.0014,0.0015));
#1412=CARTESIAN_POINT('',(-0.0032331615074619,2.60208521396521E-18,0.0015));
#1413=CARTESIAN_POINT('',(-0.0032331615074619,2.60208521396521E-18,0.0015));
#1414=CARTESIAN_POINT('',(-0.00242487113059643,0.0014,0.0015));
#1415=CARTESIAN_POINT('',(-0.00161658075373095,0.0028,0.0015));
#1416=CARTESIAN_POINT('',(-0.00161658075373095,0.0028,0.0015));
#1417=CARTESIAN_POINT('',(-0.00242487113059643,-0.0014,0.0015));
#1418=CARTESIAN_POINT('',(-0.00161658075373096,-0.0028,0.0015));
#1419=CARTESIAN_POINT('',(-0.00161658075373096,-0.0028,0.0015));
#1420=CARTESIAN_POINT('',(-0.00242487113059643,-0.0014,0.0015));
#1421=CARTESIAN_POINT('',(-8.67361737988404E-19,0.,0.0015));
#1422=CARTESIAN_POINT('',(-4.33680868994202E-19,-0.0028,0.0015));
#1423=CARTESIAN_POINT('',(0.,0.0028,0.0015));
#1424=CARTESIAN_POINT('',(0.,0.0028,0.0015));
#1425=CARTESIAN_POINT('',(-4.33680868994202E-19,-0.0028,0.0015));
#1426=CARTESIAN_POINT('',(-0.00242487113059643,-0.0014,0.0015));
#1427=CARTESIAN_POINT('',(-0.0032331615074619,2.60208521396521E-18,0.0015));
#1428=CARTESIAN_POINT('',(-0.00242487113059643,0.0014,0.0015));
#1429=CARTESIAN_POINT('',(-0.005,0.0023815698604072,0.013125));
#1430=CARTESIAN_POINT('',(-0.005,0.00158771324027146,0.01175));
#1431=CARTESIAN_POINT('',(-0.005,0.00158771324027146,0.01175));
#1432=CARTESIAN_POINT('',(-0.005,0.0023815698604072,0.013125));
#1433=CARTESIAN_POINT('',(-0.005,0.00317542648054293,0.0145));
#1434=CARTESIAN_POINT('',(-0.005,0.00317542648054293,0.0145));
#1435=CARTESIAN_POINT('',(-0.005,-1.44560289664734E-18,0.01175));
#1436=CARTESIAN_POINT('',(-0.005,-0.00158771324027147,0.01175));
#1437=CARTESIAN_POINT('',(-0.005,-0.00158771324027147,0.01175));
#1438=CARTESIAN_POINT('',(-0.005,-1.44560289664734E-18,0.01175));
#1439=CARTESIAN_POINT('',(-0.005,-0.00238156986040721,0.013125));
#1440=CARTESIAN_POINT('',(-0.005,-0.00317542648054295,0.0145));
#1441=CARTESIAN_POINT('',(-0.005,-0.00317542648054295,0.0145));
#1442=CARTESIAN_POINT('',(-0.005,-0.00238156986040721,0.013125));
#1443=CARTESIAN_POINT('',(-0.005,-0.00238156986040721,0.015875));
#1444=CARTESIAN_POINT('',(-0.005,-0.00158771324027148,0.01725));
#1445=CARTESIAN_POINT('',(-0.005,-0.00158771324027148,0.01725));
#1446=CARTESIAN_POINT('',(-0.005,-0.00238156986040721,0.015875));
#1447=CARTESIAN_POINT('',(-0.005,-8.60133723505167E-18,0.01725));
#1448=CARTESIAN_POINT('',(-0.005,0.00158771324027146,0.01725));
#1449=CARTESIAN_POINT('',(-0.005,0.00158771324027146,0.01725));
#1450=CARTESIAN_POINT('',(-0.005,-8.60133723505167E-18,0.01725));
#1451=CARTESIAN_POINT('',(-0.005,0.0023815698604072,0.015875));
#1452=CARTESIAN_POINT('',(-0.005,0.0023815698604072,0.015875));
#1453=CARTESIAN_POINT('',(-0.005,2.89120579329469E-19,0.01025));
#1454=CARTESIAN_POINT('',(-0.007,0.004,0.0055));
#1455=CARTESIAN_POINT('',(-0.007,-0.004,0.0055));
#1456=CARTESIAN_POINT('',(0.007,0.004,0.0055));
#1457=CARTESIAN_POINT('',(0.007,-0.004,0.0055));
#1458=CARTESIAN_POINT('',(0.0045,-0.004,0.0055));
#1459=CARTESIAN_POINT('',(0.0045,-0.004,0.0055));
#1460=CARTESIAN_POINT('',(-0.0045,-0.004,0.0205));
#1461=CARTESIAN_POINT('',(-0.0045,-0.004,0.0055));
#1462=CARTESIAN_POINT('',(-0.0045,0.004,0.0055));
#1463=CARTESIAN_POINT('',(-0.0045,0.004,0.0055));
#1464=CARTESIAN_POINT('',(0.0045,0.004,0.0205));
#1465=CARTESIAN_POINT('',(0.0045,0.004,0.0055));
#1466=CARTESIAN_POINT('',(-1.7347234759768E-18,0.006,0.0035));
#1467=CARTESIAN_POINT('',(0.,-0.004,0.0055));
#1468=MECHANICAL_DESIGN_GEOMETRIC_PRESENTATION_REPRESENTATION('',(#875),
#1469);
#1469=(
GEOMETRIC_REPRESENTATION_CONTEXT(3)
GLOBAL_UNCERTAINTY_ASSIGNED_CONTEXT((#1470))
GLOBAL_UNIT_ASSIGNED_CONTEXT((#1473,#1472,#1471))
REPRESENTATION_CONTEXT('Part 1','TOP_LEVEL_ASSEMBLY_PART')
);
#1470=UNCERTAINTY_MEASURE_WITH_UNIT(LENGTH_MEASURE(1.E-8),#1473,
'DISTANCE_ACCURACY_VALUE','Maximum Tolerance applied to model');
#1471=(
NAMED_UNIT(*)
SI_UNIT($,.STERADIAN.)
SOLID_ANGLE_UNIT()
);
#1472=(
NAMED_UNIT(*)
PLANE_ANGLE_UNIT()
SI_UNIT($,.RADIAN.)
);
#1473=(
LENGTH_UNIT()
NAMED_UNIT(*)
SI_UNIT($,.METRE.)
);
#1474=PRODUCT_DEFINITION_SHAPE('','',#1475);
#1475=PRODUCT_DEFINITION('','',#1477,#1476);
#1476=PRODUCT_DEFINITION_CONTEXT('',#1483,'design');
#1477=PRODUCT_DEFINITION_FORMATION_WITH_SPECIFIED_SOURCE('','',#1479,
 .NOT_KNOWN.);
#1478=PRODUCT_RELATED_PRODUCT_CATEGORY('','',(#1479));
#1479=PRODUCT('Part 1','Part 1','Part 1',(#1481));
#1480=PRODUCT_CATEGORY('','');
#1481=PRODUCT_CONTEXT('',#1483,'mechanical');
#1482=APPLICATION_PROTOCOL_DEFINITION('international standard',
'ap242_managed_model_based_3d_engineering',2011,#1483);
#1483=APPLICATION_CONTEXT('managed model based 3d engineering');
ENDSEC;
END-ISO-10303-21;
